M48
;Layer_Color=9474304
;FILE_FORMAT=4:4
METRIC,LZ
;TYPE=PLATED
T1F00S00C0.3000
T2F00S00C0.6000
T3F00S00C0.7000
T4F00S00C0.9000
T5F00S00C1.1000
T6F00S00C1.2000
T7F00S00C3.3000
;TYPE=NON_PLATED
T9F00S00C2.0000
%
T01
X00693Y00036
X00712Y00037
X00715Y00022
X00728Y00029
X00743Y00036
X00751Y00022
X00765Y00034
X0078Y00028
X00791Y00024
X00792Y0004
X00805Y00032
X00817Y0004
X00819Y00024
X00838Y00037
X0085Y00028
X00869Y0003
X00884Y00028
X00897Y00025
X00896Y00039
X00879Y0004
X00857Y00042
X00913Y00036
X00916Y00025
X00928Y00011
X00936Y00081
X00971Y00082
X00984Y00085
X00992Y0007
X00981Y00109
X00988Y00131
X00963Y00124
X00971Y00146
X00957Y00171
X00986Y00172
X00971Y00195
X00982Y00208
X00964Y00222
X00945Y00235
X00909Y00233
X00869
X00836Y00232
X00802Y00234
X00765Y00255
X00724Y00233
X00694Y00235
X00688Y00181
X00746Y00173
X00755Y00177
X00816Y00175
X00827
X00888Y00172
X00899Y00178
X00958Y00098
X00977Y00254
X00659Y00234
X00627Y00232
X00593Y00235
X00558Y00232
X00529Y00214
X00501Y00225
X00493Y002
X00482Y00207
X00473Y00196
X00464Y00189
X00463Y00234
X00445Y00245
X0043235Y00236
X00391Y0024
X00378
X00485Y00244
X00542Y00164
X00614
X00604Y00175
X00675Y00181
X00677Y00039
X00668Y00029
X00681Y0002
X00645Y00023
X00634Y00029
X00625Y00038
X00605
X00613Y00029
X0059Y00031
X00571Y00029
X00563Y0004
X00551Y0003
X00528Y00031
X0051Y0003
X00521Y00016
X00484Y0002
X00473Y00032
X00453Y00029
X00442Y00044
X00423Y00049
X0043Y00025
X00463Y00053
X00486Y00043
X00516Y00055
X00495Y00081
X00654Y00038
X00209Y00047
X00196Y00036
X00207Y00013
X00178Y00018
X00172Y00048
X00183Y00067
Y00099
X00204Y00102
X00213Y0011
X00215Y00091
X00198Y00136
X00187Y00147
X00167Y0015
X00156Y00138
X00143Y0013
X0013Y00121
X00116
X00104Y00121
X00102Y00102
X00086Y00103
X0008Y00115
X00074Y00133
Y00152
X00068Y00172
X0005Y00158
X0002Y00158
X00038Y00132
X00046Y00105
X00066Y00097
X00075Y00084
X00058Y0008
X00108Y00059
X0013Y00061
X00145Y00083
X0015Y0011
X0016Y00102
X0013Y00103
X00121Y00097
Y00147
X0011
Y00157
Y00169
X00121
X00099
Y00147
X00098Y00211
X00081
X00035Y00214
X00062Y00245
X0019Y00239
X00203Y00235
X00228Y00241
Y00229
X00277Y00223
Y00206
X0016Y00182
X00146
X00135Y0018
X00117Y00025
Y00014
X00145Y00347
X00186Y0033
X0020665Y00327
X00219Y0033
X00253Y00326
X00273Y0033
X00277Y00342
X00288Y00326
X0026365Y0027465
X0022865Y0027435
X00232Y00396
X00256Y00422
X00248Y00432
X0024Y0044
X00265Y00432
X00284Y00467
X0025Y0048
X00204Y00454
X00179Y00441
X00154Y00448
X0014Y00415
X0008Y0043
X00095Y0046
X0008Y0048
X00125
X00055Y00405
X00025Y00395
X00015Y0042
X00034Y00357
X00297Y00396
X00321Y00391
X00342
X00367Y00401
X00366Y00424
X00412Y00415
X00413999Y00392999
X00427Y00395
X00436Y00351
X00437Y00334
Y00324
X00455Y00328
X00457Y00344
X0047
X00484Y00351
X0048535Y00323
X00499Y00325
X00519Y00327
X00541Y00331
X00531Y00343
X00516Y00356
X005Y00382
X00487
X00477Y00374
X00489Y00417
X005
X00483Y00424
X005Y00463
X00515Y00455
X0053Y00445
X0055Y00475
X0058
X006Y0045
X0061Y0044
X00642Y00443
X00643Y0046
X0065Y00432
Y00417
X00643Y00424
Y0041
X0065Y00401
X00648Y00392
X0066Y00381
X00665999Y00370999
X00672Y00363
X00665Y00357
X00669Y00344
X00678Y00333
X00685Y00304
Y00292
Y0028
X00648Y00286
X00646Y00302
X00639Y00315
X00652Y00321
X00611Y00342
Y00352
X00622Y00353
X00623Y00381
X00582Y00395
X00565Y00382
X00552
X0054
X00562Y00339
X00588Y00336
X00599Y00342
X0059Y00285
X00565Y00279
X00561Y00292
X00572Y0026
X00606Y00258
X00617Y0028
X00631Y00269
X00685Y00377
X00669Y00436
X00473Y00298
X00445Y00278
X0041965Y0027835
X0036565Y0032
X00381Y00336
X00377Y00365
X00369Y00357
X00306Y00416
X00307999Y00439999
X00298Y0044
X00365Y0048
X00687Y004618
X00702Y00467
X00698Y00439
X00704Y00421
X00724Y00409
X00736Y00407
X00727Y00395
X00705Y00385
X00715Y00374
X00706Y00358
X00719Y00343
X00698Y00335
X00686Y00341
X00729Y00316
X00737Y00323
X00759Y00319
Y00335
X00767Y00329
X00766Y00309
X0079
X00804Y00305
X00814Y00303
X00815Y00319
X00826Y00316
X00817Y00352
X0081Y00363
X00797Y00364
X00775Y00361
X007745Y00346
X00786Y00332
X00784Y00393
X00796Y00403
X0079Y00423
X00804Y00435
X00817Y00418
X00826Y00403
X0085Y00411
X00853Y00383
X00864Y00351
X00867Y00309
X00849Y00292
X00857Y00271
X00827Y00268
X00807Y00264
X00747Y00285
X00736Y00291
X00725Y00302
X00723Y00265
X00706
X00698Y0028
X0074Y00426
X00731Y00436
X00727Y00455
X00732Y00483
X00771Y00487
Y00458
X00798Y00463
X00801Y00486
X00841Y00465
X00836Y00443
X00861Y00447
X00886Y00449
X00866Y00471
X00917Y00484
X00922Y0044
X00917Y00406
X00943Y00411
X00933Y00387
X00964Y00386
X00978Y00367
X00944Y00365
X00922Y00354
X00898Y00365
X00912Y00321
X00936Y0033
X00972Y00331
X00965Y00307
X00984Y00289
X0096Y00266
X00926Y0029
X00892Y00276
X00825Y00366
X00759Y00427
T02
X00097Y00043
X00137
T03
X00315Y002409
X00107Y002439
Y002693
Y002947
Y003201
X00315Y003171
Y002917
Y002663
T04
X00603Y004745
X006035Y00475
X006284Y004745
X006289Y00475
X006538Y004745
X006543Y00475
X006792Y004745
X006797Y00475
T05
X001536Y00478
X00179
X002044
X00229
X002716
X00297
X003224
X00347
X003854
X004108
X004362
X004616
X00487
X00524Y00307
X005486
X00574
X005994
T06
X00699Y0008
X00734
X00769
X00804
X00839
X00874
X00909
X00664
X00629
X00594
X00559
X00524
X004645
X004295
X003695
X003345
X002995
X002645
X001985
X001635
X001285
X000935
T07
X0096Y0004
X0004
Y0046
X0096
T09
X007565Y002375
X005255Y002385
Y004735
X007565
M30
