G04 Layer_Color=8388736*
%FSLAX44Y44*%
%MOMM*%
G71*
G01*
G75*
%ADD69C,3.0000*%
%ADD70R,1.3500X1.3500*%
G04:AMPARAMS|DCode=71|XSize=1.65mm|YSize=1.15mm|CornerRadius=0.325mm|HoleSize=0mm|Usage=FLASHONLY|Rotation=0.000|XOffset=0mm|YOffset=0mm|HoleType=Round|Shape=RoundedRectangle|*
%AMROUNDEDRECTD71*
21,1,1.6500,0.5000,0,0,0.0*
21,1,1.0000,1.1500,0,0,0.0*
1,1,0.6500,0.5000,-0.2500*
1,1,0.6500,-0.5000,-0.2500*
1,1,0.6500,-0.5000,0.2500*
1,1,0.6500,0.5000,0.2500*
%
%ADD71ROUNDEDRECTD71*%
%ADD72R,1.3500X1.3500*%
G04:AMPARAMS|DCode=73|XSize=0.65mm|YSize=1.4mm|CornerRadius=0.2mm|HoleSize=0mm|Usage=FLASHONLY|Rotation=270.000|XOffset=0mm|YOffset=0mm|HoleType=Round|Shape=RoundedRectangle|*
%AMROUNDEDRECTD73*
21,1,0.6500,1.0000,0,0,270.0*
21,1,0.2500,1.4000,0,0,270.0*
1,1,0.4000,-0.5000,-0.1250*
1,1,0.4000,-0.5000,0.1250*
1,1,0.4000,0.5000,0.1250*
1,1,0.4000,0.5000,-0.1250*
%
%ADD73ROUNDEDRECTD73*%
G04:AMPARAMS|DCode=74|XSize=1.35mm|YSize=0.95mm|CornerRadius=0.275mm|HoleSize=0mm|Usage=FLASHONLY|Rotation=90.000|XOffset=0mm|YOffset=0mm|HoleType=Round|Shape=RoundedRectangle|*
%AMROUNDEDRECTD74*
21,1,1.3500,0.4000,0,0,90.0*
21,1,0.8000,0.9500,0,0,90.0*
1,1,0.5500,0.2000,0.4000*
1,1,0.5500,0.2000,-0.4000*
1,1,0.5500,-0.2000,-0.4000*
1,1,0.5500,-0.2000,0.4000*
%
%ADD74ROUNDEDRECTD74*%
%ADD75C,0.1500*%
%ADD76O,1.6500X2.1500*%
%ADD77C,2.1500*%
%ADD78C,1.7500*%
%ADD79C,1.4500*%
%ADD80C,5.1500*%
%ADD81C,6.1500*%
D69*
X979000Y404000D02*
D03*
X22000Y91000D02*
D03*
D70*
X909000Y160000D02*
D03*
Y138000D02*
D03*
X874000Y160000D02*
D03*
Y138000D02*
D03*
X839000Y161000D02*
D03*
Y139000D02*
D03*
X803000Y161000D02*
D03*
Y139000D02*
D03*
X768000Y161000D02*
D03*
Y139000D02*
D03*
X733000Y161000D02*
D03*
Y139000D02*
D03*
X698000Y162000D02*
D03*
Y140000D02*
D03*
X663000Y162000D02*
D03*
Y140000D02*
D03*
X628000Y163000D02*
D03*
Y141000D02*
D03*
X592000Y163000D02*
D03*
Y141000D02*
D03*
X558000Y164000D02*
D03*
Y142000D02*
D03*
X20000Y141000D02*
D03*
Y119000D02*
D03*
X51000Y141000D02*
D03*
Y119000D02*
D03*
D71*
X892465Y384860D02*
D03*
X817535D02*
D03*
X892465Y339140D02*
D03*
X817535D02*
D03*
X892465Y294860D02*
D03*
X817535D02*
D03*
X892465Y249140D02*
D03*
X817535D02*
D03*
X891465Y475860D02*
D03*
X816535D02*
D03*
X891465Y430140D02*
D03*
X816535D02*
D03*
D72*
X390000Y353000D02*
D03*
X412000D02*
D03*
X390000Y378000D02*
D03*
X412000D02*
D03*
X390000Y404000D02*
D03*
X412000D02*
D03*
D73*
X57000Y279000D02*
D03*
Y297000D02*
D03*
X20000Y279000D02*
D03*
Y297000D02*
D03*
D74*
X470350Y248500D02*
D03*
Y311500D02*
D03*
X457650D02*
D03*
Y248500D02*
D03*
X432350D02*
D03*
Y311500D02*
D03*
X419650D02*
D03*
Y248500D02*
D03*
X378650Y310500D02*
D03*
Y247500D02*
D03*
X391350D02*
D03*
Y310500D02*
D03*
X276350Y248500D02*
D03*
Y311500D02*
D03*
X263650D02*
D03*
Y248500D02*
D03*
X241350D02*
D03*
Y311500D02*
D03*
X228650D02*
D03*
Y248500D02*
D03*
X190650Y311500D02*
D03*
Y248500D02*
D03*
X203350D02*
D03*
Y311500D02*
D03*
D75*
X97000Y43000D02*
D03*
X137000D02*
D03*
X525500Y473500D02*
D03*
X756500D02*
D03*
Y237500D02*
D03*
X525500Y238500D02*
D03*
D76*
X84000Y21000D02*
D03*
X150000Y20000D02*
D03*
D77*
X198500Y80000D02*
D03*
X163500D02*
D03*
X93500D02*
D03*
X128500D02*
D03*
X429500D02*
D03*
X464500D02*
D03*
X874000D02*
D03*
X909000D02*
D03*
X629000D02*
D03*
X594000D02*
D03*
X524000D02*
D03*
X559000D02*
D03*
X664000D02*
D03*
X699000D02*
D03*
X734000D02*
D03*
X769000D02*
D03*
X839000D02*
D03*
X804000D02*
D03*
X299500D02*
D03*
X264500D02*
D03*
X334500D02*
D03*
X369500D02*
D03*
D78*
X653800Y474500D02*
D03*
X603000D02*
D03*
X628400D02*
D03*
X679200D02*
D03*
X229000Y478000D02*
D03*
X204400D02*
D03*
X153600D02*
D03*
X179000D02*
D03*
X347000D02*
D03*
X322400D02*
D03*
X271600D02*
D03*
X297000D02*
D03*
X524000Y307000D02*
D03*
X548600D02*
D03*
X599400D02*
D03*
X574000D02*
D03*
X385400Y478000D02*
D03*
X410800D02*
D03*
X436200D02*
D03*
X487000D02*
D03*
X461600D02*
D03*
X679700Y475000D02*
D03*
X628900D02*
D03*
X603500D02*
D03*
X654300D02*
D03*
D79*
X315000Y317100D02*
D03*
Y291700D02*
D03*
Y266300D02*
D03*
Y240900D02*
D03*
X107000Y320100D02*
D03*
Y294700D02*
D03*
Y269300D02*
D03*
Y243900D02*
D03*
D80*
X40000Y40000D02*
D03*
X960000D02*
D03*
D81*
Y460000D02*
D03*
X40000D02*
D03*
M02*
