G04 Layer_Physical_Order=1*
G04 Layer_Color=120*
%FSLAX44Y44*%
%MOMM*%
G71*
G01*
G75*
%ADD10C,1.0000*%
%ADD11R,1.2000X1.2000*%
G04:AMPARAMS|DCode=12|XSize=1.5mm|YSize=1mm|CornerRadius=0.25mm|HoleSize=0mm|Usage=FLASHONLY|Rotation=0.000|XOffset=0mm|YOffset=0mm|HoleType=Round|Shape=RoundedRectangle|*
%AMROUNDEDRECTD12*
21,1,1.5000,0.5000,0,0,0.0*
21,1,1.0000,1.0000,0,0,0.0*
1,1,0.5000,0.5000,-0.2500*
1,1,0.5000,-0.5000,-0.2500*
1,1,0.5000,-0.5000,0.2500*
1,1,0.5000,0.5000,0.2500*
%
%ADD12ROUNDEDRECTD12*%
%ADD13R,1.2000X1.2000*%
G04:AMPARAMS|DCode=14|XSize=0.5mm|YSize=1.25mm|CornerRadius=0.125mm|HoleSize=0mm|Usage=FLASHONLY|Rotation=270.000|XOffset=0mm|YOffset=0mm|HoleType=Round|Shape=RoundedRectangle|*
%AMROUNDEDRECTD14*
21,1,0.5000,1.0000,0,0,270.0*
21,1,0.2500,1.2500,0,0,270.0*
1,1,0.2500,-0.5000,-0.1250*
1,1,0.2500,-0.5000,0.1250*
1,1,0.2500,0.5000,0.1250*
1,1,0.2500,0.5000,-0.1250*
%
%ADD14ROUNDEDRECTD14*%
G04:AMPARAMS|DCode=15|XSize=1.2mm|YSize=0.8mm|CornerRadius=0.2mm|HoleSize=0mm|Usage=FLASHONLY|Rotation=90.000|XOffset=0mm|YOffset=0mm|HoleType=Round|Shape=RoundedRectangle|*
%AMROUNDEDRECTD15*
21,1,1.2000,0.4000,0,0,90.0*
21,1,0.8000,0.8000,0,0,90.0*
1,1,0.4000,0.2000,0.4000*
1,1,0.4000,0.2000,-0.4000*
1,1,0.4000,-0.2000,-0.4000*
1,1,0.4000,-0.2000,0.4000*
%
%ADD15ROUNDEDRECTD15*%
%ADD16C,0.2000*%
%ADD17C,0.3000*%
%ADD18C,0.5000*%
%ADD19R,7.3000X0.9000*%
%ADD20O,1.5000X2.0000*%
%ADD21C,2.0000*%
%ADD22C,1.6000*%
%ADD23C,1.3000*%
%ADD24C,5.0000*%
%ADD25C,6.0000*%
%ADD26C,0.6000*%
G36*
X941358Y493730D02*
X937300Y491244D01*
X932692Y487308D01*
X928756Y482700D01*
X925590Y477533D01*
X923271Y471934D01*
X921856Y466041D01*
X921381Y460000D01*
X921856Y453959D01*
X923271Y448066D01*
X925590Y442467D01*
X928756Y437300D01*
X932692Y432692D01*
X937300Y428756D01*
X942467Y425590D01*
X948066Y423271D01*
X953959Y421856D01*
X960000Y421381D01*
X966041Y421856D01*
X971934Y423271D01*
X977533Y425590D01*
X982700Y428756D01*
X987308Y432692D01*
X991244Y437300D01*
X993730Y441358D01*
X995000Y441000D01*
Y413117D01*
X993730Y412732D01*
X992262Y414929D01*
X989929Y417262D01*
X987185Y419095D01*
X984136Y420358D01*
X980900Y421002D01*
X977600D01*
X974364Y420358D01*
X971315Y419095D01*
X968571Y417262D01*
X966238Y414929D01*
X964405Y412185D01*
X963142Y409136D01*
X962498Y405900D01*
Y402600D01*
X963142Y399364D01*
X964405Y396315D01*
X966238Y393571D01*
X968571Y391238D01*
X971315Y389405D01*
X974364Y388142D01*
X977600Y387498D01*
X980900D01*
X984136Y388142D01*
X987185Y389405D01*
X989929Y391238D01*
X992262Y393571D01*
X993730Y395768D01*
X995000Y395383D01*
Y47441D01*
X993730Y47291D01*
X992913Y50694D01*
X990835Y55711D01*
X987997Y60341D01*
X984471Y64471D01*
X980341Y67997D01*
X975711Y70835D01*
X970694Y72913D01*
X965414Y74181D01*
X960000Y74607D01*
X954586Y74181D01*
X949306Y72913D01*
X944289Y70835D01*
X939659Y67997D01*
X935529Y64471D01*
X932003Y60341D01*
X929165Y55711D01*
X927087Y50694D01*
X925819Y45414D01*
X925393Y40000D01*
X925819Y34586D01*
X927087Y29306D01*
X929165Y24289D01*
X932003Y19659D01*
X935529Y15529D01*
X939659Y12003D01*
X944289Y9165D01*
X949306Y7087D01*
X952710Y6270D01*
X952559Y5000D01*
X400000D01*
Y15000D01*
X400000Y140000D01*
X450000Y190000D01*
X457923Y197923D01*
X505001Y245000D01*
X505000Y296000D01*
X490000Y296036D01*
Y305000D01*
X476902D01*
X476184Y306270D01*
X476428Y307500D01*
Y315500D01*
X476118Y317061D01*
X475234Y318384D01*
X474804Y318671D01*
X475189Y319941D01*
X481380D01*
X481745Y319395D01*
X483399Y318290D01*
X485350Y317902D01*
X487301Y318290D01*
X488955Y319395D01*
X490060Y321049D01*
X490448Y323000D01*
X490060Y324951D01*
X488955Y326605D01*
X487301Y327710D01*
X485350Y328098D01*
X483399Y327710D01*
X481745Y326605D01*
X481380Y326059D01*
X467000D01*
X467000Y326059D01*
X465829Y325826D01*
X464837Y325163D01*
X464837Y325163D01*
X459253Y319578D01*
X455650D01*
X454089Y319268D01*
X452766Y318384D01*
X451882Y317061D01*
X451572Y315500D01*
Y307500D01*
X451816Y306270D01*
X451099Y305000D01*
X438901D01*
X438184Y306270D01*
X438428Y307500D01*
Y308441D01*
X442500D01*
X442500Y308441D01*
X443671Y308674D01*
X444663Y309337D01*
X447163Y311837D01*
X447163Y311837D01*
X447826Y312829D01*
X448059Y314000D01*
Y326000D01*
X447826Y327170D01*
X447163Y328163D01*
X441970Y333356D01*
X442098Y334000D01*
X441710Y335951D01*
X440605Y337605D01*
X438951Y338710D01*
X437000Y339098D01*
X435049Y338710D01*
X433395Y337605D01*
X432290Y335951D01*
X431902Y334000D01*
X432290Y332049D01*
X433395Y330395D01*
X434340Y329764D01*
Y328236D01*
X433395Y327605D01*
X433030Y327059D01*
X423000D01*
X421829Y326826D01*
X420837Y326163D01*
X420837Y326163D01*
X417487Y322813D01*
X416824Y321821D01*
X416591Y320650D01*
X416591Y320650D01*
Y319368D01*
X416089Y319268D01*
X414766Y318384D01*
X413882Y317061D01*
X413572Y315500D01*
Y307500D01*
X413816Y306270D01*
X413098Y305000D01*
X385431Y305000D01*
X384625Y305982D01*
X384728Y306500D01*
Y314500D01*
X384418Y316061D01*
X383534Y317384D01*
X382211Y318268D01*
X380650Y318578D01*
X376650D01*
X375089Y318268D01*
X373766Y317384D01*
X372697Y317278D01*
X370620Y319356D01*
X370748Y320000D01*
X370360Y321951D01*
X369255Y323605D01*
X368709Y323970D01*
Y328383D01*
X373267Y332941D01*
X377030D01*
X377395Y332395D01*
X379049Y331290D01*
X381000Y330902D01*
X382951Y331290D01*
X384605Y332395D01*
X385710Y334049D01*
X386098Y336000D01*
X385710Y337951D01*
X384605Y339605D01*
X382951Y340710D01*
X381000Y341098D01*
X379049Y340710D01*
X377395Y339605D01*
X377030Y339059D01*
X372000D01*
X370829Y338826D01*
X369837Y338163D01*
X369837Y338163D01*
X363487Y331813D01*
X362824Y330821D01*
X362591Y329650D01*
X362591Y329650D01*
Y323970D01*
X362045Y323605D01*
X360940Y321951D01*
X360552Y320000D01*
X360940Y318049D01*
X362045Y316395D01*
X363699Y315290D01*
X365650Y314902D01*
X366294Y315030D01*
X370137Y311187D01*
X370137Y311187D01*
X371129Y310524D01*
X372300Y310291D01*
X372572D01*
Y306500D01*
X372675Y305982D01*
X371869Y305000D01*
X282901Y305000D01*
X282184Y306270D01*
X282428Y307500D01*
Y315500D01*
X282118Y317061D01*
X281234Y318384D01*
X279911Y319268D01*
X278350Y319578D01*
X275700D01*
X275163Y320837D01*
X275826Y321829D01*
X276059Y323000D01*
Y326030D01*
X276605Y326395D01*
X277710Y328049D01*
X278098Y330000D01*
X277710Y331951D01*
X276605Y333605D01*
X274951Y334710D01*
X273000Y335098D01*
X271049Y334710D01*
X269395Y333605D01*
X268290Y331951D01*
X267902Y330000D01*
X268290Y328049D01*
X269395Y326395D01*
X269941Y326030D01*
Y324267D01*
X265253Y319578D01*
X261650D01*
X260089Y319268D01*
X258766Y318384D01*
X257882Y317061D01*
X257572Y315500D01*
Y307500D01*
X257760Y306554D01*
X256907Y305518D01*
X256059Y305742D01*
Y322030D01*
X256605Y322395D01*
X257710Y324049D01*
X258098Y326000D01*
X257710Y327951D01*
X256605Y329605D01*
X254951Y330710D01*
X253000Y331098D01*
X251049Y330710D01*
X249395Y329605D01*
X248290Y327951D01*
X247902Y326000D01*
X248290Y324049D01*
X249395Y322395D01*
X249941Y322030D01*
Y305000D01*
X247901D01*
X247184Y306270D01*
X247428Y307500D01*
Y315500D01*
X247118Y317061D01*
X246234Y318384D01*
X244911Y319268D01*
X244409Y319368D01*
Y322650D01*
X244409Y322650D01*
X244176Y323820D01*
X243513Y324813D01*
X229163Y339163D01*
X228171Y339826D01*
X227000Y340059D01*
X227000Y340059D01*
X212000D01*
X212000Y340059D01*
X210830Y339826D01*
X209837Y339163D01*
X209837Y339163D01*
X204487Y333813D01*
X203824Y332821D01*
X203591Y331650D01*
X203591Y331650D01*
Y330970D01*
X203045Y330605D01*
X201940Y328951D01*
X201552Y327000D01*
X201940Y325049D01*
X203045Y323395D01*
X204699Y322290D01*
X206650Y321902D01*
X208601Y322290D01*
X210255Y323395D01*
X211360Y325049D01*
X211748Y327000D01*
X211360Y328951D01*
X210255Y330605D01*
X210226Y330900D01*
X212945Y333619D01*
X213925Y333517D01*
X214525Y332303D01*
X214290Y331951D01*
X213902Y330000D01*
X214290Y328049D01*
X215395Y326395D01*
X217049Y325290D01*
X219000Y324902D01*
X219644Y325030D01*
X224364Y320311D01*
X224203Y318675D01*
X223766Y318384D01*
X222882Y317061D01*
X222572Y315500D01*
Y307500D01*
X222816Y306270D01*
X222099Y305000D01*
X197201Y305000D01*
X196484Y306270D01*
X196728Y307500D01*
Y315500D01*
X196418Y317061D01*
X195534Y318384D01*
X194211Y319268D01*
X193709Y319368D01*
Y326350D01*
X193709Y326350D01*
X193476Y327520D01*
X192813Y328513D01*
X191041Y330284D01*
X190710Y331951D01*
X189605Y333605D01*
X189059Y333970D01*
Y342000D01*
X188826Y343171D01*
X188163Y344163D01*
X188163Y344163D01*
X183163Y349163D01*
X182171Y349826D01*
X181000Y350059D01*
X181000Y350059D01*
X148970D01*
X148605Y350605D01*
X146951Y351710D01*
X145000Y352098D01*
X143049Y351710D01*
X141395Y350605D01*
X140290Y348951D01*
X139902Y347000D01*
X140290Y345049D01*
X141395Y343395D01*
X143049Y342290D01*
X145000Y341902D01*
X146951Y342290D01*
X148605Y343395D01*
X148970Y343941D01*
X179733D01*
X182941Y340733D01*
Y333970D01*
X182395Y333605D01*
X181290Y331951D01*
X180902Y330000D01*
X181290Y328049D01*
X182395Y326395D01*
X184049Y325290D01*
X186000Y324902D01*
X186321Y324966D01*
X187591Y323924D01*
Y319368D01*
X187089Y319268D01*
X185766Y318384D01*
X184882Y317061D01*
X184572Y315500D01*
Y307500D01*
X184816Y306270D01*
X184098Y305000D01*
X23569Y305000D01*
Y341522D01*
X33957Y351911D01*
X34000Y351902D01*
X35951Y352290D01*
X37605Y353395D01*
X38710Y355049D01*
X39098Y357000D01*
X38710Y358951D01*
X37605Y360605D01*
X35951Y361710D01*
X34000Y362098D01*
X32049Y361710D01*
X30395Y360605D01*
X29290Y358951D01*
X28902Y357000D01*
X28911Y356957D01*
X17477Y345523D01*
X16703Y344366D01*
X16431Y343000D01*
Y305000D01*
X5000D01*
X5000Y441000D01*
X6270Y441358D01*
X8756Y437300D01*
X12692Y432692D01*
X17300Y428756D01*
X22467Y425590D01*
X28066Y423271D01*
X33959Y421856D01*
X40000Y421381D01*
X46041Y421856D01*
X51934Y423271D01*
X57533Y425590D01*
X62700Y428756D01*
X67308Y432692D01*
X71244Y437300D01*
X74410Y442467D01*
X76729Y448066D01*
X78144Y453959D01*
X78619Y460000D01*
X78144Y466041D01*
X76729Y471934D01*
X74410Y477533D01*
X71244Y482700D01*
X67308Y487308D01*
X62700Y491244D01*
X58642Y493730D01*
X59000Y495000D01*
X375745D01*
X375938Y494758D01*
X375837Y493163D01*
X368837Y486163D01*
X368174Y485171D01*
X367941Y484000D01*
X367941Y484000D01*
Y473000D01*
X367941Y473000D01*
X368174Y471829D01*
X368837Y470837D01*
X381837Y457837D01*
X381837Y457837D01*
X382830Y457174D01*
X384000Y456941D01*
X440733D01*
X449541Y448133D01*
Y432400D01*
X449541Y432400D01*
X449774Y431230D01*
X450437Y430237D01*
X478442Y402232D01*
X477956Y401059D01*
X467000D01*
X465829Y400826D01*
X464837Y400163D01*
X433837Y369163D01*
X433174Y368171D01*
X432941Y367000D01*
X432941Y367000D01*
Y354970D01*
X432395Y354605D01*
X431290Y352951D01*
X430902Y351000D01*
X431290Y349049D01*
X432395Y347395D01*
X434049Y346290D01*
X436000Y345902D01*
X437951Y346290D01*
X439605Y347395D01*
X440710Y349049D01*
X441098Y351000D01*
X440710Y352951D01*
X439605Y354605D01*
X439059Y354970D01*
Y365733D01*
X452768Y379442D01*
X453941Y378956D01*
Y347970D01*
X453395Y347605D01*
X452290Y345951D01*
X451902Y344000D01*
X452290Y342049D01*
X453395Y340395D01*
X455049Y339290D01*
X457000Y338902D01*
X458951Y339290D01*
X460605Y340395D01*
X461710Y342049D01*
X462098Y344000D01*
X461710Y345951D01*
X461272Y346606D01*
X462259Y347416D01*
X465030Y344644D01*
X464902Y344000D01*
X465290Y342049D01*
X466395Y340395D01*
X468049Y339290D01*
X470000Y338902D01*
X471951Y339290D01*
X473605Y340395D01*
X474710Y342049D01*
X475098Y344000D01*
X474710Y345951D01*
X473605Y347605D01*
X471951Y348710D01*
X470000Y349098D01*
X469356Y348970D01*
X465059Y353267D01*
Y380419D01*
X471581Y386941D01*
X478853D01*
X479961Y386000D01*
Y379446D01*
X478691Y378762D01*
X477000Y379098D01*
X475049Y378710D01*
X473395Y377605D01*
X472290Y375951D01*
X471902Y374000D01*
X472290Y372049D01*
X473395Y370395D01*
X475049Y369290D01*
X477000Y368902D01*
X478951Y369290D01*
X480605Y370395D01*
X480970Y370941D01*
X557000D01*
X557000Y370941D01*
X558171Y371174D01*
X559163Y371837D01*
X564356Y377030D01*
X565000Y376902D01*
X566951Y377290D01*
X568605Y378395D01*
X569710Y380049D01*
X569765Y380325D01*
X570980Y380694D01*
X575941Y375733D01*
Y329267D01*
X571837Y325163D01*
X571174Y324170D01*
X570941Y323000D01*
X570941Y323000D01*
Y316557D01*
X568957Y315735D01*
X566868Y314132D01*
X565265Y312043D01*
X564257Y309611D01*
X563914Y307000D01*
X564257Y304389D01*
X565265Y301957D01*
X566868Y299868D01*
X568957Y298265D01*
X571390Y297257D01*
X574000Y296914D01*
X576610Y297257D01*
X579043Y298265D01*
X581132Y299868D01*
X582735Y301957D01*
X583743Y304389D01*
X584086Y307000D01*
X583743Y309611D01*
X582735Y312043D01*
X581132Y314132D01*
X579043Y315735D01*
X577059Y316557D01*
Y321733D01*
X580267Y324941D01*
X630313D01*
X630314Y324941D01*
X631484Y325174D01*
X632477Y325837D01*
X636581Y329941D01*
X674030D01*
X674395Y329395D01*
X676049Y328290D01*
X678000Y327902D01*
X679951Y328290D01*
X681605Y329395D01*
X682710Y331049D01*
X683098Y333000D01*
X682710Y334951D01*
X681857Y336227D01*
X682773Y337143D01*
X684049Y336290D01*
X686000Y335902D01*
X687951Y336290D01*
X689605Y337395D01*
X690710Y339049D01*
X691098Y341000D01*
X690710Y342951D01*
X689605Y344605D01*
X687951Y345710D01*
X686000Y346098D01*
X684049Y345710D01*
X682395Y344605D01*
X682030Y344059D01*
X675000D01*
X675000Y344059D01*
X673873Y345130D01*
X673710Y345951D01*
X672605Y347605D01*
X670951Y348710D01*
X669000Y349098D01*
X667049Y348710D01*
X665395Y347605D01*
X665030Y347059D01*
X662000D01*
X660829Y346826D01*
X659837Y346163D01*
X658733Y345059D01*
X634323D01*
X633797Y346329D01*
X641409Y353941D01*
X661030D01*
X661395Y353395D01*
X663049Y352290D01*
X665000Y351902D01*
X666951Y352290D01*
X668605Y353395D01*
X669710Y355049D01*
X670098Y357000D01*
X671181Y358065D01*
X672000Y357902D01*
X673951Y358290D01*
X675605Y359395D01*
X676710Y361049D01*
X677098Y363000D01*
X676710Y364951D01*
X675605Y366605D01*
X673951Y367710D01*
X672000Y368098D01*
X671540Y368006D01*
X670709Y369048D01*
X671097Y370999D01*
X670709Y372950D01*
X669604Y374604D01*
X667950Y375709D01*
X665999Y376097D01*
X664048Y375709D01*
X662394Y374604D01*
X662029Y374058D01*
X639999D01*
X639999Y374058D01*
X638829Y373825D01*
X637836Y373162D01*
X622644Y357970D01*
X622000Y358098D01*
X620049Y357710D01*
X618395Y356605D01*
X617290Y354951D01*
X617048Y353734D01*
X615753D01*
X615710Y353951D01*
X614605Y355605D01*
X612951Y356710D01*
X611000Y357098D01*
X609049Y356710D01*
X607395Y355605D01*
X606290Y353951D01*
X605902Y352000D01*
X606290Y350049D01*
X607395Y348395D01*
X608340Y347764D01*
Y346236D01*
X607395Y345605D01*
X606290Y343951D01*
X605902Y342000D01*
X606096Y341026D01*
X604925Y340400D01*
X603970Y341356D01*
X604098Y342000D01*
X603710Y343951D01*
X602605Y345605D01*
X600951Y346710D01*
X599000Y347098D01*
X598356Y346970D01*
X590059Y355267D01*
Y380313D01*
X590059Y380314D01*
X589826Y381484D01*
X589163Y382477D01*
X573871Y397768D01*
X574358Y398941D01*
X615733D01*
X619941Y394733D01*
Y384970D01*
X619395Y384605D01*
X618290Y382951D01*
X617902Y381000D01*
X618290Y379049D01*
X619395Y377395D01*
X621049Y376290D01*
X623000Y375902D01*
X624951Y376290D01*
X626605Y377395D01*
X627710Y379049D01*
X628098Y381000D01*
X627710Y382951D01*
X626605Y384605D01*
X626059Y384970D01*
Y396000D01*
X626059Y396000D01*
X625826Y397170D01*
X625163Y398163D01*
X625163Y398163D01*
X621558Y401768D01*
X622044Y402941D01*
X629733D01*
X633837Y398837D01*
X633837Y398837D01*
X634829Y398174D01*
X636000Y397941D01*
X636000Y397941D01*
X646030D01*
X646395Y397395D01*
X648049Y396290D01*
X650000Y395902D01*
X651951Y396290D01*
X653605Y397395D01*
X654710Y399049D01*
X655098Y401000D01*
X654710Y402951D01*
X653605Y404605D01*
X651951Y405710D01*
X650000Y406098D01*
X648049Y405710D01*
X646395Y404605D01*
X646253Y404632D01*
X645982Y405979D01*
X646605Y406395D01*
X647710Y408049D01*
X648098Y410000D01*
X647894Y411026D01*
X648974Y412106D01*
X650000Y411902D01*
X651951Y412290D01*
X653605Y413395D01*
X654710Y415049D01*
X655098Y417000D01*
X654710Y418951D01*
X653605Y420605D01*
X651951Y421710D01*
X650000Y422098D01*
X648974Y421894D01*
X647894Y422974D01*
X648098Y424000D01*
X647710Y425951D01*
X647548Y426194D01*
X647610Y426331D01*
X648388Y427223D01*
X650000Y426902D01*
X651951Y427290D01*
X653605Y428395D01*
X654710Y430049D01*
X655098Y432000D01*
X654710Y433951D01*
X653605Y435605D01*
X651951Y436710D01*
X650000Y437098D01*
X648049Y436710D01*
X646395Y435605D01*
X646030Y435059D01*
X635000D01*
X635000Y435059D01*
X633829Y434826D01*
X632837Y434163D01*
X632837Y434163D01*
X631733Y433059D01*
X489000D01*
X489000Y433059D01*
X487830Y432826D01*
X486837Y432163D01*
X486837Y432163D01*
X483644Y428970D01*
X483000Y429098D01*
X481049Y428710D01*
X479395Y427605D01*
X478290Y425951D01*
X478104Y425017D01*
X476726Y424599D01*
X463659Y437667D01*
Y468185D01*
X464211Y468257D01*
X466643Y469265D01*
X468732Y470868D01*
X470335Y472957D01*
X471343Y475390D01*
X471686Y478000D01*
X471343Y480611D01*
X470335Y483043D01*
X468732Y485132D01*
X466643Y486735D01*
X464211Y487743D01*
X461600Y488086D01*
X458989Y487743D01*
X456557Y486735D01*
X454468Y485132D01*
X452865Y483043D01*
X451857Y480611D01*
X451514Y478000D01*
X451857Y475390D01*
X452865Y472957D01*
X454468Y470868D01*
X456557Y469265D01*
X457541Y468857D01*
Y457044D01*
X456368Y456558D01*
X445763Y467163D01*
X444771Y467826D01*
X443600Y468059D01*
X443600Y468059D01*
X416614D01*
X415921Y469193D01*
X415926Y469329D01*
X417932Y470868D01*
X419535Y472957D01*
X420543Y475390D01*
X420886Y478000D01*
X420543Y480611D01*
X419535Y483043D01*
X417932Y485132D01*
X415843Y486735D01*
X413410Y487743D01*
X410800Y488086D01*
X408190Y487743D01*
X406205Y486921D01*
X399963Y493163D01*
X399862Y494758D01*
X400055Y495000D01*
X941000D01*
X941358Y493730D01*
D02*
G37*
G36*
X93000Y223000D02*
X175000Y223000D01*
X219500Y178500D01*
X219500Y121500D01*
Y84000D01*
Y5000D01*
X68000D01*
Y21577D01*
X69941Y24744D01*
X71959Y29616D01*
X73190Y34743D01*
X73604Y40000D01*
X73190Y45257D01*
X71959Y50384D01*
X69941Y55256D01*
X68000Y58423D01*
Y65294D01*
X69173Y65780D01*
X71477Y63477D01*
X72634Y62703D01*
X74000Y62431D01*
X123522D01*
X124910Y61043D01*
X124902Y61000D01*
X125290Y59049D01*
X126395Y57395D01*
X128049Y56290D01*
X130000Y55902D01*
X131951Y56290D01*
X133605Y57395D01*
X134710Y59049D01*
X135098Y61000D01*
X134710Y62951D01*
X133605Y64605D01*
X131951Y65710D01*
X130000Y66098D01*
X129957Y66090D01*
X127523Y68523D01*
X126366Y69297D01*
X125000Y69569D01*
X101593D01*
X101185Y70771D01*
X102058Y71441D01*
X103982Y73948D01*
X105191Y76867D01*
X105604Y80000D01*
X105191Y83133D01*
X103982Y86052D01*
X102058Y88559D01*
X99552Y90482D01*
X96633Y91691D01*
X93500Y92104D01*
X90367Y91691D01*
X87448Y90482D01*
X84942Y88559D01*
X83018Y86052D01*
X81809Y83133D01*
X81396Y80000D01*
X81809Y76867D01*
X83018Y73948D01*
X84942Y71441D01*
X85815Y70771D01*
X85407Y69569D01*
X75478D01*
X69569Y75478D01*
Y93371D01*
X69605Y93395D01*
X70710Y95049D01*
X71098Y97000D01*
X70710Y98951D01*
X69605Y100605D01*
X67951Y101710D01*
X66000Y102098D01*
X64049Y101710D01*
X62395Y100605D01*
X61290Y98951D01*
X60902Y97000D01*
X61290Y95049D01*
X62395Y93395D01*
X62431Y93371D01*
Y74000D01*
X27698Y74000D01*
X27446Y75270D01*
X30185Y76405D01*
X32929Y78238D01*
X35262Y80571D01*
X37095Y83315D01*
X38358Y86364D01*
X39002Y89600D01*
Y92900D01*
X38358Y96136D01*
X37095Y99185D01*
X35262Y101929D01*
X32929Y104262D01*
X30185Y106095D01*
X27136Y107358D01*
X23900Y108002D01*
X20600D01*
X17364Y107358D01*
X14315Y106095D01*
X11571Y104262D01*
X9238Y101929D01*
X7405Y99185D01*
X7270Y98860D01*
X6000Y99113D01*
X6000Y265000D01*
X16941D01*
Y229000D01*
X16941Y229000D01*
X17174Y227829D01*
X17837Y226837D01*
X30030Y214644D01*
X29902Y214000D01*
X30290Y212049D01*
X31395Y210395D01*
X33049Y209290D01*
X35000Y208902D01*
X36951Y209290D01*
X38605Y210395D01*
X39710Y212049D01*
X40098Y214000D01*
X39710Y215951D01*
X38605Y217605D01*
X36951Y218710D01*
X35000Y219098D01*
X34356Y218970D01*
X23059Y230267D01*
Y265000D01*
X93000Y265000D01*
Y223000D01*
D02*
G37*
G36*
X995000Y32559D02*
Y5000D01*
X967441D01*
X967290Y6270D01*
X970694Y7087D01*
X975711Y9165D01*
X980341Y12003D01*
X984471Y15529D01*
X987997Y19659D01*
X990835Y24289D01*
X992913Y29306D01*
X993730Y32709D01*
X995000Y32559D01*
D02*
G37*
%LPC*%
G36*
X882000Y146000D02*
X866000D01*
Y130000D01*
X870941D01*
Y91701D01*
X870867Y91691D01*
X867948Y90482D01*
X865442Y88559D01*
X863518Y86052D01*
X862309Y83133D01*
X861896Y80000D01*
X862309Y76867D01*
X863518Y73948D01*
X865442Y71441D01*
X867948Y69518D01*
X870867Y68309D01*
X874000Y67896D01*
X877133Y68309D01*
X880052Y69518D01*
X882559Y71441D01*
X884482Y73948D01*
X885691Y76867D01*
X886104Y80000D01*
X885691Y83133D01*
X884482Y86052D01*
X882559Y88559D01*
X880052Y90482D01*
X877133Y91691D01*
X877059Y91701D01*
Y130000D01*
X882000D01*
Y146000D01*
D02*
G37*
G36*
X847000Y147000D02*
X831000D01*
Y131000D01*
X835941D01*
Y91701D01*
X835867Y91691D01*
X832948Y90482D01*
X830442Y88559D01*
X828518Y86052D01*
X827309Y83133D01*
X826896Y80000D01*
X827309Y76867D01*
X828518Y73948D01*
X830442Y71441D01*
X832948Y69518D01*
X835867Y68309D01*
X839000Y67896D01*
X842133Y68309D01*
X845052Y69518D01*
X847559Y71441D01*
X849482Y73948D01*
X850691Y76867D01*
X851104Y80000D01*
X850691Y83133D01*
X849482Y86052D01*
X847559Y88559D01*
X845052Y90482D01*
X842133Y91691D01*
X842059Y91701D01*
Y131000D01*
X847000D01*
Y147000D01*
D02*
G37*
G36*
X917000Y146000D02*
X901000D01*
Y130000D01*
X905941D01*
Y91701D01*
X905867Y91691D01*
X902948Y90482D01*
X900442Y88559D01*
X898518Y86052D01*
X897309Y83133D01*
X896897Y80000D01*
X897309Y76867D01*
X898518Y73948D01*
X900442Y71441D01*
X902948Y69518D01*
X905867Y68309D01*
X909000Y67896D01*
X912133Y68309D01*
X915052Y69518D01*
X917559Y71441D01*
X919482Y73948D01*
X920691Y76867D01*
X921104Y80000D01*
X920691Y83133D01*
X919482Y86052D01*
X917559Y88559D01*
X915052Y90482D01*
X912133Y91691D01*
X912059Y91701D01*
Y130000D01*
X917000D01*
Y146000D01*
D02*
G37*
G36*
X688000Y186098D02*
X686049Y185710D01*
X684395Y184605D01*
X683290Y182951D01*
X682902Y181000D01*
X683290Y179049D01*
X684395Y177395D01*
X684941Y177030D01*
Y172000D01*
X684941Y172000D01*
X685174Y170830D01*
X685837Y169837D01*
X690000Y165674D01*
Y154000D01*
X706000D01*
Y170000D01*
X694326D01*
X691059Y173267D01*
Y177030D01*
X691605Y177395D01*
X692710Y179049D01*
X693098Y181000D01*
X692710Y182951D01*
X691605Y184605D01*
X689951Y185710D01*
X688000Y186098D01*
D02*
G37*
G36*
X888000Y177098D02*
X886049Y176710D01*
X884395Y175605D01*
X883290Y173951D01*
X883207Y173533D01*
X877674Y168000D01*
X866000D01*
Y152000D01*
X882000D01*
Y163674D01*
X885789Y167464D01*
X886049Y167290D01*
X888000Y166902D01*
X889951Y167290D01*
X891605Y168395D01*
X892710Y170049D01*
X893098Y172000D01*
X892710Y173951D01*
X891605Y175605D01*
X889951Y176710D01*
X888000Y177098D01*
D02*
G37*
G36*
X636000Y171000D02*
X620000D01*
Y167059D01*
X617970D01*
X617605Y167605D01*
X615951Y168710D01*
X614000Y169098D01*
X612049Y168710D01*
X610395Y167605D01*
X609290Y165951D01*
X608902Y164000D01*
X609290Y162049D01*
X610395Y160395D01*
X612049Y159290D01*
X614000Y158902D01*
X615951Y159290D01*
X617605Y160395D01*
X617970Y160941D01*
X620000D01*
Y155000D01*
X636000D01*
Y171000D01*
D02*
G37*
G36*
X899000Y183098D02*
X897049Y182710D01*
X895395Y181605D01*
X894290Y179951D01*
X893902Y178000D01*
X894290Y176049D01*
X895395Y174395D01*
X895941Y174030D01*
Y170000D01*
X895941Y170000D01*
X896174Y168829D01*
X896837Y167837D01*
X901000Y163674D01*
Y152000D01*
X917000D01*
Y168000D01*
X905326D01*
X902059Y171267D01*
Y174030D01*
X902605Y174395D01*
X903710Y176049D01*
X904098Y178000D01*
X903710Y179951D01*
X902605Y181605D01*
X900951Y182710D01*
X899000Y183098D01*
D02*
G37*
G36*
X675000Y186098D02*
X673049Y185710D01*
X671395Y184605D01*
X670290Y182951D01*
X669902Y181000D01*
X670290Y179049D01*
X671395Y177395D01*
X671941Y177030D01*
Y175267D01*
X666674Y170000D01*
X655000D01*
Y154000D01*
X671000D01*
Y165674D01*
X677163Y171837D01*
X677163Y171837D01*
X677826Y172829D01*
X678059Y174000D01*
Y177030D01*
X678605Y177395D01*
X679710Y179049D01*
X680098Y181000D01*
X679710Y182951D01*
X678605Y184605D01*
X676951Y185710D01*
X675000Y186098D01*
D02*
G37*
G36*
X429500Y92104D02*
X426367Y91691D01*
X423448Y90482D01*
X420942Y88559D01*
X419018Y86052D01*
X417809Y83133D01*
X417396Y80000D01*
X417809Y76867D01*
X419018Y73948D01*
X420942Y71441D01*
X423448Y69518D01*
X426367Y68309D01*
X429500Y67896D01*
X432633Y68309D01*
X435552Y69518D01*
X438059Y71441D01*
X439982Y73948D01*
X441191Y76867D01*
X441604Y80000D01*
X441191Y83133D01*
X439982Y86052D01*
X438059Y88559D01*
X435552Y90482D01*
X432633Y91691D01*
X429500Y92104D01*
D02*
G37*
G36*
X566000Y150000D02*
X550000D01*
Y134000D01*
X554941D01*
Y91307D01*
X552948Y90482D01*
X550442Y88559D01*
X548518Y86052D01*
X547309Y83133D01*
X546896Y80000D01*
X547309Y76867D01*
X548518Y73948D01*
X550442Y71441D01*
X552948Y69518D01*
X555867Y68309D01*
X559000Y67896D01*
X562133Y68309D01*
X565052Y69518D01*
X567559Y71441D01*
X569482Y73948D01*
X570691Y76867D01*
X571104Y80000D01*
X570691Y83133D01*
X569482Y86052D01*
X567559Y88559D01*
X565052Y90482D01*
X562133Y91691D01*
X561059Y91833D01*
Y134000D01*
X566000D01*
Y150000D01*
D02*
G37*
G36*
X600000Y149000D02*
X584000D01*
Y133000D01*
X588941D01*
Y90893D01*
X587948Y90482D01*
X585442Y88559D01*
X583518Y86052D01*
X582309Y83133D01*
X581896Y80000D01*
X582309Y76867D01*
X583518Y73948D01*
X585442Y71441D01*
X587948Y69518D01*
X590867Y68309D01*
X594000Y67896D01*
X597133Y68309D01*
X600052Y69518D01*
X602559Y71441D01*
X604482Y73948D01*
X605691Y76867D01*
X606104Y80000D01*
X605691Y83133D01*
X604482Y86052D01*
X602559Y88559D01*
X600052Y90482D01*
X597133Y91691D01*
X595059Y91964D01*
Y133000D01*
X600000D01*
Y149000D01*
D02*
G37*
G36*
X741000Y147000D02*
X725000D01*
Y131000D01*
X729941D01*
Y91307D01*
X727948Y90482D01*
X725442Y88559D01*
X723518Y86052D01*
X722309Y83133D01*
X721896Y80000D01*
X722309Y76867D01*
X723518Y73948D01*
X725442Y71441D01*
X727948Y69518D01*
X730867Y68309D01*
X734000Y67896D01*
X737133Y68309D01*
X740052Y69518D01*
X742559Y71441D01*
X744482Y73948D01*
X745691Y76867D01*
X746104Y80000D01*
X745691Y83133D01*
X744482Y86052D01*
X742559Y88559D01*
X740052Y90482D01*
X737133Y91691D01*
X736059Y91833D01*
Y131000D01*
X741000D01*
Y147000D01*
D02*
G37*
G36*
X776000D02*
X760000D01*
Y131000D01*
X764941D01*
Y91307D01*
X762948Y90482D01*
X760442Y88559D01*
X758518Y86052D01*
X757309Y83133D01*
X756896Y80000D01*
X757309Y76867D01*
X758518Y73948D01*
X760442Y71441D01*
X762948Y69518D01*
X765867Y68309D01*
X769000Y67896D01*
X772133Y68309D01*
X775052Y69518D01*
X777559Y71441D01*
X779482Y73948D01*
X780691Y76867D01*
X781104Y80000D01*
X780691Y83133D01*
X779482Y86052D01*
X777559Y88559D01*
X775052Y90482D01*
X772133Y91691D01*
X771059Y91833D01*
Y131000D01*
X776000D01*
Y147000D01*
D02*
G37*
G36*
X811000D02*
X795000D01*
Y131000D01*
X799941D01*
Y91307D01*
X797948Y90482D01*
X795442Y88559D01*
X793518Y86052D01*
X792309Y83133D01*
X791896Y80000D01*
X792309Y76867D01*
X793518Y73948D01*
X795442Y71441D01*
X797948Y69518D01*
X800867Y68309D01*
X804000Y67896D01*
X807133Y68309D01*
X810052Y69518D01*
X812559Y71441D01*
X814482Y73948D01*
X815691Y76867D01*
X816104Y80000D01*
X815691Y83133D01*
X814482Y86052D01*
X812559Y88559D01*
X810052Y90482D01*
X807133Y91691D01*
X806059Y91833D01*
Y131000D01*
X811000D01*
Y147000D01*
D02*
G37*
G36*
X636000Y149000D02*
X620000D01*
Y133000D01*
X624941D01*
Y91307D01*
X622948Y90482D01*
X620442Y88559D01*
X618518Y86052D01*
X617309Y83133D01*
X616896Y80000D01*
X617309Y76867D01*
X618518Y73948D01*
X620442Y71441D01*
X622948Y69518D01*
X625867Y68309D01*
X629000Y67896D01*
X632133Y68309D01*
X635052Y69518D01*
X637559Y71441D01*
X639482Y73948D01*
X640691Y76867D01*
X641104Y80000D01*
X640691Y83133D01*
X639482Y86052D01*
X637559Y88559D01*
X635052Y90482D01*
X632133Y91691D01*
X631059Y91833D01*
Y133000D01*
X636000D01*
Y149000D01*
D02*
G37*
G36*
X671000Y148000D02*
X655000D01*
Y132000D01*
X659941D01*
Y91307D01*
X657948Y90482D01*
X655442Y88559D01*
X653518Y86052D01*
X652309Y83133D01*
X651896Y80000D01*
X652309Y76867D01*
X653518Y73948D01*
X655442Y71441D01*
X657948Y69518D01*
X660867Y68309D01*
X664000Y67896D01*
X667133Y68309D01*
X670052Y69518D01*
X672559Y71441D01*
X674482Y73948D01*
X675691Y76867D01*
X676104Y80000D01*
X675691Y83133D01*
X674482Y86052D01*
X672559Y88559D01*
X670052Y90482D01*
X667133Y91691D01*
X666059Y91833D01*
Y132000D01*
X671000D01*
Y148000D01*
D02*
G37*
G36*
X706000D02*
X690000D01*
Y132000D01*
X694941D01*
Y91307D01*
X692948Y90482D01*
X690442Y88559D01*
X688518Y86052D01*
X687309Y83133D01*
X686896Y80000D01*
X687309Y76867D01*
X688518Y73948D01*
X690442Y71441D01*
X692948Y69518D01*
X695867Y68309D01*
X699000Y67896D01*
X702133Y68309D01*
X705052Y69518D01*
X707559Y71441D01*
X709482Y73948D01*
X710691Y76867D01*
X711104Y80000D01*
X710691Y83133D01*
X709482Y86052D01*
X707559Y88559D01*
X705052Y90482D01*
X702133Y91691D01*
X701059Y91833D01*
Y132000D01*
X706000D01*
Y148000D01*
D02*
G37*
G36*
X566000Y172000D02*
X550000D01*
Y167569D01*
X545629D01*
X545605Y167605D01*
X543951Y168710D01*
X542000Y169098D01*
X540049Y168710D01*
X538395Y167605D01*
X537290Y165951D01*
X536902Y164000D01*
X537290Y162049D01*
X538395Y160395D01*
X540049Y159290D01*
X542000Y158902D01*
X543951Y159290D01*
X545605Y160395D01*
X545629Y160431D01*
X550000D01*
Y156000D01*
X566000D01*
Y172000D01*
D02*
G37*
G36*
X322400Y488086D02*
X319790Y487743D01*
X317357Y486735D01*
X315268Y485132D01*
X313665Y483043D01*
X312657Y480611D01*
X312314Y478000D01*
X312657Y475390D01*
X313479Y473405D01*
X305837Y465762D01*
X305173Y464770D01*
X304941Y463599D01*
X304941Y463599D01*
Y443969D01*
X304395Y443604D01*
X303764Y442660D01*
X302236D01*
X301605Y443605D01*
X301059Y443970D01*
Y468857D01*
X302043Y469265D01*
X304132Y470868D01*
X305735Y472957D01*
X306743Y475390D01*
X307086Y478000D01*
X306743Y480611D01*
X305735Y483043D01*
X304132Y485132D01*
X302043Y486735D01*
X299611Y487743D01*
X297000Y488086D01*
X294389Y487743D01*
X291957Y486735D01*
X289868Y485132D01*
X288265Y483043D01*
X287257Y480611D01*
X286914Y478000D01*
X287257Y475390D01*
X288265Y472957D01*
X289868Y470868D01*
X291957Y469265D01*
X294389Y468257D01*
X294941Y468185D01*
Y443970D01*
X294395Y443605D01*
X293290Y441951D01*
X292902Y440000D01*
X293030Y439356D01*
X288733Y435059D01*
X268970D01*
X268605Y435605D01*
X266951Y436710D01*
X265000Y437098D01*
X263049Y436710D01*
X261395Y435605D01*
X260290Y433951D01*
X259902Y432000D01*
X260290Y430049D01*
X261395Y428395D01*
X263049Y427290D01*
X265000Y426902D01*
X266951Y427290D01*
X268605Y428395D01*
X268970Y428941D01*
X290000D01*
X290000Y428941D01*
X291171Y429174D01*
X292163Y429837D01*
X297356Y435030D01*
X298000Y434902D01*
X299951Y435290D01*
X301605Y436395D01*
X302236Y437339D01*
X303763D01*
X304395Y436394D01*
X304941Y436030D01*
Y434266D01*
X295733Y425059D01*
X259970D01*
X259605Y425605D01*
X257951Y426710D01*
X256000Y427098D01*
X254049Y426710D01*
X252395Y425605D01*
X251290Y423951D01*
X250902Y422000D01*
X251290Y420049D01*
X252395Y418395D01*
X254049Y417290D01*
X256000Y416902D01*
X257951Y417290D01*
X259605Y418395D01*
X259970Y418941D01*
X297000D01*
X297000Y418941D01*
X298171Y419174D01*
X299163Y419837D01*
X310162Y430836D01*
X310825Y431829D01*
X311058Y432999D01*
X311058Y432999D01*
Y436030D01*
X311604Y436394D01*
X312709Y438048D01*
X313097Y439999D01*
X312709Y441950D01*
X311604Y443604D01*
X311058Y443969D01*
Y462332D01*
X317805Y469079D01*
X319790Y468257D01*
X322400Y467914D01*
X325010Y468257D01*
X327443Y469265D01*
X329532Y470868D01*
X331135Y472957D01*
X332143Y475390D01*
X332486Y478000D01*
X332143Y480611D01*
X331135Y483043D01*
X329532Y485132D01*
X327443Y486735D01*
X325010Y487743D01*
X322400Y488086D01*
D02*
G37*
G36*
X153600D02*
X150990Y487743D01*
X148557Y486735D01*
X146468Y485132D01*
X144865Y483043D01*
X143857Y480611D01*
X143514Y478000D01*
X143857Y475390D01*
X144865Y472957D01*
X146468Y470868D01*
X148557Y469265D01*
X150941Y468277D01*
Y451970D01*
X150395Y451605D01*
X149290Y449951D01*
X148902Y448000D01*
X149290Y446049D01*
X150395Y444395D01*
X152049Y443290D01*
X154000Y442902D01*
X155951Y443290D01*
X157605Y444395D01*
X158710Y446049D01*
X159098Y448000D01*
X158710Y449951D01*
X157605Y451605D01*
X157059Y451970D01*
Y468609D01*
X158643Y469265D01*
X160732Y470868D01*
X162335Y472957D01*
X163343Y475390D01*
X163686Y478000D01*
X163343Y480611D01*
X162335Y483043D01*
X160732Y485132D01*
X158643Y486735D01*
X156210Y487743D01*
X153600Y488086D01*
D02*
G37*
G36*
X204400D02*
X201789Y487743D01*
X199357Y486735D01*
X197268Y485132D01*
X195665Y483043D01*
X194657Y480611D01*
X194314Y478000D01*
X194657Y475390D01*
X195665Y472957D01*
X197268Y470868D01*
X199357Y469265D01*
X201341Y468443D01*
Y458237D01*
X200395Y457605D01*
X199290Y455951D01*
X198902Y454000D01*
X199290Y452049D01*
X200395Y450395D01*
X202049Y449290D01*
X204000Y448902D01*
X205951Y449290D01*
X207605Y450395D01*
X208710Y452049D01*
X209098Y454000D01*
X208710Y455951D01*
X207605Y457605D01*
X207459Y457702D01*
Y468443D01*
X209443Y469265D01*
X211532Y470868D01*
X213135Y472957D01*
X214143Y475390D01*
X214486Y478000D01*
X214143Y480611D01*
X213135Y483043D01*
X211532Y485132D01*
X209443Y486735D01*
X207010Y487743D01*
X204400Y488086D01*
D02*
G37*
G36*
X297000Y401098D02*
X295049Y400710D01*
X294867Y400588D01*
X234133D01*
X233951Y400710D01*
X232000Y401098D01*
X230049Y400710D01*
X228395Y399605D01*
X227290Y397951D01*
X226902Y396000D01*
X227290Y394049D01*
X228395Y392395D01*
X230049Y391290D01*
X232000Y390902D01*
X233951Y391290D01*
X234133Y391412D01*
X294867D01*
X295049Y391290D01*
X297000Y390902D01*
X298951Y391290D01*
X300605Y392395D01*
X301710Y394049D01*
X302098Y396000D01*
X301710Y397951D01*
X300605Y399605D01*
X298951Y400710D01*
X297000Y401098D01*
D02*
G37*
G36*
X896465Y437228D02*
X886465D01*
X884709Y436879D01*
X883221Y435884D01*
X882226Y434396D01*
X881988Y433199D01*
X826012D01*
X825774Y434396D01*
X824779Y435884D01*
X823291Y436879D01*
X821535Y437228D01*
X811535D01*
X809779Y436879D01*
X808291Y435884D01*
X807296Y434396D01*
X806947Y432640D01*
Y427640D01*
X807296Y425884D01*
X808291Y424396D01*
X809779Y423401D01*
X811535Y423052D01*
X813476D01*
Y421659D01*
X813395Y421605D01*
X812290Y419951D01*
X811902Y418000D01*
X812290Y416049D01*
X813395Y414395D01*
X815049Y413290D01*
X817000Y412902D01*
X818951Y413290D01*
X820605Y414395D01*
X821710Y416049D01*
X822098Y418000D01*
X821710Y419951D01*
X820605Y421605D01*
X820340Y421782D01*
X820725Y423052D01*
X821535D01*
X823291Y423401D01*
X824779Y424396D01*
X825774Y425884D01*
X826012Y427081D01*
X881988D01*
X882226Y425884D01*
X883221Y424396D01*
X884709Y423401D01*
X886465Y423052D01*
X896465D01*
X898221Y423401D01*
X899709Y424396D01*
X900704Y425884D01*
X901053Y427640D01*
Y432640D01*
X900704Y434396D01*
X899709Y435884D01*
X898221Y436879D01*
X896465Y437228D01*
D02*
G37*
G36*
X179000Y488086D02*
X176390Y487743D01*
X173957Y486735D01*
X171868Y485132D01*
X170265Y483043D01*
X169257Y480611D01*
X168914Y478000D01*
X169257Y475390D01*
X170265Y472957D01*
X171868Y470868D01*
X173957Y469265D01*
X175941Y468443D01*
Y444970D01*
X175395Y444605D01*
X174290Y442951D01*
X173902Y441000D01*
X174290Y439049D01*
X175395Y437395D01*
X177049Y436290D01*
X179000Y435902D01*
X180951Y436290D01*
X182605Y437395D01*
X183710Y439049D01*
X184098Y441000D01*
X183710Y442951D01*
X182605Y444605D01*
X182059Y444970D01*
Y468443D01*
X184043Y469265D01*
X186132Y470868D01*
X187735Y472957D01*
X188743Y475390D01*
X189086Y478000D01*
X188743Y480611D01*
X187735Y483043D01*
X186132Y485132D01*
X184043Y486735D01*
X181611Y487743D01*
X179000Y488086D01*
D02*
G37*
G36*
X525500Y485604D02*
X522367Y485191D01*
X519448Y483982D01*
X516941Y482058D01*
X515018Y479552D01*
X513809Y476633D01*
X513396Y473500D01*
X513809Y470367D01*
X515018Y467448D01*
X516941Y464941D01*
X519448Y463018D01*
X522367Y461809D01*
X525500Y461396D01*
X528633Y461809D01*
X531552Y463018D01*
X534058Y464941D01*
X535982Y467448D01*
X537191Y470367D01*
X537604Y473500D01*
X537191Y476633D01*
X535982Y479552D01*
X534058Y482058D01*
X531552Y483982D01*
X528633Y485191D01*
X525500Y485604D01*
D02*
G37*
G36*
X654300Y485086D02*
X651690Y484743D01*
X649257Y483735D01*
X647168Y482132D01*
X646951Y481849D01*
X646668Y481632D01*
X645065Y479543D01*
X644057Y477110D01*
X643714Y474500D01*
X644057Y471889D01*
X645065Y469457D01*
X646668Y467368D01*
X648757Y465765D01*
X651189Y464757D01*
X653800Y464414D01*
X656411Y464757D01*
X658843Y465765D01*
X660932Y467368D01*
X661149Y467651D01*
X661432Y467868D01*
X663035Y469957D01*
X664043Y472389D01*
X664386Y475000D01*
X664043Y477611D01*
X663035Y480043D01*
X661432Y482132D01*
X659343Y483735D01*
X656910Y484743D01*
X654300Y485086D01*
D02*
G37*
G36*
X679700D02*
X677089Y484743D01*
X674657Y483735D01*
X672568Y482132D01*
X672351Y481849D01*
X672068Y481632D01*
X670465Y479543D01*
X669457Y477110D01*
X669114Y474500D01*
X669457Y471889D01*
X670465Y469457D01*
X672068Y467368D01*
X674157Y465765D01*
X676590Y464757D01*
X679200Y464414D01*
X681811Y464757D01*
X684243Y465765D01*
X686332Y467368D01*
X686549Y467651D01*
X686832Y467868D01*
X688435Y469957D01*
X689443Y472389D01*
X689786Y475000D01*
X689443Y477611D01*
X688435Y480043D01*
X686832Y482132D01*
X684743Y483735D01*
X682310Y484743D01*
X679700Y485086D01*
D02*
G37*
G36*
X487000Y488086D02*
X484389Y487743D01*
X481957Y486735D01*
X479868Y485132D01*
X478265Y483043D01*
X477257Y480611D01*
X476914Y478000D01*
X477257Y475390D01*
X478265Y472957D01*
X479868Y470868D01*
X481957Y469265D01*
X484389Y468257D01*
X487000Y467914D01*
X489610Y468257D01*
X492043Y469265D01*
X494132Y470868D01*
X495735Y472957D01*
X496743Y475390D01*
X497086Y478000D01*
X496743Y480611D01*
X495735Y483043D01*
X494132Y485132D01*
X492043Y486735D01*
X489610Y487743D01*
X487000Y488086D01*
D02*
G37*
G36*
X756500Y485604D02*
X753367Y485191D01*
X750448Y483982D01*
X747942Y482058D01*
X746018Y479552D01*
X744809Y476633D01*
X744397Y473500D01*
X744809Y470367D01*
X746018Y467448D01*
X747942Y464941D01*
X750448Y463018D01*
X753367Y461809D01*
X756500Y461396D01*
X759633Y461809D01*
X762552Y463018D01*
X765059Y464941D01*
X766982Y467448D01*
X768191Y470367D01*
X768604Y473500D01*
X768191Y476633D01*
X766982Y479552D01*
X765059Y482058D01*
X762552Y483982D01*
X759633Y485191D01*
X756500Y485604D01*
D02*
G37*
G36*
X271600Y488086D02*
X268990Y487743D01*
X266557Y486735D01*
X264468Y485132D01*
X262865Y483043D01*
X261857Y480611D01*
X261514Y478000D01*
X261857Y475390D01*
X262679Y473405D01*
X237837Y448563D01*
X237174Y447571D01*
X236941Y446400D01*
X236941Y446400D01*
Y443970D01*
X236395Y443605D01*
X235290Y441951D01*
X234902Y440000D01*
X235290Y438049D01*
X236395Y436395D01*
X238049Y435290D01*
X240000Y434902D01*
X241951Y435290D01*
X243228Y436143D01*
X244143Y435228D01*
X243290Y433951D01*
X242902Y432000D01*
X243290Y430049D01*
X244395Y428395D01*
X246049Y427290D01*
X248000Y426902D01*
X249951Y427290D01*
X251605Y428395D01*
X252710Y430049D01*
X253098Y432000D01*
X252710Y433951D01*
X251605Y435605D01*
X251059Y435970D01*
Y445733D01*
X265267Y459941D01*
X280000D01*
X280000Y459941D01*
X281171Y460174D01*
X282163Y460837D01*
X283356Y462030D01*
X284000Y461902D01*
X285951Y462290D01*
X287605Y463395D01*
X288710Y465049D01*
X289098Y467000D01*
X288710Y468951D01*
X287605Y470605D01*
X285951Y471710D01*
X284000Y472098D01*
X282049Y471710D01*
X280395Y470605D01*
X279290Y468951D01*
X278902Y467000D01*
X277818Y466059D01*
X265781D01*
X265254Y467329D01*
X267005Y469079D01*
X268990Y468257D01*
X271600Y467914D01*
X274210Y468257D01*
X276643Y469265D01*
X278732Y470868D01*
X280335Y472957D01*
X281343Y475390D01*
X281686Y478000D01*
X281343Y480611D01*
X280335Y483043D01*
X278732Y485132D01*
X276643Y486735D01*
X274210Y487743D01*
X271600Y488086D01*
D02*
G37*
G36*
X628900Y485086D02*
X626289Y484743D01*
X623857Y483735D01*
X621768Y482132D01*
X621551Y481849D01*
X621268Y481632D01*
X619665Y479543D01*
X618657Y477110D01*
X618314Y474500D01*
X618657Y471889D01*
X619665Y469457D01*
X621268Y467368D01*
X623357Y465765D01*
X625789Y464757D01*
X628400Y464414D01*
X631011Y464757D01*
X633443Y465765D01*
X635532Y467368D01*
X635749Y467651D01*
X636032Y467868D01*
X637635Y469957D01*
X638643Y472389D01*
X638986Y475000D01*
X638643Y477611D01*
X637635Y480043D01*
X636032Y482132D01*
X633943Y483735D01*
X631511Y484743D01*
X628900Y485086D01*
D02*
G37*
G36*
X756500Y249604D02*
X753367Y249191D01*
X750448Y247982D01*
X747942Y246059D01*
X746018Y243552D01*
X744809Y240633D01*
X744397Y237500D01*
X744809Y234367D01*
X746018Y231448D01*
X747942Y228941D01*
X750448Y227018D01*
X753367Y225809D01*
X756500Y225396D01*
X759633Y225809D01*
X762552Y227018D01*
X765059Y228941D01*
X766982Y231448D01*
X768191Y234367D01*
X768604Y237500D01*
X768191Y240633D01*
X766982Y243552D01*
X765059Y246059D01*
X762552Y247982D01*
X759633Y249191D01*
X756500Y249604D01*
D02*
G37*
G36*
X604000Y180098D02*
X602049Y179710D01*
X600395Y178605D01*
X599290Y176951D01*
X598902Y175000D01*
X598910Y174957D01*
X594953Y171000D01*
X584000D01*
Y155000D01*
X600000D01*
Y165953D01*
X603957Y169911D01*
X604000Y169902D01*
X605951Y170290D01*
X607605Y171395D01*
X608710Y173049D01*
X609098Y175000D01*
X608710Y176951D01*
X607605Y178605D01*
X605951Y179710D01*
X604000Y180098D01*
D02*
G37*
G36*
X827000D02*
X825049Y179710D01*
X823395Y178605D01*
X822290Y176951D01*
X822147Y176234D01*
X820853D01*
X820710Y176951D01*
X819605Y178605D01*
X817951Y179710D01*
X816000Y180098D01*
X814049Y179710D01*
X812395Y178605D01*
X811290Y176951D01*
X810902Y175000D01*
X811196Y173522D01*
X806674Y169000D01*
X795000D01*
Y153000D01*
X811000D01*
Y164674D01*
X816284Y169959D01*
X817951Y170290D01*
X819605Y171395D01*
X820710Y173049D01*
X820853Y173766D01*
X822147D01*
X822290Y173049D01*
X823395Y171395D01*
X825049Y170290D01*
X825467Y170207D01*
X831000Y164674D01*
Y153000D01*
X847000D01*
Y169000D01*
X835326D01*
X831536Y172789D01*
X831710Y173049D01*
X832098Y175000D01*
X831710Y176951D01*
X830605Y178605D01*
X828951Y179710D01*
X827000Y180098D01*
D02*
G37*
G36*
X755000Y182098D02*
X753049Y181710D01*
X751395Y180605D01*
X750290Y178951D01*
X750066Y177824D01*
X748659Y177237D01*
X747951Y177710D01*
X746000Y178098D01*
X744049Y177710D01*
X742395Y176605D01*
X741290Y174951D01*
X740902Y173000D01*
X741030Y172356D01*
X737674Y169000D01*
X725000D01*
Y153000D01*
X741000D01*
Y163674D01*
X745356Y168030D01*
X746000Y167902D01*
X747951Y168290D01*
X749605Y169395D01*
X750710Y171049D01*
X750934Y172176D01*
X751698Y172614D01*
X752317Y172616D01*
X752837Y171837D01*
X760000Y164674D01*
Y153000D01*
X776000D01*
Y169000D01*
X764326D01*
X759136Y174190D01*
X759710Y175049D01*
X760098Y177000D01*
X759710Y178951D01*
X758605Y180605D01*
X756951Y181710D01*
X755000Y182098D01*
D02*
G37*
G36*
X525500Y250604D02*
X522367Y250191D01*
X519448Y248982D01*
X516941Y247059D01*
X515018Y244552D01*
X513809Y241633D01*
X513396Y238500D01*
X513809Y235367D01*
X515018Y232448D01*
X516941Y229942D01*
X519448Y228018D01*
X522367Y226809D01*
X525500Y226396D01*
X528633Y226809D01*
X531552Y228018D01*
X534058Y229942D01*
X535982Y232448D01*
X537191Y235367D01*
X537604Y238500D01*
X537191Y241633D01*
X535982Y244552D01*
X534058Y247059D01*
X531552Y248982D01*
X528633Y250191D01*
X525500Y250604D01*
D02*
G37*
G36*
X817000Y357098D02*
X815049Y356710D01*
X813395Y355605D01*
X812290Y353951D01*
X811902Y352000D01*
X812290Y350049D01*
X813395Y348395D01*
X813941Y348030D01*
Y346228D01*
X812535D01*
X810779Y345879D01*
X809291Y344884D01*
X808296Y343396D01*
X807947Y341640D01*
Y336640D01*
X808296Y334884D01*
X809291Y333396D01*
X810779Y332401D01*
X812535Y332052D01*
X822535D01*
X824291Y332401D01*
X825779Y333396D01*
X826774Y334884D01*
X827012Y336081D01*
X882988D01*
X883226Y334884D01*
X884221Y333396D01*
X885709Y332401D01*
X887465Y332052D01*
X897465D01*
X899221Y332401D01*
X900709Y333396D01*
X901704Y334884D01*
X902053Y336640D01*
Y341640D01*
X901704Y343396D01*
X900709Y344884D01*
X899221Y345879D01*
X897465Y346228D01*
X887465D01*
X885709Y345879D01*
X884221Y344884D01*
X883226Y343396D01*
X882988Y342199D01*
X827012D01*
X826774Y343396D01*
X825779Y344884D01*
X824291Y345879D01*
X822535Y346228D01*
X820059D01*
Y348030D01*
X820605Y348395D01*
X821710Y350049D01*
X822098Y352000D01*
X821710Y353951D01*
X820605Y355605D01*
X818951Y356710D01*
X817000Y357098D01*
D02*
G37*
G36*
X719000Y348098D02*
X717049Y347710D01*
X715395Y346605D01*
X714290Y344951D01*
X713902Y343000D01*
X714030Y342356D01*
X709733Y338059D01*
X701970D01*
X701605Y338605D01*
X699951Y339710D01*
X698000Y340098D01*
X696049Y339710D01*
X694395Y338605D01*
X693290Y336951D01*
X692902Y335000D01*
X693290Y333049D01*
X694395Y331395D01*
X696049Y330290D01*
X698000Y329902D01*
X699951Y330290D01*
X701605Y331395D01*
X701970Y331941D01*
X711000D01*
X711000Y331941D01*
X712170Y332174D01*
X713163Y332837D01*
X718356Y338030D01*
X719000Y337902D01*
X720951Y338290D01*
X722605Y339395D01*
X723710Y341049D01*
X724098Y343000D01*
X723710Y344951D01*
X722605Y346605D01*
X720951Y347710D01*
X719000Y348098D01*
D02*
G37*
G36*
X412000Y420098D02*
X410049Y419710D01*
X408395Y418605D01*
X407290Y416951D01*
X406902Y415000D01*
X407246Y413270D01*
X406580Y412000D01*
X404000D01*
Y396000D01*
X408580D01*
X409245Y394730D01*
X408901Y392999D01*
X409289Y391048D01*
X410394Y389394D01*
X410940Y389030D01*
Y386000D01*
X404000D01*
Y370000D01*
X417941D01*
Y363267D01*
X415674Y361000D01*
X404000D01*
Y345000D01*
X420000D01*
Y356674D01*
X423163Y359837D01*
X423163Y359837D01*
X423826Y360830D01*
X424059Y362000D01*
X424059Y362000D01*
Y387733D01*
X426356Y390030D01*
X427000Y389902D01*
X428951Y390290D01*
X430605Y391395D01*
X431710Y393049D01*
X432098Y395000D01*
X431710Y396951D01*
X430605Y398605D01*
X428951Y399710D01*
X427000Y400098D01*
X425049Y399710D01*
X423395Y398605D01*
X422290Y396951D01*
X421902Y395000D01*
X422030Y394356D01*
X420322Y392648D01*
X419655Y392839D01*
X419061Y393182D01*
X418978Y393596D01*
X419059Y394000D01*
X418914Y394730D01*
X419683Y396000D01*
X420000D01*
Y412000D01*
X417420D01*
X416754Y413270D01*
X417098Y415000D01*
X416710Y416951D01*
X415605Y418605D01*
X413951Y419710D01*
X412000Y420098D01*
D02*
G37*
G36*
X804000Y310098D02*
X802049Y309710D01*
X800395Y308605D01*
X799290Y306951D01*
X798902Y305000D01*
X799290Y303049D01*
X800395Y301395D01*
X800941Y301030D01*
Y277000D01*
X800941Y277000D01*
X801174Y275830D01*
X801837Y274837D01*
X814476Y262198D01*
Y256228D01*
X812535D01*
X810779Y255879D01*
X809291Y254884D01*
X808296Y253396D01*
X807947Y251640D01*
Y246640D01*
X808296Y244884D01*
X809291Y243396D01*
X810779Y242401D01*
X812535Y242052D01*
X822535D01*
X824291Y242401D01*
X825779Y243396D01*
X826774Y244884D01*
X827012Y246081D01*
X882988D01*
X883226Y244884D01*
X884221Y243396D01*
X885709Y242401D01*
X887465Y242052D01*
X897465D01*
X899221Y242401D01*
X900709Y243396D01*
X901704Y244884D01*
X902053Y246640D01*
Y251640D01*
X901704Y253396D01*
X900709Y254884D01*
X899221Y255879D01*
X897465Y256228D01*
X887465D01*
X885709Y255879D01*
X884221Y254884D01*
X883226Y253396D01*
X882988Y252199D01*
X827012D01*
X826774Y253396D01*
X825779Y254884D01*
X824291Y255879D01*
X822535Y256228D01*
X820594D01*
Y263465D01*
X820594Y263465D01*
X820361Y264636D01*
X819698Y265628D01*
X819698Y265628D01*
X807059Y278267D01*
Y301030D01*
X807605Y301395D01*
X808710Y303049D01*
X809098Y305000D01*
X808710Y306951D01*
X807605Y308605D01*
X805951Y309710D01*
X804000Y310098D01*
D02*
G37*
G36*
X548600Y317086D02*
X545989Y316743D01*
X543557Y315735D01*
X541468Y314132D01*
X539865Y312043D01*
X538857Y309611D01*
X538514Y307000D01*
X538857Y304389D01*
X539865Y301957D01*
X541468Y299868D01*
X543557Y298265D01*
X545989Y297257D01*
X548600Y296914D01*
X551211Y297257D01*
X553643Y298265D01*
X555732Y299868D01*
X557335Y301957D01*
X558343Y304389D01*
X558686Y307000D01*
X558343Y309611D01*
X557335Y312043D01*
X555732Y314132D01*
X553643Y315735D01*
X551211Y316743D01*
X548600Y317086D01*
D02*
G37*
G36*
X599400D02*
X596790Y316743D01*
X594357Y315735D01*
X592268Y314132D01*
X590665Y312043D01*
X589657Y309611D01*
X589314Y307000D01*
X589657Y304389D01*
X590665Y301957D01*
X592268Y299868D01*
X594357Y298265D01*
X596790Y297257D01*
X599400Y296914D01*
X602010Y297257D01*
X604443Y298265D01*
X606532Y299868D01*
X608135Y301957D01*
X609143Y304389D01*
X609486Y307000D01*
X609143Y309611D01*
X608135Y312043D01*
X606532Y314132D01*
X604443Y315735D01*
X602010Y316743D01*
X599400Y317086D01*
D02*
G37*
G36*
X74000Y157098D02*
X72049Y156710D01*
X70395Y155605D01*
X69290Y153951D01*
X68902Y152000D01*
X69290Y150049D01*
X70395Y148395D01*
X70431Y148371D01*
Y136629D01*
X70395Y136605D01*
X69290Y134951D01*
X68902Y133000D01*
X69290Y131049D01*
X70395Y129395D01*
X70473Y129343D01*
X70580Y127906D01*
X64733Y122059D01*
X59000D01*
Y127000D01*
X43000D01*
Y122059D01*
X28000D01*
Y127000D01*
X12000D01*
Y111000D01*
X28000D01*
Y115941D01*
X43000D01*
Y111000D01*
X59000D01*
Y115941D01*
X66000D01*
X66000Y115941D01*
X67171Y116174D01*
X68163Y116837D01*
X76163Y124837D01*
X76826Y125829D01*
X77059Y127000D01*
Y129030D01*
X77605Y129395D01*
X78710Y131049D01*
X79098Y133000D01*
X78710Y134951D01*
X77605Y136605D01*
X77569Y136629D01*
Y148371D01*
X77605Y148395D01*
X78710Y150049D01*
X79098Y152000D01*
X78710Y153951D01*
X77605Y155605D01*
X75951Y156710D01*
X74000Y157098D01*
D02*
G37*
G36*
X116000Y126098D02*
X114049Y125710D01*
X112395Y124605D01*
X112030Y124059D01*
X107969D01*
X107605Y124605D01*
X105951Y125710D01*
X104000Y126098D01*
X102049Y125710D01*
X100395Y124605D01*
X99290Y122951D01*
X98902Y121000D01*
X99290Y119049D01*
X100395Y117395D01*
X102049Y116290D01*
X104000Y115902D01*
X105951Y116290D01*
X107605Y117395D01*
X107969Y117941D01*
X112030D01*
X112395Y117395D01*
X114049Y116290D01*
X116000Y115902D01*
X117951Y116290D01*
X119605Y117395D01*
X120710Y119049D01*
X121098Y121000D01*
X120710Y122951D01*
X119605Y124605D01*
X117951Y125710D01*
X116000Y126098D01*
D02*
G37*
G36*
X20000Y163098D02*
X18049Y162710D01*
X16395Y161605D01*
X15290Y159951D01*
X14902Y158000D01*
X15290Y156049D01*
X16395Y154395D01*
X16941Y154030D01*
Y149000D01*
X12000D01*
Y133000D01*
X28000D01*
Y149000D01*
X23059D01*
Y154030D01*
X23605Y154395D01*
X24710Y156049D01*
X25098Y158000D01*
X24710Y159951D01*
X23605Y161605D01*
X21951Y162710D01*
X20000Y163098D01*
D02*
G37*
G36*
X50000Y163098D02*
X48049Y162710D01*
X46395Y161604D01*
X45290Y159951D01*
X44902Y158000D01*
X45290Y156049D01*
X46395Y154395D01*
X46941Y154030D01*
Y149000D01*
X43000D01*
Y133000D01*
X59000D01*
Y149000D01*
X53059D01*
Y154030D01*
X53605Y154395D01*
X54710Y156049D01*
X55098Y158000D01*
X54710Y159951D01*
X53605Y161604D01*
X51951Y162710D01*
X50000Y163098D01*
D02*
G37*
G36*
X198500Y92104D02*
X195367Y91691D01*
X192448Y90482D01*
X189942Y88559D01*
X188018Y86052D01*
X186809Y83133D01*
X186396Y80000D01*
X186809Y76867D01*
X188018Y73948D01*
X189942Y71441D01*
X192448Y69518D01*
X195367Y68309D01*
X198500Y67896D01*
X201633Y68309D01*
X204552Y69518D01*
X207059Y71441D01*
X208982Y73948D01*
X210191Y76867D01*
X210604Y80000D01*
X210191Y83133D01*
X208982Y86052D01*
X207059Y88559D01*
X204552Y90482D01*
X201633Y91691D01*
X198500Y92104D01*
D02*
G37*
G36*
X97000Y48098D02*
X95049Y47710D01*
X93395Y46605D01*
X92290Y44951D01*
X91902Y43000D01*
X92290Y41049D01*
X93395Y39395D01*
X95049Y38290D01*
X97000Y37902D01*
X98951Y38290D01*
X100605Y39395D01*
X101710Y41049D01*
X102098Y43000D01*
X101710Y44951D01*
X100605Y46605D01*
X98951Y47710D01*
X97000Y48098D01*
D02*
G37*
G36*
X137000D02*
X135049Y47710D01*
X133395Y46605D01*
X132290Y44951D01*
X131902Y43000D01*
X132290Y41049D01*
X133395Y39395D01*
X135049Y38290D01*
X137000Y37902D01*
X138951Y38290D01*
X140605Y39395D01*
X141710Y41049D01*
X142098Y43000D01*
X141710Y44951D01*
X140605Y46605D01*
X138951Y47710D01*
X137000Y48098D01*
D02*
G37*
G36*
X163500Y92104D02*
X160367Y91691D01*
X157448Y90482D01*
X154942Y88559D01*
X153018Y86052D01*
X151809Y83133D01*
X151396Y80000D01*
X151809Y76867D01*
X153018Y73948D01*
X154942Y71441D01*
X157448Y69518D01*
X160367Y68309D01*
X163500Y67896D01*
X166633Y68309D01*
X169552Y69518D01*
X172059Y71441D01*
X173982Y73948D01*
X175191Y76867D01*
X175604Y80000D01*
X175191Y83133D01*
X173982Y86052D01*
X172059Y88559D01*
X169552Y90482D01*
X166633Y91691D01*
X163500Y92104D01*
D02*
G37*
G36*
X160000Y187098D02*
X158049Y186710D01*
X156395Y185605D01*
X156030Y185059D01*
X149970D01*
X149605Y185605D01*
X147951Y186710D01*
X146000Y187098D01*
X144049Y186710D01*
X142395Y185605D01*
X141290Y183951D01*
X140902Y182000D01*
X141290Y180049D01*
X142395Y178395D01*
X144049Y177290D01*
X146000Y176902D01*
X147951Y177290D01*
X149605Y178395D01*
X149970Y178941D01*
X156030D01*
X156395Y178395D01*
X158049Y177290D01*
X160000Y176902D01*
X161951Y177290D01*
X163605Y178395D01*
X164710Y180049D01*
X165098Y182000D01*
X164710Y183951D01*
X163605Y185605D01*
X161951Y186710D01*
X160000Y187098D01*
D02*
G37*
G36*
X98000Y216098D02*
X96049Y215710D01*
X94395Y214605D01*
X94030Y214059D01*
X84970D01*
X84605Y214605D01*
X82951Y215710D01*
X81000Y216098D01*
X79049Y215710D01*
X77395Y214605D01*
X76290Y212951D01*
X75902Y211000D01*
X76290Y209049D01*
X77395Y207395D01*
X79049Y206290D01*
X81000Y205902D01*
X82951Y206290D01*
X84605Y207395D01*
X84970Y207941D01*
X94030D01*
X94395Y207395D01*
X96049Y206290D01*
X98000Y205902D01*
X99951Y206290D01*
X101605Y207395D01*
X102710Y209049D01*
X103098Y211000D01*
X102710Y212951D01*
X101605Y214605D01*
X99951Y215710D01*
X98000Y216098D01*
D02*
G37*
%LPD*%
D10*
X979000Y404000D02*
D03*
X22000Y91000D02*
D03*
D11*
X909000Y160000D02*
D03*
Y138000D02*
D03*
X874000Y160000D02*
D03*
Y138000D02*
D03*
X839000Y161000D02*
D03*
Y139000D02*
D03*
X803000Y161000D02*
D03*
Y139000D02*
D03*
X768000Y161000D02*
D03*
Y139000D02*
D03*
X733000Y161000D02*
D03*
Y139000D02*
D03*
X698000Y162000D02*
D03*
Y140000D02*
D03*
X663000Y162000D02*
D03*
Y140000D02*
D03*
X628000Y163000D02*
D03*
Y141000D02*
D03*
X592000Y163000D02*
D03*
Y141000D02*
D03*
X558000Y164000D02*
D03*
Y142000D02*
D03*
X20000Y141000D02*
D03*
Y119000D02*
D03*
X51000Y141000D02*
D03*
Y119000D02*
D03*
D12*
X892465Y384860D02*
D03*
X817535D02*
D03*
X892465Y339140D02*
D03*
X817535D02*
D03*
X892465Y294860D02*
D03*
X817535D02*
D03*
X892465Y249140D02*
D03*
X817535D02*
D03*
X891465Y475860D02*
D03*
X816535D02*
D03*
X891465Y430140D02*
D03*
X816535D02*
D03*
D13*
X390000Y353000D02*
D03*
X412000D02*
D03*
X390000Y378000D02*
D03*
X412000D02*
D03*
X390000Y404000D02*
D03*
X412000D02*
D03*
D14*
X57000Y279000D02*
D03*
Y297000D02*
D03*
X20000Y279000D02*
D03*
Y297000D02*
D03*
D15*
X470350Y248500D02*
D03*
Y311500D02*
D03*
X457650D02*
D03*
Y248500D02*
D03*
X432350D02*
D03*
Y311500D02*
D03*
X419650D02*
D03*
Y248500D02*
D03*
X378650Y310500D02*
D03*
Y247500D02*
D03*
X391350D02*
D03*
Y310500D02*
D03*
X276350Y248500D02*
D03*
Y311500D02*
D03*
X263650D02*
D03*
Y248500D02*
D03*
X241350D02*
D03*
Y311500D02*
D03*
X228650D02*
D03*
Y248500D02*
D03*
X190650Y311500D02*
D03*
Y248500D02*
D03*
X203350D02*
D03*
Y311500D02*
D03*
D16*
X662000Y344000D02*
X669000D01*
X698000Y335000D02*
X711000D01*
X719000Y343000D01*
X660000Y342000D02*
X662000Y344000D01*
X625142Y342000D02*
X640142Y357000D01*
X665000D01*
X412000Y404000D02*
X412000Y404000D01*
X412000Y404000D02*
Y415000D01*
X421000Y362000D02*
Y389000D01*
X412000Y353000D02*
X421000Y362000D01*
Y389000D02*
X427000Y395000D01*
X414499Y392499D02*
X416000Y394000D01*
X413999Y379999D02*
Y392999D01*
X412000Y378000D02*
X413999Y379999D01*
Y392999D02*
X415000Y394000D01*
X416000D01*
X412000Y415000D02*
Y417000D01*
X307999Y463599D02*
X322400Y478000D01*
X557000Y374000D02*
X565000Y382000D01*
X566000Y390000D02*
X579000Y377000D01*
X567657Y394000D02*
X583000Y378657D01*
X569314Y398000D02*
X587000Y380314D01*
X579000Y328000D02*
Y377000D01*
X583000Y341000D02*
Y378657D01*
X587000Y354000D02*
Y380314D01*
X116000Y121000D02*
X116000D01*
X115000Y122000D02*
X116000Y121000D01*
X104000Y121000D02*
X114000D01*
X115000Y122000D01*
X489000Y430000D02*
X633000D01*
X483000Y424000D02*
X489000Y430000D01*
X496000Y424000D02*
X643000D01*
X489000Y417000D02*
X496000Y424000D01*
X487000Y410000D02*
X620314D01*
X485000Y406000D02*
X631000D01*
X483000Y402000D02*
X617000D01*
X500000Y417000D02*
X650000D01*
X204400Y454000D02*
Y478000D01*
X587000Y354000D02*
X605000Y336000D01*
X636000Y401000D02*
X650000D01*
X631000Y406000D02*
X636000Y401000D01*
X620314Y410000D02*
X643000D01*
X635000Y432000D02*
X650000D01*
X620314Y410000D02*
X620314Y410000D01*
X804000Y277000D02*
Y305000D01*
X452600Y432400D02*
X483000Y402000D01*
X452600Y432400D02*
Y449400D01*
X456600Y434400D02*
X485000Y406000D01*
X456600Y434400D02*
Y452000D01*
X460600Y436400D02*
X487000Y410000D01*
X460600Y436400D02*
Y479000D01*
X477000Y374000D02*
X557000D01*
X588000Y336000D02*
X592000Y332000D01*
X583000Y341000D02*
X588000Y336000D01*
X592000Y332000D02*
X628657D01*
X574000Y323000D02*
X579000Y328000D01*
X574000Y307000D02*
Y323000D01*
X579000Y328000D02*
X630314D01*
X605000Y336000D02*
X627000D01*
X633000Y430000D02*
X635000Y432000D01*
X633000Y342000D02*
X660000D01*
X627000Y336000D02*
X633000Y342000D01*
X635314Y333000D02*
X678000D01*
Y334998D01*
X630314Y328000D02*
X635314Y333000D01*
X672000Y338000D02*
X675000Y341000D01*
X634657Y338000D02*
X672000D01*
X628657Y332000D02*
X634657Y338000D01*
X675000Y341000D02*
X686000D01*
X617000Y402000D02*
X623000Y396000D01*
X371000Y473000D02*
X384000Y460000D01*
X384400Y479000D02*
X398400Y465000D01*
X378000Y491000D02*
X397800D01*
X371000Y484000D02*
X378000Y491000D01*
X371000Y473000D02*
Y484000D01*
X397800Y491000D02*
X409800Y479000D01*
X909000Y80000D02*
Y138000D01*
X874000Y80000D02*
Y138000D01*
X839000Y80000D02*
Y139000D01*
X803000Y81000D02*
X804000Y80000D01*
X803000Y81000D02*
Y139000D01*
X768000Y81000D02*
X769000Y80000D01*
X768000Y81000D02*
Y139000D01*
X733000Y81000D02*
X734000Y80000D01*
X733000Y81000D02*
Y139000D01*
X698000Y81000D02*
X699000Y80000D01*
X698000Y81000D02*
Y140000D01*
X663000Y81000D02*
X664000Y80000D01*
X663000Y81000D02*
Y140000D01*
X628000Y81000D02*
X629000Y80000D01*
X628000Y81000D02*
Y141000D01*
X592000Y82000D02*
X594000Y80000D01*
X592000Y82000D02*
Y141000D01*
X558000Y81000D02*
X559000Y80000D01*
X558000Y81000D02*
Y142000D01*
X899000Y170000D02*
X909000Y160000D01*
X899000Y170000D02*
Y178000D01*
X886000Y172000D02*
X888000D01*
X874000Y160000D02*
X886000Y172000D01*
X827000Y173000D02*
X839000Y161000D01*
X827000Y173000D02*
Y175000D01*
X803000Y161000D02*
X816000Y174000D01*
Y175000D01*
X755000Y174000D02*
Y177000D01*
Y174000D02*
X768000Y161000D01*
X734000D02*
X746000Y173000D01*
X733000Y161000D02*
X734000D01*
X688000Y172000D02*
X698000Y162000D01*
X688000Y172000D02*
Y181000D01*
X663000Y162000D02*
X675000Y174000D01*
Y181000D01*
X627000Y164000D02*
X628000Y163000D01*
X614000Y164000D02*
X627000D01*
X398400Y465000D02*
X443600D01*
X456600Y452000D01*
X384000Y460000D02*
X442000D01*
X452600Y449400D01*
X817535Y249140D02*
Y263465D01*
X804000Y277000D02*
X817535Y263465D01*
X817000Y339675D02*
Y352000D01*
Y339675D02*
X817535Y339140D01*
X892465D01*
X816535Y418465D02*
X817000Y418000D01*
X816535Y418465D02*
Y430140D01*
X891465D01*
X623000Y381000D02*
Y396000D01*
X611000Y351000D02*
Y352000D01*
Y351000D02*
X615000Y347000D01*
X640485Y363000D02*
X672000D01*
X615000Y347000D02*
X624485D01*
X640485Y363000D01*
X622000Y353000D02*
X639999Y370999D01*
X665999D01*
X611000Y342000D02*
X625142D01*
X817535Y249140D02*
X892465D01*
X277000Y206000D02*
Y223000D01*
Y247850D01*
X276350D02*
Y248500D01*
X228000Y229000D02*
X237000D01*
X241350Y233350D01*
Y248500D01*
X203000Y235000D02*
Y248150D01*
X203350Y248500D01*
X190650Y311500D02*
Y326350D01*
X228650Y311500D02*
Y320350D01*
X219000Y330000D02*
X228650Y320350D01*
X206650Y327000D02*
Y331650D01*
X212000Y337000D01*
X227000D01*
X241350Y322650D01*
Y311500D02*
Y322650D01*
X276350Y303350D02*
Y311500D01*
X272000Y299000D02*
X276350Y303350D01*
X257000Y299000D02*
X272000D01*
X253000Y303000D02*
X257000Y299000D01*
X187000Y330000D02*
X190650Y326350D01*
X145000Y347000D02*
X181000D01*
X186000Y330000D02*
Y342000D01*
X181000Y347000D02*
X186000Y342000D01*
X57000Y297000D02*
Y358000D01*
X81000Y211000D02*
X98000D01*
X20000Y229000D02*
Y279000D01*
Y229000D02*
X35000Y214000D01*
X57000Y250000D02*
Y279000D01*
Y250000D02*
X62000Y245000D01*
X20000Y119000D02*
X51000D01*
X66000D01*
X74000Y127000D01*
Y133000D01*
X20000Y141000D02*
Y158000D01*
X50000Y142000D02*
Y158000D01*
Y142000D02*
X51000Y141000D01*
X146000Y182000D02*
X160000D01*
X153600Y478000D02*
X154000Y477600D01*
Y448000D02*
Y477600D01*
X179000Y441000D02*
Y478000D01*
X307999Y439999D02*
Y463599D01*
X240000Y440000D02*
Y446400D01*
X271600Y478000D01*
X248000Y432000D02*
Y447000D01*
X264000Y463000D01*
X280000D01*
X284000Y467000D01*
X263650Y313650D02*
X273000Y323000D01*
X263650Y311500D02*
Y313650D01*
X253000Y303000D02*
Y326000D01*
X273000Y323000D02*
Y330000D01*
X462000Y352000D02*
X470000Y344000D01*
X436000Y367000D02*
X467000Y398000D01*
X569314D01*
X457000Y344000D02*
Y382343D01*
X468657Y394000D01*
X567657D01*
X462000Y352000D02*
Y381686D01*
X470314Y390000D01*
X566000D01*
X432350Y236000D02*
Y248500D01*
X480000Y249000D02*
X485000Y244000D01*
X470850Y249000D02*
X480000D01*
X470350Y248500D02*
X470850Y249000D01*
X470350Y246350D02*
Y248500D01*
X463000Y239000D02*
X470350Y246350D01*
X463000Y234000D02*
Y239000D01*
X256000Y422000D02*
X297000D01*
X307999Y432999D01*
Y439999D01*
X290000Y432000D02*
X298000Y440000D01*
X265000Y432000D02*
X290000D01*
X298000Y440000D02*
Y479000D01*
X378650Y310500D02*
Y313350D01*
X391350Y310500D02*
Y351650D01*
X390000Y353000D02*
X391350Y351650D01*
X372000Y336000D02*
X381000D01*
X365650Y329650D02*
X372000Y336000D01*
X365650Y320000D02*
Y329650D01*
X372300Y313350D02*
X378650D01*
X365650Y320000D02*
X372300Y313350D01*
X419650Y311500D02*
Y320650D01*
X423000Y324000D01*
X437000D01*
X432350Y311500D02*
X442500D01*
X445000Y314000D01*
Y326000D01*
X437000Y334000D02*
X445000Y326000D01*
X436000Y351000D02*
Y367000D01*
X457650Y311500D02*
Y313650D01*
X467000Y323000D01*
X485350D01*
X470350Y300650D02*
Y311500D01*
Y300650D02*
X473000Y298000D01*
D17*
X74000Y133000D02*
Y152000D01*
X604000Y175000D02*
X604000D01*
X592000Y163000D02*
X604000Y175000D01*
X592000Y163000D02*
Y163000D01*
X542000Y164000D02*
X558000D01*
X228650Y248500D02*
Y274350D01*
X228000Y275000D02*
X228650Y274350D01*
X263650Y248500D02*
Y274650D01*
X264000Y275000D01*
X20000Y297000D02*
Y343000D01*
X34000Y357000D01*
X66000Y74000D02*
Y97000D01*
Y74000D02*
X74000Y66000D01*
X125000D01*
X130000Y61000D01*
D18*
X190000Y239000D02*
Y247850D01*
X190650Y248500D01*
X419650D02*
Y278350D01*
X445000Y245000D02*
Y278000D01*
Y245000D02*
X454150D01*
X457650Y248500D01*
X232000Y396000D02*
X297000D01*
D19*
X518500Y381500D02*
D03*
D20*
X84000Y21000D02*
D03*
X150000Y20000D02*
D03*
D21*
X198500Y80000D02*
D03*
X163500D02*
D03*
X93500D02*
D03*
X128500D02*
D03*
X429500D02*
D03*
X464500D02*
D03*
X874000D02*
D03*
X909000D02*
D03*
X629000D02*
D03*
X594000D02*
D03*
X524000D02*
D03*
X559000D02*
D03*
X664000D02*
D03*
X699000D02*
D03*
X734000D02*
D03*
X769000D02*
D03*
X839000D02*
D03*
X804000D02*
D03*
X299500D02*
D03*
X264500D02*
D03*
X334500D02*
D03*
X369500D02*
D03*
D22*
X653800Y474500D02*
D03*
X603000D02*
D03*
X628400D02*
D03*
X679200D02*
D03*
X229000Y478000D02*
D03*
X204400D02*
D03*
X153600D02*
D03*
X179000D02*
D03*
X347000D02*
D03*
X322400D02*
D03*
X271600D02*
D03*
X297000D02*
D03*
X524000Y307000D02*
D03*
X548600D02*
D03*
X599400D02*
D03*
X574000D02*
D03*
X385400Y478000D02*
D03*
X410800D02*
D03*
X436200D02*
D03*
X487000D02*
D03*
X461600D02*
D03*
X679700Y475000D02*
D03*
X628900D02*
D03*
X603500D02*
D03*
X654300D02*
D03*
D23*
X315000Y317100D02*
D03*
Y291700D02*
D03*
Y266300D02*
D03*
Y240900D02*
D03*
X107000Y320100D02*
D03*
Y294700D02*
D03*
Y269300D02*
D03*
Y243900D02*
D03*
D24*
X40000Y40000D02*
D03*
X960000D02*
D03*
D25*
Y460000D02*
D03*
X40000D02*
D03*
D26*
X685000Y280000D02*
D03*
X648000Y286000D02*
D03*
X706000Y265000D02*
D03*
X669000Y344000D02*
D03*
X719000Y343000D02*
D03*
X698000Y335000D02*
D03*
X665000Y357000D02*
D03*
X413999Y392999D02*
D03*
X412000Y415000D02*
D03*
X606000Y258000D02*
D03*
X685000Y304000D02*
D03*
X723000Y265000D02*
D03*
X807000Y264000D02*
D03*
X827000Y268000D02*
D03*
X892000Y276000D02*
D03*
X857000Y271000D02*
D03*
X810000Y363000D02*
D03*
X797000Y364000D02*
D03*
X804000Y435000D02*
D03*
X836000Y443000D02*
D03*
X826000Y403000D02*
D03*
Y316000D02*
D03*
X814000Y303000D02*
D03*
X747000Y285000D02*
D03*
X737000Y323000D02*
D03*
X759000Y319000D02*
D03*
Y335000D02*
D03*
X687000Y461800D02*
D03*
X727000Y455000D02*
D03*
X740000Y426000D02*
D03*
X724000Y409000D02*
D03*
X704000Y421000D02*
D03*
X648000Y392000D02*
D03*
X565000Y382000D02*
D03*
X582000Y395000D02*
D03*
X922000Y354000D02*
D03*
X978000Y367000D02*
D03*
X510000Y30000D02*
D03*
X473000Y32000D02*
D03*
X464000Y189000D02*
D03*
X482000Y207000D02*
D03*
X561000Y292000D02*
D03*
X531000Y343000D02*
D03*
X639000Y315000D02*
D03*
X685000Y292000D02*
D03*
X725000Y302000D02*
D03*
X706000Y358000D02*
D03*
X736000Y291000D02*
D03*
X766000Y309000D02*
D03*
X786000Y332000D02*
D03*
X912000Y321000D02*
D03*
X866000Y471000D02*
D03*
X861000Y447000D02*
D03*
X922000Y440000D02*
D03*
X943000Y411000D02*
D03*
X944000Y365000D02*
D03*
X972000Y331000D02*
D03*
X965000Y307000D02*
D03*
X960000Y266000D02*
D03*
X964000Y222000D02*
D03*
X982000Y208000D02*
D03*
X957000Y171000D02*
D03*
X988000Y131000D02*
D03*
X963000Y124000D02*
D03*
X992000Y70000D02*
D03*
X971000Y82000D02*
D03*
X928000Y11000D02*
D03*
X916000Y25000D02*
D03*
X913000Y36000D02*
D03*
X897000Y25000D02*
D03*
X896000Y39000D02*
D03*
X884000Y28000D02*
D03*
X879000Y40000D02*
D03*
X869000Y30000D02*
D03*
X850000Y28000D02*
D03*
X857000Y42000D02*
D03*
X838000Y37000D02*
D03*
X819000Y24000D02*
D03*
X817000Y40000D02*
D03*
X805000Y32000D02*
D03*
X791000Y24000D02*
D03*
X792000Y40000D02*
D03*
X780000Y28000D02*
D03*
X765000Y34000D02*
D03*
X751000Y22000D02*
D03*
X743000Y36000D02*
D03*
X728000Y29000D02*
D03*
X712000Y37000D02*
D03*
X715000Y22000D02*
D03*
X693000Y36000D02*
D03*
X681000Y20000D02*
D03*
X677000Y39000D02*
D03*
X668000Y29000D02*
D03*
X654000Y38000D02*
D03*
X645000Y23000D02*
D03*
X625000Y38000D02*
D03*
X563000Y40000D02*
D03*
X605000Y38000D02*
D03*
X634000Y29000D02*
D03*
X613000D02*
D03*
X590000Y31000D02*
D03*
X571000Y29000D02*
D03*
X551000Y30000D02*
D03*
X521000Y16000D02*
D03*
X430000Y25000D02*
D03*
X423000Y49000D02*
D03*
X442000Y44000D02*
D03*
X463000Y53000D02*
D03*
X453000Y29000D02*
D03*
X484000Y20000D02*
D03*
X528000Y31000D02*
D03*
X486000Y43000D02*
D03*
X516000Y55000D02*
D03*
X495000Y81000D02*
D03*
X321000Y391000D02*
D03*
X288000Y326000D02*
D03*
X277000Y342000D02*
D03*
X342000Y391000D02*
D03*
X306000Y416000D02*
D03*
X366000Y424000D02*
D03*
X367000Y401000D02*
D03*
X377000Y365000D02*
D03*
X369000Y357000D02*
D03*
X455000Y328000D02*
D03*
X484000Y351000D02*
D03*
X499000Y325000D02*
D03*
X501000Y225000D02*
D03*
X473000Y196000D02*
D03*
X516000Y356000D02*
D03*
X519000Y327000D02*
D03*
X541000Y331000D02*
D03*
X562000Y339000D02*
D03*
X590000Y285000D02*
D03*
X565000Y279000D02*
D03*
X558000Y232000D02*
D03*
X572000Y260000D02*
D03*
X593000Y235000D02*
D03*
X631000Y269000D02*
D03*
X617000Y280000D02*
D03*
X627000Y232000D02*
D03*
X659000Y234000D02*
D03*
X646000Y302000D02*
D03*
X652000Y321000D02*
D03*
X694000Y235000D02*
D03*
X698000Y280000D02*
D03*
X724000Y233000D02*
D03*
X765000Y255000D02*
D03*
X802000Y234000D02*
D03*
X836000Y232000D02*
D03*
X869000Y233000D02*
D03*
X909000D02*
D03*
X945000Y235000D02*
D03*
X936000Y81000D02*
D03*
X984000Y85000D02*
D03*
X958000Y98000D02*
D03*
X981000Y109000D02*
D03*
X971000Y146000D02*
D03*
X986000Y172000D02*
D03*
X971000Y195000D02*
D03*
X977000Y254000D02*
D03*
X849000Y292000D02*
D03*
X867000Y309000D02*
D03*
X926000Y290000D02*
D03*
X984000Y289000D02*
D03*
X936000Y330000D02*
D03*
X917000Y406000D02*
D03*
X964000Y386000D02*
D03*
X917000Y484000D02*
D03*
X886000Y449000D02*
D03*
X933000Y387000D02*
D03*
X898000Y365000D02*
D03*
X864000Y351000D02*
D03*
X853000Y383000D02*
D03*
X825000Y366000D02*
D03*
X815000Y319000D02*
D03*
X790000Y309000D02*
D03*
X775000Y361000D02*
D03*
X774500Y346000D02*
D03*
X767000Y329000D02*
D03*
X729000Y316000D02*
D03*
X685000Y377000D02*
D03*
X660000Y381000D02*
D03*
X715000Y374000D02*
D03*
X705000Y385000D02*
D03*
X727000Y395000D02*
D03*
X736000Y407000D02*
D03*
X790000Y423000D02*
D03*
X784000Y393000D02*
D03*
X759000Y427000D02*
D03*
X796000Y403000D02*
D03*
X850000Y411000D02*
D03*
X841000Y465000D02*
D03*
X801000Y486000D02*
D03*
X798000Y463000D02*
D03*
X771000Y458000D02*
D03*
Y487000D02*
D03*
X732000Y483000D02*
D03*
X731000Y436000D02*
D03*
X698000Y439000D02*
D03*
X702000Y467000D02*
D03*
X643000Y460000D02*
D03*
X642000Y443000D02*
D03*
X669000Y436000D02*
D03*
X600000Y450000D02*
D03*
X610000Y440000D02*
D03*
X580000Y475000D02*
D03*
X550000D02*
D03*
X530000Y445000D02*
D03*
X515000Y455000D02*
D03*
X500000Y463000D02*
D03*
X365000Y480000D02*
D03*
X250000D02*
D03*
X80000D02*
D03*
X15000Y420000D02*
D03*
X140000Y415000D02*
D03*
X125000Y480000D02*
D03*
X95000Y460000D02*
D03*
X80000Y430000D02*
D03*
X55000Y405000D02*
D03*
X25000Y395000D02*
D03*
X204000Y454000D02*
D03*
X183000Y99000D02*
D03*
X187000Y147000D02*
D03*
X143000Y130000D02*
D03*
X156000Y138000D02*
D03*
X167000Y150000D02*
D03*
X198000Y136000D02*
D03*
X215000Y91000D02*
D03*
X183000Y67000D02*
D03*
X196000Y36000D02*
D03*
X209000Y47000D02*
D03*
X207000Y13000D02*
D03*
X178000Y18000D02*
D03*
X172000Y48000D02*
D03*
X145000Y83000D02*
D03*
X121000Y97000D02*
D03*
X102000Y102000D02*
D03*
X58000Y80000D02*
D03*
X135000Y180000D02*
D03*
X68000Y172000D02*
D03*
X108000Y59000D02*
D03*
X75000Y84000D02*
D03*
X117000Y14000D02*
D03*
Y25000D02*
D03*
X204000Y102000D02*
D03*
X160000D02*
D03*
X213000Y110000D02*
D03*
X150000D02*
D03*
X130000Y121000D02*
D03*
Y103000D02*
D03*
X86000D02*
D03*
X80000Y115000D02*
D03*
X110000Y157000D02*
D03*
Y147000D02*
D03*
Y169000D02*
D03*
X121000Y147000D02*
D03*
X99000D02*
D03*
X121000Y169000D02*
D03*
X99000D02*
D03*
X38000Y132000D02*
D03*
X74000Y152000D02*
D03*
Y133000D02*
D03*
X116000Y121000D02*
D03*
X104000Y121000D02*
D03*
X483000Y424000D02*
D03*
X489000Y417000D02*
D03*
X500000D02*
D03*
X427000Y395000D02*
D03*
X650000Y401000D02*
D03*
X643000Y410000D02*
D03*
X650000Y432000D02*
D03*
X804000Y305000D02*
D03*
X284000Y467000D02*
D03*
X457000Y344000D02*
D03*
X470000D02*
D03*
X477000Y374000D02*
D03*
X500000Y382000D02*
D03*
X487000D02*
D03*
X540000D02*
D03*
X552000D02*
D03*
X588000Y336000D02*
D03*
X599000Y342000D02*
D03*
X678000Y333000D02*
D03*
X686000Y341000D02*
D03*
X899000Y178000D02*
D03*
X888000Y172000D02*
D03*
X827000Y175000D02*
D03*
X816000D02*
D03*
X755000Y177000D02*
D03*
X746000Y173000D02*
D03*
X675000Y181000D02*
D03*
X614000Y164000D02*
D03*
X604000Y175000D02*
D03*
X542000Y164000D02*
D03*
X688000Y181000D02*
D03*
X817000Y352000D02*
D03*
Y418000D02*
D03*
X623000Y381000D02*
D03*
X650000Y417000D02*
D03*
X643000Y424000D02*
D03*
X611000Y342000D02*
D03*
Y352000D02*
D03*
X622000Y353000D02*
D03*
X665999Y370999D02*
D03*
X672000Y363000D02*
D03*
X277000Y206000D02*
D03*
Y223000D02*
D03*
X228000Y241000D02*
D03*
Y229000D02*
D03*
X228650Y274350D02*
D03*
X263650Y274650D02*
D03*
X203000Y235000D02*
D03*
X190000Y239000D02*
D03*
X145000Y347000D02*
D03*
X219000Y330000D02*
D03*
X206650Y327000D02*
D03*
X186000Y330000D02*
D03*
X34000Y357000D02*
D03*
X98000Y211000D02*
D03*
X81000D02*
D03*
X35000Y214000D02*
D03*
X62000Y245000D02*
D03*
X46000Y105000D02*
D03*
X50000Y158000D02*
D03*
X20000Y158000D02*
D03*
X146000Y182000D02*
D03*
X160000D02*
D03*
X130000Y61000D02*
D03*
X66000Y97000D02*
D03*
X154000Y448000D02*
D03*
X179000Y441000D02*
D03*
X240000Y440000D02*
D03*
X248000Y432000D02*
D03*
X307999Y439999D02*
D03*
X256000Y422000D02*
D03*
X253000Y326000D02*
D03*
X273000Y330000D02*
D03*
X265000Y432000D02*
D03*
X297000Y396000D02*
D03*
X493000Y200000D02*
D03*
X529000Y214000D02*
D03*
X378000Y240000D02*
D03*
X391000D02*
D03*
X432350Y236000D02*
D03*
X419650Y278350D02*
D03*
X445000Y245000D02*
D03*
Y278000D02*
D03*
X485000Y244000D02*
D03*
X463000Y234000D02*
D03*
X232000Y396000D02*
D03*
X298000Y440000D02*
D03*
X365650Y320000D02*
D03*
X381000Y336000D02*
D03*
X437000Y324000D02*
D03*
Y334000D02*
D03*
X436000Y351000D02*
D03*
X485350Y323000D02*
D03*
X473000Y298000D02*
D03*
M02*
