G04 Layer_Physical_Order=2*
G04 Layer_Color=10354688*
%FSLAX44Y44*%
%MOMM*%
G71*
G01*
G75*
%ADD10C,1.0000*%
G04:AMPARAMS|DCode=14|XSize=0.5mm|YSize=1.25mm|CornerRadius=0.125mm|HoleSize=0mm|Usage=FLASHONLY|Rotation=270.000|XOffset=0mm|YOffset=0mm|HoleType=Round|Shape=RoundedRectangle|*
%AMROUNDEDRECTD14*
21,1,0.5000,1.0000,0,0,270.0*
21,1,0.2500,1.2500,0,0,270.0*
1,1,0.2500,-0.5000,-0.1250*
1,1,0.2500,-0.5000,0.1250*
1,1,0.2500,0.5000,0.1250*
1,1,0.2500,0.5000,-0.1250*
%
%ADD14ROUNDEDRECTD14*%
G04:AMPARAMS|DCode=15|XSize=1.2mm|YSize=0.8mm|CornerRadius=0.2mm|HoleSize=0mm|Usage=FLASHONLY|Rotation=90.000|XOffset=0mm|YOffset=0mm|HoleType=Round|Shape=RoundedRectangle|*
%AMROUNDEDRECTD15*
21,1,1.2000,0.4000,0,0,90.0*
21,1,0.8000,0.8000,0,0,90.0*
1,1,0.4000,0.2000,0.4000*
1,1,0.4000,0.2000,-0.4000*
1,1,0.4000,-0.2000,-0.4000*
1,1,0.4000,-0.2000,0.4000*
%
%ADD15ROUNDEDRECTD15*%
%ADD16C,0.2000*%
%ADD17C,0.3000*%
%ADD18C,0.5000*%
%ADD20O,1.5000X2.0000*%
%ADD21C,2.0000*%
%ADD22C,1.6000*%
%ADD23C,1.3000*%
%ADD24C,5.0000*%
%ADD25C,6.0000*%
%ADD26C,0.6000*%
G04:AMPARAMS|DCode=27|XSize=2mm|YSize=1.5mm|CornerRadius=0.375mm|HoleSize=0mm|Usage=FLASHONLY|Rotation=180.000|XOffset=0mm|YOffset=0mm|HoleType=Round|Shape=RoundedRectangle|*
%AMROUNDEDRECTD27*
21,1,2.0000,0.7500,0,0,180.0*
21,1,1.2500,1.5000,0,0,180.0*
1,1,0.7500,-0.6250,0.3750*
1,1,0.7500,0.6250,0.3750*
1,1,0.7500,0.6250,-0.3750*
1,1,0.7500,-0.6250,-0.3750*
%
%ADD27ROUNDEDRECTD27*%
%ADD28O,0.6000X1.9000*%
G04:AMPARAMS|DCode=29|XSize=0.5mm|YSize=0.8mm|CornerRadius=0.125mm|HoleSize=0mm|Usage=FLASHONLY|Rotation=180.000|XOffset=0mm|YOffset=0mm|HoleType=Round|Shape=RoundedRectangle|*
%AMROUNDEDRECTD29*
21,1,0.5000,0.5500,0,0,180.0*
21,1,0.2500,0.8000,0,0,180.0*
1,1,0.2500,-0.1250,0.2750*
1,1,0.2500,0.1250,0.2750*
1,1,0.2500,0.1250,-0.2750*
1,1,0.2500,-0.1250,-0.2750*
%
%ADD29ROUNDEDRECTD29*%
G04:AMPARAMS|DCode=30|XSize=0.85mm|YSize=0.6mm|CornerRadius=0.15mm|HoleSize=0mm|Usage=FLASHONLY|Rotation=90.000|XOffset=0mm|YOffset=0mm|HoleType=Round|Shape=RoundedRectangle|*
%AMROUNDEDRECTD30*
21,1,0.8500,0.3000,0,0,90.0*
21,1,0.5500,0.6000,0,0,90.0*
1,1,0.3000,0.1500,0.2750*
1,1,0.3000,0.1500,-0.2750*
1,1,0.3000,-0.1500,-0.2750*
1,1,0.3000,-0.1500,0.2750*
%
%ADD30ROUNDEDRECTD30*%
G04:AMPARAMS|DCode=31|XSize=0.85mm|YSize=0.6mm|CornerRadius=0.15mm|HoleSize=0mm|Usage=FLASHONLY|Rotation=180.000|XOffset=0mm|YOffset=0mm|HoleType=Round|Shape=RoundedRectangle|*
%AMROUNDEDRECTD31*
21,1,0.8500,0.3000,0,0,180.0*
21,1,0.5500,0.6000,0,0,180.0*
1,1,0.3000,-0.2750,0.1500*
1,1,0.3000,0.2750,0.1500*
1,1,0.3000,0.2750,-0.1500*
1,1,0.3000,-0.2750,-0.1500*
%
%ADD31ROUNDEDRECTD31*%
G04:AMPARAMS|DCode=32|XSize=0.8mm|YSize=1.3mm|CornerRadius=0.2mm|HoleSize=0mm|Usage=FLASHONLY|Rotation=0.000|XOffset=0mm|YOffset=0mm|HoleType=Round|Shape=RoundedRectangle|*
%AMROUNDEDRECTD32*
21,1,0.8000,0.9000,0,0,0.0*
21,1,0.4000,1.3000,0,0,0.0*
1,1,0.4000,0.2000,-0.4500*
1,1,0.4000,-0.2000,-0.4500*
1,1,0.4000,-0.2000,0.4500*
1,1,0.4000,0.2000,0.4500*
%
%ADD32ROUNDEDRECTD32*%
G04:AMPARAMS|DCode=33|XSize=0.8mm|YSize=1.3mm|CornerRadius=0.2mm|HoleSize=0mm|Usage=FLASHONLY|Rotation=270.000|XOffset=0mm|YOffset=0mm|HoleType=Round|Shape=RoundedRectangle|*
%AMROUNDEDRECTD33*
21,1,0.8000,0.9000,0,0,270.0*
21,1,0.4000,1.3000,0,0,270.0*
1,1,0.4000,-0.4500,-0.2000*
1,1,0.4000,-0.4500,0.2000*
1,1,0.4000,0.4500,0.2000*
1,1,0.4000,0.4500,-0.2000*
%
%ADD33ROUNDEDRECTD33*%
G04:AMPARAMS|DCode=34|XSize=1.4mm|YSize=0.35mm|CornerRadius=0.0875mm|HoleSize=0mm|Usage=FLASHONLY|Rotation=90.000|XOffset=0mm|YOffset=0mm|HoleType=Round|Shape=RoundedRectangle|*
%AMROUNDEDRECTD34*
21,1,1.4000,0.1750,0,0,90.0*
21,1,1.2250,0.3500,0,0,90.0*
1,1,0.1750,0.0875,0.6125*
1,1,0.1750,0.0875,-0.6125*
1,1,0.1750,-0.0875,-0.6125*
1,1,0.1750,-0.0875,0.6125*
%
%ADD34ROUNDEDRECTD34*%
%ADD35R,1.4000X1.2000*%
%ADD36R,1.5000X1.5000*%
%ADD37R,3.2000X3.2000*%
%ADD38R,0.3000X0.9500*%
%ADD39R,0.9500X0.3000*%
%ADD40O,1.2000X0.2500*%
%ADD41O,0.2500X1.2000*%
%ADD42R,2.2000X3.3000*%
%ADD43R,2.2000X1.0000*%
%ADD44R,3.3000X2.2000*%
%ADD45R,1.0000X2.2000*%
G04:AMPARAMS|DCode=46|XSize=1.25mm|YSize=0.7mm|CornerRadius=0.175mm|HoleSize=0mm|Usage=FLASHONLY|Rotation=90.000|XOffset=0mm|YOffset=0mm|HoleType=Round|Shape=RoundedRectangle|*
%AMROUNDEDRECTD46*
21,1,1.2500,0.3500,0,0,90.0*
21,1,0.9000,0.7000,0,0,90.0*
1,1,0.3500,0.1750,0.4500*
1,1,0.3500,0.1750,-0.4500*
1,1,0.3500,-0.1750,-0.4500*
1,1,0.3500,-0.1750,0.4500*
%
%ADD46ROUNDEDRECTD46*%
G04:AMPARAMS|DCode=47|XSize=1.25mm|YSize=0.7mm|CornerRadius=0.175mm|HoleSize=0mm|Usage=FLASHONLY|Rotation=180.000|XOffset=0mm|YOffset=0mm|HoleType=Round|Shape=RoundedRectangle|*
%AMROUNDEDRECTD47*
21,1,1.2500,0.3500,0,0,180.0*
21,1,0.9000,0.7000,0,0,180.0*
1,1,0.3500,-0.4500,0.1750*
1,1,0.3500,0.4500,0.1750*
1,1,0.3500,0.4500,-0.1750*
1,1,0.3500,-0.4500,-0.1750*
%
%ADD47ROUNDEDRECTD47*%
%ADD48O,0.6000X1.1000*%
%ADD49R,1.2000X1.9000*%
G04:AMPARAMS|DCode=50|XSize=0.6mm|YSize=0.7mm|CornerRadius=0.15mm|HoleSize=0mm|Usage=FLASHONLY|Rotation=90.000|XOffset=0mm|YOffset=0mm|HoleType=Round|Shape=RoundedRectangle|*
%AMROUNDEDRECTD50*
21,1,0.6000,0.4000,0,0,90.0*
21,1,0.3000,0.7000,0,0,90.0*
1,1,0.3000,0.2000,0.1500*
1,1,0.3000,0.2000,-0.1500*
1,1,0.3000,-0.2000,-0.1500*
1,1,0.3000,-0.2000,0.1500*
%
%ADD50ROUNDEDRECTD50*%
G04:AMPARAMS|DCode=51|XSize=0.5mm|YSize=1.25mm|CornerRadius=0.125mm|HoleSize=0mm|Usage=FLASHONLY|Rotation=180.000|XOffset=0mm|YOffset=0mm|HoleType=Round|Shape=RoundedRectangle|*
%AMROUNDEDRECTD51*
21,1,0.5000,1.0000,0,0,180.0*
21,1,0.2500,1.2500,0,0,180.0*
1,1,0.2500,-0.1250,0.5000*
1,1,0.2500,0.1250,0.5000*
1,1,0.2500,0.1250,-0.5000*
1,1,0.2500,-0.1250,-0.5000*
%
%ADD51ROUNDEDRECTD51*%
%ADD52R,0.5000X0.5000*%
%ADD53R,0.5000X0.5000*%
%ADD54C,0.7500*%
%ADD55R,0.8000X1.0000*%
%ADD56R,2.1000X2.1000*%
%ADD57R,1.9000X3.2000*%
%ADD58R,3.1000X11.4000*%
%ADD59R,1.2000X2.5000*%
%ADD60R,1.1000X2.5000*%
%ADD61R,7.0000X7.3542*%
%ADD62R,42.5000X2.0000*%
%ADD63R,2.8000X7.4000*%
%ADD64R,2.7000X7.4000*%
%ADD65R,2.6000X6.6000*%
G36*
X270256Y350256D02*
X271744Y349261D01*
X273500Y348912D01*
X281922D01*
X282939Y348232D01*
X284500Y347922D01*
X293500D01*
X295061Y348232D01*
X296078Y348912D01*
X301998D01*
X303037Y348218D01*
X304500Y347927D01*
X313500D01*
X314963Y348218D01*
X316002Y348912D01*
X329599D01*
X346756Y331756D01*
X348244Y330761D01*
X350000Y330412D01*
X366100D01*
X373762Y322749D01*
Y312633D01*
X373640Y312451D01*
X373252Y310500D01*
Y305500D01*
X373640Y303549D01*
X374674Y302001D01*
X374551Y301415D01*
X373980Y300001D01*
X370020Y300001D01*
X369449Y301415D01*
X369326Y302001D01*
X370360Y303549D01*
X370748Y305500D01*
Y310500D01*
X370360Y312451D01*
X369255Y314105D01*
X369081Y314221D01*
Y316279D01*
X369255Y316395D01*
X370360Y318049D01*
X370748Y320000D01*
X370360Y321951D01*
X369255Y323605D01*
X367601Y324710D01*
X365650Y325098D01*
X363699Y324710D01*
X362045Y323605D01*
X360940Y321951D01*
X360552Y320000D01*
X360940Y318049D01*
X362045Y316395D01*
X362219Y316279D01*
Y314221D01*
X362045Y314105D01*
X360940Y312451D01*
X360552Y310500D01*
Y305500D01*
X360940Y303549D01*
X361974Y302001D01*
X361851Y301415D01*
X361280Y300001D01*
X317069Y300001D01*
X315000Y300273D01*
X313158Y300031D01*
X305588Y307600D01*
Y331100D01*
X307415Y332926D01*
X313498D01*
X314961Y333218D01*
X316202Y334046D01*
X317031Y335287D01*
X317322Y336750D01*
Y340250D01*
X317031Y341713D01*
X316202Y342954D01*
X314961Y343782D01*
X313498Y344073D01*
X304498D01*
X303035Y343782D01*
X301795Y342954D01*
X300966Y341713D01*
X300675Y340250D01*
Y339164D01*
X297756Y336244D01*
X296761Y334756D01*
X296412Y333000D01*
Y305700D01*
X296761Y303944D01*
X297756Y302456D01*
X298363Y301849D01*
X297597Y300001D01*
X291462Y300001D01*
X290394Y302001D01*
X290760Y302549D01*
X291148Y304500D01*
Y309500D01*
X290760Y311451D01*
X289655Y313105D01*
X288001Y314210D01*
X286050Y314598D01*
X284099Y314210D01*
X282445Y313105D01*
X281340Y311451D01*
X280952Y309500D01*
Y304500D01*
X281340Y302549D01*
X281707Y302001D01*
X280637Y300001D01*
X278762D01*
X277694Y302001D01*
X278060Y302549D01*
X278448Y304500D01*
Y309500D01*
X278060Y311451D01*
X276955Y313105D01*
X276409Y313470D01*
Y326264D01*
X276605Y326395D01*
X277710Y328049D01*
X278098Y330000D01*
X277710Y331951D01*
X276605Y333605D01*
X274951Y334710D01*
X273000Y335098D01*
X271522Y334804D01*
X262059Y344267D01*
Y355840D01*
X263906Y356605D01*
X270256Y350256D01*
D02*
G37*
G36*
X11329Y263730D02*
X10882Y263061D01*
X10572Y261500D01*
Y253500D01*
X10882Y251939D01*
X11766Y250616D01*
X13089Y249732D01*
X13591Y249632D01*
Y239350D01*
X13591Y239350D01*
X13820Y238198D01*
X13681Y237500D01*
Y234500D01*
X13953Y233134D01*
X14727Y231977D01*
X15884Y231203D01*
X17250Y230931D01*
X20743D01*
X23450Y228224D01*
X22824Y227054D01*
X22750Y227069D01*
X17250D01*
X15884Y226797D01*
X14727Y226023D01*
X13953Y224866D01*
X13681Y223500D01*
Y220500D01*
X13953Y219134D01*
X14727Y217977D01*
X15884Y217203D01*
X16941Y216993D01*
Y161970D01*
X16395Y161605D01*
X15290Y159951D01*
X14902Y158000D01*
X15290Y156049D01*
X16395Y154395D01*
X18049Y153290D01*
X20000Y152902D01*
X21951Y153290D01*
X23605Y154395D01*
X24710Y156049D01*
X25098Y158000D01*
X24710Y159951D01*
X23605Y161605D01*
X23059Y161970D01*
Y216993D01*
X24116Y217203D01*
X25273Y217977D01*
X26047Y219134D01*
X26319Y220500D01*
Y223500D01*
X26047Y224866D01*
X26834Y225974D01*
X27000Y225941D01*
X27000Y225941D01*
X28346D01*
X28914Y224671D01*
X28681Y223500D01*
Y220500D01*
X28953Y219134D01*
X29727Y217977D01*
X29996Y217797D01*
X30393Y216105D01*
X30290Y215951D01*
X29902Y214000D01*
X30290Y212049D01*
X31395Y210395D01*
X31941Y210030D01*
Y156000D01*
X31941Y156000D01*
X32174Y154830D01*
X32837Y153837D01*
X36837Y149837D01*
X36837Y149837D01*
X37830Y149174D01*
X39000Y148941D01*
X39000Y148941D01*
X58409D01*
X59155Y147671D01*
X58922Y146500D01*
Y137718D01*
X54477Y133273D01*
X53703Y132116D01*
X53431Y130750D01*
Y106000D01*
X53703Y104634D01*
X54477Y103477D01*
X60911Y97043D01*
X60902Y97000D01*
X61290Y95049D01*
X62395Y93395D01*
X64049Y92290D01*
X66000Y91902D01*
X67951Y92290D01*
X69605Y93395D01*
X70710Y95049D01*
X70859Y95798D01*
X72237Y96216D01*
X82837Y85616D01*
X81809Y83133D01*
X81396Y80000D01*
X81809Y76867D01*
X83018Y73948D01*
X84942Y71441D01*
X87448Y69518D01*
X90367Y68309D01*
X93500Y67896D01*
X96633Y68309D01*
X99552Y69518D01*
X102058Y71441D01*
X103982Y73948D01*
X105191Y76867D01*
X105604Y80000D01*
X105191Y83133D01*
X103982Y86052D01*
X102058Y88559D01*
X99552Y90482D01*
X96633Y91691D01*
X93500Y92104D01*
X90367Y91691D01*
X87884Y90663D01*
X68569Y109978D01*
Y113737D01*
X69884Y114616D01*
X70768Y115939D01*
X71078Y117500D01*
Y120431D01*
X97200D01*
X97700Y120531D01*
X99162Y119691D01*
X99290Y119049D01*
X100218Y117659D01*
X100500Y116506D01*
X100500Y116506D01*
X100500D01*
X100500Y116506D01*
Y107506D01*
X106941D01*
Y69343D01*
X106941Y69343D01*
X107174Y68173D01*
X107837Y67180D01*
X115191Y59826D01*
Y56017D01*
X114837Y55663D01*
X114192Y54697D01*
X114167Y54668D01*
X112775Y54147D01*
X112497Y54333D01*
X111375Y54556D01*
X109625D01*
X108503Y54333D01*
X107552Y53698D01*
X106917Y52747D01*
X106694Y51625D01*
Y39375D01*
X106917Y38253D01*
X107552Y37302D01*
X108503Y36667D01*
X109625Y36444D01*
X111375D01*
X112497Y36667D01*
X112810Y36876D01*
X113750Y37199D01*
X114690Y36876D01*
X115003Y36667D01*
X116125Y36444D01*
X117875D01*
X118997Y36667D01*
X119948Y37302D01*
X120552D01*
X121503Y36667D01*
X122625Y36444D01*
X124375D01*
X125497Y36667D01*
X125810Y36876D01*
X126750Y37199D01*
X127690Y36876D01*
X128003Y36667D01*
X129125Y36444D01*
X130875D01*
X131997Y36667D01*
X132948Y37302D01*
X133347Y37900D01*
X134818Y38445D01*
X135049Y38290D01*
X137000Y37902D01*
X138951Y38290D01*
X140605Y39395D01*
X141710Y41049D01*
X142098Y43000D01*
X141710Y44951D01*
X140605Y46605D01*
X138951Y47710D01*
X137000Y48098D01*
X135076Y47715D01*
X134847Y47672D01*
X133806Y48395D01*
Y51625D01*
X133583Y52747D01*
X133569Y52769D01*
Y57371D01*
X133605Y57395D01*
X134710Y59049D01*
X135098Y61000D01*
X134710Y62951D01*
X133605Y64605D01*
X131951Y65710D01*
X130000Y66098D01*
X128049Y65710D01*
X126395Y64605D01*
X126213Y64331D01*
X126152Y64309D01*
X124743Y64418D01*
X124413Y64913D01*
X124413Y64913D01*
X117059Y72267D01*
Y106494D01*
X122500D01*
Y115494D01*
X119045D01*
X118660Y116764D01*
X119605Y117395D01*
X120710Y119049D01*
X121098Y121000D01*
X120710Y122951D01*
X119605Y124605D01*
X119043Y124980D01*
X119429Y126250D01*
X128500D01*
Y138500D01*
X140750D01*
Y148941D01*
X142000D01*
X142000Y148941D01*
X143170Y149174D01*
X144163Y149837D01*
X156163Y161837D01*
X156163Y161837D01*
X156826Y162829D01*
X157059Y164000D01*
Y176541D01*
X158329Y177234D01*
X160000Y176902D01*
X160644Y177030D01*
X171941Y165733D01*
Y129007D01*
X170884Y128797D01*
X169727Y128023D01*
X169082Y127059D01*
X164494D01*
Y128500D01*
X155494D01*
Y119500D01*
X164494D01*
Y120941D01*
X169082D01*
X169727Y119977D01*
X170884Y119203D01*
X172250Y118931D01*
X177750D01*
X179116Y119203D01*
X180273Y119977D01*
X181047Y121134D01*
X181319Y122500D01*
Y125500D01*
X181047Y126866D01*
X182103Y127572D01*
X183763Y125911D01*
X183681Y125500D01*
Y122500D01*
X183953Y121134D01*
X184727Y119977D01*
X185884Y119203D01*
X187250Y118931D01*
X192750D01*
X194116Y119203D01*
X195273Y119977D01*
X195918Y120941D01*
X199494D01*
Y119500D01*
X208494D01*
Y128500D01*
X199494D01*
Y127059D01*
X195918D01*
X195273Y128023D01*
X194116Y128797D01*
X192750Y129069D01*
X189257D01*
X182059Y136267D01*
Y171282D01*
X183232Y171768D01*
X185000Y170000D01*
X185000Y156000D01*
X197500Y143500D01*
Y142000D01*
X217750Y121750D01*
Y5000D01*
X68000D01*
Y21577D01*
X69941Y24744D01*
X71959Y29616D01*
X73190Y34743D01*
X73604Y40000D01*
X73190Y45257D01*
X71959Y50384D01*
X69941Y55256D01*
X68000Y58423D01*
Y74000D01*
X27198Y74000D01*
X26946Y75270D01*
X29685Y76405D01*
X32429Y78238D01*
X34762Y80571D01*
X36595Y83315D01*
X37858Y86364D01*
X38502Y89600D01*
Y92900D01*
X37858Y96136D01*
X36595Y99185D01*
X34762Y101929D01*
X32429Y104262D01*
X29685Y106095D01*
X26636Y107358D01*
X23400Y108002D01*
X20100D01*
X16864Y107358D01*
X13815Y106095D01*
X11071Y104262D01*
X8738Y101929D01*
X7270Y99732D01*
X6000Y100117D01*
X6000Y265000D01*
X10651D01*
X11329Y263730D01*
D02*
G37*
G36*
X460941Y338215D02*
Y334000D01*
X460941Y334000D01*
X461174Y332830D01*
X461837Y331837D01*
X469591Y324083D01*
Y314470D01*
X469045Y314105D01*
X467940Y312451D01*
X467552Y310500D01*
Y305500D01*
X467940Y303549D01*
X469045Y301895D01*
X468324Y300002D01*
X464321D01*
X463750Y301414D01*
X463626Y302002D01*
X464660Y303549D01*
X465048Y305500D01*
Y310500D01*
X464660Y312451D01*
X463555Y314105D01*
X461901Y315210D01*
X459950Y315598D01*
X457999Y315210D01*
X456345Y314105D01*
X455240Y312451D01*
X454852Y310500D01*
Y305500D01*
X455240Y303549D01*
X456274Y302001D01*
X456151Y301414D01*
X455579Y300002D01*
X449421Y300002D01*
X448849Y301414D01*
X448726Y302001D01*
X449760Y303549D01*
X450148Y305500D01*
Y310500D01*
X449760Y312451D01*
X448655Y314105D01*
X447001Y315210D01*
X445050Y315598D01*
X443099Y315210D01*
X441445Y314105D01*
X440340Y312451D01*
X439952Y310500D01*
Y305500D01*
X440340Y303549D01*
X441374Y302001D01*
X441251Y301414D01*
X440680Y300002D01*
X436721Y300001D01*
X436149Y301414D01*
X436026Y302001D01*
X437060Y303549D01*
X437448Y305500D01*
Y310500D01*
X437060Y312451D01*
X435955Y314105D01*
X435409Y314470D01*
Y317441D01*
X437000Y318902D01*
X438951Y319290D01*
X440605Y320395D01*
X441710Y322049D01*
X442098Y324000D01*
X441970Y324644D01*
X456356Y339030D01*
X457000Y338902D01*
X458951Y339290D01*
X460941Y338215D01*
D02*
G37*
G36*
X738707Y327880D02*
X739941Y327323D01*
Y299000D01*
X739941Y299000D01*
X740174Y297829D01*
X740837Y296837D01*
X754768Y282906D01*
X754002Y281059D01*
X736894D01*
X714559Y303394D01*
Y306416D01*
X716500Y307936D01*
X717768Y308189D01*
X718843Y308907D01*
X719561Y309982D01*
X719814Y311250D01*
Y320750D01*
X719561Y322018D01*
X719559Y322022D01*
Y325186D01*
X719559Y325186D01*
X719508Y325441D01*
X720696Y327248D01*
X720994Y327441D01*
X724978D01*
X724982Y327439D01*
X726250Y327186D01*
X735750D01*
X737018Y327439D01*
X737941Y328055D01*
X738707Y327880D01*
D02*
G37*
G36*
X78441Y220233D02*
Y215304D01*
X77395Y214605D01*
X76290Y212951D01*
X75902Y211000D01*
X76290Y209049D01*
X77395Y207395D01*
X77915Y207048D01*
X77987Y206635D01*
X77862Y205615D01*
X76977Y205023D01*
X76203Y203866D01*
X75931Y202500D01*
Y199500D01*
X76203Y198134D01*
X76977Y196977D01*
X78134Y196203D01*
X79500Y195931D01*
X83500D01*
X84866Y196203D01*
X86023Y196977D01*
X86454Y197621D01*
X87439Y197775D01*
X87871Y197758D01*
X87940Y197734D01*
X95837Y189837D01*
X95837Y189837D01*
X96830Y189174D01*
X97604Y189020D01*
X97479Y187750D01*
X91500D01*
Y175500D01*
X79250D01*
Y163500D01*
Y155428D01*
X77980Y155043D01*
X77605Y155605D01*
X75951Y156710D01*
X74000Y157098D01*
X72049Y156710D01*
X70395Y155605D01*
X70030Y155058D01*
X55459D01*
X54765Y156328D01*
X55098Y158000D01*
X54710Y159951D01*
X53605Y161604D01*
X53059Y161969D01*
Y205733D01*
X64257Y216931D01*
X67750D01*
X69116Y217203D01*
X70273Y217977D01*
X71047Y219134D01*
X71319Y220500D01*
Y223500D01*
X71093Y224633D01*
X71736Y225738D01*
X72825Y225849D01*
X78441Y220233D01*
D02*
G37*
G36*
X101500Y174250D02*
X127250D01*
Y168500D01*
Y158500D01*
Y148500D01*
Y139750D01*
X116500D01*
Y127293D01*
X116014Y126131D01*
X115347Y125968D01*
X114591Y125818D01*
X113538Y126721D01*
X113500Y126797D01*
Y139750D01*
X101500D01*
Y139750D01*
X92750D01*
Y153500D01*
Y163500D01*
Y174250D01*
X101500D01*
Y174250D01*
D02*
G37*
G36*
X96000Y215677D02*
X94395Y214605D01*
X94329Y214505D01*
X93059Y214891D01*
Y220000D01*
X92826Y221171D01*
X92163Y222163D01*
X92163Y222163D01*
X76163Y238163D01*
X75170Y238826D01*
X74000Y239059D01*
X74000Y239059D01*
X70918D01*
X70273Y240023D01*
X69116Y240797D01*
X67750Y241069D01*
X62250D01*
X60884Y240797D01*
X59727Y240023D01*
X59082Y239059D01*
X55918D01*
X55273Y240023D01*
X54116Y240797D01*
X52750Y241069D01*
X52709D01*
Y250632D01*
X53211Y250732D01*
X54534Y251616D01*
X55418Y252939D01*
X55728Y254500D01*
Y262500D01*
X55484Y263730D01*
X56201Y265000D01*
X96000D01*
X96000Y215677D01*
D02*
G37*
G36*
X141030Y182644D02*
X140902Y182000D01*
X141290Y180049D01*
X142395Y178395D01*
X142941Y178030D01*
Y162924D01*
X141923Y161906D01*
X140750Y162392D01*
Y175500D01*
X128500D01*
Y187750D01*
X128500D01*
X128690Y188941D01*
X134733D01*
X141030Y182644D01*
D02*
G37*
G36*
X647175Y482137D02*
X647168Y482132D01*
X646951Y481849D01*
X646668Y481632D01*
X645065Y479543D01*
X644057Y477110D01*
X643714Y474500D01*
X644057Y471889D01*
X645065Y469457D01*
X646668Y467368D01*
X648757Y465765D01*
X651189Y464757D01*
X653800Y464414D01*
X656411Y464757D01*
X658843Y465765D01*
X659050Y465924D01*
X664941Y460033D01*
Y456918D01*
X663977Y456273D01*
X663203Y455116D01*
X662931Y453750D01*
Y448250D01*
X663203Y446884D01*
X663977Y445727D01*
X665134Y444953D01*
X666500Y444681D01*
X669500D01*
X669911Y444763D01*
X683441Y431233D01*
Y416998D01*
X681593Y416232D01*
X663663Y434163D01*
X662671Y434826D01*
X661500Y435059D01*
X661500Y435059D01*
X653970D01*
X653605Y435605D01*
X651951Y436710D01*
X650000Y437098D01*
X648049Y436710D01*
X646395Y435605D01*
X645290Y433951D01*
X644902Y432000D01*
X645159Y430708D01*
X644051Y429252D01*
X643620Y428975D01*
X643000Y429098D01*
X641049Y428710D01*
X639395Y427605D01*
X638290Y425951D01*
X637902Y424000D01*
X638290Y422049D01*
X639395Y420395D01*
X641049Y419290D01*
X643000Y418902D01*
X643251Y418952D01*
X644952Y417251D01*
X644902Y417000D01*
X644952Y416749D01*
X643251Y415048D01*
X643000Y415098D01*
X641049Y414710D01*
X639395Y413605D01*
X638290Y411951D01*
X637902Y410000D01*
X638290Y408049D01*
X639395Y406395D01*
X641049Y405290D01*
X643000Y404902D01*
X644371Y405175D01*
X645665Y403620D01*
X645693Y403554D01*
X645290Y402951D01*
X644902Y401000D01*
X645290Y399049D01*
X646395Y397395D01*
X648049Y396290D01*
X649716Y395959D01*
X663837Y381837D01*
X663837Y381837D01*
X664829Y381174D01*
X666000Y380941D01*
X688733D01*
X716337Y353337D01*
X717329Y352674D01*
X718500Y352441D01*
X724978D01*
X724982Y352439D01*
X726250Y352186D01*
X735750D01*
X737018Y352439D01*
X737022Y352441D01*
X737500D01*
X737500Y352441D01*
X738671Y352674D01*
X739663Y353337D01*
X743171Y356846D01*
X743750Y356856D01*
X745537Y356383D01*
X745977Y355726D01*
X747134Y354952D01*
X748500Y354680D01*
X751500D01*
X752866Y354952D01*
X754023Y355726D01*
X754797Y356883D01*
X755069Y358249D01*
Y363749D01*
X754797Y365115D01*
X754579Y365441D01*
X755600Y367441D01*
X800233D01*
X800941Y366733D01*
Y308970D01*
X800395Y308605D01*
X799290Y306951D01*
X798902Y305000D01*
X799290Y303049D01*
X800395Y301395D01*
X802049Y300290D01*
X804000Y299902D01*
X805951Y300290D01*
X807605Y301395D01*
X808710Y303049D01*
X809098Y305000D01*
X808710Y306951D01*
X807605Y308605D01*
X807059Y308970D01*
Y368000D01*
X807059Y368000D01*
X806826Y369170D01*
X808087Y370883D01*
X808581Y371023D01*
X808674Y371000D01*
X813941Y365733D01*
Y355970D01*
X813395Y355605D01*
X812290Y353951D01*
X811902Y352000D01*
X812290Y350049D01*
X813395Y348395D01*
X815049Y347290D01*
X817000Y346902D01*
X818951Y347290D01*
X820605Y348395D01*
X821710Y350049D01*
X822098Y352000D01*
X821710Y353951D01*
X820605Y355605D01*
X820059Y355970D01*
Y367000D01*
X819826Y368171D01*
X819163Y369163D01*
X811163Y377163D01*
X811102Y377777D01*
X819163Y385837D01*
X819163Y385837D01*
X819826Y386829D01*
X820059Y388000D01*
Y414030D01*
X820605Y414395D01*
X821710Y416049D01*
X822098Y418000D01*
X821710Y419951D01*
X820605Y421605D01*
X818951Y422710D01*
X817000Y423098D01*
X815049Y422710D01*
X813395Y421605D01*
X812290Y419951D01*
X811902Y418000D01*
X812290Y416049D01*
X813395Y414395D01*
X813941Y414030D01*
Y389267D01*
X806733Y382059D01*
X756467D01*
X755030Y384059D01*
X755069Y384251D01*
Y385405D01*
X755088Y385501D01*
X755069Y385596D01*
Y389751D01*
X754797Y391117D01*
X754588Y391429D01*
Y395419D01*
X754884Y395616D01*
X755768Y396939D01*
X756078Y398500D01*
Y407500D01*
X755863Y408584D01*
Y419000D01*
Y440137D01*
X817572D01*
X829137Y428572D01*
Y313428D01*
X812572Y296863D01*
X765428D01*
X755863Y306428D01*
Y346001D01*
X755416Y348245D01*
X755065Y348771D01*
X754797Y350117D01*
X754023Y351274D01*
X752866Y352048D01*
X751500Y352320D01*
X748500D01*
X747134Y352048D01*
X745977Y351274D01*
X745203Y350117D01*
X744935Y348771D01*
X744793Y348559D01*
X737022D01*
X737018Y348561D01*
X735750Y348814D01*
X726250D01*
X724982Y348561D01*
X724978Y348559D01*
X721500D01*
X721500Y348559D01*
X720330Y348326D01*
X719762Y347947D01*
X719000Y348098D01*
X717049Y347710D01*
X715395Y346605D01*
X714656Y345498D01*
X712401Y344925D01*
X684164Y373162D01*
X683171Y373825D01*
X682001Y374058D01*
X682001Y374058D01*
X669968D01*
X669604Y374604D01*
X667950Y375709D01*
X665999Y376097D01*
X664048Y375709D01*
X662394Y374604D01*
X661289Y372950D01*
X660901Y370999D01*
X661289Y369048D01*
X662394Y367394D01*
X664048Y366289D01*
X665257Y366049D01*
X666503Y364272D01*
X666045Y362580D01*
X665044Y362089D01*
X665000Y362098D01*
X663049Y361710D01*
X661395Y360605D01*
X660290Y358951D01*
X659902Y357000D01*
X660290Y355049D01*
X661395Y353395D01*
X662211Y352850D01*
X662671Y350481D01*
X659337Y347148D01*
X658674Y346156D01*
X658441Y344985D01*
X658441Y344985D01*
Y322022D01*
X658439Y322018D01*
X658186Y320750D01*
Y311250D01*
X658439Y309982D01*
X658441Y309978D01*
Y303308D01*
X657134Y303048D01*
X655977Y302274D01*
X655203Y301117D01*
X654931Y299751D01*
Y294251D01*
X655203Y292885D01*
X655977Y291728D01*
X657134Y290954D01*
X658441Y290694D01*
Y288578D01*
X658000D01*
X656439Y288268D01*
X655116Y287384D01*
X654232Y286061D01*
X653922Y284500D01*
Y275500D01*
X654232Y273939D01*
X654820Y273059D01*
X654281Y271515D01*
X653934Y271059D01*
X651267D01*
X634059Y288267D01*
Y322419D01*
X639081Y327441D01*
X640978D01*
X640982Y327439D01*
X642250Y327186D01*
X651750D01*
X653018Y327439D01*
X654093Y328157D01*
X654811Y329232D01*
X655064Y330500D01*
X654811Y331768D01*
X654093Y332843D01*
Y333157D01*
X654811Y334232D01*
X655064Y335500D01*
X654811Y336768D01*
X654174Y338000D01*
X654811Y339232D01*
X655064Y340500D01*
X654811Y341768D01*
X654174Y343000D01*
X654811Y344232D01*
X655064Y345500D01*
X654811Y346768D01*
X654093Y347843D01*
Y348157D01*
X654811Y349232D01*
X655064Y350500D01*
X654811Y351768D01*
X654174Y353000D01*
X654811Y354232D01*
X655064Y355500D01*
X654811Y356768D01*
X654093Y357843D01*
Y358157D01*
X654811Y359232D01*
X655064Y360500D01*
X654811Y361768D01*
X654174Y363000D01*
X654811Y364232D01*
X655064Y365500D01*
X654811Y366768D01*
X654174Y368000D01*
X654811Y369232D01*
X655064Y370500D01*
X654811Y371768D01*
X654093Y372843D01*
Y373157D01*
X654811Y374232D01*
X655064Y375500D01*
X654811Y376768D01*
X654093Y377843D01*
X653018Y378561D01*
X651750Y378814D01*
X642250D01*
X640982Y378561D01*
X640978Y378559D01*
X639767D01*
X637732Y380593D01*
X638498Y382441D01*
X640978D01*
X640982Y382439D01*
X642250Y382186D01*
X651750D01*
X653018Y382439D01*
X654093Y383157D01*
X654811Y384232D01*
X655064Y385500D01*
X654811Y386768D01*
X654093Y387843D01*
X653018Y388561D01*
X651750Y388814D01*
X642250D01*
X640982Y388561D01*
X640978Y388559D01*
X634069D01*
Y391749D01*
X633797Y393115D01*
X633588Y393427D01*
Y399419D01*
X633884Y399616D01*
X634768Y400939D01*
X635078Y402500D01*
Y411500D01*
X634768Y413061D01*
X633884Y414384D01*
X633863Y414398D01*
Y447941D01*
X648993D01*
X649203Y446884D01*
X649977Y445727D01*
X651134Y444953D01*
X652500Y444681D01*
X655500D01*
X656866Y444953D01*
X658023Y445727D01*
X658797Y446884D01*
X659069Y448250D01*
Y453750D01*
X658797Y455116D01*
X658023Y456273D01*
X656866Y457047D01*
X655500Y457319D01*
X652500D01*
X651134Y457047D01*
X649977Y456273D01*
X649203Y455116D01*
X648993Y454059D01*
X633863D01*
Y466087D01*
X635532Y467368D01*
X635749Y467651D01*
X636032Y467868D01*
X637635Y469957D01*
X638643Y472389D01*
X638986Y475000D01*
X638643Y477611D01*
X637635Y480043D01*
X636032Y482132D01*
X636025Y482137D01*
X636704Y484137D01*
X646496D01*
X647175Y482137D01*
D02*
G37*
G36*
X292837Y426837D02*
X293829Y426174D01*
X295000Y425941D01*
X295000Y425941D01*
X320000D01*
X320000Y425941D01*
X321171Y426174D01*
X322163Y426837D01*
X327267Y431941D01*
X430873D01*
X431380Y431175D01*
X431755Y429941D01*
X431203Y429116D01*
X430993Y428057D01*
X429829Y427826D01*
X428837Y427163D01*
X419733Y418059D01*
X415970D01*
X415605Y418605D01*
X413951Y419710D01*
X412000Y420098D01*
X410049Y419710D01*
X408395Y418605D01*
X407290Y416951D01*
X406902Y415000D01*
X407290Y413049D01*
X408395Y411395D01*
X410049Y410290D01*
X412000Y409902D01*
X413951Y410290D01*
X415605Y411395D01*
X415970Y411941D01*
X420787D01*
X421189Y411444D01*
X421719Y410045D01*
X411836Y400162D01*
X411173Y399170D01*
X410940Y397999D01*
X410940Y397999D01*
Y396969D01*
X410394Y396604D01*
X409289Y394950D01*
X408901Y392999D01*
X409289Y391048D01*
X409413Y390863D01*
X408344Y388863D01*
X370000D01*
X367757Y388416D01*
X365854Y387146D01*
X357787Y379078D01*
X352500D01*
X351415Y378863D01*
X295000D01*
Y380000D01*
X269588D01*
Y384100D01*
X274489Y389000D01*
X291803D01*
X292000Y388961D01*
X300000D01*
X300780Y389116D01*
X301442Y389558D01*
X301884Y390220D01*
X302039Y391000D01*
Y395705D01*
X302098Y396000D01*
X302039Y396295D01*
Y401000D01*
X301884Y401780D01*
X301442Y402442D01*
X300780Y402884D01*
X300000Y403039D01*
X292000D01*
X291803Y403000D01*
X269000D01*
Y396489D01*
X263906Y391395D01*
X262059Y392160D01*
Y408733D01*
X267163Y413837D01*
X267826Y414829D01*
X268059Y416000D01*
X268059Y416000D01*
Y428030D01*
X268605Y428395D01*
X269710Y430049D01*
X270098Y432000D01*
X269710Y433951D01*
X269048Y434941D01*
X269928Y436935D01*
X269934Y436941D01*
X282733D01*
X292837Y426837D01*
D02*
G37*
G36*
X493709Y493000D02*
X488586Y487877D01*
X487000Y488086D01*
X484389Y487743D01*
X481957Y486735D01*
X479868Y485132D01*
X478265Y483043D01*
X477257Y480611D01*
X476914Y478000D01*
X477123Y476414D01*
X471023Y470314D01*
X470858Y470353D01*
X470056Y472594D01*
X470335Y472957D01*
X471343Y475390D01*
X471686Y478000D01*
X471343Y480611D01*
X470335Y483043D01*
X468732Y485132D01*
X466643Y486735D01*
X464211Y487743D01*
X461600Y488086D01*
X458989Y487743D01*
X456557Y486735D01*
X454468Y485132D01*
X452865Y483043D01*
X451857Y480611D01*
X451514Y478000D01*
X451857Y475390D01*
X452865Y472957D01*
X454468Y470868D01*
X454475Y470863D01*
X453796Y468863D01*
X418604D01*
X417925Y470863D01*
X417932Y470868D01*
X419535Y472957D01*
X420543Y475390D01*
X420886Y478000D01*
X420543Y480611D01*
X419535Y483043D01*
X417932Y485132D01*
X415843Y486735D01*
X413410Y487743D01*
X410800Y488086D01*
X408190Y487743D01*
X405757Y486735D01*
X403668Y485132D01*
X402065Y483043D01*
X401057Y480611D01*
X400714Y478000D01*
X401057Y475390D01*
X402065Y472957D01*
X403668Y470868D01*
X403675Y470863D01*
X402996Y468863D01*
X393204D01*
X392525Y470863D01*
X392532Y470868D01*
X394135Y472957D01*
X395143Y475390D01*
X395486Y478000D01*
X395143Y480611D01*
X394135Y483043D01*
X392532Y485132D01*
X390443Y486735D01*
X388010Y487743D01*
X385400Y488086D01*
X382789Y487743D01*
X380357Y486735D01*
X378268Y485132D01*
X376665Y483043D01*
X375657Y480611D01*
X375314Y478000D01*
X375657Y475390D01*
X376665Y472957D01*
X378268Y470868D01*
X378275Y470863D01*
X377596Y468863D01*
X330204D01*
X329525Y470863D01*
X329532Y470868D01*
X331135Y472957D01*
X332143Y475390D01*
X332486Y478000D01*
X332143Y480611D01*
X331135Y483043D01*
X329532Y485132D01*
X327443Y486735D01*
X325010Y487743D01*
X322400Y488086D01*
X319790Y487743D01*
X317357Y486735D01*
X315268Y485132D01*
X313665Y483043D01*
X312657Y480611D01*
X312314Y478000D01*
X312657Y475390D01*
X313665Y472957D01*
X315268Y470868D01*
X315275Y470863D01*
X314596Y468863D01*
X304804D01*
X304125Y470863D01*
X304132Y470868D01*
X305735Y472957D01*
X306743Y475390D01*
X307086Y478000D01*
X306743Y480611D01*
X305735Y483043D01*
X304132Y485132D01*
X302043Y486735D01*
X299611Y487743D01*
X297000Y488086D01*
X294389Y487743D01*
X291957Y486735D01*
X289868Y485132D01*
X288265Y483043D01*
X287257Y480611D01*
X286914Y478000D01*
X287257Y475390D01*
X288265Y472957D01*
X288300Y472911D01*
X288255Y472576D01*
X286106Y471606D01*
X285951Y471710D01*
X284000Y472098D01*
X282049Y471710D01*
X281741Y471504D01*
X280335Y472957D01*
X281343Y475390D01*
X281686Y478000D01*
X281343Y480611D01*
X280335Y483043D01*
X278732Y485132D01*
X276643Y486735D01*
X274210Y487743D01*
X271600Y488086D01*
X268990Y487743D01*
X266557Y486735D01*
X264468Y485132D01*
X262865Y483043D01*
X261857Y480611D01*
X261514Y478000D01*
X261857Y475390D01*
X262865Y472957D01*
X264468Y470868D01*
X264475Y470863D01*
X263796Y468863D01*
X212204D01*
X211525Y470863D01*
X211532Y470868D01*
X213135Y472957D01*
X214143Y475390D01*
X214486Y478000D01*
X214143Y480611D01*
X213135Y483043D01*
X211532Y485132D01*
X209443Y486735D01*
X207010Y487743D01*
X204400Y488086D01*
X201789Y487743D01*
X199357Y486735D01*
X197268Y485132D01*
X195665Y483043D01*
X194657Y480611D01*
X194314Y478000D01*
X194657Y475390D01*
X195665Y472957D01*
X197268Y470868D01*
X197275Y470863D01*
X196596Y468863D01*
X186804D01*
X186125Y470863D01*
X186132Y470868D01*
X187735Y472957D01*
X188743Y475390D01*
X189086Y478000D01*
X188743Y480611D01*
X187735Y483043D01*
X186132Y485132D01*
X184043Y486735D01*
X181611Y487743D01*
X179000Y488086D01*
X176390Y487743D01*
X173957Y486735D01*
X171868Y485132D01*
X170265Y483043D01*
X169257Y480611D01*
X168914Y478000D01*
X169257Y475390D01*
X170265Y472957D01*
X171868Y470868D01*
X171875Y470863D01*
X171196Y468863D01*
X161404D01*
X160725Y470863D01*
X160732Y470868D01*
X162335Y472957D01*
X163343Y475390D01*
X163686Y478000D01*
X163343Y480611D01*
X162335Y483043D01*
X160732Y485132D01*
X158643Y486735D01*
X156210Y487743D01*
X153600Y488086D01*
X150990Y487743D01*
X148557Y486735D01*
X146468Y485132D01*
X144865Y483043D01*
X143857Y480611D01*
X143514Y478000D01*
X143857Y475390D01*
X144865Y472957D01*
X146468Y470868D01*
X146475Y470863D01*
X145796Y468863D01*
X142000D01*
X139756Y468416D01*
X137854Y467146D01*
X53854Y383145D01*
X52584Y381244D01*
X52137Y379000D01*
X52584Y376757D01*
X53431Y375488D01*
Y360569D01*
X50577D01*
X50273Y361023D01*
X49116Y361797D01*
X47750Y362069D01*
X42250D01*
X40884Y361797D01*
X39727Y361023D01*
X39506Y360694D01*
X37553Y360639D01*
X35951Y361710D01*
X34000Y362098D01*
X32049Y361710D01*
X30395Y360605D01*
X29290Y358951D01*
X28902Y357000D01*
X29290Y355049D01*
X30395Y353395D01*
X32049Y352290D01*
X34000Y351902D01*
X35951Y352290D01*
X37553Y353360D01*
X39506Y353306D01*
X39727Y352977D01*
X40884Y352203D01*
X42250Y351931D01*
X46777D01*
X47606Y349931D01*
X45743Y348069D01*
X42250D01*
X40884Y347797D01*
X39727Y347023D01*
X38953Y345866D01*
X38681Y344500D01*
Y341500D01*
X38763Y341089D01*
X27187Y329513D01*
X26524Y328521D01*
X26502Y328410D01*
X25789Y328268D01*
X24466Y327384D01*
X23582Y326061D01*
X23272Y324500D01*
Y316500D01*
X23582Y314939D01*
X24466Y313616D01*
X25789Y312732D01*
X26291Y312632D01*
Y305617D01*
X22238Y301564D01*
X15000D01*
X13732Y301311D01*
X12657Y300593D01*
X11939Y299518D01*
X11686Y298250D01*
Y295750D01*
X11939Y294482D01*
X12657Y293407D01*
X13732Y292689D01*
X15000Y292436D01*
X25000D01*
X26268Y292689D01*
X27343Y293407D01*
X28061Y294482D01*
X28314Y295750D01*
Y298250D01*
X28191Y298866D01*
X31513Y302187D01*
X32176Y303179D01*
X32409Y304350D01*
X32409Y304350D01*
Y312632D01*
X32911Y312732D01*
X34234Y313616D01*
X35118Y314939D01*
X35428Y316500D01*
Y324500D01*
X35118Y326061D01*
X34234Y327384D01*
X34187Y327861D01*
X44257Y337931D01*
X47750D01*
X49116Y338203D01*
X50273Y338977D01*
X51047Y340134D01*
X51319Y341500D01*
Y344500D01*
X51237Y344911D01*
X53267Y346941D01*
X60450D01*
X61769Y344941D01*
X61681Y344500D01*
Y341500D01*
X61763Y341089D01*
X50253Y329578D01*
X47650D01*
X46089Y329268D01*
X44766Y328384D01*
X43882Y327061D01*
X43572Y325500D01*
Y317500D01*
X43882Y315939D01*
X44766Y314616D01*
X46089Y313732D01*
X47650Y313422D01*
X51650D01*
X53211Y313732D01*
X54534Y314616D01*
X54863Y315109D01*
X57137D01*
X57466Y314616D01*
X57733Y312058D01*
X54837Y309163D01*
X54174Y308171D01*
X53941Y307000D01*
X53941Y307000D01*
Y301564D01*
X52000D01*
X50732Y301311D01*
X49657Y300593D01*
X48939Y299518D01*
X48686Y298250D01*
Y295750D01*
X48939Y294482D01*
X49657Y293407D01*
X50732Y292689D01*
X52000Y292436D01*
X62000D01*
X63268Y292689D01*
X64343Y293407D01*
X65061Y294482D01*
X65314Y295750D01*
Y298250D01*
X65061Y299518D01*
X64343Y300593D01*
X63268Y301311D01*
X62000Y301564D01*
X60059D01*
Y305733D01*
X64513Y310187D01*
X64513Y310187D01*
X65176Y311180D01*
X65409Y312350D01*
X65911Y313732D01*
X67234Y314616D01*
X68118Y315939D01*
X68428Y317500D01*
Y325103D01*
X83513Y340187D01*
X84176Y341180D01*
X84409Y342350D01*
X84409Y342350D01*
Y382054D01*
X140296Y437941D01*
X175030D01*
X175395Y437395D01*
X177049Y436290D01*
X179000Y435902D01*
X180951Y436290D01*
X182605Y437395D01*
X182970Y437941D01*
X213000D01*
X213000Y437941D01*
X214170Y438174D01*
X215163Y438837D01*
X220267Y443941D01*
X234215D01*
X235290Y441951D01*
X234902Y440000D01*
X235290Y438049D01*
X236395Y436395D01*
X236941Y436030D01*
Y425000D01*
X236941Y425000D01*
X237174Y423829D01*
X237837Y422837D01*
X240941Y419733D01*
Y365267D01*
X238733Y363059D01*
X173000D01*
X173000Y363059D01*
X171829Y362826D01*
X170837Y362163D01*
X170837Y362163D01*
X166837Y358163D01*
X166174Y357170D01*
X165941Y356000D01*
X165941Y356000D01*
Y346000D01*
X165941Y346000D01*
X166174Y344829D01*
X166837Y343837D01*
X171763Y338911D01*
X171681Y338500D01*
Y335500D01*
X171953Y334134D01*
X172491Y333330D01*
X171917Y331995D01*
X171499Y331488D01*
X171001Y331587D01*
X162588D01*
Y379100D01*
X174900Y391412D01*
X209000D01*
Y377500D01*
X235000D01*
Y391991D01*
X235605Y392395D01*
X236710Y394049D01*
X237098Y396000D01*
X236710Y397951D01*
X235605Y399605D01*
X235000Y400009D01*
Y414500D01*
X209000D01*
Y400588D01*
X173000D01*
X171244Y400239D01*
X169756Y399244D01*
X155850Y385338D01*
X147748D01*
X147384Y385884D01*
X146061Y386768D01*
X144500Y387078D01*
X135500D01*
X133939Y386768D01*
X132616Y385884D01*
X132252Y385338D01*
X121078D01*
Y386250D01*
X120768Y387811D01*
X119884Y389134D01*
X118561Y390018D01*
X117000Y390328D01*
X113000D01*
X111439Y390018D01*
X110116Y389134D01*
X109232Y387811D01*
X108922Y386250D01*
Y377250D01*
X109232Y375689D01*
X110116Y374366D01*
X110912Y373834D01*
Y369002D01*
X110218Y367963D01*
X109927Y366500D01*
Y357500D01*
X110218Y356037D01*
X111046Y354796D01*
X112287Y353968D01*
X113750Y353677D01*
X117250D01*
X118713Y353968D01*
X119954Y354796D01*
X120782Y356037D01*
X121074Y357500D01*
Y366500D01*
X120782Y367963D01*
X120088Y369002D01*
Y374672D01*
X120768Y375689D01*
X120862Y376162D01*
X132586D01*
X132616Y376116D01*
X133939Y375232D01*
X135500Y374922D01*
X144500D01*
X146061Y375232D01*
X147384Y376116D01*
X147414Y376162D01*
X153412D01*
Y345742D01*
X151412Y344914D01*
X149970Y346356D01*
X150098Y347000D01*
X149710Y348951D01*
X148605Y350605D01*
X146951Y351710D01*
X145000Y352098D01*
X143049Y351710D01*
X141395Y350605D01*
X140290Y348951D01*
X139902Y347000D01*
X140290Y345049D01*
X141395Y343395D01*
X143049Y342290D01*
X145000Y341902D01*
X145644Y342030D01*
X147941Y339733D01*
Y318000D01*
X147941Y318000D01*
X148174Y316829D01*
X148837Y315837D01*
X149366Y315309D01*
X149234Y313231D01*
X149045Y313105D01*
X147940Y311451D01*
X147552Y309500D01*
Y304500D01*
X147940Y302549D01*
X148307Y302000D01*
X147238Y300000D01*
X113647Y300000D01*
X113062Y300762D01*
X111287Y302125D01*
X109219Y302981D01*
X107000Y303273D01*
X105158Y303031D01*
X97588Y310600D01*
Y332214D01*
X98000Y334172D01*
X102000D01*
X103561Y334482D01*
X104884Y335366D01*
X105768Y336689D01*
X106078Y338250D01*
Y347250D01*
X105768Y348811D01*
X104884Y350134D01*
X104588Y350331D01*
Y354554D01*
X104954Y354798D01*
X105782Y356039D01*
X106073Y357502D01*
Y366502D01*
X105782Y367965D01*
X104954Y369205D01*
X103713Y370034D01*
X102250Y370325D01*
X98750D01*
X97287Y370034D01*
X96046Y369205D01*
X95218Y367965D01*
X94927Y366502D01*
Y357502D01*
X95218Y356039D01*
X95412Y355748D01*
Y350331D01*
X95116Y350134D01*
X94232Y348811D01*
X93922Y347250D01*
Y343160D01*
X89756Y338994D01*
X88761Y337506D01*
X88412Y335750D01*
Y308700D01*
X88761Y306944D01*
X89756Y305456D01*
X96000Y299211D01*
Y290000D01*
X5000D01*
Y439603D01*
X7000Y440167D01*
X8756Y437300D01*
X12692Y432692D01*
X17300Y428756D01*
X22467Y425590D01*
X28066Y423271D01*
X33959Y421856D01*
X40000Y421381D01*
X46041Y421856D01*
X51934Y423271D01*
X57533Y425590D01*
X62700Y428756D01*
X67308Y432692D01*
X71244Y437300D01*
X74410Y442467D01*
X76729Y448066D01*
X78144Y453959D01*
X78619Y460000D01*
X78144Y466041D01*
X76729Y471934D01*
X74410Y477533D01*
X71244Y482700D01*
X67308Y487308D01*
X62700Y491244D01*
X59833Y493000D01*
X60397Y495000D01*
X492881D01*
X493709Y493000D01*
D02*
G37*
G36*
X744137Y443572D02*
Y422588D01*
X720427D01*
X720115Y422797D01*
X718749Y423069D01*
X713249D01*
X711883Y422797D01*
X710725Y422023D01*
X709952Y420866D01*
X709680Y419500D01*
Y416500D01*
X709952Y415134D01*
X710725Y413977D01*
X711883Y413203D01*
X713249Y412931D01*
X713441D01*
Y406022D01*
X713439Y406018D01*
X713186Y404750D01*
Y395250D01*
X713439Y393982D01*
X714157Y392907D01*
X715232Y392189D01*
X716500Y391936D01*
X717768Y392189D01*
X718843Y392907D01*
X719561Y393982D01*
X719814Y395250D01*
Y404750D01*
X719561Y406018D01*
X719559Y406022D01*
Y413092D01*
X720115Y413203D01*
X720427Y413412D01*
X744137D01*
Y408584D01*
X743922Y407500D01*
Y398500D01*
X744232Y396939D01*
X745116Y395616D01*
X745412Y395419D01*
Y391429D01*
X745203Y391117D01*
X744931Y389751D01*
Y388559D01*
X737022D01*
X737018Y388561D01*
X735750Y388814D01*
X726250D01*
X724982Y388561D01*
X723907Y387843D01*
X723189Y386768D01*
X722936Y385500D01*
X723189Y384232D01*
X723826Y383000D01*
X723188Y381768D01*
X722936Y380500D01*
X723189Y379232D01*
X723826Y378000D01*
X723188Y376768D01*
X722936Y375500D01*
X723189Y374232D01*
X723907Y373157D01*
Y372843D01*
X723189Y371768D01*
X722936Y370500D01*
X723189Y369232D01*
X723826Y368000D01*
X723188Y366768D01*
X722936Y365500D01*
X723189Y364232D01*
X723907Y363157D01*
Y362843D01*
X723189Y361768D01*
X722936Y360500D01*
X721646Y358852D01*
X719557Y358769D01*
X692163Y386163D01*
X691171Y386826D01*
X690000Y387059D01*
X690000Y387059D01*
X667267D01*
X664904Y389422D01*
X665341Y391813D01*
X665789Y392078D01*
X666500Y391936D01*
X667768Y392189D01*
X669000Y392826D01*
X670232Y392188D01*
X671500Y391936D01*
X672768Y392189D01*
X674000Y392826D01*
X675232Y392188D01*
X676500Y391936D01*
X677768Y392189D01*
X678843Y392907D01*
X679157D01*
X680232Y392189D01*
X681500Y391936D01*
X682768Y392189D01*
X683843Y392907D01*
X684157D01*
X685232Y392189D01*
X686500Y391936D01*
X687768Y392189D01*
X688843Y392907D01*
X689157D01*
X690232Y392189D01*
X691500Y391936D01*
X692768Y392189D01*
X693843Y392907D01*
X694157D01*
X695232Y392189D01*
X696500Y391936D01*
X697768Y392189D01*
X698843Y392907D01*
X699157D01*
X700232Y392189D01*
X701500Y391936D01*
X702768Y392189D01*
X703843Y392907D01*
X704157D01*
X705232Y392189D01*
X706500Y391936D01*
X707768Y392189D01*
X708843Y392907D01*
X709561Y393982D01*
X709814Y395250D01*
Y404750D01*
X709561Y406018D01*
X708843Y407093D01*
X707768Y407811D01*
X706500Y408064D01*
X705232Y407811D01*
X704157Y407093D01*
X703843D01*
X702768Y407811D01*
X701500Y408064D01*
X699559Y409584D01*
Y426233D01*
X715257Y441931D01*
X718750D01*
X720116Y442203D01*
X721273Y442977D01*
X722047Y444134D01*
X722319Y445500D01*
Y448500D01*
X722047Y449866D01*
X721273Y451023D01*
X720116Y451797D01*
X718750Y452069D01*
X713250D01*
X711884Y451797D01*
X710727Y451023D01*
X709953Y449866D01*
X709681Y448500D01*
Y445500D01*
X709763Y445089D01*
X696407Y431732D01*
X694559Y432498D01*
Y433500D01*
X694326Y434670D01*
X693663Y435663D01*
X683985Y445340D01*
X684023Y445727D01*
X684797Y446884D01*
X685069Y448250D01*
Y453750D01*
X684797Y455116D01*
X684023Y456273D01*
X682866Y457047D01*
X682759Y457068D01*
Y465150D01*
X684243Y465765D01*
X686332Y467368D01*
X686549Y467651D01*
X686832Y467868D01*
X688435Y469957D01*
X688941Y471179D01*
X690941Y470781D01*
Y456918D01*
X689977Y456273D01*
X689203Y455116D01*
X688931Y453750D01*
Y448250D01*
X689203Y446884D01*
X689977Y445727D01*
X691134Y444953D01*
X692500Y444681D01*
X695500D01*
X696866Y444953D01*
X698023Y445727D01*
X698797Y446884D01*
X699069Y448250D01*
Y453750D01*
X698797Y455116D01*
X698023Y456273D01*
X697059Y456918D01*
Y484137D01*
X703572D01*
X744137Y443572D01*
D02*
G37*
G36*
X940167Y493000D02*
X937300Y491244D01*
X932692Y487308D01*
X928756Y482700D01*
X925590Y477533D01*
X923271Y471934D01*
X921856Y466041D01*
X921381Y460000D01*
X921856Y453959D01*
X923271Y448066D01*
X925590Y442467D01*
X928756Y437300D01*
X932692Y432692D01*
X937300Y428756D01*
X942467Y425590D01*
X948066Y423271D01*
X953959Y421856D01*
X960000Y421381D01*
X966041Y421856D01*
X971934Y423271D01*
X977533Y425590D01*
X982700Y428756D01*
X987308Y432692D01*
X991244Y437300D01*
X993000Y440167D01*
X994069Y440078D01*
X995000Y439603D01*
Y413683D01*
X993000Y413076D01*
X991762Y414929D01*
X989429Y417262D01*
X986685Y419095D01*
X983636Y420358D01*
X980400Y421002D01*
X977100D01*
X973864Y420358D01*
X970815Y419095D01*
X968071Y417262D01*
X965738Y414929D01*
X963905Y412185D01*
X962642Y409136D01*
X961998Y405900D01*
Y402600D01*
X962642Y399364D01*
X963905Y396315D01*
X965738Y393571D01*
X968071Y391238D01*
X970815Y389405D01*
X973864Y388142D01*
X977100Y387498D01*
X980400D01*
X983636Y388142D01*
X986685Y389405D01*
X989429Y391238D01*
X991762Y393571D01*
X993000Y395424D01*
X995000Y394817D01*
Y50568D01*
X993000Y50331D01*
X992913Y50694D01*
X990835Y55711D01*
X987997Y60341D01*
X984471Y64471D01*
X980341Y67997D01*
X975711Y70835D01*
X970694Y72913D01*
X965414Y74181D01*
X960000Y74607D01*
X954586Y74181D01*
X949306Y72913D01*
X944289Y70835D01*
X939659Y67997D01*
X935529Y64471D01*
X932003Y60341D01*
X929165Y55711D01*
X927087Y50694D01*
X925819Y45414D01*
X925393Y40000D01*
X925819Y34586D01*
X927087Y29306D01*
X929165Y24289D01*
X932003Y19659D01*
X935529Y15529D01*
X939659Y12003D01*
X944289Y9165D01*
X949306Y7087D01*
X949669Y7000D01*
X949432Y5000D01*
X400000D01*
Y15000D01*
X400000Y140000D01*
X410113Y150113D01*
X411961Y149347D01*
Y64000D01*
X412116Y63220D01*
X412558Y62558D01*
X413220Y62116D01*
X414000Y61961D01*
X445000D01*
X445780Y62116D01*
X446442Y62558D01*
X446884Y63220D01*
X447039Y64000D01*
Y162287D01*
X447593Y162657D01*
X448311Y163732D01*
X448564Y165000D01*
Y175000D01*
X448311Y176268D01*
X447593Y177343D01*
X447039Y177713D01*
Y178000D01*
X446884Y178780D01*
X446442Y179442D01*
X445780Y179884D01*
X445000Y180039D01*
X442652D01*
X441887Y181887D01*
X449000Y189000D01*
X455000Y189000D01*
X505000Y239000D01*
X505000Y300002D01*
X502421D01*
X501850Y301413D01*
X501726Y302002D01*
X502760Y303549D01*
X503148Y305500D01*
Y310500D01*
X502760Y312451D01*
X501655Y314105D01*
X500001Y315210D01*
X498050Y315598D01*
X496099Y315210D01*
X494445Y314105D01*
X493340Y312451D01*
X492952Y310500D01*
Y305500D01*
X493340Y303549D01*
X494374Y302002D01*
X494250Y301413D01*
X493679Y300002D01*
X489721Y300002D01*
X489150Y301413D01*
X489026Y302002D01*
X490060Y303549D01*
X490448Y305500D01*
Y310500D01*
X490060Y312451D01*
X488955Y314105D01*
X488409Y314470D01*
Y319030D01*
X488955Y319395D01*
X490060Y321049D01*
X490448Y323000D01*
X490060Y324951D01*
X488955Y326605D01*
X488409Y326970D01*
Y328650D01*
X488176Y329821D01*
X487513Y330813D01*
X474970Y343356D01*
X475098Y344000D01*
X474710Y345951D01*
X473605Y347605D01*
X471951Y348710D01*
X470210Y349056D01*
X469492Y350228D01*
X469266Y350991D01*
X469826Y351829D01*
X470059Y353000D01*
X471116Y354203D01*
X472273Y354977D01*
X473047Y356134D01*
X473319Y357500D01*
Y360500D01*
X473047Y361866D01*
X472273Y363023D01*
X471116Y363797D01*
X469750Y364069D01*
X464250D01*
X462884Y363797D01*
X461727Y363023D01*
X460953Y361866D01*
X460681Y360500D01*
Y357500D01*
X460953Y356134D01*
X461727Y354977D01*
X461784Y354938D01*
X462141Y352467D01*
X461837Y352163D01*
X461174Y351171D01*
X460941Y350000D01*
X460941Y350000D01*
Y349785D01*
X458951Y348710D01*
X457000Y349098D01*
X455059Y350751D01*
Y353993D01*
X456116Y354203D01*
X457273Y354977D01*
X458047Y356134D01*
X458319Y357500D01*
Y360500D01*
X458047Y361866D01*
X457273Y363023D01*
X456116Y363797D01*
X454750Y364069D01*
X449250D01*
X447884Y363797D01*
X446727Y363023D01*
X445953Y361866D01*
X445681Y360500D01*
Y357500D01*
X445953Y356134D01*
X446727Y354977D01*
X447884Y354203D01*
X448941Y353993D01*
Y350267D01*
X438862Y340188D01*
X438193Y340067D01*
X437662Y342336D01*
X438163Y342837D01*
X438163Y342837D01*
X438826Y343829D01*
X439059Y345000D01*
X439059Y345000D01*
Y347030D01*
X439605Y347395D01*
X440710Y349049D01*
X441098Y351000D01*
X440710Y352951D01*
X441273Y354977D01*
X442047Y356134D01*
X442319Y357500D01*
Y360500D01*
X442047Y361866D01*
X441273Y363023D01*
X440116Y363797D01*
X438750Y364069D01*
X433250D01*
X431884Y363797D01*
X430727Y363023D01*
X429953Y361866D01*
X429681Y360500D01*
Y357500D01*
X429953Y356134D01*
X430727Y354977D01*
X431290Y352951D01*
X430902Y351000D01*
X431290Y349049D01*
X432395Y347395D01*
X432007Y345332D01*
X425733Y339059D01*
X384970D01*
X384605Y339605D01*
X382951Y340710D01*
X381000Y341098D01*
X379049Y340710D01*
X377395Y339605D01*
X376290Y337951D01*
X375971Y336346D01*
X374917Y335764D01*
X373956Y335533D01*
X371244Y338244D01*
X369756Y339239D01*
X368000Y339588D01*
X351900D01*
X334744Y356744D01*
X333256Y357739D01*
X331500Y358088D01*
X316002D01*
X314963Y358782D01*
X313500Y359073D01*
X304500D01*
X303037Y358782D01*
X301998Y358088D01*
X296915D01*
X296384Y358884D01*
X295061Y359768D01*
X293500Y360078D01*
X284500D01*
X282939Y359768D01*
X281616Y358884D01*
X281084Y358088D01*
X275401D01*
X269588Y363900D01*
Y366000D01*
X295000D01*
Y367137D01*
X351416D01*
X352500Y366922D01*
X361500D01*
X363061Y367232D01*
X364384Y368116D01*
X365268Y369439D01*
X365401Y370110D01*
X372428Y377137D01*
X428397D01*
X428765Y376837D01*
X429808Y375137D01*
X429681Y374500D01*
Y371500D01*
X429953Y370134D01*
X430727Y368977D01*
X431884Y368203D01*
X433250Y367931D01*
X438750D01*
X440116Y368203D01*
X441273Y368977D01*
X441918Y369941D01*
X446082D01*
X446727Y368977D01*
X447884Y368203D01*
X449250Y367931D01*
X454750D01*
X456116Y368203D01*
X457273Y368977D01*
X457918Y369941D01*
X461082D01*
X461727Y368977D01*
X462884Y368203D01*
X464250Y367931D01*
X469750D01*
X471116Y368203D01*
X472273Y368977D01*
X472385Y369144D01*
X474716Y369512D01*
X475049Y369290D01*
X477000Y368902D01*
X478951Y369290D01*
X478961Y369297D01*
X480961Y368228D01*
Y366000D01*
X481116Y365220D01*
X481558Y364558D01*
X482220Y364116D01*
X483000Y363961D01*
X493137D01*
Y346000D01*
X493584Y343756D01*
X494855Y341855D01*
X496922Y339787D01*
Y337500D01*
X497232Y335939D01*
X498116Y334616D01*
X499439Y333732D01*
X501000Y333422D01*
X505000D01*
X506278Y333676D01*
X508431Y331522D01*
Y219465D01*
X507439Y219268D01*
X506116Y218384D01*
X505232Y217061D01*
X504922Y215500D01*
Y206500D01*
X505232Y204939D01*
X506116Y203616D01*
X507439Y202732D01*
X508431Y202535D01*
Y199465D01*
X507439Y199268D01*
X506116Y198384D01*
X505232Y197061D01*
X504922Y195500D01*
Y186500D01*
X505232Y184939D01*
X506116Y183616D01*
X507439Y182732D01*
X508431Y182535D01*
Y180039D01*
X460000D01*
X459220Y179884D01*
X458558Y179442D01*
X458116Y178780D01*
X457961Y178000D01*
Y176675D01*
X457689Y176268D01*
X457436Y175000D01*
Y165000D01*
X457689Y163732D01*
X457961Y163325D01*
Y104458D01*
X458116Y103678D01*
X458558Y103016D01*
X459220Y102574D01*
X460000Y102419D01*
X530000D01*
X530780Y102574D01*
X531442Y103016D01*
X531884Y103678D01*
X532039Y104458D01*
Y126961D01*
X542499D01*
X542849Y126706D01*
X543961Y125000D01*
Y51000D01*
X544116Y50220D01*
X544558Y49558D01*
X545220Y49116D01*
X546000Y48961D01*
X574000D01*
X574780Y49116D01*
X575442Y49558D01*
X575884Y50220D01*
X576039Y51000D01*
X577961D01*
X578116Y50220D01*
X578558Y49558D01*
X579220Y49116D01*
X580000Y48961D01*
X607000D01*
X607780Y49116D01*
X608442Y49558D01*
X608884Y50220D01*
X609039Y51000D01*
Y125000D01*
X610151Y126706D01*
X610501Y126961D01*
X612499D01*
X612849Y126706D01*
X613961Y125000D01*
Y51000D01*
X614116Y50220D01*
X614558Y49558D01*
X615220Y49116D01*
X616000Y48961D01*
X644000D01*
X644780Y49116D01*
X645442Y49558D01*
X645884Y50220D01*
X646039Y51000D01*
X647961D01*
X648116Y50220D01*
X648558Y49558D01*
X649220Y49116D01*
X650000Y48961D01*
X677000D01*
X677780Y49116D01*
X678442Y49558D01*
X678884Y50220D01*
X679039Y51000D01*
Y125000D01*
X680151Y126706D01*
X680501Y126961D01*
X682499D01*
X682849Y126706D01*
X683961Y125000D01*
Y51000D01*
X684116Y50220D01*
X684558Y49558D01*
X685220Y49116D01*
X686000Y48961D01*
X714000D01*
X714780Y49116D01*
X715442Y49558D01*
X715884Y50220D01*
X716039Y51000D01*
X717961D01*
X718116Y50220D01*
X718558Y49558D01*
X719220Y49116D01*
X720000Y48961D01*
X747000D01*
X747780Y49116D01*
X748442Y49558D01*
X748884Y50220D01*
X749039Y51000D01*
Y125000D01*
X750151Y126706D01*
X750501Y126961D01*
X752499D01*
X752849Y126706D01*
X753961Y125000D01*
Y51000D01*
X754116Y50220D01*
X754558Y49558D01*
X755220Y49116D01*
X756000Y48961D01*
X784000D01*
X784780Y49116D01*
X785442Y49558D01*
X785884Y50220D01*
X786039Y51000D01*
X787961D01*
X788116Y50220D01*
X788558Y49558D01*
X789220Y49116D01*
X790000Y48961D01*
X817000D01*
X817780Y49116D01*
X818442Y49558D01*
X818884Y50220D01*
X819039Y51000D01*
Y125000D01*
X820151Y126706D01*
X820501Y126961D01*
X822499D01*
X822849Y126706D01*
X823961Y125000D01*
Y51000D01*
X824116Y50220D01*
X824558Y49558D01*
X825220Y49116D01*
X826000Y48961D01*
X854000D01*
X854780Y49116D01*
X855442Y49558D01*
X855884Y50220D01*
X856039Y51000D01*
X857961D01*
X858116Y50220D01*
X858558Y49558D01*
X859220Y49116D01*
X860000Y48961D01*
X887000D01*
X887780Y49116D01*
X888442Y49558D01*
X888884Y50220D01*
X889039Y51000D01*
Y125000D01*
X890151Y126706D01*
X890501Y126961D01*
X892499D01*
X892849Y126706D01*
X893961Y125000D01*
Y59000D01*
X894116Y58220D01*
X894558Y57558D01*
X895220Y57116D01*
X896000Y56961D01*
X896887D01*
Y55250D01*
X897334Y53007D01*
X898605Y51104D01*
X900507Y49834D01*
X902750Y49387D01*
X915250D01*
X917494Y49834D01*
X919396Y51104D01*
X920666Y53007D01*
X921113Y55250D01*
Y56961D01*
X922000D01*
X922780Y57116D01*
X923442Y57558D01*
X923884Y58220D01*
X924039Y59000D01*
Y125000D01*
X925151Y126706D01*
X925501Y126961D01*
X930463D01*
X930660Y124961D01*
X930140Y124857D01*
X929399Y124710D01*
X927745Y123605D01*
X926640Y121951D01*
X926252Y120000D01*
Y107000D01*
X926640Y105049D01*
X927745Y103395D01*
X929399Y102290D01*
X931350Y101902D01*
X933301Y102290D01*
X934955Y103395D01*
X936060Y105049D01*
X936448Y107000D01*
Y120000D01*
X936060Y121951D01*
X934955Y123605D01*
X933301Y124710D01*
X932560Y124857D01*
X932039Y124961D01*
X932236Y126961D01*
X943164D01*
X943361Y124961D01*
X942840Y124857D01*
X942099Y124710D01*
X940445Y123605D01*
X939340Y121951D01*
X938952Y120000D01*
Y107000D01*
X939340Y105049D01*
X940445Y103395D01*
X942099Y102290D01*
X944050Y101902D01*
X946001Y102290D01*
X947655Y103395D01*
X948760Y105049D01*
X949148Y107000D01*
Y120000D01*
X948760Y121951D01*
X947655Y123605D01*
X946001Y124710D01*
X945260Y124857D01*
X944740Y124961D01*
X944937Y126961D01*
X950000D01*
X950780Y127116D01*
X951442Y127558D01*
X951884Y128220D01*
X952039Y129000D01*
Y149000D01*
X951884Y149780D01*
X951442Y150442D01*
X950780Y150884D01*
X950426Y150954D01*
X950150Y151136D01*
X949580Y151845D01*
X948957Y153039D01*
X949148Y154000D01*
Y167000D01*
X948760Y168951D01*
X947655Y170605D01*
X946001Y171710D01*
X944050Y172098D01*
X943059Y171901D01*
X941059Y173237D01*
Y184733D01*
X942257Y185931D01*
X945750D01*
X947116Y186203D01*
X948273Y186977D01*
X949047Y188134D01*
X949319Y189500D01*
Y192500D01*
X949047Y193866D01*
X948273Y195023D01*
X947116Y195797D01*
X945750Y196069D01*
X941223D01*
X940394Y198069D01*
X942257Y199932D01*
X945750D01*
X947116Y200203D01*
X948273Y200977D01*
X949047Y202134D01*
X949319Y203500D01*
Y206500D01*
X949047Y207866D01*
X948273Y209023D01*
X947116Y209797D01*
X945750Y210069D01*
X940250D01*
X938884Y209797D01*
X937727Y209023D01*
X937703Y208988D01*
X935297D01*
X935273Y209023D01*
X934116Y209797D01*
X933506Y209918D01*
X933256Y211930D01*
X937343Y216017D01*
X937750Y215936D01*
X940250D01*
X941518Y216189D01*
X942593Y216907D01*
X943311Y217982D01*
X943564Y219250D01*
Y224750D01*
X943311Y226018D01*
X942593Y227093D01*
X941518Y227811D01*
X940250Y228064D01*
X937750D01*
X936482Y227811D01*
X935407Y227093D01*
X934689Y226018D01*
X934436Y224750D01*
Y221762D01*
X927837Y215163D01*
X927174Y214170D01*
X926941Y213000D01*
X926941Y213000D01*
Y210007D01*
X925884Y209797D01*
X924727Y209023D01*
X923953Y207866D01*
X923681Y206500D01*
Y203500D01*
X923953Y202134D01*
X924727Y200977D01*
X925884Y200203D01*
X927250Y199932D01*
X930777D01*
X931606Y197931D01*
X929743Y196069D01*
X927250D01*
X925884Y195797D01*
X924727Y195023D01*
X924703Y194988D01*
X922297D01*
X922273Y195023D01*
X921116Y195797D01*
X919750Y196069D01*
X914250D01*
X912884Y195797D01*
X911727Y195023D01*
X911703Y194988D01*
X909297D01*
X909273Y195023D01*
X908116Y195797D01*
X906750Y196069D01*
X901250D01*
X899884Y195797D01*
X898727Y195023D01*
X898703Y194988D01*
X896297D01*
X896273Y195023D01*
X895116Y195797D01*
X893750Y196069D01*
X891257D01*
X889394Y197931D01*
X890223Y199932D01*
X893750D01*
X895116Y200203D01*
X896273Y200977D01*
X897047Y202134D01*
X897319Y203500D01*
Y206500D01*
X897047Y207866D01*
X896273Y209023D01*
X895116Y209797D01*
X894506Y209918D01*
X894256Y211930D01*
X898343Y216017D01*
X898750Y215936D01*
X901250D01*
X902518Y216189D01*
X903593Y216907D01*
X904311Y217982D01*
X904564Y219250D01*
Y224750D01*
X904311Y226018D01*
X903593Y227093D01*
X902518Y227811D01*
X901250Y228064D01*
X898750D01*
X897482Y227811D01*
X896407Y227093D01*
X895689Y226018D01*
X895436Y224750D01*
Y221762D01*
X888837Y215163D01*
X888174Y214170D01*
X887941Y213000D01*
X887941Y213000D01*
Y210007D01*
X886884Y209797D01*
X885727Y209023D01*
X885703Y208988D01*
X883297D01*
X883273Y209023D01*
X882116Y209797D01*
X880750Y210069D01*
X875250D01*
X873884Y209797D01*
X872727Y209023D01*
X872703Y208988D01*
X870297D01*
X870273Y209023D01*
X869116Y209797D01*
X867750Y210069D01*
X862250D01*
X860884Y209797D01*
X859727Y209023D01*
X859703Y208988D01*
X857297D01*
X857273Y209023D01*
X856116Y209797D01*
X855059Y210007D01*
Y214733D01*
X857803Y217477D01*
X858024Y217537D01*
X860268Y217114D01*
X860407Y216907D01*
X861482Y216189D01*
X862750Y215936D01*
X865250D01*
X866518Y216189D01*
X867593Y216907D01*
X868311Y217982D01*
X868564Y219250D01*
Y224750D01*
X868311Y226018D01*
X867593Y227093D01*
X866518Y227811D01*
X865250Y228064D01*
X862750D01*
X861482Y227811D01*
X860407Y227093D01*
X859689Y226018D01*
X858000Y225059D01*
X856830Y224826D01*
X855837Y224163D01*
X855837Y224163D01*
X849837Y218163D01*
X849174Y217171D01*
X848941Y216000D01*
X848941Y216000D01*
Y210007D01*
X847884Y209797D01*
X846727Y209023D01*
X845953Y207866D01*
X845681Y206500D01*
Y203500D01*
X845953Y202134D01*
X846727Y200977D01*
X847884Y200203D01*
X849250Y199932D01*
X852777D01*
X853606Y197931D01*
X851743Y196069D01*
X849250D01*
X847884Y195797D01*
X846727Y195023D01*
X846703Y194988D01*
X844297D01*
X844273Y195023D01*
X843116Y195797D01*
X841750Y196069D01*
X836250D01*
X834884Y195797D01*
X833727Y195023D01*
X833703Y194988D01*
X831297D01*
X831273Y195023D01*
X830116Y195797D01*
X828750Y196069D01*
X823250D01*
X821884Y195797D01*
X820727Y195023D01*
X820703Y194988D01*
X818297D01*
X818273Y195023D01*
X817116Y195797D01*
X815750Y196069D01*
X813257D01*
X811394Y197931D01*
X812223Y199932D01*
X815750D01*
X817116Y200203D01*
X818273Y200977D01*
X819047Y202134D01*
X819319Y203500D01*
Y206500D01*
X819047Y207866D01*
X818273Y209023D01*
X817116Y209797D01*
X816059Y210007D01*
Y214733D01*
X820267Y218941D01*
X823498D01*
X823689Y217982D01*
X824407Y216907D01*
X825482Y216189D01*
X826750Y215936D01*
X829250D01*
X830518Y216189D01*
X831593Y216907D01*
X832311Y217982D01*
X832564Y219250D01*
Y224750D01*
X832311Y226018D01*
X831593Y227093D01*
X830518Y227811D01*
X829250Y228064D01*
X826750D01*
X825482Y227811D01*
X824407Y227093D01*
X823689Y226018D01*
X823498Y225059D01*
X819000D01*
X819000Y225059D01*
X817830Y224826D01*
X816837Y224163D01*
X816837Y224163D01*
X810837Y218163D01*
X810174Y217171D01*
X809941Y216000D01*
X809941Y216000D01*
Y210007D01*
X808884Y209797D01*
X807727Y209023D01*
X807703Y208988D01*
X805297D01*
X805273Y209023D01*
X804116Y209797D01*
X802750Y210069D01*
X798559D01*
X798530Y210081D01*
X797057Y211987D01*
X797057Y211991D01*
X797059Y212000D01*
Y216550D01*
X797593Y216907D01*
X798311Y217982D01*
X798564Y219250D01*
Y224750D01*
X798311Y226018D01*
X797593Y227093D01*
X796518Y227811D01*
X795250Y228064D01*
X792750D01*
X791482Y227811D01*
X790407Y227093D01*
X789689Y226018D01*
X789436Y224750D01*
Y219250D01*
X789689Y217982D01*
X790407Y216907D01*
X790941Y216550D01*
Y213267D01*
X787743Y210069D01*
X784250D01*
X782884Y209797D01*
X781727Y209023D01*
X781703Y208988D01*
X779297D01*
X779273Y209023D01*
X778116Y209797D01*
X776750Y210069D01*
X771250D01*
X769884Y209797D01*
X768727Y209023D01*
X767953Y207866D01*
X767681Y206500D01*
Y203500D01*
X767953Y202134D01*
X768727Y200977D01*
X769884Y200203D01*
X771250Y199932D01*
X773743D01*
X775606Y198069D01*
X774777Y196069D01*
X771250D01*
X769884Y195797D01*
X768727Y195023D01*
X768703Y194988D01*
X766297D01*
X766273Y195023D01*
X765116Y195797D01*
X763750Y196069D01*
X758250D01*
X756884Y195797D01*
X755727Y195023D01*
X755703Y194988D01*
X753297D01*
X753273Y195023D01*
X752116Y195797D01*
X750750Y196069D01*
X745250D01*
X743884Y195797D01*
X742727Y195023D01*
X742703Y194988D01*
X740297D01*
X740273Y195023D01*
X739116Y195797D01*
X737750Y196069D01*
X734257D01*
X732394Y197931D01*
X733223Y199932D01*
X737750D01*
X739116Y200203D01*
X740273Y200977D01*
X741047Y202134D01*
X741319Y203500D01*
Y206500D01*
X741047Y207866D01*
X740273Y209023D01*
X739116Y209797D01*
X738059Y210007D01*
Y216000D01*
X738059Y216000D01*
X737826Y217171D01*
X737163Y218163D01*
X733163Y222163D01*
X732171Y222826D01*
X731000Y223059D01*
X730311Y224018D01*
X729593Y225093D01*
X728518Y225811D01*
X727250Y226064D01*
X724750D01*
X723482Y225811D01*
X722407Y225093D01*
X721689Y224018D01*
X721436Y222750D01*
Y217250D01*
X721689Y215982D01*
X722407Y214907D01*
X723482Y214188D01*
X724750Y213936D01*
X727250D01*
X728518Y214188D01*
X729593Y214907D01*
X731906Y214768D01*
X731941Y214733D01*
Y210007D01*
X730884Y209797D01*
X729727Y209023D01*
X729703Y208988D01*
X727297D01*
X727273Y209023D01*
X726116Y209797D01*
X724750Y210069D01*
X719250D01*
X717884Y209797D01*
X716727Y209023D01*
X716703Y208988D01*
X714297D01*
X714273Y209023D01*
X713116Y209797D01*
X712059Y210007D01*
Y215500D01*
X711826Y216671D01*
X711163Y217663D01*
X711163Y217663D01*
X706663Y222163D01*
X705671Y222826D01*
X704500Y223059D01*
X704500Y223059D01*
X697502D01*
X697311Y224018D01*
X696593Y225093D01*
X695518Y225811D01*
X694250Y226064D01*
X691750D01*
X690482Y225811D01*
X689407Y225093D01*
X688689Y224018D01*
X688436Y222750D01*
Y217250D01*
X688689Y215982D01*
X689407Y214907D01*
X690482Y214188D01*
X691750Y213936D01*
X694250D01*
X695518Y214188D01*
X696593Y214907D01*
X697311Y215982D01*
X697502Y216941D01*
X703233D01*
X705941Y214233D01*
Y210007D01*
X704884Y209797D01*
X703727Y209023D01*
X703703Y208988D01*
X701297D01*
X701273Y209023D01*
X700116Y209797D01*
X698750Y210069D01*
X693250D01*
X691884Y209797D01*
X690727Y209023D01*
X689953Y207866D01*
X689681Y206500D01*
Y203500D01*
X689953Y202134D01*
X690727Y200977D01*
X691884Y200203D01*
X693250Y199932D01*
X695743D01*
X697606Y198069D01*
X696777Y196069D01*
X693250D01*
X691884Y195797D01*
X690727Y195023D01*
X690703Y194988D01*
X688297D01*
X688273Y195023D01*
X687116Y195797D01*
X685750Y196069D01*
X680250D01*
X678884Y195797D01*
X677727Y195023D01*
X677703Y194988D01*
X675297D01*
X675273Y195023D01*
X674116Y195797D01*
X672750Y196069D01*
X667250D01*
X665884Y195797D01*
X664727Y195023D01*
X664703Y194988D01*
X662297D01*
X662273Y195023D01*
X661116Y195797D01*
X659750Y196069D01*
X656257D01*
X654394Y197931D01*
X655223Y199932D01*
X659750D01*
X661116Y200203D01*
X662273Y200977D01*
X663047Y202134D01*
X663319Y203500D01*
Y206500D01*
X663047Y207866D01*
X662273Y209023D01*
X661116Y209797D01*
X660569Y209906D01*
Y213522D01*
X660983Y213936D01*
X661250D01*
X662518Y214189D01*
X663593Y214907D01*
X664311Y215982D01*
X664564Y217250D01*
Y217537D01*
X665297Y218634D01*
X665569Y220000D01*
X665297Y221366D01*
X664564Y222463D01*
Y222750D01*
X664311Y224018D01*
X663593Y225093D01*
X662518Y225811D01*
X661250Y226064D01*
X658750D01*
X657482Y225811D01*
X656407Y225093D01*
X655689Y224018D01*
X655436Y222750D01*
Y218483D01*
X654477Y217523D01*
X653703Y216366D01*
X653431Y215000D01*
Y209906D01*
X652884Y209797D01*
X651727Y209023D01*
X651703Y208988D01*
X649297D01*
X649273Y209023D01*
X648116Y209797D01*
X646750Y210069D01*
X641250D01*
X639884Y209797D01*
X638727Y209023D01*
X638703Y208988D01*
X636297D01*
X636273Y209023D01*
X635116Y209797D01*
X633750Y210069D01*
X630257D01*
X630059Y210267D01*
Y214550D01*
X630593Y214907D01*
X631311Y215982D01*
X631564Y217250D01*
Y222750D01*
X631311Y224018D01*
X630593Y225093D01*
X629518Y225811D01*
X628250Y226064D01*
X625750D01*
X624482Y225811D01*
X623407Y225093D01*
X622689Y224018D01*
X622436Y222750D01*
Y217250D01*
X622689Y215982D01*
X623407Y214907D01*
X623941Y214550D01*
Y210982D01*
X622226Y209869D01*
X621941Y209832D01*
X620750Y210069D01*
X615250D01*
X613884Y209797D01*
X612727Y209023D01*
X611953Y207866D01*
X611681Y206500D01*
Y203500D01*
X611953Y202134D01*
X612727Y200977D01*
X613884Y200203D01*
X615250Y199932D01*
X617743D01*
X619606Y198069D01*
X618777Y196069D01*
X615250D01*
X613884Y195797D01*
X612727Y195023D01*
X612703Y194988D01*
X610297D01*
X610273Y195023D01*
X609116Y195797D01*
X607750Y196069D01*
X602250D01*
X600884Y195797D01*
X599727Y195023D01*
X599703Y194988D01*
X597297D01*
X597273Y195023D01*
X596116Y195797D01*
X594750Y196069D01*
X589250D01*
X587884Y195797D01*
X586727Y195023D01*
X586703Y194988D01*
X584297D01*
X584273Y195023D01*
X583116Y195797D01*
X581750Y196069D01*
X579257D01*
X577394Y197931D01*
X578223Y199932D01*
X581750D01*
X583116Y200203D01*
X584273Y200977D01*
X585047Y202134D01*
X585319Y203500D01*
Y206500D01*
X585237Y206911D01*
X592262Y213936D01*
X594250D01*
X595518Y214189D01*
X596593Y214907D01*
X597311Y215982D01*
X597564Y217250D01*
Y222750D01*
X597311Y224018D01*
X596593Y225093D01*
X595518Y225811D01*
X594250Y226064D01*
X591750D01*
X590482Y225811D01*
X589407Y225093D01*
X588689Y224018D01*
X588436Y222750D01*
Y218762D01*
X579743Y210069D01*
X576250D01*
X574884Y209797D01*
X573727Y209023D01*
X573703Y208988D01*
X571297D01*
X571273Y209023D01*
X570116Y209797D01*
X568750Y210069D01*
X563250D01*
X561884Y209797D01*
X560727Y209023D01*
X560703Y208988D01*
X558297D01*
X558273Y209023D01*
X557116Y209797D01*
X556059Y210007D01*
Y212035D01*
X556750Y213936D01*
X559250D01*
X560518Y214189D01*
X561593Y214907D01*
X562311Y215982D01*
X562564Y217250D01*
Y222750D01*
X562311Y224018D01*
X561593Y225093D01*
X560518Y225811D01*
X559250Y226064D01*
X556750D01*
X555482Y225811D01*
X554407Y225093D01*
X553689Y224018D01*
X553436Y222750D01*
Y219762D01*
X550837Y217163D01*
X550174Y216171D01*
X549941Y215000D01*
X549941Y215000D01*
Y210007D01*
X548884Y209797D01*
X547727Y209023D01*
X547703Y208988D01*
X545297D01*
X545273Y209023D01*
X544116Y209797D01*
X542750Y210069D01*
X537250D01*
X535884Y209797D01*
X534727Y209023D01*
X533953Y207866D01*
X533681Y206500D01*
Y203500D01*
X533953Y202134D01*
X534727Y200977D01*
X535884Y200203D01*
X537250Y199932D01*
X541743D01*
X543769Y197905D01*
X542784Y196062D01*
X542750Y196069D01*
X537250D01*
X535884Y195797D01*
X534727Y195023D01*
X534703Y194988D01*
X532297D01*
X532273Y195023D01*
X531116Y195797D01*
X529750Y196069D01*
X524250D01*
X522884Y195797D01*
X521727Y195023D01*
X520953Y193866D01*
X520681Y192500D01*
Y189500D01*
X520953Y188134D01*
X521727Y186977D01*
X522884Y186203D01*
X524250Y185931D01*
X527743D01*
X538941Y174733D01*
Y167970D01*
X538395Y167605D01*
X537290Y165951D01*
X536902Y164000D01*
X537290Y162049D01*
X538395Y160395D01*
X540049Y159290D01*
X542000Y158902D01*
X543951Y159290D01*
X545605Y160395D01*
X546710Y162049D01*
X547098Y164000D01*
X546710Y165951D01*
X545605Y167605D01*
X545059Y167970D01*
Y173002D01*
X546907Y173768D01*
X549961Y170713D01*
Y151039D01*
X532039D01*
Y178000D01*
X531884Y178780D01*
X531442Y179442D01*
X530780Y179884D01*
X530000Y180039D01*
X515569D01*
Y183405D01*
X515884Y183616D01*
X516768Y184939D01*
X517078Y186500D01*
Y195500D01*
X516768Y197061D01*
X515884Y198384D01*
X515569Y198594D01*
Y203405D01*
X515884Y203616D01*
X516768Y204939D01*
X517078Y206500D01*
Y215500D01*
X516768Y217061D01*
X515884Y218384D01*
X515569Y218594D01*
Y228624D01*
X517569Y229460D01*
X519448Y228018D01*
X522367Y226809D01*
X525500Y226396D01*
X528633Y226809D01*
X531552Y228018D01*
X534058Y229942D01*
X535982Y232448D01*
X537191Y235367D01*
X537604Y238500D01*
X537191Y241633D01*
X535982Y244552D01*
X534058Y247059D01*
X531552Y248982D01*
X528633Y250191D01*
X525500Y250604D01*
X522367Y250191D01*
X519448Y248982D01*
X517569Y247540D01*
X515569Y248376D01*
Y333000D01*
X515297Y334366D01*
X514523Y335523D01*
X509078Y340968D01*
Y346500D01*
X508768Y348061D01*
X507884Y349384D01*
X506561Y350268D01*
X505000Y350578D01*
X504863D01*
Y364171D01*
X505442Y364558D01*
X505884Y365220D01*
X506039Y366000D01*
Y370784D01*
X508039Y370981D01*
X508174Y370303D01*
X508837Y369310D01*
X530310Y347837D01*
X531303Y347174D01*
X532473Y346941D01*
X532473Y346941D01*
X594066D01*
X594072Y346935D01*
X594952Y344941D01*
X594290Y343951D01*
X593902Y342000D01*
X594290Y340049D01*
X595395Y338395D01*
X596341Y337763D01*
Y316557D01*
X594357Y315735D01*
X592268Y314132D01*
X590665Y312043D01*
X589657Y309611D01*
X589314Y307000D01*
X589657Y304389D01*
X590665Y301957D01*
X592268Y299868D01*
X594357Y298265D01*
X596790Y297257D01*
X599400Y296914D01*
X602010Y297257D01*
X604443Y298265D01*
X606532Y299868D01*
X608135Y301957D01*
X609143Y304389D01*
X609486Y307000D01*
X609143Y309611D01*
X608135Y312043D01*
X606532Y314132D01*
X604443Y315735D01*
X602459Y316557D01*
Y338298D01*
X602605Y338395D01*
X603710Y340049D01*
X603980Y341409D01*
X606020D01*
X606290Y340049D01*
X607395Y338395D01*
X609049Y337290D01*
X611000Y336902D01*
X612951Y337290D01*
X613508Y337663D01*
X614783Y336109D01*
X612837Y334163D01*
X612174Y333171D01*
X611941Y332000D01*
X611941Y332000D01*
Y296267D01*
X585733Y270059D01*
X559000D01*
X557830Y269826D01*
X556837Y269163D01*
X556837Y269163D01*
X550911Y263237D01*
X550500Y263319D01*
X547500D01*
X546134Y263047D01*
X544977Y262273D01*
X544203Y261116D01*
X543931Y259750D01*
Y254250D01*
X544203Y252884D01*
X544977Y251727D01*
X545441Y251416D01*
Y247450D01*
X544907Y247093D01*
X544189Y246018D01*
X543936Y244750D01*
Y239250D01*
X544189Y237982D01*
X544907Y236907D01*
X545982Y236189D01*
X547250Y235936D01*
X549750D01*
X551018Y236189D01*
X552093Y236907D01*
X552811Y237982D01*
X553064Y239250D01*
Y244750D01*
X552811Y246018D01*
X552093Y247093D01*
X551559Y247450D01*
Y250892D01*
X551866Y250953D01*
X553023Y251727D01*
X553797Y252884D01*
X554069Y254250D01*
Y257743D01*
X560267Y263941D01*
X577873D01*
X578380Y263176D01*
X578755Y261941D01*
X578203Y261116D01*
X577931Y259750D01*
Y254250D01*
X578203Y252884D01*
X578977Y251727D01*
X580134Y250953D01*
X580441Y250892D01*
Y247450D01*
X579907Y247093D01*
X579189Y246018D01*
X578936Y244750D01*
Y239250D01*
X579189Y237982D01*
X579907Y236907D01*
X580982Y236189D01*
X582250Y235936D01*
X584750D01*
X586018Y236189D01*
X587093Y236907D01*
X587811Y237982D01*
X588064Y239250D01*
Y244750D01*
X587811Y246018D01*
X587093Y247093D01*
X586559Y247450D01*
Y251416D01*
X587023Y251727D01*
X587797Y252884D01*
X588069Y254250D01*
Y257743D01*
X618093Y287768D01*
X619941Y287002D01*
Y265517D01*
X617743Y263319D01*
X615500D01*
X614134Y263047D01*
X612977Y262273D01*
X612203Y261116D01*
X611931Y259750D01*
Y254250D01*
X612203Y252884D01*
X612977Y251727D01*
X614134Y250953D01*
X614941Y250793D01*
Y247784D01*
X613907Y247093D01*
X613189Y246018D01*
X612936Y244750D01*
Y239250D01*
X613189Y237982D01*
X613907Y236907D01*
X614982Y236189D01*
X616250Y235936D01*
X618750D01*
X620018Y236189D01*
X621093Y236907D01*
X621811Y237982D01*
X622064Y239250D01*
Y244750D01*
X621811Y246018D01*
X621093Y247093D01*
X621059Y247116D01*
Y251780D01*
X621797Y252884D01*
X622069Y254250D01*
Y258993D01*
X625163Y262087D01*
X625826Y263079D01*
X626059Y264250D01*
X626059Y264250D01*
Y277002D01*
X627906Y277768D01*
X645931Y259743D01*
Y254250D01*
X646203Y252884D01*
X646977Y251727D01*
X648134Y250953D01*
X649441Y250693D01*
Y248064D01*
X649250D01*
X647982Y247811D01*
X646907Y247093D01*
X646189Y246018D01*
X645936Y244750D01*
Y239250D01*
X646189Y237982D01*
X646907Y236907D01*
X647982Y236189D01*
X649250Y235936D01*
X651750D01*
X653018Y236189D01*
X654093Y236907D01*
X654811Y237982D01*
X655064Y239250D01*
Y240437D01*
X655326Y240830D01*
X655559Y242000D01*
Y252528D01*
X655797Y252884D01*
X656069Y254250D01*
Y259750D01*
X655797Y261116D01*
X655023Y262273D01*
X655047Y264622D01*
X655264Y264941D01*
X672733D01*
X678931Y258743D01*
Y253250D01*
X679203Y251884D01*
X679977Y250727D01*
X680941Y250082D01*
Y247784D01*
X679907Y247093D01*
X679189Y246018D01*
X678936Y244750D01*
Y239250D01*
X679189Y237982D01*
X679907Y236907D01*
X680982Y236189D01*
X682250Y235936D01*
X684750D01*
X686018Y236189D01*
X687093Y236907D01*
X687811Y237982D01*
X688064Y239250D01*
Y244750D01*
X687811Y246018D01*
X687093Y247093D01*
X687059Y247116D01*
Y250082D01*
X688023Y250727D01*
X688797Y251884D01*
X689069Y253250D01*
Y258750D01*
X688797Y260116D01*
X688023Y261273D01*
X686866Y262047D01*
X685500Y262319D01*
X684007D01*
X676163Y270163D01*
X675171Y270826D01*
X674000Y271059D01*
X674000Y271059D01*
X666066D01*
X665719Y271515D01*
X665180Y273059D01*
X665768Y273939D01*
X666078Y275500D01*
Y284500D01*
X665768Y286061D01*
X664884Y287384D01*
X664559Y287601D01*
Y292529D01*
X664797Y292885D01*
X665069Y294251D01*
Y299751D01*
X664797Y301117D01*
X664559Y301473D01*
Y309978D01*
X664561Y309982D01*
X664814Y311250D01*
Y320750D01*
X664561Y322018D01*
X664559Y322022D01*
Y335647D01*
X666559Y336254D01*
X666837Y335837D01*
X668441Y334233D01*
Y322022D01*
X668439Y322018D01*
X668186Y320750D01*
Y311250D01*
X668439Y309982D01*
X669157Y308907D01*
X670232Y308189D01*
X671500Y307936D01*
X672768Y308189D01*
X674000Y308826D01*
X675232Y308189D01*
X676500Y307936D01*
X677768Y308189D01*
X679000Y308826D01*
X680232Y308189D01*
X681500Y307936D01*
X682768Y308189D01*
X684000Y308826D01*
X685232Y308189D01*
X686500Y307936D01*
X688441Y306416D01*
Y299500D01*
X688441Y299500D01*
X688674Y298330D01*
X689337Y297337D01*
X712941Y273733D01*
Y261918D01*
X711977Y261273D01*
X711203Y260116D01*
X710931Y258750D01*
Y253250D01*
X711203Y251884D01*
X711977Y250727D01*
X712941Y250082D01*
Y247116D01*
X712907Y247093D01*
X712189Y246018D01*
X711936Y244750D01*
Y239250D01*
X712189Y237982D01*
X712907Y236907D01*
X713982Y236189D01*
X715250Y235936D01*
X717750D01*
X719018Y236189D01*
X720093Y236907D01*
X720811Y237982D01*
X721064Y239250D01*
Y244750D01*
X720811Y246018D01*
X720093Y247093D01*
X719059Y247784D01*
Y250082D01*
X720023Y250727D01*
X720797Y251884D01*
X721069Y253250D01*
Y258750D01*
X720797Y260116D01*
X720023Y261273D01*
X719059Y261918D01*
Y270659D01*
X720907Y271425D01*
X728494Y263837D01*
X728494Y263837D01*
X729486Y263174D01*
X730657Y262941D01*
X730657Y262941D01*
X778733D01*
X780096Y261578D01*
X779931Y260750D01*
Y255250D01*
X780203Y253884D01*
X780977Y252727D01*
X781941Y252082D01*
Y249784D01*
X780907Y249093D01*
X780189Y248018D01*
X779936Y246750D01*
Y241250D01*
X780189Y239982D01*
X780907Y238907D01*
X781982Y238189D01*
X783250Y237936D01*
X785750D01*
X787018Y238189D01*
X788093Y238907D01*
X788811Y239982D01*
X789064Y241250D01*
Y246750D01*
X788811Y248018D01*
X788093Y249093D01*
X788059Y249116D01*
Y252082D01*
X789023Y252727D01*
X789797Y253884D01*
X790069Y255250D01*
Y260750D01*
X789797Y262116D01*
X789023Y263273D01*
X787866Y264047D01*
X786976Y264224D01*
X786436Y264941D01*
X787173Y266637D01*
X787536Y266941D01*
X812733D01*
X814411Y265263D01*
X814977Y263273D01*
X814203Y262116D01*
X813931Y260750D01*
Y255250D01*
X814203Y253884D01*
X814977Y252727D01*
X815441Y252416D01*
Y249450D01*
X814907Y249093D01*
X814189Y248018D01*
X813936Y246750D01*
Y241250D01*
X814189Y239982D01*
X814907Y238907D01*
X815982Y238189D01*
X817250Y237936D01*
X819750D01*
X821018Y238189D01*
X822093Y238907D01*
X822811Y239982D01*
X823064Y241250D01*
Y246750D01*
X822811Y248018D01*
X822093Y249093D01*
X821559Y249450D01*
Y251892D01*
X821866Y251953D01*
X823023Y252727D01*
X823797Y253884D01*
X824069Y255250D01*
Y260750D01*
X823797Y262116D01*
X823023Y263273D01*
X821866Y264047D01*
X821559Y264108D01*
Y265500D01*
X821326Y266670D01*
X820663Y267663D01*
X819232Y269093D01*
X819998Y270941D01*
X842733D01*
X850015Y263660D01*
X849977Y263273D01*
X849203Y262116D01*
X848931Y260750D01*
Y255250D01*
X849203Y253884D01*
X849977Y252727D01*
X851134Y251953D01*
X851441Y251892D01*
Y249450D01*
X850907Y249093D01*
X850189Y248018D01*
X849936Y246750D01*
Y241250D01*
X850189Y239982D01*
X850907Y238907D01*
X851982Y238189D01*
X853250Y237936D01*
X855750D01*
X857018Y238189D01*
X858093Y238907D01*
X858811Y239982D01*
X859064Y241250D01*
Y246750D01*
X858811Y248018D01*
X858093Y249093D01*
X857559Y249450D01*
Y252416D01*
X858023Y252727D01*
X858797Y253884D01*
X859069Y255250D01*
Y260750D01*
X858797Y262116D01*
X858023Y263273D01*
X857540Y263597D01*
X857326Y264671D01*
X856663Y265663D01*
X849232Y273093D01*
X849998Y274941D01*
X877733D01*
X887245Y265429D01*
X887117Y263367D01*
X886977Y263273D01*
X886203Y262116D01*
X885931Y260750D01*
Y255250D01*
X886203Y253884D01*
X886977Y252727D01*
X887441Y252416D01*
Y249450D01*
X886907Y249093D01*
X886189Y248018D01*
X885936Y246750D01*
Y241250D01*
X886189Y239982D01*
X886907Y238907D01*
X887982Y238189D01*
X889250Y237936D01*
X891750D01*
X893018Y238189D01*
X894093Y238907D01*
X894811Y239982D01*
X895064Y241250D01*
Y246750D01*
X894811Y248018D01*
X894093Y249093D01*
X893559Y249450D01*
Y251892D01*
X893866Y251953D01*
X895023Y252727D01*
X895797Y253884D01*
X896069Y255250D01*
Y260750D01*
X895797Y262116D01*
X895023Y263273D01*
X893866Y264047D01*
X893559Y264108D01*
Y266500D01*
X893559Y266500D01*
X893326Y267670D01*
X892663Y268663D01*
X892663Y268663D01*
X884232Y277094D01*
X884998Y278941D01*
X910733D01*
X926015Y263660D01*
X925977Y263273D01*
X925203Y262116D01*
X924931Y260750D01*
Y255250D01*
X925203Y253884D01*
X925977Y252727D01*
X926441Y252416D01*
Y249450D01*
X925907Y249093D01*
X925189Y248018D01*
X924936Y246750D01*
Y241250D01*
X925189Y239982D01*
X925907Y238907D01*
X926982Y238189D01*
X928250Y237936D01*
X930750D01*
X932018Y238189D01*
X933093Y238907D01*
X933811Y239982D01*
X934064Y241250D01*
Y246750D01*
X933811Y248018D01*
X933093Y249093D01*
X932559Y249450D01*
Y251892D01*
X932866Y251953D01*
X934023Y252727D01*
X934797Y253884D01*
X935069Y255250D01*
Y260750D01*
X934797Y262116D01*
X934023Y263273D01*
X932866Y264047D01*
X932559Y264108D01*
Y264500D01*
X932326Y265671D01*
X931663Y266663D01*
X931663Y266663D01*
X914163Y284163D01*
X913170Y284826D01*
X912000Y285059D01*
X912000Y285059D01*
X820058D01*
X819472Y286212D01*
X819350Y287059D01*
X839146Y306854D01*
X840416Y308757D01*
X840863Y311000D01*
Y431000D01*
X840416Y433243D01*
X839146Y435145D01*
X824146Y450145D01*
X822243Y451416D01*
X820000Y451863D01*
X752428D01*
X711291Y493000D01*
X712120Y495000D01*
X939603D01*
X940167Y493000D01*
D02*
G37*
G36*
X621775Y482137D02*
X621768Y482132D01*
X621551Y481849D01*
X621268Y481632D01*
X619665Y479543D01*
X618657Y477110D01*
X618314Y474500D01*
X618657Y471889D01*
X619665Y469457D01*
X621268Y467368D01*
X622137Y466701D01*
Y452000D01*
Y407000D01*
X622584Y404757D01*
X622922Y404251D01*
Y402500D01*
X623232Y400939D01*
X624116Y399616D01*
X624412Y399419D01*
Y393427D01*
X624203Y393115D01*
X623931Y391749D01*
Y387952D01*
X623000Y386098D01*
X621049Y385710D01*
X619395Y384605D01*
X618290Y382951D01*
X617902Y381000D01*
X618290Y379049D01*
X619395Y377395D01*
X621049Y376290D01*
X623000Y375902D01*
X624951Y376290D01*
X626605Y377395D01*
X626970Y377941D01*
X631733D01*
X634268Y375406D01*
X633502Y373559D01*
X541524D01*
X540081Y375002D01*
X540115Y375311D01*
X540951Y376961D01*
X551704D01*
X552000Y376902D01*
X552295Y376961D01*
X555000D01*
X555780Y377116D01*
X556442Y377558D01*
X556884Y378220D01*
X557039Y379000D01*
Y381705D01*
X557098Y382000D01*
X557039Y382295D01*
Y411000D01*
X556884Y411780D01*
X556442Y412442D01*
X555780Y412884D01*
X555000Y413039D01*
X536000D01*
X534307Y414166D01*
X534059Y414514D01*
Y423000D01*
X533826Y424171D01*
X533163Y425163D01*
X533163Y425163D01*
X501163Y457163D01*
X500171Y457826D01*
X499000Y458059D01*
X499000Y458059D01*
X478178D01*
X477350Y460059D01*
X485414Y468123D01*
X487000Y467914D01*
X489610Y468257D01*
X492043Y469265D01*
X494132Y470868D01*
X495735Y472957D01*
X496743Y475390D01*
X497086Y478000D01*
X496877Y479586D01*
X501428Y484137D01*
X516365D01*
X517044Y482137D01*
X516941Y482058D01*
X515018Y479552D01*
X513809Y476633D01*
X513396Y473500D01*
X513809Y470367D01*
X515018Y467448D01*
X516941Y464941D01*
X519448Y463018D01*
X522367Y461809D01*
X525500Y461396D01*
X528633Y461809D01*
X531552Y463018D01*
X534058Y464941D01*
X535982Y467448D01*
X537191Y470367D01*
X537604Y473500D01*
X537191Y476633D01*
X535982Y479552D01*
X534058Y482058D01*
X533956Y482137D01*
X534635Y484137D01*
X563137D01*
Y465000D01*
X550500D01*
Y439000D01*
X563137D01*
Y405000D01*
X562000D01*
Y386009D01*
X561395Y385605D01*
X560290Y383951D01*
X559902Y382000D01*
X560290Y380049D01*
X561395Y378395D01*
X563049Y377290D01*
X565000Y376902D01*
X566951Y377290D01*
X568605Y378395D01*
X569009Y379000D01*
X576000D01*
Y405000D01*
X574863D01*
Y439000D01*
X587500D01*
Y465000D01*
X574863D01*
Y484137D01*
X621424D01*
X621775Y482137D01*
D02*
G37*
%LPC*%
G36*
X177750Y115069D02*
X172250D01*
X170884Y114797D01*
X169727Y114023D01*
X168953Y112866D01*
X168681Y111500D01*
Y108500D01*
X168953Y107134D01*
X169727Y105977D01*
X170884Y105203D01*
X171941Y104993D01*
Y92767D01*
X169611Y90437D01*
X169552Y90482D01*
X166633Y91691D01*
X163500Y92104D01*
X160367Y91691D01*
X157448Y90482D01*
X154942Y88559D01*
X153018Y86052D01*
X151809Y83133D01*
X151396Y80000D01*
X151809Y76867D01*
X153018Y73948D01*
X154942Y71441D01*
X157448Y69518D01*
X160367Y68309D01*
X163500Y67896D01*
X166633Y68309D01*
X169552Y69518D01*
X172059Y71441D01*
X173982Y73948D01*
X175191Y76867D01*
X175604Y80000D01*
X175191Y83133D01*
X173982Y86052D01*
X173937Y86111D01*
X177163Y89337D01*
X177163Y89337D01*
X177826Y90330D01*
X178059Y91500D01*
X178059Y91500D01*
Y104993D01*
X179116Y105203D01*
X180273Y105977D01*
X181047Y107134D01*
X181319Y108500D01*
Y111500D01*
X181047Y112866D01*
X180273Y114023D01*
X179116Y114797D01*
X177750Y115069D01*
D02*
G37*
G36*
X97000Y48098D02*
X95049Y47710D01*
X93395Y46605D01*
X92290Y44951D01*
X91902Y43000D01*
X92290Y41049D01*
X93395Y39395D01*
X95049Y38290D01*
X97000Y37902D01*
X98951Y38290D01*
X100605Y39395D01*
X101710Y41049D01*
X102098Y43000D01*
X101710Y44951D01*
X100605Y46605D01*
X98951Y47710D01*
X97000Y48098D01*
D02*
G37*
G36*
X192750Y115069D02*
X187250D01*
X185884Y114797D01*
X184727Y114023D01*
X183953Y112866D01*
X183681Y111500D01*
Y108500D01*
X183953Y107134D01*
X184727Y105977D01*
X185884Y105203D01*
X186941Y104993D01*
Y88500D01*
X186941Y88500D01*
X187174Y87329D01*
X187837Y86337D01*
X188063Y86111D01*
X188018Y86052D01*
X186809Y83133D01*
X186396Y80000D01*
X186809Y76867D01*
X188018Y73948D01*
X189942Y71441D01*
X192448Y69518D01*
X195367Y68309D01*
X198500Y67896D01*
X201633Y68309D01*
X204552Y69518D01*
X207059Y71441D01*
X208982Y73948D01*
X210191Y76867D01*
X210604Y80000D01*
X210191Y83133D01*
X208982Y86052D01*
X207059Y88559D01*
X204552Y90482D01*
X201633Y91691D01*
X198500Y92104D01*
X195367Y91691D01*
X194115Y91172D01*
X193059Y91878D01*
Y104993D01*
X194116Y105203D01*
X195273Y105977D01*
X196047Y107134D01*
X196319Y108500D01*
Y111500D01*
X196047Y112866D01*
X195273Y114023D01*
X194116Y114797D01*
X192750Y115069D01*
D02*
G37*
G36*
X588000Y341098D02*
X586049Y340710D01*
X584395Y339605D01*
X584030Y339059D01*
X577600D01*
X577600Y339059D01*
X576429Y338826D01*
X575437Y338163D01*
X553195Y315921D01*
X551211Y316743D01*
X548600Y317086D01*
X545989Y316743D01*
X543557Y315735D01*
X541468Y314132D01*
X539865Y312043D01*
X538857Y309611D01*
X538514Y307000D01*
X538857Y304389D01*
X539865Y301957D01*
X541468Y299868D01*
X543557Y298265D01*
X545989Y297257D01*
X548600Y296914D01*
X551211Y297257D01*
X553643Y298265D01*
X555732Y299868D01*
X557335Y301957D01*
X558343Y304389D01*
X558686Y307000D01*
X558343Y309611D01*
X557521Y311595D01*
X578867Y332941D01*
X584030D01*
X584395Y332395D01*
X586049Y331290D01*
X588000Y330902D01*
X589951Y331290D01*
X591605Y332395D01*
X592710Y334049D01*
X593098Y336000D01*
X592710Y337951D01*
X591605Y339605D01*
X589951Y340710D01*
X588000Y341098D01*
D02*
G37*
G36*
X574000Y317086D02*
X571390Y316743D01*
X568957Y315735D01*
X566868Y314132D01*
X565265Y312043D01*
X564257Y309611D01*
X563914Y307000D01*
X564257Y304389D01*
X565265Y301957D01*
X566868Y299868D01*
X568957Y298265D01*
X571390Y297257D01*
X574000Y296914D01*
X576610Y297257D01*
X579043Y298265D01*
X581132Y299868D01*
X582735Y301957D01*
X583743Y304389D01*
X584086Y307000D01*
X583743Y309611D01*
X582735Y312043D01*
X581132Y314132D01*
X579043Y315735D01*
X576610Y316743D01*
X574000Y317086D01*
D02*
G37*
G36*
X756500Y249604D02*
X753367Y249191D01*
X750448Y247982D01*
X747942Y246059D01*
X746018Y243552D01*
X744809Y240633D01*
X744397Y237500D01*
X744809Y234367D01*
X746018Y231448D01*
X747942Y228941D01*
X750448Y227018D01*
X753367Y225809D01*
X756500Y225396D01*
X759633Y225809D01*
X762552Y227018D01*
X765059Y228941D01*
X766982Y231448D01*
X768191Y234367D01*
X768604Y237500D01*
X768191Y240633D01*
X766982Y243552D01*
X765059Y246059D01*
X762552Y247982D01*
X759633Y249191D01*
X756500Y249604D01*
D02*
G37*
G36*
Y485604D02*
X753367Y485191D01*
X750448Y483982D01*
X747942Y482058D01*
X746018Y479552D01*
X744809Y476633D01*
X744397Y473500D01*
X744809Y470367D01*
X746018Y467448D01*
X747942Y464941D01*
X750448Y463018D01*
X753367Y461809D01*
X756500Y461396D01*
X759633Y461809D01*
X762552Y463018D01*
X765059Y464941D01*
X766982Y467448D01*
X768191Y470367D01*
X768604Y473500D01*
X768191Y476633D01*
X766982Y479552D01*
X765059Y482058D01*
X762552Y483982D01*
X759633Y485191D01*
X756500Y485604D01*
D02*
G37*
%LPD*%
D10*
X979000Y404000D02*
D03*
X22000Y91000D02*
D03*
D14*
X20000Y279000D02*
D03*
Y297000D02*
D03*
X57000Y279000D02*
D03*
Y297000D02*
D03*
D15*
X16650Y320500D02*
D03*
Y257500D02*
D03*
X29350D02*
D03*
Y320500D02*
D03*
X49650Y258500D02*
D03*
Y321500D02*
D03*
X62350D02*
D03*
Y258500D02*
D03*
D16*
X661500Y281500D02*
Y316000D01*
X660000Y280000D02*
X661500Y281500D01*
X671500Y316000D02*
Y335500D01*
X669000Y338000D02*
X671500Y335500D01*
X669000Y338000D02*
Y344000D01*
X666805Y350290D02*
X685195D01*
X661500Y316000D02*
Y344985D01*
X666805Y350290D01*
X685195D02*
X693000Y342485D01*
Y340000D02*
Y342485D01*
Y340000D02*
X698000Y335000D01*
X684686Y357000D02*
X716500Y325186D01*
X684343Y363000D02*
X716843Y330500D01*
X682001Y370999D02*
X717500Y335500D01*
X665000Y357000D02*
X684686D01*
X672000Y363000D02*
X684343D01*
X665999Y370999D02*
X682001D01*
X731000Y345500D02*
X750000D01*
X719000Y343000D02*
X721500Y345500D01*
X731000D01*
X716843Y330500D02*
X731000D01*
X717500Y335500D02*
X731000D01*
X421000Y415000D02*
X421000D01*
X412000D02*
X421000D01*
X413999Y392999D02*
Y397999D01*
X426000Y410000D01*
X421000Y415000D02*
X431000Y425000D01*
X421000Y415000D02*
X423000Y417000D01*
X52000Y350000D02*
X75000D01*
X45000Y343000D02*
X52000Y350000D01*
X179000Y135000D02*
X190000Y124000D01*
X203994D02*
X203994Y124000D01*
X190000Y124000D02*
X203994D01*
X159994Y124000D02*
X159994Y124000D01*
X175000D01*
X190000Y88500D02*
X198500Y80000D01*
X190000Y88500D02*
Y110000D01*
X163500Y80000D02*
X175000Y91500D01*
Y110000D01*
X114000Y111000D02*
Y118000D01*
X117006Y111000D02*
X118000Y111994D01*
X114000Y111000D02*
X117006D01*
X110000Y111375D02*
Y131000D01*
X105000Y112006D02*
X105631Y111375D01*
X110000D01*
X116000Y120000D02*
Y121000D01*
X114000Y118000D02*
X116000Y120000D01*
X104000Y121000D02*
Y122000D01*
X104000Y122000D01*
X105000Y121000D01*
Y133000D01*
X122250Y54750D02*
X123500Y53500D01*
Y45500D02*
Y53500D01*
X117000D02*
X118250Y54750D01*
X117000Y45500D02*
Y53500D01*
X511000Y371473D02*
Y414716D01*
X490716Y435000D02*
X511000Y414716D01*
X326000Y435000D02*
X490716D01*
X515000Y373130D02*
Y416373D01*
X492373Y439000D02*
X515000Y416373D01*
X320000Y439000D02*
X492373D01*
X519000Y374787D02*
Y418030D01*
X494030Y443000D02*
X519000Y418030D01*
X523000Y376444D02*
Y419686D01*
X527000Y378101D02*
Y421343D01*
X531000Y379757D02*
Y423000D01*
X450000Y425000D02*
X482000D01*
X483000Y424000D01*
X450000Y410000D02*
X482000D01*
X489000Y417000D01*
X478000Y395000D02*
X500000Y417000D01*
X450000Y395000D02*
X478000D01*
X427000D02*
X436000D01*
X426000Y410000D02*
X436000D01*
X431000Y425000D02*
X436000D01*
X650000Y400000D02*
X666000Y384000D01*
X650000Y400000D02*
Y401000D01*
X643000Y410000D02*
X658500D01*
X650000Y432000D02*
X661500D01*
X760000Y282000D02*
X912000D01*
X743000Y299000D02*
X760000Y282000D01*
X743000Y299000D02*
Y337000D01*
X739500Y340500D02*
X743000Y337000D01*
X804000Y305000D02*
Y368000D01*
X801500Y370500D02*
X804000Y368000D01*
X452000Y349000D02*
Y359000D01*
X467000Y373000D02*
X476000D01*
X452000D02*
X467000D01*
X436000D02*
X452000D01*
X476000D02*
X477000Y374000D01*
X532473Y350000D02*
X603000D01*
X531000Y379757D02*
X540257Y370500D01*
X647000D01*
X539100Y366000D02*
X631000D01*
X527000Y378101D02*
X539100Y366000D01*
X523000Y376444D02*
X537444Y362000D01*
X626000D01*
X535787Y358000D02*
X617000D01*
X519000Y374787D02*
X535787Y358000D01*
X534130Y354000D02*
X609000D01*
X515000Y373130D02*
X534130Y354000D01*
X511000Y371473D02*
X532473Y350000D01*
X265000Y114500D02*
X299500Y80000D01*
X265000Y114500D02*
Y119000D01*
X264350Y119650D02*
X265000Y119000D01*
X264350Y119650D02*
Y145500D01*
X251000Y93500D02*
X264500Y80000D01*
X251000Y93500D02*
Y119000D01*
X251650Y119650D01*
Y145500D01*
X393000Y214000D02*
X400000Y221000D01*
X386050Y192500D02*
Y200050D01*
X365000Y208000D02*
X387000D01*
X373350Y192500D02*
Y207650D01*
X360650Y192500D02*
Y203650D01*
X387000Y208000D02*
X393000Y214000D01*
X360650Y203650D02*
X365000Y208000D01*
X632500Y355500D02*
X647000D01*
X626000Y362000D02*
X632500Y355500D01*
X636500Y360500D02*
X647000D01*
X631000Y366000D02*
X636500Y360500D01*
X577600Y336000D02*
X588000D01*
X548600Y307000D02*
X577600Y336000D01*
X599400Y307000D02*
Y341600D01*
X599000Y342000D02*
X599400Y341600D01*
X603000Y350000D02*
X611000Y342000D01*
X716500Y316000D02*
Y325186D01*
X678000Y327500D02*
Y333000D01*
X676500Y326000D02*
X678000Y327500D01*
X686000Y340000D02*
Y341000D01*
Y340000D02*
X686500Y340500D01*
Y316000D02*
Y340500D01*
X676500Y316000D02*
Y326000D01*
Y400000D02*
Y411000D01*
X671500Y400000D02*
Y408000D01*
X661500Y400000D02*
Y407000D01*
X658500Y410000D02*
X661500Y407000D01*
X787000Y205000D02*
X794000Y212000D01*
Y222000D01*
X813000Y205000D02*
Y216000D01*
X819000Y222000D01*
X828000D01*
X858000D02*
X864000D01*
X852000Y216000D02*
X858000Y222000D01*
X852000Y205000D02*
Y216000D01*
X891000Y213000D02*
X900000Y222000D01*
X891000Y205000D02*
Y213000D01*
X930000D02*
X939000Y222000D01*
X930000Y205000D02*
Y213000D01*
X785000Y258000D02*
Y261000D01*
X780000Y266000D02*
X785000Y261000D01*
X730657Y266000D02*
X780000D01*
X784500Y244000D02*
X785000Y244500D01*
Y258000D01*
X818500Y244000D02*
Y265500D01*
X732314Y270000D02*
X814000D01*
X818500Y265500D01*
X854500Y244000D02*
Y263500D01*
X733970Y274000D02*
X844000D01*
X854500Y263500D01*
X890500Y244000D02*
Y266500D01*
X879000Y278000D02*
X890500Y266500D01*
X929500Y244000D02*
Y264500D01*
X912000Y282000D02*
X929500Y264500D01*
X735627Y278000D02*
X879000D01*
X735000Y205000D02*
Y216000D01*
X731000Y220000D02*
X735000Y216000D01*
X726000Y220000D02*
X731000D01*
X693000D02*
X704500D01*
X709000Y215500D01*
Y205000D02*
Y215500D01*
X691500Y299500D02*
X716000Y275000D01*
Y256000D02*
Y275000D01*
Y242500D02*
X716500Y242000D01*
X716000Y242500D02*
Y256000D01*
X674000Y268000D02*
X685000Y257000D01*
X683500Y242000D02*
X684000Y242500D01*
Y256000D01*
X650000Y268000D02*
X674000D01*
X731000Y375500D02*
X731500Y375000D01*
X740500Y380500D02*
X742000Y379000D01*
X731000Y380500D02*
X740500D01*
X742999Y360999D02*
X752000D01*
X737500Y355500D02*
X742999Y360999D01*
X731000Y355500D02*
X737500D01*
X731000Y385500D02*
X750000D01*
X715999Y418000D02*
X716500Y417499D01*
Y400000D02*
Y417499D01*
X694000Y451000D02*
Y490000D01*
X628000Y452000D02*
X629000Y451000D01*
X654000D01*
X691500Y400000D02*
Y433500D01*
X680000Y445000D02*
X691500Y433500D01*
X680000Y445000D02*
Y451000D01*
X686500Y400000D02*
Y432500D01*
X668000Y451000D02*
X686500Y432500D01*
X696500Y400000D02*
Y427500D01*
X716000Y447000D01*
X731000Y340500D02*
X739500D01*
X587000Y267000D02*
X615000Y295000D01*
X559000Y267000D02*
X587000D01*
X549000Y257000D02*
X559000Y267000D01*
X711500Y302127D02*
X735627Y278000D01*
X706500Y301471D02*
X733970Y274000D01*
X701500Y300814D02*
X732314Y270000D01*
X696500Y300157D02*
X730657Y266000D01*
X711500Y302127D02*
Y316000D01*
X706500Y301471D02*
Y316000D01*
X701500Y300814D02*
Y316000D01*
X696500Y300157D02*
Y316000D01*
X691500Y299500D02*
Y316000D01*
X619000Y293000D02*
Y330000D01*
X583500Y257500D02*
X619000Y293000D01*
X623000Y264250D02*
Y327000D01*
X618000Y259250D02*
X623000Y264250D01*
X618000Y242500D02*
Y259250D01*
X627000Y283000D02*
X653000Y257000D01*
X631000Y287000D02*
X650000Y268000D01*
X615000Y295000D02*
Y332000D01*
X617500Y242000D02*
X618000Y242500D01*
X548500Y242000D02*
Y257000D01*
X583500Y242000D02*
Y257500D01*
X654300Y475000D02*
X668000Y461300D01*
Y451000D02*
Y461300D01*
X679700Y451300D02*
Y475000D01*
Y451300D02*
X680000Y451000D01*
X583000Y257000D02*
X583500Y257500D01*
X653000Y257000D02*
Y257000D01*
X938000Y186000D02*
X943000Y191000D01*
X938000Y147000D02*
Y186000D01*
X930000Y192000D02*
X943000Y205000D01*
X930000Y191000D02*
Y192000D01*
X918650Y179650D02*
X930000Y191000D01*
X918650Y160500D02*
Y179650D01*
X899000Y178000D02*
X904000D01*
X917000Y191000D01*
X888000Y172000D02*
Y176000D01*
X903000Y191000D01*
X904000D01*
X876050Y176050D02*
X891000Y191000D01*
X876050Y161500D02*
Y176050D01*
X891000Y191000D02*
Y192000D01*
X878000Y205000D02*
X891000Y192000D01*
X865000Y191000D02*
X878000D01*
X863350Y161500D02*
X865000Y163150D01*
Y191000D01*
X852000Y192000D02*
X865000Y205000D01*
X852000Y191000D02*
Y192000D01*
X850650Y189650D02*
X852000Y191000D01*
X850650Y161500D02*
Y189650D01*
X827000Y175000D02*
X828000D01*
X839000Y186000D01*
Y191000D01*
X816000Y175000D02*
X826000Y185000D01*
Y191000D01*
X812000Y190000D02*
X813000Y191000D01*
X812000Y183000D02*
Y190000D01*
X806050Y177050D02*
X812000Y183000D01*
X806050Y162500D02*
Y177050D01*
X813000Y191000D02*
Y192000D01*
X800000Y205000D02*
X813000Y192000D01*
X774000Y204000D02*
X787000Y191000D01*
X774000Y204000D02*
Y205000D01*
X800000Y185000D02*
Y191000D01*
X793350Y178350D02*
X800000Y185000D01*
X793350Y162500D02*
Y178350D01*
X780650Y184650D02*
X787000Y191000D01*
X780650Y162500D02*
Y184650D01*
X769000Y172000D02*
Y181000D01*
X774000Y186000D01*
Y191000D01*
X761000Y183000D02*
Y191000D01*
X755000Y177000D02*
X761000Y183000D01*
X746000Y173000D02*
Y183000D01*
X748000Y185000D01*
Y191000D01*
X735000D02*
X736050Y189950D01*
Y162500D02*
Y189950D01*
X722000Y204000D02*
X735000Y191000D01*
X722000Y204000D02*
Y205000D01*
Y163850D02*
X723350Y162500D01*
X722000Y163850D02*
Y191000D01*
X553000Y205000D02*
Y215000D01*
X558000Y220000D01*
X593000Y219000D02*
Y220000D01*
X579000Y205000D02*
X593000Y219000D01*
X696000Y204000D02*
Y205000D01*
Y204000D02*
X709000Y191000D01*
X710650Y189350D01*
Y162500D02*
Y189350D01*
X696000Y164450D02*
X697950Y162500D01*
X696000Y164450D02*
Y191000D01*
X683000Y186000D02*
X688000Y181000D01*
X683000Y186000D02*
Y191000D01*
X670000Y186000D02*
X675000Y181000D01*
X670000Y186000D02*
Y191000D01*
X666050Y162500D02*
Y176000D01*
X657000Y185050D02*
X666050Y176000D01*
X657000Y185050D02*
Y191000D01*
X644000Y204000D02*
X657000Y191000D01*
X644000Y204000D02*
Y205000D01*
X651000Y169000D02*
Y176000D01*
X644000Y183000D02*
X651000Y176000D01*
X644000Y183000D02*
Y191000D01*
X627000Y209000D02*
Y220000D01*
Y209000D02*
X631000Y205000D01*
X640650Y162500D02*
Y173350D01*
X631000Y183000D02*
X640650Y173350D01*
X631000Y183000D02*
Y191000D01*
X618000Y204000D02*
X631000Y191000D01*
X618000Y204000D02*
Y205000D01*
Y176000D02*
X624000Y170000D01*
X618000Y176000D02*
Y191000D01*
X614000Y164000D02*
Y175000D01*
X605000Y184000D02*
X614000Y175000D01*
X605000Y184000D02*
Y191000D01*
X592000Y186000D02*
Y191000D01*
Y186000D02*
X603000Y175000D01*
X604000D01*
X579000Y183000D02*
X583000Y179000D01*
X596050Y162500D02*
Y173950D01*
X583000Y179000D02*
X591000D01*
X596050Y173950D01*
X579000Y183000D02*
Y191000D01*
X569000Y205000D02*
Y205000D01*
X566000D02*
X579000Y192000D01*
X556950Y168050D02*
X557950D01*
X540000Y185000D02*
X556950Y168050D01*
X540000Y185000D02*
Y191000D01*
X557950Y162500D02*
Y168050D01*
X566000Y186000D02*
X580000Y172000D01*
X566000Y186000D02*
Y191000D01*
X555000Y189929D02*
Y191000D01*
Y189929D02*
X570650Y174279D01*
Y162500D02*
Y174279D01*
X542000Y164000D02*
Y176000D01*
X527000Y191000D02*
X542000Y176000D01*
X373350Y115650D02*
Y145500D01*
Y115650D02*
X374000Y115000D01*
Y84500D02*
Y115000D01*
X369500Y80000D02*
X374000Y84500D01*
X360650Y115650D02*
Y145500D01*
X360000Y115000D02*
X360650Y115650D01*
X360000Y105500D02*
Y115000D01*
X334500Y80000D02*
X360000Y105500D01*
X555650Y190650D02*
X556000Y191000D01*
X541000Y205000D02*
X555000Y191000D01*
X556000D01*
Y205000D02*
Y206000D01*
X626000Y164450D02*
X627950Y162500D01*
X652500Y242000D02*
Y256500D01*
X723350Y162500D02*
X726000Y165150D01*
X766000Y164450D02*
X767950Y162500D01*
X780650D02*
X781000Y162850D01*
X793350Y162500D02*
X796000Y165150D01*
X650000Y168000D02*
X651000Y169000D01*
X697950Y162500D02*
X698000Y162550D01*
X681500Y400000D02*
Y412000D01*
X742000Y379000D02*
X808000D01*
X817000Y388000D01*
Y418000D01*
X731500Y375000D02*
X809000D01*
X817000Y367000D01*
Y352000D02*
Y367000D01*
X731000Y370500D02*
X801500D01*
X631000Y287000D02*
Y323686D01*
X637814Y330500D01*
X647000D01*
X627000Y283000D02*
Y325343D01*
X637157Y335500D01*
X647000D01*
X623000Y327000D02*
X636500Y340500D01*
X647000D01*
X619000Y330000D02*
X634500Y345500D01*
X647000D01*
X615000Y332000D02*
X633500Y350500D01*
X647000D01*
X632499Y385500D02*
X647000D01*
X629000Y388999D02*
X632499Y385500D01*
X638500Y375500D02*
X647000D01*
X633000Y381000D02*
X638500Y375500D01*
X623000Y381000D02*
X633000D01*
X650000Y417000D02*
X662500D01*
X671500Y408000D01*
X643000Y424000D02*
X663500D01*
X676500Y411000D01*
X661500Y432000D02*
X681500Y412000D01*
X609000Y354000D02*
X611000Y352000D01*
X617000Y358000D02*
X622000Y353000D01*
X718500Y355500D02*
X731000D01*
X666000Y384000D02*
X690000D01*
X718500Y355500D01*
X169000Y346000D02*
X178000Y337000D01*
X169000Y346000D02*
Y356000D01*
X173000Y360000D01*
X277000Y192550D02*
Y206000D01*
X251650Y192500D02*
Y205650D01*
X231000Y216000D02*
X241350Y205650D01*
X231000Y218000D02*
Y225000D01*
Y216000D02*
Y218000D01*
X228000Y228000D02*
X231000Y225000D01*
X228000Y228000D02*
Y229000D01*
X212000Y205500D02*
Y218000D01*
Y205500D02*
X225000Y192500D01*
X238950D01*
X168000Y218000D02*
X198000D01*
X203000Y223000D01*
Y235000D01*
X245000Y218000D02*
Y230000D01*
X248000Y233000D01*
X259650D01*
X261700Y205650D02*
X264350Y203000D01*
X241350Y205650D02*
X251650D01*
X261700D01*
X264350Y192500D02*
Y203000D01*
X219350Y237650D02*
Y253000D01*
Y237650D02*
X228000Y229000D01*
X152650Y233350D02*
Y253000D01*
Y233350D02*
X168000Y218000D01*
X275000Y225000D02*
X277000Y223000D01*
X275000Y225000D02*
Y230000D01*
X275500Y230500D01*
Y232500D01*
X275000Y233000D02*
Y240350D01*
X273350Y242000D02*
X275000Y240350D01*
X274000Y232000D02*
X275500Y230500D01*
X273350Y242000D02*
Y253000D01*
X152650Y307000D02*
Y316350D01*
X151000Y318000D02*
X152650Y316350D01*
X151000Y318000D02*
Y341000D01*
X145000Y347000D02*
X151000Y341000D01*
X178000Y351000D02*
X207000D01*
X206650Y307000D02*
Y336650D01*
X207000Y337000D01*
X219350Y307000D02*
Y336350D01*
X227000Y344000D01*
X178000Y337000D02*
X185000Y330000D01*
X186000D01*
X49650Y236350D02*
Y258500D01*
Y236350D02*
X50000Y236000D01*
X62350Y312350D02*
Y321500D01*
X57000Y307000D02*
X62350Y312350D01*
X57000Y297000D02*
Y307000D01*
X75000Y350000D02*
X77350Y352350D01*
X62350Y321500D02*
Y323350D01*
X81350Y342350D01*
Y383321D01*
X49650Y321500D02*
Y324650D01*
X68000Y343000D01*
Y343000D01*
X29350Y320500D02*
Y327350D01*
X45000Y343000D01*
X20000Y297000D02*
X22000D01*
X29350Y304350D01*
Y320500D01*
X35000Y222000D02*
X50000D01*
X16650Y239350D02*
Y257500D01*
Y239350D02*
X20000Y236000D01*
X29350Y241650D02*
Y257500D01*
Y241650D02*
X35000Y236000D01*
X50000D02*
X65000D01*
X20000Y272350D02*
Y279000D01*
X16650Y269000D02*
X20000Y272350D01*
X16650Y257500D02*
Y269000D01*
X57000Y273000D02*
Y279000D01*
X49650Y265650D02*
X57000Y273000D01*
X49650Y258500D02*
Y265650D01*
X20000Y236000D02*
X27000Y229000D01*
X74000D02*
X81500Y221500D01*
X27000Y229000D02*
X74000D01*
X65000Y236000D02*
X74000D01*
X90000Y200000D02*
Y220000D01*
Y200000D02*
X98000Y192000D01*
X136000D01*
X146000Y182000D01*
X74000Y236000D02*
X90000Y220000D01*
X81500Y201000D02*
Y221500D01*
X62000Y245000D02*
Y258150D01*
X62350Y258500D01*
X35000Y156000D02*
Y222000D01*
X39000Y152000D02*
X74000D01*
X74000Y152000D01*
X35000Y156000D02*
X39000Y152000D01*
X20000Y158000D02*
Y222000D01*
X104500Y201000D02*
X140000D01*
X154000Y187000D01*
X98000Y211000D02*
X143000D01*
X179000Y175000D01*
Y135000D02*
Y175000D01*
X160000Y182000D02*
X175000Y167000D01*
Y124000D02*
Y167000D01*
X134000Y152000D02*
X142000D01*
X154000Y164000D01*
Y187000D01*
X134000Y157000D02*
X141343D01*
X146000Y161657D01*
Y182000D01*
X50000Y158000D02*
Y207000D01*
X65000Y222000D01*
X114000Y71000D02*
Y111000D01*
Y71000D02*
X122250Y62750D01*
Y54750D02*
Y62750D01*
X110000Y69343D02*
Y111375D01*
Y69343D02*
X118250Y61093D01*
Y54750D02*
Y61093D01*
X154000Y448000D02*
X212000D01*
X179000Y441000D02*
X213000D01*
X140373Y448000D02*
X154000D01*
X77350Y352350D02*
Y384977D01*
X140373Y448000D01*
X139029Y441000D02*
X179000D01*
X81350Y383321D02*
X139029Y441000D01*
X499000Y455000D02*
X531000Y423000D01*
X204000Y454000D02*
X205000Y455000D01*
X497343Y451000D02*
X527000Y421343D01*
X212000Y448000D02*
X215000Y451000D01*
X495686Y447000D02*
X523000Y419686D01*
X213000Y441000D02*
X219000Y447000D01*
X205000Y455000D02*
X499000D01*
X215000Y451000D02*
X497343D01*
X219000Y447000D02*
X495686D01*
X301001Y433999D02*
X314999D01*
X320000Y439000D01*
X207000Y351000D02*
X238000D01*
X227000Y344000D02*
X247000D01*
X273350Y307000D02*
Y328650D01*
X253000Y314650D02*
X260650Y307000D01*
X253000Y314650D02*
Y326000D01*
X238000Y337000D02*
X250000D01*
X253000Y334000D01*
Y326000D02*
Y334000D01*
X238000Y351000D02*
X240000D01*
X273000Y330000D02*
X275000D01*
X253000Y419000D02*
X256000Y422000D01*
X259000Y343000D02*
X273350Y328650D01*
X259000Y343000D02*
Y410000D01*
X263000Y432000D02*
X265000D01*
X259000Y410000D02*
X265000Y416000D01*
Y430000D01*
X263000Y432000D02*
X265000Y430000D01*
X320000Y429000D02*
X326000Y435000D01*
X309000Y439000D02*
X313000D01*
X317000Y443000D01*
X494030D01*
X240000Y440000D02*
X284000D01*
X295000Y429000D01*
X320000D01*
X409000Y214000D02*
X443000D01*
X386050Y200050D02*
X391000Y205000D01*
X400000D01*
X409000Y214000D01*
X365650Y233650D02*
Y254000D01*
X365000Y233000D02*
X365650Y233650D01*
X356000Y219000D02*
X365000D01*
X347950Y210950D02*
X356000Y219000D01*
X347950Y192500D02*
Y210950D01*
X365000Y233000D02*
X384000D01*
X391000Y240000D01*
X432350Y236000D02*
Y254000D01*
X485000Y244000D02*
X485350Y244350D01*
Y254000D01*
X443000Y214000D02*
X463000Y234000D01*
X432350Y227350D02*
Y236000D01*
X426000Y221000D02*
X432350Y227350D01*
X400000Y221000D02*
X426000D01*
X173000Y360000D02*
X240000D01*
X247000Y344000D02*
X253000Y350000D01*
Y419000D01*
X240000Y360000D02*
X244000Y364000D01*
X240000Y351000D02*
X248000Y359000D01*
Y432000D01*
X244000Y364000D02*
Y421000D01*
X240000Y425000D02*
X244000Y421000D01*
X240000Y425000D02*
Y440000D01*
X298000Y437000D02*
Y440000D01*
Y437000D02*
X301001Y433999D01*
X365650Y308000D02*
Y320000D01*
X381000Y336000D02*
X427000D01*
X438000Y325000D02*
X457000Y344000D01*
X419650Y308000D02*
Y316650D01*
X438000Y324000D02*
Y325000D01*
X432350Y308000D02*
Y319350D01*
X437000Y324000D01*
X437000D02*
X437000D01*
X419650Y316650D02*
X437000Y334000D01*
X452000Y349000D01*
X427000Y336000D02*
X436000Y345000D01*
Y351000D01*
Y359000D01*
X485350Y308000D02*
Y328650D01*
X470000Y344000D02*
X485350Y328650D01*
X467000Y353000D02*
Y359000D01*
X464000Y350000D02*
X467000Y353000D01*
X464000Y334000D02*
Y350000D01*
X472650Y308000D02*
Y325350D01*
X464000Y334000D02*
X472650Y325350D01*
Y298350D02*
Y308000D01*
Y298350D02*
X473000Y298000D01*
D17*
X57000Y106000D02*
X66000Y97000D01*
X65000Y124000D02*
X74000Y133000D01*
X97200Y124000D02*
X100000Y126800D01*
X67000Y124000D02*
X97200D01*
X100000Y126800D02*
Y133000D01*
X65000Y122000D02*
X67000Y124000D01*
X65000Y108500D02*
X93500Y80000D01*
X65000Y108500D02*
Y122000D01*
X57000Y106000D02*
Y130750D01*
X65000Y138750D01*
Y142000D01*
X65000Y142000D01*
X86000D01*
Y136000D02*
Y142000D01*
Y136000D02*
X89000Y133000D01*
X95000D01*
X657000Y215000D02*
X662000Y220000D01*
X657000Y205000D02*
Y215000D01*
X65000Y122000D02*
Y124000D01*
X232050Y245050D02*
Y253000D01*
X228000Y241000D02*
X232050Y245050D01*
X57000Y357000D02*
X68000D01*
X57000D02*
Y378000D01*
X58000Y379000D01*
X45000Y357000D02*
X57000D01*
X34000Y357000D02*
X45000D01*
X45000Y357000D01*
X130000Y45500D02*
Y61000D01*
X503000Y342000D02*
X512000Y333000D01*
X393000Y228000D02*
X409000D01*
X418000D01*
X419650Y229650D01*
Y254000D01*
X512000Y171000D02*
Y333000D01*
D18*
X238450Y145000D02*
X238950Y145500D01*
X277050D02*
Y158050D01*
X385000Y162000D02*
X386050Y160950D01*
Y145500D02*
Y160950D01*
X347450Y146000D02*
X347950Y145500D01*
X750000Y386000D02*
X750499Y385501D01*
X750000Y386000D02*
Y403000D01*
X749000Y418000D02*
X750000Y419000D01*
X715999Y418000D02*
X749000D01*
X629000Y388999D02*
Y406000D01*
X115500Y362000D02*
Y381250D01*
X115000Y381750D02*
X115500Y381250D01*
X116000Y380750D01*
X158000Y326999D02*
Y380750D01*
X207000Y148000D02*
X210000Y145000D01*
X219000D01*
X214000Y146000D02*
X220000D01*
X219000Y145000D02*
X238450D01*
X268000Y214000D02*
X283000D01*
X289000Y208000D01*
X107000Y243900D02*
X120900D01*
X125000Y248000D01*
Y256000D01*
X134000Y265000D01*
X165350Y253000D02*
Y264650D01*
X165000Y265000D02*
X165350Y264650D01*
X134000Y265000D02*
X165000D01*
X255000D02*
X260650Y259350D01*
Y253000D02*
Y259350D01*
Y221350D02*
Y253000D01*
X259650Y222350D02*
X260650Y221350D01*
X268000Y214000D01*
X259650Y222350D02*
Y233000D01*
X193950Y253000D02*
Y263950D01*
X195000Y265000D01*
X165000D02*
X195000D01*
X206650Y253000D02*
Y264350D01*
X206000Y265000D02*
X206650Y264350D01*
X195000Y265000D02*
X206000D01*
X247950Y253000D02*
Y264050D01*
X247000Y265000D02*
X247950Y264050D01*
X206000Y265000D02*
X247000D01*
X255000D01*
X193950Y242950D02*
Y253000D01*
X190000Y239000D02*
X193950Y242950D01*
X286050Y221950D02*
Y253000D01*
Y221950D02*
X296000Y212000D01*
X207000Y148000D02*
Y165000D01*
X212000Y170000D01*
X278000D01*
X289000Y181000D01*
Y208000D01*
X219000Y161000D02*
X280000D01*
X296000Y177000D01*
Y212000D01*
X113000Y272000D02*
X275000D01*
X286050Y260950D01*
Y253000D02*
Y260950D01*
X93000Y308700D02*
X107000Y294700D01*
X93000Y308700D02*
Y335750D01*
X100000Y342750D01*
Y361502D01*
X100500Y362002D01*
X165350Y307000D02*
Y315649D01*
X158000Y322999D02*
X165350Y315649D01*
X158000Y322999D02*
Y326999D01*
X178050Y307000D02*
Y319950D01*
X171001Y326999D02*
X178050Y319950D01*
X158000Y326999D02*
X171001D01*
X116000Y380750D02*
X157750D01*
X173000Y396000D01*
X222000D01*
X301000Y305700D02*
X315000Y291700D01*
X301000Y305700D02*
Y333000D01*
X306500Y338500D01*
X308998D01*
X265000Y362000D02*
X273500Y353500D01*
X265000Y362000D02*
Y386000D01*
X275000Y396000D01*
X282000D01*
X315000Y291700D02*
X332300D01*
X333000Y291000D01*
X315000Y266300D02*
X317700Y269000D01*
X335000D01*
X339250D01*
X343250Y273000D01*
X490000D02*
X498050Y264950D01*
Y254000D02*
Y264950D01*
Y244050D02*
Y254000D01*
X315000Y240900D02*
X322900D01*
X335000Y253000D01*
X348000Y266000D01*
X469000D02*
X472650Y262350D01*
Y254000D02*
Y262350D01*
Y229650D02*
Y254000D01*
X446000Y203000D02*
X472650Y229650D01*
X416000Y203000D02*
X446000D01*
X450000Y196000D02*
X498050Y244050D01*
X419000Y196000D02*
X450000D01*
X329000Y162000D02*
X385000D01*
X318000Y167000D02*
X324000Y173000D01*
X386000D01*
X416000Y203000D01*
X385000Y162000D02*
X419000Y196000D01*
X318000Y153000D02*
Y167000D01*
Y153000D02*
X325000Y146000D01*
X347450D01*
X378000Y240000D02*
Y253650D01*
X378350Y254000D01*
Y265650D01*
X378000Y266000D02*
X378350Y265650D01*
X348000Y266000D02*
X378000D01*
X406950Y254000D02*
Y265950D01*
X407000Y266000D01*
X378000D02*
X407000D01*
X419650Y254000D02*
Y265650D01*
X420000Y266000D01*
X407000D02*
X420000D01*
X419650Y274650D02*
Y278350D01*
X418000Y273000D02*
X419650Y274650D01*
X343250Y273000D02*
X418000D01*
X445000Y245000D02*
Y253950D01*
X445050Y254000D01*
X445000Y273000D02*
Y278000D01*
X418000Y273000D02*
X445000D01*
X490000D01*
X459950Y254000D02*
Y265950D01*
X460000Y266000D01*
X420000D02*
X460000D01*
X469000D01*
X378350Y308000D02*
Y324650D01*
X391050Y308000D02*
Y319950D01*
X386350Y324650D02*
X391050Y319950D01*
X378350Y324650D02*
X386350D01*
X368000Y335000D02*
X378350Y324650D01*
X350000Y335000D02*
X368000D01*
X331500Y353500D02*
X350000Y335000D01*
X309000Y353500D02*
X331500D01*
X273500D02*
X309000D01*
D20*
X84000Y21000D02*
D03*
X150000Y20000D02*
D03*
D21*
X198500Y80000D02*
D03*
X163500D02*
D03*
X93500D02*
D03*
X128500D02*
D03*
X429500D02*
D03*
X464500D02*
D03*
X874000D02*
D03*
X909000D02*
D03*
X629000D02*
D03*
X594000D02*
D03*
X524000D02*
D03*
X559000D02*
D03*
X664000D02*
D03*
X699000D02*
D03*
X734000D02*
D03*
X769000D02*
D03*
X839000D02*
D03*
X804000D02*
D03*
X299500D02*
D03*
X264500D02*
D03*
X334500D02*
D03*
X369500D02*
D03*
D22*
X653800Y474500D02*
D03*
X603000D02*
D03*
X628400D02*
D03*
X679200D02*
D03*
X229000Y478000D02*
D03*
X204400D02*
D03*
X153600D02*
D03*
X179000D02*
D03*
X347000D02*
D03*
X322400D02*
D03*
X271600D02*
D03*
X297000D02*
D03*
X524000Y307000D02*
D03*
X548600D02*
D03*
X599400D02*
D03*
X574000D02*
D03*
X385400Y478000D02*
D03*
X410800D02*
D03*
X436200D02*
D03*
X487000D02*
D03*
X461600D02*
D03*
X679700Y475000D02*
D03*
X628900D02*
D03*
X603500D02*
D03*
X654300D02*
D03*
D23*
X315000Y317100D02*
D03*
Y291700D02*
D03*
Y266300D02*
D03*
Y240900D02*
D03*
X107000Y320100D02*
D03*
Y294700D02*
D03*
Y269300D02*
D03*
Y243900D02*
D03*
D24*
X40000Y40000D02*
D03*
X960000D02*
D03*
D25*
Y460000D02*
D03*
X40000D02*
D03*
D26*
X685000Y280000D02*
D03*
X648000Y286000D02*
D03*
X706000Y265000D02*
D03*
X669000Y344000D02*
D03*
X719000Y343000D02*
D03*
X698000Y335000D02*
D03*
X665000Y357000D02*
D03*
X413999Y392999D02*
D03*
X412000Y415000D02*
D03*
X606000Y258000D02*
D03*
X685000Y304000D02*
D03*
X723000Y265000D02*
D03*
X807000Y264000D02*
D03*
X827000Y268000D02*
D03*
X892000Y276000D02*
D03*
X857000Y271000D02*
D03*
X810000Y363000D02*
D03*
X797000Y364000D02*
D03*
X804000Y435000D02*
D03*
X836000Y443000D02*
D03*
X826000Y403000D02*
D03*
Y316000D02*
D03*
X814000Y303000D02*
D03*
X747000Y285000D02*
D03*
X737000Y323000D02*
D03*
X759000Y319000D02*
D03*
Y335000D02*
D03*
X687000Y461800D02*
D03*
X727000Y455000D02*
D03*
X740000Y426000D02*
D03*
X724000Y409000D02*
D03*
X704000Y421000D02*
D03*
X648000Y392000D02*
D03*
X565000Y382000D02*
D03*
X582000Y395000D02*
D03*
X922000Y354000D02*
D03*
X978000Y367000D02*
D03*
X510000Y30000D02*
D03*
X473000Y32000D02*
D03*
X464000Y189000D02*
D03*
X482000Y207000D02*
D03*
X561000Y292000D02*
D03*
X531000Y343000D02*
D03*
X639000Y315000D02*
D03*
X685000Y292000D02*
D03*
X725000Y302000D02*
D03*
X706000Y358000D02*
D03*
X736000Y291000D02*
D03*
X766000Y309000D02*
D03*
X786000Y332000D02*
D03*
X912000Y321000D02*
D03*
X866000Y471000D02*
D03*
X861000Y447000D02*
D03*
X922000Y440000D02*
D03*
X943000Y411000D02*
D03*
X944000Y365000D02*
D03*
X972000Y331000D02*
D03*
X965000Y307000D02*
D03*
X960000Y266000D02*
D03*
X964000Y222000D02*
D03*
X982000Y208000D02*
D03*
X957000Y171000D02*
D03*
X988000Y131000D02*
D03*
X963000Y124000D02*
D03*
X992000Y70000D02*
D03*
X971000Y82000D02*
D03*
X928000Y11000D02*
D03*
X916000Y25000D02*
D03*
X913000Y36000D02*
D03*
X897000Y25000D02*
D03*
X896000Y39000D02*
D03*
X884000Y28000D02*
D03*
X879000Y40000D02*
D03*
X869000Y30000D02*
D03*
X850000Y28000D02*
D03*
X857000Y42000D02*
D03*
X838000Y37000D02*
D03*
X819000Y24000D02*
D03*
X817000Y40000D02*
D03*
X805000Y32000D02*
D03*
X791000Y24000D02*
D03*
X792000Y40000D02*
D03*
X780000Y28000D02*
D03*
X765000Y34000D02*
D03*
X751000Y22000D02*
D03*
X743000Y36000D02*
D03*
X728000Y29000D02*
D03*
X712000Y37000D02*
D03*
X715000Y22000D02*
D03*
X693000Y36000D02*
D03*
X681000Y20000D02*
D03*
X677000Y39000D02*
D03*
X668000Y29000D02*
D03*
X654000Y38000D02*
D03*
X645000Y23000D02*
D03*
X625000Y38000D02*
D03*
X563000Y40000D02*
D03*
X605000Y38000D02*
D03*
X634000Y29000D02*
D03*
X613000D02*
D03*
X590000Y31000D02*
D03*
X571000Y29000D02*
D03*
X551000Y30000D02*
D03*
X521000Y16000D02*
D03*
X430000Y25000D02*
D03*
X423000Y49000D02*
D03*
X442000Y44000D02*
D03*
X463000Y53000D02*
D03*
X453000Y29000D02*
D03*
X484000Y20000D02*
D03*
X528000Y31000D02*
D03*
X486000Y43000D02*
D03*
X516000Y55000D02*
D03*
X495000Y81000D02*
D03*
X321000Y391000D02*
D03*
X288000Y326000D02*
D03*
X277000Y342000D02*
D03*
X342000Y391000D02*
D03*
X306000Y416000D02*
D03*
X366000Y424000D02*
D03*
X367000Y401000D02*
D03*
X377000Y365000D02*
D03*
X369000Y357000D02*
D03*
X455000Y328000D02*
D03*
X484000Y351000D02*
D03*
X499000Y325000D02*
D03*
X501000Y225000D02*
D03*
X473000Y196000D02*
D03*
X516000Y356000D02*
D03*
X519000Y327000D02*
D03*
X541000Y331000D02*
D03*
X562000Y339000D02*
D03*
X590000Y285000D02*
D03*
X565000Y279000D02*
D03*
X558000Y232000D02*
D03*
X572000Y260000D02*
D03*
X593000Y235000D02*
D03*
X631000Y269000D02*
D03*
X617000Y280000D02*
D03*
X627000Y232000D02*
D03*
X659000Y234000D02*
D03*
X646000Y302000D02*
D03*
X652000Y321000D02*
D03*
X694000Y235000D02*
D03*
X698000Y280000D02*
D03*
X724000Y233000D02*
D03*
X765000Y255000D02*
D03*
X802000Y234000D02*
D03*
X836000Y232000D02*
D03*
X869000Y233000D02*
D03*
X909000D02*
D03*
X945000Y235000D02*
D03*
X936000Y81000D02*
D03*
X984000Y85000D02*
D03*
X958000Y98000D02*
D03*
X981000Y109000D02*
D03*
X971000Y146000D02*
D03*
X986000Y172000D02*
D03*
X971000Y195000D02*
D03*
X977000Y254000D02*
D03*
X849000Y292000D02*
D03*
X867000Y309000D02*
D03*
X926000Y290000D02*
D03*
X984000Y289000D02*
D03*
X936000Y330000D02*
D03*
X917000Y406000D02*
D03*
X964000Y386000D02*
D03*
X917000Y484000D02*
D03*
X886000Y449000D02*
D03*
X933000Y387000D02*
D03*
X898000Y365000D02*
D03*
X864000Y351000D02*
D03*
X853000Y383000D02*
D03*
X825000Y366000D02*
D03*
X815000Y319000D02*
D03*
X790000Y309000D02*
D03*
X775000Y361000D02*
D03*
X774500Y346000D02*
D03*
X767000Y329000D02*
D03*
X729000Y316000D02*
D03*
X685000Y377000D02*
D03*
X660000Y381000D02*
D03*
X715000Y374000D02*
D03*
X705000Y385000D02*
D03*
X727000Y395000D02*
D03*
X736000Y407000D02*
D03*
X790000Y423000D02*
D03*
X784000Y393000D02*
D03*
X759000Y427000D02*
D03*
X796000Y403000D02*
D03*
X850000Y411000D02*
D03*
X841000Y465000D02*
D03*
X801000Y486000D02*
D03*
X798000Y463000D02*
D03*
X771000Y458000D02*
D03*
Y487000D02*
D03*
X732000Y483000D02*
D03*
X731000Y436000D02*
D03*
X698000Y439000D02*
D03*
X702000Y467000D02*
D03*
X643000Y460000D02*
D03*
X642000Y443000D02*
D03*
X669000Y436000D02*
D03*
X600000Y450000D02*
D03*
X610000Y440000D02*
D03*
X580000Y475000D02*
D03*
X550000D02*
D03*
X530000Y445000D02*
D03*
X515000Y455000D02*
D03*
X500000Y463000D02*
D03*
X365000Y480000D02*
D03*
X250000D02*
D03*
X80000D02*
D03*
X15000Y420000D02*
D03*
X140000Y415000D02*
D03*
X125000Y480000D02*
D03*
X95000Y460000D02*
D03*
X80000Y430000D02*
D03*
X55000Y405000D02*
D03*
X25000Y395000D02*
D03*
X204000Y454000D02*
D03*
X183000Y99000D02*
D03*
X187000Y147000D02*
D03*
X143000Y130000D02*
D03*
X156000Y138000D02*
D03*
X167000Y150000D02*
D03*
X198000Y136000D02*
D03*
X215000Y91000D02*
D03*
X183000Y67000D02*
D03*
X196000Y36000D02*
D03*
X209000Y47000D02*
D03*
X207000Y13000D02*
D03*
X178000Y18000D02*
D03*
X172000Y48000D02*
D03*
X145000Y83000D02*
D03*
X121000Y97000D02*
D03*
X102000Y102000D02*
D03*
X58000Y80000D02*
D03*
X135000Y180000D02*
D03*
X68000Y172000D02*
D03*
X108000Y59000D02*
D03*
X75000Y84000D02*
D03*
X117000Y14000D02*
D03*
Y25000D02*
D03*
X204000Y102000D02*
D03*
X160000D02*
D03*
X213000Y110000D02*
D03*
X150000D02*
D03*
X130000Y121000D02*
D03*
Y103000D02*
D03*
X86000D02*
D03*
X80000Y115000D02*
D03*
X110000Y157000D02*
D03*
Y147000D02*
D03*
Y169000D02*
D03*
X121000Y147000D02*
D03*
X99000D02*
D03*
X121000Y169000D02*
D03*
X99000D02*
D03*
X38000Y132000D02*
D03*
X74000Y152000D02*
D03*
Y133000D02*
D03*
X116000Y121000D02*
D03*
X104000Y121000D02*
D03*
X483000Y424000D02*
D03*
X489000Y417000D02*
D03*
X500000D02*
D03*
X427000Y395000D02*
D03*
X650000Y401000D02*
D03*
X643000Y410000D02*
D03*
X650000Y432000D02*
D03*
X804000Y305000D02*
D03*
X284000Y467000D02*
D03*
X457000Y344000D02*
D03*
X470000D02*
D03*
X477000Y374000D02*
D03*
X500000Y382000D02*
D03*
X487000D02*
D03*
X540000D02*
D03*
X552000D02*
D03*
X588000Y336000D02*
D03*
X599000Y342000D02*
D03*
X678000Y333000D02*
D03*
X686000Y341000D02*
D03*
X899000Y178000D02*
D03*
X888000Y172000D02*
D03*
X827000Y175000D02*
D03*
X816000D02*
D03*
X755000Y177000D02*
D03*
X746000Y173000D02*
D03*
X675000Y181000D02*
D03*
X614000Y164000D02*
D03*
X604000Y175000D02*
D03*
X542000Y164000D02*
D03*
X688000Y181000D02*
D03*
X817000Y352000D02*
D03*
Y418000D02*
D03*
X623000Y381000D02*
D03*
X650000Y417000D02*
D03*
X643000Y424000D02*
D03*
X611000Y342000D02*
D03*
Y352000D02*
D03*
X622000Y353000D02*
D03*
X665999Y370999D02*
D03*
X672000Y363000D02*
D03*
X277000Y206000D02*
D03*
Y223000D02*
D03*
X228000Y241000D02*
D03*
Y229000D02*
D03*
X228650Y274350D02*
D03*
X263650Y274650D02*
D03*
X203000Y235000D02*
D03*
X190000Y239000D02*
D03*
X145000Y347000D02*
D03*
X219000Y330000D02*
D03*
X206650Y327000D02*
D03*
X186000Y330000D02*
D03*
X34000Y357000D02*
D03*
X98000Y211000D02*
D03*
X81000D02*
D03*
X35000Y214000D02*
D03*
X62000Y245000D02*
D03*
X46000Y105000D02*
D03*
X50000Y158000D02*
D03*
X20000Y158000D02*
D03*
X146000Y182000D02*
D03*
X160000D02*
D03*
X130000Y61000D02*
D03*
X66000Y97000D02*
D03*
X154000Y448000D02*
D03*
X179000Y441000D02*
D03*
X240000Y440000D02*
D03*
X248000Y432000D02*
D03*
X307999Y439999D02*
D03*
X256000Y422000D02*
D03*
X253000Y326000D02*
D03*
X273000Y330000D02*
D03*
X265000Y432000D02*
D03*
X297000Y396000D02*
D03*
X493000Y200000D02*
D03*
X529000Y214000D02*
D03*
X378000Y240000D02*
D03*
X391000D02*
D03*
X432350Y236000D02*
D03*
X419650Y278350D02*
D03*
X445000Y245000D02*
D03*
Y278000D02*
D03*
X485000Y244000D02*
D03*
X463000Y234000D02*
D03*
X232000Y396000D02*
D03*
X298000Y440000D02*
D03*
X365650Y320000D02*
D03*
X381000Y336000D02*
D03*
X437000Y324000D02*
D03*
Y334000D02*
D03*
X436000Y351000D02*
D03*
X485350Y323000D02*
D03*
X473000Y298000D02*
D03*
D27*
X498000Y81000D02*
D03*
Y127000D02*
D03*
X909000Y13000D02*
D03*
Y59000D02*
D03*
X804000Y13000D02*
D03*
Y59000D02*
D03*
X874000Y13000D02*
D03*
Y59000D02*
D03*
X769000Y13000D02*
D03*
Y59000D02*
D03*
X839000Y13000D02*
D03*
Y59000D02*
D03*
X734000Y13000D02*
D03*
Y59000D02*
D03*
X699000Y13000D02*
D03*
Y59000D02*
D03*
X664000Y13000D02*
D03*
Y59000D02*
D03*
X629000Y13000D02*
D03*
Y59000D02*
D03*
X594000Y13000D02*
D03*
Y59000D02*
D03*
X559000Y13000D02*
D03*
Y59000D02*
D03*
D28*
X905950Y160500D02*
D03*
X918650D02*
D03*
X931350D02*
D03*
X944050D02*
D03*
X905950Y113500D02*
D03*
X918650D02*
D03*
X931350D02*
D03*
X944050D02*
D03*
X837950Y161500D02*
D03*
X850650D02*
D03*
X863350D02*
D03*
X876050D02*
D03*
X837950Y114500D02*
D03*
X850650D02*
D03*
X863350D02*
D03*
X876050D02*
D03*
X596050Y115500D02*
D03*
X583350D02*
D03*
X570650D02*
D03*
X557950D02*
D03*
X596050Y162500D02*
D03*
X583350D02*
D03*
X570650D02*
D03*
X557950D02*
D03*
X666050Y115500D02*
D03*
X653350D02*
D03*
X640650D02*
D03*
X627950D02*
D03*
X666050Y162500D02*
D03*
X653350D02*
D03*
X640650D02*
D03*
X627950D02*
D03*
X736050Y115500D02*
D03*
X723350D02*
D03*
X710650D02*
D03*
X697950D02*
D03*
X736050Y162500D02*
D03*
X723350D02*
D03*
X710650D02*
D03*
X697950D02*
D03*
X806050Y115500D02*
D03*
X793350D02*
D03*
X780650D02*
D03*
X767950D02*
D03*
X806050Y162500D02*
D03*
X793350D02*
D03*
X780650D02*
D03*
X767950D02*
D03*
X277050Y145500D02*
D03*
X264350D02*
D03*
X251650D02*
D03*
X238950D02*
D03*
X277050Y192500D02*
D03*
X264350D02*
D03*
X251650D02*
D03*
X238950D02*
D03*
X386050Y145500D02*
D03*
X373350D02*
D03*
X360650D02*
D03*
X347950D02*
D03*
X386050Y192500D02*
D03*
X373350D02*
D03*
X360650D02*
D03*
X347950D02*
D03*
D29*
X929500Y244000D02*
D03*
X948500D02*
D03*
X939000Y222000D02*
D03*
X890500Y244000D02*
D03*
X909500D02*
D03*
X900000Y222000D02*
D03*
X854500Y244000D02*
D03*
X873500D02*
D03*
X864000Y222000D02*
D03*
X548500Y242000D02*
D03*
X567500D02*
D03*
X558000Y220000D02*
D03*
X593000D02*
D03*
X602500Y242000D02*
D03*
X583500D02*
D03*
X627000Y220000D02*
D03*
X636500Y242000D02*
D03*
X617500D02*
D03*
X660000Y220000D02*
D03*
X669500Y242000D02*
D03*
X650500D02*
D03*
X693000Y220000D02*
D03*
X702500Y242000D02*
D03*
X683500D02*
D03*
X726000Y220000D02*
D03*
X735500Y242000D02*
D03*
X716500D02*
D03*
X794000Y222000D02*
D03*
X803500Y244000D02*
D03*
X784500D02*
D03*
X828000Y222000D02*
D03*
X837500Y244000D02*
D03*
X818500D02*
D03*
D30*
X944000Y258000D02*
D03*
X930000D02*
D03*
X905000D02*
D03*
X891000D02*
D03*
X868000D02*
D03*
X854000D02*
D03*
X668000Y451000D02*
D03*
X654000D02*
D03*
X680000D02*
D03*
X694000D02*
D03*
X563000Y257000D02*
D03*
X549000D02*
D03*
X450000Y395000D02*
D03*
X436000D02*
D03*
X450000Y410000D02*
D03*
X436000D02*
D03*
X450000Y425000D02*
D03*
X436000D02*
D03*
X764000Y360999D02*
D03*
X750000D02*
D03*
X629000Y388999D02*
D03*
X615000D02*
D03*
X660000Y297001D02*
D03*
X674000D02*
D03*
X750000Y346001D02*
D03*
X764000D02*
D03*
X750000Y387001D02*
D03*
X764000D02*
D03*
X212000Y218000D02*
D03*
X198000D02*
D03*
X245000D02*
D03*
X231000D02*
D03*
X251000Y119000D02*
D03*
X265000D02*
D03*
X261000Y233000D02*
D03*
X275000D02*
D03*
X583000Y257000D02*
D03*
X597000D02*
D03*
X617000D02*
D03*
X631000D02*
D03*
X374000Y115000D02*
D03*
X360000D02*
D03*
X651000Y257000D02*
D03*
X665000D02*
D03*
X684000Y256000D02*
D03*
X698000D02*
D03*
X716000D02*
D03*
X730000D02*
D03*
X785000Y258000D02*
D03*
X799000D02*
D03*
X819000D02*
D03*
X833000D02*
D03*
X158000Y326999D02*
D03*
X144000D02*
D03*
D31*
X917000Y205000D02*
D03*
Y191000D02*
D03*
X930000D02*
D03*
Y205000D02*
D03*
X943000D02*
D03*
Y191000D02*
D03*
X904000Y205000D02*
D03*
Y191000D02*
D03*
X891000D02*
D03*
Y205000D02*
D03*
X878000D02*
D03*
Y191000D02*
D03*
X839000Y205000D02*
D03*
Y191000D02*
D03*
X852000D02*
D03*
Y205000D02*
D03*
X865000D02*
D03*
Y191000D02*
D03*
X540000Y205000D02*
D03*
Y191000D02*
D03*
X826000Y205000D02*
D03*
Y191000D02*
D03*
X761000Y205000D02*
D03*
Y191000D02*
D03*
X748000Y205000D02*
D03*
Y191000D02*
D03*
X683000Y205000D02*
D03*
Y191000D02*
D03*
X670000Y205000D02*
D03*
Y191000D02*
D03*
X605000Y205000D02*
D03*
Y191000D02*
D03*
X592000Y205000D02*
D03*
Y191000D02*
D03*
X527000Y205000D02*
D03*
Y191000D02*
D03*
X65000Y236000D02*
D03*
Y222000D02*
D03*
X20000Y236000D02*
D03*
Y222000D02*
D03*
X715999Y418000D02*
D03*
Y432000D02*
D03*
X178000Y351000D02*
D03*
Y337000D02*
D03*
X553000Y205000D02*
D03*
Y191000D02*
D03*
X207000Y351000D02*
D03*
Y337000D02*
D03*
X238000Y351000D02*
D03*
Y337000D02*
D03*
X566000Y191000D02*
D03*
Y205000D02*
D03*
X716000Y461000D02*
D03*
Y447000D02*
D03*
X579000Y205000D02*
D03*
Y191000D02*
D03*
X618000D02*
D03*
Y205000D02*
D03*
X631000D02*
D03*
Y191000D02*
D03*
X436000Y373000D02*
D03*
Y359000D02*
D03*
X365000Y219000D02*
D03*
Y233000D02*
D03*
X393000Y228000D02*
D03*
Y214000D02*
D03*
X452000Y373000D02*
D03*
Y359000D02*
D03*
X644000Y191000D02*
D03*
Y205000D02*
D03*
X409000Y214000D02*
D03*
Y228000D02*
D03*
X657000Y205000D02*
D03*
Y191000D02*
D03*
X467000Y373000D02*
D03*
Y359000D02*
D03*
X696000Y191000D02*
D03*
Y205000D02*
D03*
X709000D02*
D03*
Y191000D02*
D03*
X722000D02*
D03*
Y205000D02*
D03*
X735000D02*
D03*
Y191000D02*
D03*
X774000D02*
D03*
Y205000D02*
D03*
X787000D02*
D03*
Y191000D02*
D03*
X800000D02*
D03*
Y205000D02*
D03*
X813000D02*
D03*
Y191000D02*
D03*
X190000Y110000D02*
D03*
Y124000D02*
D03*
X175000Y110000D02*
D03*
Y124000D02*
D03*
X68000Y357000D02*
D03*
Y343000D02*
D03*
X50000Y222000D02*
D03*
Y236000D02*
D03*
X35000Y222000D02*
D03*
Y236000D02*
D03*
X45000Y357000D02*
D03*
Y343000D02*
D03*
D32*
X750000Y403000D02*
D03*
X766000D02*
D03*
X629000Y407000D02*
D03*
X613000D02*
D03*
X511000Y211000D02*
D03*
X495000D02*
D03*
X503000Y342000D02*
D03*
X519000D02*
D03*
X511000Y191000D02*
D03*
X495000D02*
D03*
X116000Y342750D02*
D03*
X100000D02*
D03*
X115000Y381750D02*
D03*
X99000D02*
D03*
X49000Y122000D02*
D03*
X65000D02*
D03*
X49000Y142000D02*
D03*
X65000D02*
D03*
X676000Y280000D02*
D03*
X660000D02*
D03*
D33*
X357000Y373000D02*
D03*
Y357000D02*
D03*
X289000Y354000D02*
D03*
Y338000D02*
D03*
X335000Y292000D02*
D03*
Y308000D02*
D03*
Y253000D02*
D03*
Y269000D02*
D03*
X140000Y381000D02*
D03*
Y365000D02*
D03*
X329000Y162000D02*
D03*
Y146000D02*
D03*
X219000Y161000D02*
D03*
Y145000D02*
D03*
X125000Y258000D02*
D03*
Y274000D02*
D03*
D34*
X117000Y45500D02*
D03*
X123500D02*
D03*
X104000D02*
D03*
X110500D02*
D03*
X130000D02*
D03*
D35*
X153000Y20000D02*
D03*
X149000Y46500D02*
D03*
X85000D02*
D03*
X81000Y21000D02*
D03*
D36*
X130000Y20000D02*
D03*
X104000Y21000D02*
D03*
D37*
X110000Y157000D02*
D03*
D38*
X125000Y133000D02*
D03*
X120000D02*
D03*
X115000D02*
D03*
X110000D02*
D03*
X105000D02*
D03*
X100000Y133000D02*
D03*
X95000D02*
D03*
Y181000D02*
D03*
X100000D02*
D03*
X105000Y181000D02*
D03*
X110000D02*
D03*
X115000D02*
D03*
X120000D02*
D03*
X125000D02*
D03*
D39*
X86000Y142000D02*
D03*
Y147000D02*
D03*
Y152000D02*
D03*
Y157000D02*
D03*
Y162000D02*
D03*
Y167000D02*
D03*
Y172000D02*
D03*
X134000D02*
D03*
Y167000D02*
D03*
Y162000D02*
D03*
Y157000D02*
D03*
Y152000D02*
D03*
Y147000D02*
D03*
Y142000D02*
D03*
D40*
X731000Y385500D02*
D03*
Y380500D02*
D03*
Y375500D02*
D03*
Y370500D02*
D03*
Y365500D02*
D03*
Y360500D02*
D03*
Y355500D02*
D03*
Y350500D02*
D03*
Y345500D02*
D03*
Y340500D02*
D03*
Y335500D02*
D03*
Y330500D02*
D03*
X647000D02*
D03*
Y335500D02*
D03*
Y340500D02*
D03*
Y345500D02*
D03*
Y350500D02*
D03*
Y355500D02*
D03*
Y360500D02*
D03*
Y365500D02*
D03*
Y370500D02*
D03*
Y375500D02*
D03*
Y380500D02*
D03*
Y385500D02*
D03*
D41*
X716500Y316000D02*
D03*
X711500D02*
D03*
X706500D02*
D03*
X701500D02*
D03*
X696500D02*
D03*
X691500D02*
D03*
X686500D02*
D03*
X681500D02*
D03*
X676500D02*
D03*
X671500D02*
D03*
X666500D02*
D03*
X661500D02*
D03*
Y400000D02*
D03*
X666500D02*
D03*
X671500D02*
D03*
X676500D02*
D03*
X681500D02*
D03*
X686500D02*
D03*
X691500D02*
D03*
X696500D02*
D03*
X701500D02*
D03*
X706500D02*
D03*
X711500D02*
D03*
X716500D02*
D03*
D42*
X222000Y396000D02*
D03*
D43*
X282000Y373000D02*
D03*
Y396000D02*
D03*
Y419000D02*
D03*
D44*
X569000Y452000D02*
D03*
D45*
X546000Y392000D02*
D03*
X569000D02*
D03*
X592000D02*
D03*
D46*
X115500Y362000D02*
D03*
X100500Y362002D02*
D03*
D47*
X309000Y353500D02*
D03*
X308998Y338500D02*
D03*
D48*
X232050Y253000D02*
D03*
X219350D02*
D03*
X206650D02*
D03*
X193950D02*
D03*
X232050Y307000D02*
D03*
X219350D02*
D03*
X206650D02*
D03*
X193950D02*
D03*
X286050Y253000D02*
D03*
X273350D02*
D03*
X260650D02*
D03*
X247950D02*
D03*
X286050Y307000D02*
D03*
X273350D02*
D03*
X260650D02*
D03*
X247950D02*
D03*
X352950Y308000D02*
D03*
X365650D02*
D03*
X378350D02*
D03*
X391050D02*
D03*
X352950Y254000D02*
D03*
X365650D02*
D03*
X378350D02*
D03*
X391050D02*
D03*
X445050D02*
D03*
X432350D02*
D03*
X419650D02*
D03*
X406950D02*
D03*
X445050Y308000D02*
D03*
X432350D02*
D03*
X419650D02*
D03*
X406950D02*
D03*
X498050Y254000D02*
D03*
X485350D02*
D03*
X472650D02*
D03*
X459950D02*
D03*
X498050Y308000D02*
D03*
X485350D02*
D03*
X472650D02*
D03*
X459950D02*
D03*
X139950Y307000D02*
D03*
X152650D02*
D03*
X165350D02*
D03*
X178050D02*
D03*
X139950Y253000D02*
D03*
X152650D02*
D03*
X165350D02*
D03*
X178050D02*
D03*
D49*
X468000Y116000D02*
D03*
X424000D02*
D03*
X468000Y147000D02*
D03*
X424000D02*
D03*
D50*
X81500Y201000D02*
D03*
X104500D02*
D03*
D51*
X444000Y170000D02*
D03*
X462000D02*
D03*
D52*
X203994Y124000D02*
D03*
X204006Y110000D02*
D03*
X159994Y124000D02*
D03*
X160006Y110000D02*
D03*
D53*
X105000Y112006D02*
D03*
X91000Y111994D02*
D03*
X118000Y110994D02*
D03*
X132000Y111006D02*
D03*
D54*
X370000Y383000D02*
X483000D01*
X360000Y373000D02*
X370000Y383000D01*
X282000Y373000D02*
X360000D01*
X763000Y291000D02*
X815000D01*
X750000Y304000D02*
X763000Y291000D01*
X750000Y304000D02*
Y345500D01*
Y346001D01*
X835000Y311000D02*
Y431000D01*
X815000Y291000D02*
X835000Y311000D01*
X820000Y446000D02*
X835000Y431000D01*
X750000Y446000D02*
X820000D01*
X472000Y463000D02*
X487000Y478000D01*
X567000Y490000D02*
X628000D01*
X499000D02*
X567000D01*
X569000Y392000D02*
Y452000D01*
Y488000D01*
X567000Y490000D02*
X569000Y488000D01*
X487000Y478000D02*
X499000Y490000D01*
X750000Y419000D02*
Y446000D01*
X706000Y490000D02*
X750000Y446000D01*
X694000Y490000D02*
X706000D01*
X750000Y403000D02*
Y419000D01*
X628000Y490000D02*
X694000D01*
X628000Y452000D02*
Y490000D01*
Y407000D02*
Y452000D01*
X628000Y490000D02*
X628000Y490000D01*
X58000Y379000D02*
X142000Y463000D01*
X472000D01*
X328000Y373000D02*
X328000Y373000D01*
X499000Y346000D02*
X503000Y342000D01*
X499000Y346000D02*
Y368000D01*
D55*
X296000Y396000D02*
D03*
D56*
X493500Y376500D02*
D03*
D57*
X545500Y395000D02*
D03*
D58*
X429500Y121000D02*
D03*
D59*
X906000Y158500D02*
D03*
X838000Y159500D02*
D03*
X558000Y160500D02*
D03*
X628000D02*
D03*
X698000D02*
D03*
X768000D02*
D03*
D60*
X863500Y159500D02*
D03*
X583500Y160500D02*
D03*
X653500D02*
D03*
X723500D02*
D03*
X793500D02*
D03*
D61*
X495000Y141229D02*
D03*
D62*
X737500Y139000D02*
D03*
D63*
X560000Y88000D02*
D03*
X630000D02*
D03*
X700000D02*
D03*
X770000D02*
D03*
X840000D02*
D03*
D64*
X593500D02*
D03*
X663500D02*
D03*
X733500D02*
D03*
X803500D02*
D03*
X873500D02*
D03*
D65*
X909000Y92000D02*
D03*
M02*
