G04 Layer_Color=65535*
%FSLAX44Y44*%
%MOMM*%
G71*
G01*
G75*
%ADD18C,0.3000*%
%ADD19C,0.5000*%
%ADD35C,0.2540*%
%ADD36C,0.1500*%
%ADD37C,0.5000*%
%ADD38C,0.2500*%
%ADD39C,0.2000*%
%ADD40C,0.2032*%
%ADD41C,0.1998*%
%ADD42C,0.4000*%
G36*
X696329Y472695D02*
X696838Y472602D01*
X697439Y472417D01*
X698087Y472186D01*
X698828Y471862D01*
X699614Y471445D01*
X698180Y467836D01*
X698133Y467882D01*
X697948Y467974D01*
X697671Y468113D01*
X697300Y468252D01*
X696884Y468391D01*
X696375Y468530D01*
X695866Y468622D01*
X695357Y468669D01*
X695125D01*
X694894Y468622D01*
X694570Y468576D01*
X694246Y468483D01*
X693830Y468344D01*
X693413Y468159D01*
X693043Y467882D01*
X692997Y467836D01*
X692858Y467743D01*
X692719Y467558D01*
X692487Y467326D01*
X692256Y467002D01*
X692025Y466632D01*
X691793Y466216D01*
X691608Y465707D01*
X691562Y465614D01*
X691516Y465336D01*
X691423Y464920D01*
X691284Y464365D01*
X691145Y463670D01*
X691053Y462884D01*
X691007Y462051D01*
X690960Y461125D01*
Y449000D01*
X687027D01*
Y472232D01*
X690590D01*
Y468715D01*
X690636Y468761D01*
X690822Y469085D01*
X691053Y469501D01*
X691423Y470011D01*
X691793Y470520D01*
X692210Y471075D01*
X692626Y471538D01*
X693043Y471908D01*
X693089Y471954D01*
X693228Y472047D01*
X693506Y472186D01*
X693783Y472324D01*
X694154Y472463D01*
X694616Y472602D01*
X695079Y472695D01*
X695588Y472741D01*
X695912D01*
X696329Y472695D01*
D02*
G37*
G36*
X673791D02*
X674300Y472649D01*
X674902Y472556D01*
X675549Y472417D01*
X676244Y472232D01*
X676892Y471954D01*
X676984Y471908D01*
X677169Y471815D01*
X677493Y471677D01*
X677863Y471445D01*
X678326Y471167D01*
X678743Y470797D01*
X679159Y470427D01*
X679529Y469964D01*
X679576Y469918D01*
X679668Y469733D01*
X679807Y469501D01*
X680039Y469178D01*
X680224Y468715D01*
X680409Y468252D01*
X680640Y467697D01*
X680779Y467095D01*
Y467049D01*
X680825Y466864D01*
X680872Y466586D01*
X680918Y466216D01*
Y465660D01*
X680964Y465013D01*
X681010Y464226D01*
Y463254D01*
Y449000D01*
X677077D01*
Y463069D01*
Y463115D01*
Y463161D01*
Y463485D01*
Y463902D01*
X677030Y464411D01*
X676984Y465013D01*
X676892Y465614D01*
X676753Y466169D01*
X676614Y466679D01*
Y466725D01*
X676521Y466864D01*
X676383Y467095D01*
X676244Y467373D01*
X676012Y467650D01*
X675735Y467974D01*
X675364Y468298D01*
X674948Y468576D01*
X674902Y468622D01*
X674763Y468715D01*
X674485Y468807D01*
X674161Y468946D01*
X673791Y469085D01*
X673328Y469224D01*
X672773Y469270D01*
X672217Y469316D01*
X671986D01*
X671801Y469270D01*
X671338Y469224D01*
X670736Y469131D01*
X670089Y468900D01*
X669348Y468622D01*
X668608Y468252D01*
X667914Y467697D01*
X667821Y467604D01*
X667636Y467373D01*
X667497Y467188D01*
X667358Y466956D01*
X667173Y466679D01*
X667034Y466354D01*
X666849Y465984D01*
X666664Y465522D01*
X666525Y465013D01*
X666386Y464457D01*
X666294Y463856D01*
X666201Y463208D01*
X666109Y462421D01*
Y461634D01*
Y449000D01*
X662175D01*
Y472232D01*
X665692D01*
Y468900D01*
X665738Y468946D01*
X665831Y469085D01*
X665970Y469270D01*
X666155Y469501D01*
X666433Y469779D01*
X666757Y470103D01*
X667127Y470473D01*
X667589Y470844D01*
X668052Y471167D01*
X668608Y471538D01*
X669209Y471862D01*
X669857Y472139D01*
X670598Y472371D01*
X671338Y472556D01*
X672171Y472695D01*
X673050Y472741D01*
X673421D01*
X673791Y472695D01*
D02*
G37*
G36*
X823919D02*
X824243D01*
X824567Y472649D01*
X825354Y472510D01*
X826187Y472278D01*
X827066Y471908D01*
X827946Y471445D01*
X828686Y470797D01*
X828779Y470705D01*
X828964Y470427D01*
X829288Y470011D01*
X829426Y469687D01*
X829612Y469363D01*
X829797Y468946D01*
X829936Y468530D01*
X830121Y468067D01*
X830259Y467511D01*
X830352Y466956D01*
X830445Y466308D01*
X830537Y465660D01*
Y464920D01*
Y449000D01*
X826603D01*
Y463578D01*
Y463624D01*
Y463670D01*
Y463948D01*
Y464365D01*
X826557Y464874D01*
X826511Y465429D01*
X826465Y465984D01*
X826372Y466540D01*
X826233Y466956D01*
Y467002D01*
X826141Y467141D01*
X826048Y467326D01*
X825909Y467558D01*
X825724Y467836D01*
X825493Y468113D01*
X825215Y468391D01*
X824845Y468669D01*
X824799Y468715D01*
X824660Y468761D01*
X824475Y468854D01*
X824151Y468992D01*
X823827Y469131D01*
X823410Y469224D01*
X822994Y469270D01*
X822485Y469316D01*
X822253D01*
X822068Y469270D01*
X821605Y469224D01*
X821050Y469131D01*
X820402Y468900D01*
X819708Y468622D01*
X819014Y468206D01*
X818366Y467650D01*
X818320Y467558D01*
X818135Y467326D01*
X817857Y466956D01*
X817579Y466401D01*
X817255Y465660D01*
X817024Y464781D01*
X816839Y463717D01*
X816746Y462467D01*
Y449000D01*
X812812D01*
Y464041D01*
Y464087D01*
Y464179D01*
Y464272D01*
Y464457D01*
X812766Y464966D01*
X812674Y465522D01*
X812581Y466169D01*
X812396Y466817D01*
X812165Y467419D01*
X811841Y467974D01*
X811794Y468021D01*
X811655Y468206D01*
X811424Y468391D01*
X811100Y468669D01*
X810684Y468900D01*
X810128Y469131D01*
X809480Y469270D01*
X808694Y469316D01*
X808416D01*
X808092Y469270D01*
X807722Y469224D01*
X807259Y469085D01*
X806704Y468946D01*
X806195Y468715D01*
X805639Y468437D01*
X805593Y468391D01*
X805408Y468252D01*
X805176Y468067D01*
X804852Y467789D01*
X804529Y467419D01*
X804204Y466956D01*
X803881Y466447D01*
X803603Y465845D01*
X803557Y465753D01*
X803510Y465522D01*
X803418Y465151D01*
X803279Y464642D01*
X803140Y463948D01*
X803048Y463115D01*
X803001Y462143D01*
X802955Y461032D01*
Y449000D01*
X799021D01*
Y472232D01*
X802539D01*
Y468900D01*
X802585Y468992D01*
X802724Y469178D01*
X803001Y469501D01*
X803325Y469872D01*
X803742Y470335D01*
X804251Y470797D01*
X804806Y471260D01*
X805454Y471677D01*
X805547Y471723D01*
X805778Y471862D01*
X806148Y472001D01*
X806657Y472232D01*
X807259Y472417D01*
X807953Y472556D01*
X808740Y472695D01*
X809573Y472741D01*
X809989D01*
X810499Y472695D01*
X811054Y472602D01*
X811748Y472463D01*
X812442Y472278D01*
X813136Y472001D01*
X813784Y471630D01*
X813877Y471584D01*
X814062Y471445D01*
X814340Y471214D01*
X814710Y470844D01*
X815080Y470427D01*
X815497Y469918D01*
X815867Y469316D01*
X816144Y468622D01*
X816191Y468669D01*
X816283Y468807D01*
X816422Y468992D01*
X816654Y469270D01*
X816931Y469594D01*
X817255Y469918D01*
X817625Y470288D01*
X818088Y470705D01*
X818597Y471075D01*
X819106Y471445D01*
X819708Y471769D01*
X820356Y472093D01*
X821050Y472371D01*
X821790Y472556D01*
X822531Y472695D01*
X823364Y472741D01*
X823688D01*
X823919Y472695D01*
D02*
G37*
G36*
X744921Y449000D02*
X740432D01*
Y453489D01*
X744921D01*
Y449000D01*
D02*
G37*
G36*
X761813Y472695D02*
X762091D01*
X762461Y472649D01*
X763340Y472510D01*
X764312Y472278D01*
X765330Y471908D01*
X766348Y471445D01*
X767320Y470797D01*
X767367D01*
X767413Y470705D01*
X767691Y470427D01*
X768107Y470011D01*
X768616Y469409D01*
X769125Y468669D01*
X769634Y467743D01*
X770097Y466679D01*
X770421Y465429D01*
X766580Y464827D01*
Y464874D01*
X766534Y464920D01*
X766487Y465198D01*
X766348Y465614D01*
X766117Y466123D01*
X765886Y466679D01*
X765516Y467280D01*
X765099Y467836D01*
X764636Y468298D01*
X764590Y468344D01*
X764405Y468483D01*
X764081Y468669D01*
X763711Y468900D01*
X763202Y469131D01*
X762646Y469316D01*
X761998Y469455D01*
X761304Y469501D01*
X761026D01*
X760795Y469455D01*
X760286Y469409D01*
X759592Y469224D01*
X758851Y468992D01*
X758018Y468622D01*
X757232Y468067D01*
X756861Y467743D01*
X756491Y467373D01*
Y467326D01*
X756398Y467280D01*
X756306Y467141D01*
X756213Y466956D01*
X756075Y466725D01*
X755890Y466447D01*
X755751Y466123D01*
X755565Y465753D01*
X755380Y465290D01*
X755242Y464781D01*
X755057Y464226D01*
X754918Y463624D01*
X754825Y462976D01*
X754733Y462236D01*
X754640Y461449D01*
Y460616D01*
Y460570D01*
Y460431D01*
Y460153D01*
X754686Y459875D01*
Y459459D01*
X754733Y459043D01*
X754871Y458024D01*
X755057Y456914D01*
X755380Y455757D01*
X755797Y454739D01*
X756075Y454230D01*
X756398Y453813D01*
X756491Y453720D01*
X756722Y453489D01*
X757139Y453165D01*
X757648Y452795D01*
X758342Y452378D01*
X759129Y452054D01*
X760055Y451823D01*
X760564Y451777D01*
X761073Y451730D01*
X761165D01*
X761443Y451777D01*
X761906Y451823D01*
X762415Y451916D01*
X763016Y452054D01*
X763664Y452332D01*
X764312Y452656D01*
X764914Y453119D01*
X765006Y453165D01*
X765145Y453396D01*
X765423Y453720D01*
X765747Y454230D01*
X766071Y454831D01*
X766441Y455572D01*
X766719Y456497D01*
X766904Y457515D01*
X770791Y457006D01*
Y456960D01*
X770745Y456821D01*
X770699Y456636D01*
X770652Y456358D01*
X770560Y455988D01*
X770467Y455618D01*
X770143Y454692D01*
X769727Y453720D01*
X769125Y452656D01*
X768385Y451638D01*
X767968Y451175D01*
X767505Y450712D01*
X767459Y450666D01*
X767367Y450620D01*
X767228Y450527D01*
X767043Y450388D01*
X766811Y450203D01*
X766487Y450018D01*
X766117Y449833D01*
X765747Y449602D01*
X764821Y449185D01*
X763711Y448861D01*
X762507Y448583D01*
X761813Y448537D01*
X761119Y448491D01*
X760656D01*
X760332Y448537D01*
X759916Y448583D01*
X759453Y448676D01*
X758944Y448769D01*
X758389Y448861D01*
X757139Y449231D01*
X756537Y449509D01*
X755890Y449787D01*
X755242Y450157D01*
X754640Y450574D01*
X754038Y451036D01*
X753483Y451592D01*
X753437Y451638D01*
X753344Y451730D01*
X753205Y451916D01*
X753020Y452147D01*
X752835Y452471D01*
X752557Y452887D01*
X752326Y453350D01*
X752048Y453859D01*
X751771Y454461D01*
X751539Y455155D01*
X751262Y455849D01*
X751077Y456682D01*
X750891Y457515D01*
X750752Y458487D01*
X750660Y459459D01*
X750614Y460523D01*
Y460570D01*
Y460709D01*
Y460894D01*
Y461171D01*
X750660Y461495D01*
Y461866D01*
X750706Y462282D01*
X750752Y462745D01*
X750891Y463763D01*
X751123Y464874D01*
X751400Y465984D01*
X751817Y467095D01*
Y467141D01*
X751863Y467234D01*
X751956Y467373D01*
X752048Y467558D01*
X752326Y468067D01*
X752742Y468669D01*
X753298Y469363D01*
X753946Y470057D01*
X754733Y470751D01*
X755612Y471306D01*
X755658D01*
X755751Y471353D01*
X755890Y471445D01*
X756075Y471538D01*
X756306Y471630D01*
X756584Y471769D01*
X757278Y472047D01*
X758065Y472278D01*
X759036Y472510D01*
X760055Y472695D01*
X761165Y472741D01*
X761535D01*
X761813Y472695D01*
D02*
G37*
G36*
X623393D02*
X623717Y472649D01*
X624411Y472556D01*
X625244Y472371D01*
X626124Y472093D01*
X627003Y471677D01*
X627882Y471167D01*
X627929D01*
X627975Y471075D01*
X628252Y470890D01*
X628669Y470520D01*
X629178Y470057D01*
X629734Y469455D01*
X630289Y468715D01*
X630844Y467836D01*
X631307Y466864D01*
Y466817D01*
X631353Y466725D01*
X631399Y466586D01*
X631492Y466401D01*
X631585Y466123D01*
X631677Y465799D01*
X631909Y465059D01*
X632140Y464133D01*
X632325Y463115D01*
X632464Y461958D01*
X632510Y460755D01*
Y460709D01*
Y460616D01*
Y460431D01*
Y460153D01*
X632464Y459829D01*
Y459459D01*
X632371Y458626D01*
X632186Y457608D01*
X631955Y456543D01*
X631631Y455433D01*
X631214Y454322D01*
Y454276D01*
X631168Y454183D01*
X631076Y454044D01*
X630983Y453859D01*
X630659Y453350D01*
X630243Y452702D01*
X629734Y452008D01*
X629086Y451314D01*
X628345Y450620D01*
X627466Y449972D01*
X627420D01*
X627373Y449926D01*
X627234Y449833D01*
X627049Y449740D01*
X626586Y449509D01*
X625939Y449231D01*
X625152Y448954D01*
X624319Y448722D01*
X623347Y448537D01*
X622375Y448491D01*
X622051D01*
X621681Y448537D01*
X621218Y448583D01*
X620663Y448676D01*
X620061Y448815D01*
X619460Y449000D01*
X618858Y449278D01*
X618812Y449324D01*
X618580Y449417D01*
X618303Y449602D01*
X617932Y449879D01*
X617562Y450157D01*
X617099Y450527D01*
X616683Y450944D01*
X616313Y451407D01*
Y440115D01*
X612379D01*
Y472232D01*
X615942D01*
Y469178D01*
X615989Y469270D01*
X616174Y469455D01*
X616405Y469779D01*
X616775Y470149D01*
X617192Y470612D01*
X617655Y471029D01*
X618210Y471445D01*
X618765Y471815D01*
X618858Y471862D01*
X619043Y471954D01*
X619413Y472093D01*
X619876Y472278D01*
X620431Y472463D01*
X621079Y472602D01*
X621820Y472695D01*
X622653Y472741D01*
X623162D01*
X623393Y472695D01*
D02*
G37*
G36*
X824874Y419000D02*
X822514D01*
Y434019D01*
X822486Y433992D01*
X822347Y433881D01*
X822181Y433714D01*
X821903Y433520D01*
X821598Y433270D01*
X821209Y432992D01*
X820765Y432687D01*
X820265Y432381D01*
X820237D01*
X820210Y432354D01*
X820043Y432243D01*
X819765Y432104D01*
X819432Y431937D01*
X819044Y431743D01*
X818627Y431549D01*
X818211Y431354D01*
X817794Y431188D01*
Y433464D01*
X817822D01*
X817878Y433520D01*
X817989Y433547D01*
X818127Y433631D01*
X818294Y433714D01*
X818488Y433825D01*
X818960Y434103D01*
X819515Y434408D01*
X820071Y434797D01*
X820654Y435241D01*
X821237Y435713D01*
X821264Y435741D01*
X821292Y435768D01*
X821376Y435852D01*
X821487Y435935D01*
X821736Y436213D01*
X822070Y436546D01*
X822403Y436934D01*
X822764Y437379D01*
X823069Y437823D01*
X823347Y438295D01*
X824874D01*
Y419000D01*
D02*
G37*
G36*
X755496D02*
X753247D01*
X748000Y432937D01*
X750499D01*
X753497Y424580D01*
Y424552D01*
X753525Y424525D01*
X753552Y424441D01*
X753580Y424358D01*
X753663Y424081D01*
X753774Y423720D01*
X753913Y423303D01*
X754080Y422831D01*
X754219Y422304D01*
X754385Y421776D01*
X754413Y421832D01*
X754441Y421971D01*
X754524Y422193D01*
X754607Y422526D01*
X754746Y422887D01*
X754885Y423359D01*
X755079Y423858D01*
X755274Y424414D01*
X758355Y432937D01*
X760798D01*
X755496Y419000D01*
D02*
G37*
G36*
X812547D02*
X809854D01*
Y421693D01*
X812547D01*
Y419000D01*
D02*
G37*
G36*
X769072Y433214D02*
X769294Y433186D01*
X769571Y433131D01*
X769877Y433075D01*
X770238Y432992D01*
X770571Y432909D01*
X770959Y432770D01*
X771320Y432631D01*
X771709Y432437D01*
X772098Y432215D01*
X772486Y431965D01*
X772847Y431660D01*
X773180Y431326D01*
X773208Y431299D01*
X773264Y431243D01*
X773347Y431132D01*
X773458Y430965D01*
X773597Y430771D01*
X773736Y430549D01*
X773902Y430271D01*
X774069Y429938D01*
X774235Y429577D01*
X774402Y429189D01*
X774541Y428745D01*
X774679Y428273D01*
X774790Y427745D01*
X774874Y427190D01*
X774929Y426607D01*
X774957Y425968D01*
Y425941D01*
Y425830D01*
Y425635D01*
X774929Y425358D01*
X764519D01*
Y425330D01*
Y425247D01*
X764546Y425135D01*
Y424969D01*
X764574Y424775D01*
X764630Y424552D01*
X764713Y424053D01*
X764879Y423498D01*
X765101Y422887D01*
X765407Y422332D01*
X765796Y421832D01*
X765823D01*
X765851Y421776D01*
X766018Y421637D01*
X766267Y421443D01*
X766601Y421249D01*
X767045Y421027D01*
X767545Y420832D01*
X768100Y420694D01*
X768405Y420666D01*
X768738Y420638D01*
X768960D01*
X769210Y420666D01*
X769516Y420721D01*
X769849Y420804D01*
X770238Y420916D01*
X770598Y421082D01*
X770959Y421304D01*
X770987Y421332D01*
X771126Y421443D01*
X771292Y421610D01*
X771487Y421832D01*
X771709Y422137D01*
X771959Y422526D01*
X772209Y422970D01*
X772431Y423498D01*
X774874Y423192D01*
Y423164D01*
X774846Y423109D01*
X774818Y422998D01*
X774763Y422831D01*
X774679Y422665D01*
X774596Y422443D01*
X774374Y421971D01*
X774097Y421443D01*
X773708Y420888D01*
X773264Y420360D01*
X772708Y419861D01*
X772681D01*
X772625Y419805D01*
X772542Y419750D01*
X772431Y419666D01*
X772264Y419583D01*
X772098Y419500D01*
X771876Y419389D01*
X771626Y419278D01*
X771348Y419167D01*
X771070Y419055D01*
X770376Y418889D01*
X769599Y418750D01*
X768738Y418695D01*
X768433D01*
X768239Y418722D01*
X767989Y418750D01*
X767683Y418806D01*
X767350Y418861D01*
X766989Y418917D01*
X766212Y419139D01*
X765796Y419305D01*
X765407Y419472D01*
X764990Y419694D01*
X764602Y419944D01*
X764241Y420221D01*
X763880Y420555D01*
X763852Y420582D01*
X763797Y420638D01*
X763713Y420749D01*
X763602Y420916D01*
X763464Y421110D01*
X763325Y421332D01*
X763158Y421610D01*
X762992Y421915D01*
X762825Y422276D01*
X762658Y422665D01*
X762520Y423109D01*
X762381Y423581D01*
X762270Y424081D01*
X762187Y424636D01*
X762131Y425219D01*
X762103Y425830D01*
Y425857D01*
Y425996D01*
Y426163D01*
X762131Y426413D01*
X762159Y426718D01*
X762187Y427051D01*
X762242Y427440D01*
X762325Y427828D01*
X762547Y428717D01*
X762686Y429161D01*
X762853Y429633D01*
X763075Y430077D01*
X763325Y430494D01*
X763602Y430910D01*
X763908Y431299D01*
X763935Y431326D01*
X763991Y431382D01*
X764102Y431465D01*
X764241Y431604D01*
X764408Y431743D01*
X764630Y431909D01*
X764879Y432104D01*
X765185Y432270D01*
X765490Y432465D01*
X765851Y432631D01*
X766240Y432798D01*
X766656Y432937D01*
X767100Y433075D01*
X767572Y433159D01*
X768072Y433214D01*
X768600Y433242D01*
X768877D01*
X769072Y433214D01*
D02*
G37*
G36*
X803497Y425774D02*
X806106D01*
Y423609D01*
X803497D01*
Y419000D01*
X801137D01*
Y423609D01*
X792780D01*
Y425774D01*
X801581Y438211D01*
X803497D01*
Y425774D01*
D02*
G37*
G36*
X731454Y472232D02*
X735434D01*
Y469178D01*
X731454D01*
Y455525D01*
Y455433D01*
Y455248D01*
Y454970D01*
X731500Y454646D01*
X731547Y453905D01*
X731593Y453582D01*
X731639Y453350D01*
X731686Y453258D01*
X731824Y453073D01*
X732010Y452841D01*
X732334Y452610D01*
X732426Y452564D01*
X732657Y452471D01*
X733074Y452378D01*
X733676Y452332D01*
X734138D01*
X734370Y452378D01*
X734694D01*
X735064Y452425D01*
X735434Y452471D01*
X735943Y449000D01*
X735851D01*
X735666Y448954D01*
X735342Y448907D01*
X734925Y448861D01*
X734462Y448769D01*
X733953Y448722D01*
X732935Y448676D01*
X732565D01*
X732195Y448722D01*
X731732Y448769D01*
X731177Y448815D01*
X730621Y448954D01*
X730112Y449092D01*
X729603Y449324D01*
X729557Y449370D01*
X729418Y449463D01*
X729233Y449602D01*
X728955Y449833D01*
X728724Y450064D01*
X728446Y450388D01*
X728168Y450712D01*
X727983Y451129D01*
Y451175D01*
X727891Y451360D01*
X727844Y451684D01*
X727752Y452147D01*
X727659Y452749D01*
X727613Y453119D01*
Y453535D01*
X727567Y454044D01*
X727521Y454553D01*
Y455109D01*
Y455757D01*
Y469178D01*
X724605D01*
Y472232D01*
X727521D01*
Y477971D01*
X731454Y480331D01*
Y472232D01*
D02*
G37*
G36*
X716833Y518230D02*
X697905D01*
Y508465D01*
X715630D01*
Y504670D01*
X697905D01*
Y493795D01*
X717574D01*
Y490000D01*
X693648D01*
Y522025D01*
X716833D01*
Y518230D01*
D02*
G37*
G36*
X728542Y490000D02*
X724053D01*
Y494489D01*
X728542D01*
Y490000D01*
D02*
G37*
G36*
X690177D02*
X685364D01*
X681615Y499719D01*
X668194D01*
X664724Y490000D01*
X660234D01*
X672452Y522025D01*
X677080D01*
X690177Y490000D01*
D02*
G37*
G36*
X632143Y521979D02*
X633069Y521932D01*
X633994Y521840D01*
X634920Y521701D01*
X635707Y521562D01*
X635753D01*
X635845Y521516D01*
X635984D01*
X636169Y521423D01*
X636679Y521284D01*
X637326Y521053D01*
X638067Y520729D01*
X638854Y520313D01*
X639640Y519850D01*
X640381Y519248D01*
X640427Y519202D01*
X640473Y519156D01*
X640612Y519017D01*
X640797Y518878D01*
X641260Y518415D01*
X641815Y517767D01*
X642417Y516981D01*
X643065Y516055D01*
X643667Y514991D01*
X644176Y513787D01*
Y513741D01*
X644222Y513648D01*
X644314Y513463D01*
X644361Y513186D01*
X644500Y512862D01*
X644592Y512491D01*
X644685Y512075D01*
X644824Y511566D01*
X644962Y511057D01*
X645055Y510455D01*
X645286Y509159D01*
X645425Y507725D01*
X645471Y506151D01*
Y506105D01*
Y506012D01*
Y505781D01*
Y505550D01*
X645425Y505226D01*
Y504855D01*
X645379Y503976D01*
X645240Y502958D01*
X645101Y501894D01*
X644870Y500783D01*
X644592Y499672D01*
Y499626D01*
X644546Y499533D01*
X644500Y499395D01*
X644453Y499210D01*
X644268Y498700D01*
X643991Y498052D01*
X643713Y497312D01*
X643343Y496572D01*
X642880Y495785D01*
X642417Y495044D01*
X642371Y494952D01*
X642186Y494720D01*
X641908Y494397D01*
X641538Y493980D01*
X641121Y493517D01*
X640612Y493054D01*
X640103Y492545D01*
X639501Y492129D01*
X639409Y492083D01*
X639224Y491944D01*
X638900Y491759D01*
X638437Y491527D01*
X637882Y491250D01*
X637234Y491018D01*
X636493Y490741D01*
X635660Y490509D01*
X635568D01*
X635429Y490463D01*
X635290Y490416D01*
X634827Y490370D01*
X634179Y490278D01*
X633439Y490185D01*
X632560Y490093D01*
X631588Y490046D01*
X630523Y490000D01*
X619000D01*
Y522025D01*
X631310D01*
X632143Y521979D01*
D02*
G37*
G36*
X656254Y490000D02*
X651997D01*
Y522025D01*
X656254D01*
Y490000D01*
D02*
G37*
G36*
X751172Y521979D02*
X751589D01*
X752561Y521932D01*
X753579Y521794D01*
X754689Y521655D01*
X755708Y521423D01*
X756217Y521284D01*
X756633Y521146D01*
X756679D01*
X756726Y521099D01*
X757003Y520961D01*
X757420Y520775D01*
X757929Y520452D01*
X758484Y520035D01*
X759086Y519480D01*
X759641Y518832D01*
X760197Y518091D01*
Y518045D01*
X760243Y517999D01*
X760428Y517721D01*
X760613Y517258D01*
X760891Y516657D01*
X761122Y515962D01*
X761354Y515129D01*
X761492Y514250D01*
X761539Y513278D01*
Y513232D01*
Y513139D01*
Y512954D01*
X761492Y512723D01*
Y512399D01*
X761446Y512075D01*
X761261Y511288D01*
X760983Y510363D01*
X760613Y509391D01*
X760058Y508419D01*
X759688Y507956D01*
X759317Y507493D01*
X759271Y507447D01*
X759225Y507401D01*
X759086Y507262D01*
X758901Y507123D01*
X758669Y506938D01*
X758392Y506753D01*
X758021Y506521D01*
X757651Y506244D01*
X757188Y506012D01*
X756679Y505781D01*
X756124Y505503D01*
X755523Y505272D01*
X754828Y505087D01*
X754134Y504855D01*
X753347Y504717D01*
X752514Y504578D01*
X752607Y504532D01*
X752792Y504439D01*
X753070Y504254D01*
X753440Y504069D01*
X754273Y503560D01*
X754689Y503236D01*
X755060Y502958D01*
X755152Y502865D01*
X755384Y502634D01*
X755754Y502264D01*
X756217Y501801D01*
X756726Y501153D01*
X757327Y500459D01*
X757929Y499626D01*
X758577Y498700D01*
X764084Y490000D01*
X758808D01*
X754597Y496664D01*
Y496710D01*
X754504Y496803D01*
X754412Y496942D01*
X754273Y497127D01*
X753949Y497636D01*
X753532Y498284D01*
X753023Y498978D01*
X752514Y499719D01*
X752005Y500413D01*
X751543Y501061D01*
X751496Y501107D01*
X751357Y501292D01*
X751126Y501570D01*
X750802Y501894D01*
X750108Y502588D01*
X749738Y502912D01*
X749367Y503190D01*
X749321Y503236D01*
X749229Y503282D01*
X749043Y503375D01*
X748766Y503513D01*
X748488Y503652D01*
X748164Y503791D01*
X747424Y504022D01*
X747377D01*
X747285Y504069D01*
X747100D01*
X746868Y504115D01*
X746544Y504161D01*
X746174D01*
X745665Y504208D01*
X740204D01*
Y490000D01*
X735947D01*
Y522025D01*
X750802D01*
X751172Y521979D01*
D02*
G37*
G36*
X705816Y469594D02*
X705862Y469640D01*
X705908Y469733D01*
X706047Y469872D01*
X706279Y470103D01*
X706510Y470335D01*
X706788Y470612D01*
X707158Y470890D01*
X707528Y471167D01*
X708454Y471769D01*
X709518Y472232D01*
X710120Y472463D01*
X710768Y472602D01*
X711462Y472695D01*
X712156Y472741D01*
X712526D01*
X712943Y472695D01*
X713452Y472649D01*
X714053Y472510D01*
X714748Y472371D01*
X715488Y472139D01*
X716182Y471862D01*
X716275Y471815D01*
X716506Y471723D01*
X716876Y471492D01*
X717293Y471214D01*
X717802Y470890D01*
X718311Y470473D01*
X718866Y469964D01*
X719329Y469409D01*
X719376Y469363D01*
X719514Y469131D01*
X719746Y468807D01*
X720023Y468391D01*
X720347Y467836D01*
X720671Y467188D01*
X720995Y466447D01*
X721273Y465660D01*
Y465614D01*
X721319Y465568D01*
X721366Y465429D01*
X721412Y465290D01*
X721504Y464827D01*
X721643Y464226D01*
X721782Y463531D01*
X721921Y462745D01*
X721967Y461866D01*
X722013Y460940D01*
Y460894D01*
Y460662D01*
Y460385D01*
X721967Y459968D01*
X721921Y459459D01*
X721875Y458904D01*
X721782Y458256D01*
X721643Y457562D01*
X721273Y456081D01*
X721041Y455294D01*
X720764Y454553D01*
X720440Y453767D01*
X720023Y453073D01*
X719561Y452378D01*
X719052Y451730D01*
X719005Y451684D01*
X718913Y451592D01*
X718774Y451453D01*
X718542Y451221D01*
X718219Y450990D01*
X717895Y450712D01*
X717524Y450435D01*
X717062Y450111D01*
X716553Y449833D01*
X716043Y449509D01*
X714794Y449000D01*
X714146Y448769D01*
X713452Y448630D01*
X712711Y448537D01*
X711971Y448491D01*
X711786D01*
X711554Y448537D01*
X711277D01*
X710953Y448583D01*
X710536Y448676D01*
X709611Y448907D01*
X709102Y449092D01*
X708593Y449324D01*
X708037Y449602D01*
X707528Y449926D01*
X706973Y450342D01*
X706464Y450805D01*
X706001Y451314D01*
X705538Y451916D01*
Y449000D01*
X701882D01*
Y481025D01*
X705816D01*
Y469594D01*
D02*
G37*
G36*
X784351Y472695D02*
X784767Y472649D01*
X785230Y472556D01*
X785739Y472463D01*
X786341Y472371D01*
X787590Y471954D01*
X788238Y471723D01*
X788886Y471399D01*
X789534Y471075D01*
X790182Y470612D01*
X790784Y470149D01*
X791385Y469594D01*
X791432Y469548D01*
X791524Y469455D01*
X791663Y469270D01*
X791848Y469039D01*
X792079Y468715D01*
X792357Y468298D01*
X792635Y467836D01*
X792913Y467326D01*
X793190Y466771D01*
X793468Y466077D01*
X793745Y465383D01*
X793977Y464596D01*
X794162Y463763D01*
X794301Y462884D01*
X794393Y461958D01*
X794440Y460940D01*
Y460894D01*
Y460755D01*
Y460523D01*
Y460200D01*
X794393Y459829D01*
X794347Y459366D01*
Y458904D01*
X794255Y458395D01*
X794116Y457238D01*
X793838Y456081D01*
X793514Y454924D01*
X793051Y453859D01*
Y453813D01*
X793005Y453767D01*
X792913Y453628D01*
X792820Y453443D01*
X792496Y452980D01*
X792079Y452425D01*
X791524Y451777D01*
X790830Y451129D01*
X790043Y450481D01*
X789118Y449879D01*
X789071D01*
X789025Y449833D01*
X788886Y449740D01*
X788655Y449648D01*
X788423Y449555D01*
X788146Y449463D01*
X787452Y449185D01*
X786665Y448954D01*
X785693Y448722D01*
X784675Y448537D01*
X783564Y448491D01*
X783101D01*
X782731Y448537D01*
X782315Y448583D01*
X781852Y448676D01*
X781296Y448769D01*
X780741Y448861D01*
X779492Y449231D01*
X778798Y449509D01*
X778150Y449787D01*
X777502Y450157D01*
X776854Y450574D01*
X776252Y451036D01*
X775650Y451592D01*
X775604Y451638D01*
X775512Y451730D01*
X775373Y451916D01*
X775188Y452193D01*
X774956Y452517D01*
X774725Y452887D01*
X774447Y453350D01*
X774170Y453905D01*
X773892Y454507D01*
X773614Y455201D01*
X773383Y455942D01*
X773151Y456729D01*
X772966Y457608D01*
X772828Y458533D01*
X772735Y459552D01*
X772689Y460616D01*
Y460709D01*
Y460894D01*
X772735Y461218D01*
Y461680D01*
X772781Y462189D01*
X772874Y462837D01*
X772966Y463485D01*
X773151Y464226D01*
X773337Y464966D01*
X773568Y465753D01*
X773846Y466586D01*
X774216Y467373D01*
X774586Y468113D01*
X775095Y468854D01*
X775604Y469548D01*
X776252Y470149D01*
X776298Y470196D01*
X776391Y470242D01*
X776576Y470381D01*
X776807Y470566D01*
X777085Y470751D01*
X777455Y470982D01*
X777826Y471214D01*
X778288Y471445D01*
X778798Y471677D01*
X779353Y471908D01*
X780602Y472324D01*
X782037Y472649D01*
X782777Y472695D01*
X783564Y472741D01*
X784027D01*
X784351Y472695D01*
D02*
G37*
G36*
X647551D02*
X647921Y472649D01*
X648384Y472556D01*
X648893Y472463D01*
X649494Y472324D01*
X650050Y472186D01*
X650698Y471954D01*
X651299Y471723D01*
X651947Y471399D01*
X652595Y471029D01*
X653243Y470612D01*
X653845Y470103D01*
X654400Y469548D01*
X654446Y469501D01*
X654539Y469409D01*
X654678Y469224D01*
X654863Y468946D01*
X655094Y468622D01*
X655326Y468252D01*
X655603Y467789D01*
X655881Y467234D01*
X656159Y466632D01*
X656436Y465984D01*
X656668Y465244D01*
X656899Y464457D01*
X657084Y463578D01*
X657223Y462652D01*
X657316Y461680D01*
X657362Y460616D01*
Y460570D01*
Y460385D01*
Y460061D01*
X657316Y459598D01*
X639961D01*
Y459552D01*
Y459413D01*
X640007Y459228D01*
Y458950D01*
X640054Y458626D01*
X640146Y458256D01*
X640285Y457423D01*
X640563Y456497D01*
X640933Y455479D01*
X641442Y454553D01*
X642090Y453720D01*
X642136D01*
X642182Y453628D01*
X642460Y453396D01*
X642877Y453073D01*
X643432Y452749D01*
X644172Y452378D01*
X645005Y452054D01*
X645931Y451823D01*
X646440Y451777D01*
X646995Y451730D01*
X647366D01*
X647782Y451777D01*
X648291Y451869D01*
X648847Y452008D01*
X649494Y452193D01*
X650096Y452471D01*
X650698Y452841D01*
X650744Y452887D01*
X650975Y453073D01*
X651253Y453350D01*
X651577Y453720D01*
X651947Y454230D01*
X652364Y454877D01*
X652780Y455618D01*
X653150Y456497D01*
X657223Y455988D01*
Y455942D01*
X657177Y455849D01*
X657131Y455664D01*
X657038Y455387D01*
X656899Y455109D01*
X656760Y454739D01*
X656390Y453952D01*
X655927Y453073D01*
X655279Y452147D01*
X654539Y451268D01*
X653613Y450435D01*
X653567D01*
X653475Y450342D01*
X653336Y450249D01*
X653150Y450111D01*
X652873Y449972D01*
X652595Y449833D01*
X652225Y449648D01*
X651808Y449463D01*
X651346Y449278D01*
X650883Y449092D01*
X649726Y448815D01*
X648430Y448583D01*
X646995Y448491D01*
X646486D01*
X646162Y448537D01*
X645746Y448583D01*
X645237Y448676D01*
X644681Y448769D01*
X644080Y448861D01*
X642784Y449231D01*
X642090Y449509D01*
X641442Y449787D01*
X640748Y450157D01*
X640100Y450574D01*
X639498Y451036D01*
X638897Y451592D01*
X638850Y451638D01*
X638758Y451730D01*
X638619Y451916D01*
X638434Y452193D01*
X638203Y452517D01*
X637971Y452887D01*
X637693Y453350D01*
X637416Y453859D01*
X637138Y454461D01*
X636860Y455109D01*
X636629Y455849D01*
X636398Y456636D01*
X636213Y457469D01*
X636074Y458395D01*
X635981Y459366D01*
X635935Y460385D01*
Y460431D01*
Y460662D01*
Y460940D01*
X635981Y461356D01*
X636027Y461866D01*
X636074Y462421D01*
X636166Y463069D01*
X636305Y463717D01*
X636675Y465198D01*
X636907Y465938D01*
X637184Y466725D01*
X637555Y467465D01*
X637971Y468159D01*
X638434Y468854D01*
X638943Y469501D01*
X638989Y469548D01*
X639082Y469640D01*
X639267Y469779D01*
X639498Y470011D01*
X639776Y470242D01*
X640146Y470520D01*
X640563Y470844D01*
X641072Y471121D01*
X641581Y471445D01*
X642182Y471723D01*
X642830Y472001D01*
X643524Y472232D01*
X644265Y472463D01*
X645052Y472602D01*
X645885Y472695D01*
X646764Y472741D01*
X647227D01*
X647551Y472695D01*
D02*
G37*
G36*
X793425Y503513D02*
Y503467D01*
Y503282D01*
Y503051D01*
Y502727D01*
X793379Y502310D01*
Y501847D01*
X793332Y501292D01*
X793286Y500737D01*
X793147Y499487D01*
X792962Y498191D01*
X792684Y496942D01*
X792499Y496340D01*
X792314Y495785D01*
Y495739D01*
X792268Y495646D01*
X792175Y495507D01*
X792083Y495322D01*
X791805Y494813D01*
X791388Y494165D01*
X790833Y493425D01*
X790185Y492684D01*
X789352Y491897D01*
X788334Y491203D01*
X788288D01*
X788195Y491111D01*
X788056Y491064D01*
X787825Y490926D01*
X787547Y490787D01*
X787177Y490648D01*
X786807Y490509D01*
X786344Y490324D01*
X785835Y490139D01*
X785280Y490000D01*
X784678Y489861D01*
X783984Y489722D01*
X783290Y489630D01*
X782549Y489537D01*
X780883Y489445D01*
X780467D01*
X780143Y489491D01*
X779773D01*
X779310Y489537D01*
X778801Y489584D01*
X778292Y489630D01*
X777135Y489815D01*
X775885Y490093D01*
X774682Y490463D01*
X773525Y490972D01*
X773479D01*
X773386Y491064D01*
X773247Y491157D01*
X773062Y491250D01*
X772553Y491620D01*
X771951Y492129D01*
X771257Y492777D01*
X770609Y493517D01*
X769961Y494443D01*
X769452Y495461D01*
Y495507D01*
X769406Y495600D01*
X769360Y495785D01*
X769267Y496016D01*
X769175Y496294D01*
X769082Y496664D01*
X768943Y497081D01*
X768851Y497590D01*
X768758Y498145D01*
X768619Y498747D01*
X768527Y499395D01*
X768434Y500089D01*
X768342Y500876D01*
X768295Y501708D01*
X768249Y502588D01*
Y503513D01*
Y522025D01*
X772507D01*
Y503513D01*
Y503467D01*
Y503328D01*
Y503097D01*
Y502819D01*
X772553Y502495D01*
Y502079D01*
X772599Y501199D01*
X772692Y500181D01*
X772831Y499163D01*
X773016Y498191D01*
X773108Y497775D01*
X773247Y497358D01*
X773294Y497266D01*
X773386Y497034D01*
X773617Y496710D01*
X773895Y496248D01*
X774219Y495785D01*
X774682Y495276D01*
X775237Y494767D01*
X775885Y494350D01*
X775978Y494304D01*
X776209Y494165D01*
X776626Y494026D01*
X777181Y493841D01*
X777829Y493610D01*
X778662Y493471D01*
X779541Y493332D01*
X780513Y493286D01*
X780976D01*
X781254Y493332D01*
X781670D01*
X782086Y493378D01*
X783105Y493563D01*
X784215Y493795D01*
X785280Y494165D01*
X786298Y494674D01*
X786761Y494998D01*
X787177Y495368D01*
X787223Y495415D01*
X787270Y495461D01*
X787362Y495600D01*
X787501Y495785D01*
X787640Y496063D01*
X787825Y496340D01*
X788010Y496757D01*
X788195Y497173D01*
X788380Y497682D01*
X788519Y498284D01*
X788704Y498978D01*
X788843Y499719D01*
X788982Y500552D01*
X789075Y501431D01*
X789167Y502449D01*
Y503513D01*
Y522025D01*
X793425D01*
Y503513D01*
D02*
G37*
G36*
X597662Y472695D02*
X598079Y472649D01*
X598542Y472556D01*
X599051Y472463D01*
X599652Y472371D01*
X600902Y471954D01*
X601550Y471723D01*
X602198Y471399D01*
X602845Y471075D01*
X603493Y470612D01*
X604095Y470149D01*
X604697Y469594D01*
X604743Y469548D01*
X604836Y469455D01*
X604974Y469270D01*
X605159Y469039D01*
X605391Y468715D01*
X605668Y468298D01*
X605946Y467836D01*
X606224Y467326D01*
X606502Y466771D01*
X606779Y466077D01*
X607057Y465383D01*
X607288Y464596D01*
X607473Y463763D01*
X607612Y462884D01*
X607705Y461958D01*
X607751Y460940D01*
Y460894D01*
Y460755D01*
Y460523D01*
Y460200D01*
X607705Y459829D01*
X607659Y459366D01*
Y458904D01*
X607566Y458395D01*
X607427Y457238D01*
X607149Y456081D01*
X606825Y454924D01*
X606363Y453859D01*
Y453813D01*
X606316Y453767D01*
X606224Y453628D01*
X606131Y453443D01*
X605807Y452980D01*
X605391Y452425D01*
X604836Y451777D01*
X604141Y451129D01*
X603354Y450481D01*
X602429Y449879D01*
X602383D01*
X602336Y449833D01*
X602198Y449740D01*
X601966Y449648D01*
X601735Y449555D01*
X601457Y449463D01*
X600763Y449185D01*
X599976Y448954D01*
X599004Y448722D01*
X597986Y448537D01*
X596875Y448491D01*
X596413D01*
X596043Y448537D01*
X595626Y448583D01*
X595163Y448676D01*
X594608Y448769D01*
X594053Y448861D01*
X592803Y449231D01*
X592109Y449509D01*
X591461Y449787D01*
X590813Y450157D01*
X590165Y450574D01*
X589563Y451036D01*
X588962Y451592D01*
X588916Y451638D01*
X588823Y451730D01*
X588684Y451916D01*
X588499Y452193D01*
X588268Y452517D01*
X588036Y452887D01*
X587759Y453350D01*
X587481Y453905D01*
X587203Y454507D01*
X586926Y455201D01*
X586694Y455942D01*
X586463Y456729D01*
X586278Y457608D01*
X586139Y458533D01*
X586046Y459552D01*
X586000Y460616D01*
Y460709D01*
Y460894D01*
X586046Y461218D01*
Y461680D01*
X586093Y462189D01*
X586185Y462837D01*
X586278Y463485D01*
X586463Y464226D01*
X586648Y464966D01*
X586879Y465753D01*
X587157Y466586D01*
X587527Y467373D01*
X587897Y468113D01*
X588406Y468854D01*
X588916Y469548D01*
X589563Y470149D01*
X589610Y470196D01*
X589702Y470242D01*
X589887Y470381D01*
X590119Y470566D01*
X590396Y470751D01*
X590767Y470982D01*
X591137Y471214D01*
X591600Y471445D01*
X592109Y471677D01*
X592664Y471908D01*
X593914Y472324D01*
X595348Y472649D01*
X596089Y472695D01*
X596875Y472741D01*
X597338D01*
X597662Y472695D01*
D02*
G37*
G36*
X702059Y616591D02*
X702225Y616536D01*
X702448Y616452D01*
X702697Y616369D01*
X703003Y616258D01*
X703336Y616119D01*
X703697Y615953D01*
X704474Y615564D01*
X705251Y615064D01*
X705640Y614759D01*
X706029Y614454D01*
X706362Y614120D01*
X706695Y613732D01*
X706723Y613704D01*
X706778Y613648D01*
X706834Y613510D01*
X706945Y613371D01*
X707084Y613149D01*
X707223Y612927D01*
X707362Y612621D01*
X707500Y612316D01*
X707667Y611955D01*
X707806Y611566D01*
X707944Y611150D01*
X708083Y610706D01*
X708194Y610234D01*
X708250Y609734D01*
X708305Y609206D01*
X708333Y608651D01*
Y608623D01*
Y608512D01*
Y608346D01*
X708305Y608124D01*
Y607874D01*
X708278Y607569D01*
X708222Y607235D01*
X708167Y606847D01*
X708028Y606041D01*
X707806Y605209D01*
X707500Y604376D01*
X707306Y603987D01*
X707084Y603599D01*
X707056Y603571D01*
X707028Y603515D01*
X706945Y603404D01*
X706834Y603293D01*
X706723Y603126D01*
X706556Y602932D01*
X706362Y602710D01*
X706140Y602488D01*
X705890Y602266D01*
X705640Y602016D01*
X705002Y601516D01*
X704252Y601044D01*
X703419Y600628D01*
X703391D01*
X703308Y600572D01*
X703169Y600545D01*
X703003Y600461D01*
X702781Y600406D01*
X702503Y600322D01*
X702198Y600211D01*
X701865Y600128D01*
X701504Y600045D01*
X701087Y599934D01*
X700227Y599795D01*
X699255Y599684D01*
X698255Y599628D01*
X697950D01*
X697756Y599656D01*
X697478D01*
X697200Y599684D01*
X696840Y599712D01*
X696479Y599767D01*
X695674Y599906D01*
X694785Y600100D01*
X693897Y600378D01*
X693036Y600767D01*
X693008Y600794D01*
X692925Y600822D01*
X692814Y600878D01*
X692675Y600989D01*
X692481Y601100D01*
X692259Y601239D01*
X691759Y601600D01*
X691204Y602071D01*
X690649Y602627D01*
X690093Y603265D01*
X689621Y604015D01*
X689594Y604043D01*
X689566Y604126D01*
X689510Y604237D01*
X689427Y604376D01*
X689344Y604598D01*
X689260Y604820D01*
X689149Y605098D01*
X689038Y605403D01*
X688927Y605736D01*
X688816Y606097D01*
X688650Y606874D01*
X688511Y607763D01*
X688455Y608679D01*
Y608707D01*
Y608818D01*
Y608957D01*
X688483Y609151D01*
X688511Y609401D01*
X688539Y609706D01*
X688567Y610011D01*
X688650Y610372D01*
X688816Y611122D01*
X689066Y611955D01*
X689233Y612371D01*
X689427Y612760D01*
X689677Y613149D01*
X689927Y613537D01*
X689955Y613565D01*
X689982Y613621D01*
X690066Y613732D01*
X690204Y613871D01*
X690343Y614009D01*
X690538Y614204D01*
X690760Y614398D01*
X690982Y614620D01*
X691259Y614842D01*
X691592Y615064D01*
X691926Y615314D01*
X692287Y615536D01*
X692703Y615731D01*
X693120Y615953D01*
X693564Y616119D01*
X694063Y616286D01*
X694646Y613787D01*
X694619D01*
X694563Y613759D01*
X694452Y613704D01*
X694313Y613648D01*
X694147Y613593D01*
X693925Y613510D01*
X693480Y613288D01*
X692981Y613010D01*
X692481Y612677D01*
X692009Y612260D01*
X691592Y611816D01*
X691537Y611760D01*
X691426Y611594D01*
X691287Y611316D01*
X691093Y610955D01*
X690926Y610484D01*
X690760Y609956D01*
X690649Y609318D01*
X690621Y608623D01*
Y608596D01*
Y608512D01*
Y608401D01*
X690649Y608262D01*
Y608068D01*
X690676Y607846D01*
X690760Y607319D01*
X690871Y606736D01*
X691065Y606125D01*
X691343Y605486D01*
X691704Y604903D01*
Y604875D01*
X691759Y604848D01*
X691898Y604653D01*
X692120Y604404D01*
X692453Y604098D01*
X692870Y603737D01*
X693342Y603404D01*
X693925Y603099D01*
X694563Y602821D01*
X694591D01*
X694646Y602793D01*
X694730Y602766D01*
X694868Y602738D01*
X695035Y602682D01*
X695229Y602627D01*
X695701Y602543D01*
X696257Y602433D01*
X696867Y602321D01*
X697534Y602266D01*
X698255Y602238D01*
X698672D01*
X698866Y602266D01*
X699116D01*
X699394Y602294D01*
X699699Y602321D01*
X700365Y602405D01*
X701087Y602543D01*
X701809Y602710D01*
X702531Y602932D01*
X702559D01*
X702614Y602960D01*
X702697Y603016D01*
X702836Y603071D01*
X703169Y603238D01*
X703558Y603487D01*
X704002Y603793D01*
X704474Y604182D01*
X704891Y604626D01*
X705279Y605153D01*
Y605181D01*
X705307Y605236D01*
X705363Y605320D01*
X705418Y605431D01*
X705474Y605570D01*
X705557Y605736D01*
X705723Y606125D01*
X705890Y606624D01*
X706029Y607180D01*
X706140Y607791D01*
X706168Y608429D01*
Y608457D01*
Y608512D01*
Y608623D01*
X706140Y608790D01*
Y608984D01*
X706112Y609179D01*
X706001Y609678D01*
X705862Y610261D01*
X705640Y610844D01*
X705335Y611455D01*
X705168Y611760D01*
X704946Y612038D01*
X704918Y612066D01*
X704891Y612094D01*
X704807Y612177D01*
X704724Y612288D01*
X704585Y612399D01*
X704419Y612538D01*
X704252Y612705D01*
X704030Y612843D01*
X703780Y613010D01*
X703503Y613204D01*
X703225Y613371D01*
X702892Y613537D01*
X702531Y613676D01*
X702142Y613815D01*
X701726Y613954D01*
X701282Y614065D01*
X701920Y616619D01*
X701948D01*
X702059Y616591D01*
D02*
G37*
G36*
X736000Y614854D02*
X731697Y611967D01*
X730670Y611301D01*
X736000Y607553D01*
Y604693D01*
X728782Y609774D01*
X722063Y605082D01*
Y607969D01*
X725367Y610162D01*
X725395Y610190D01*
X725506Y610273D01*
X725700Y610384D01*
X725895Y610523D01*
X726144Y610662D01*
X726394Y610829D01*
X726644Y610995D01*
X726894Y611134D01*
X726866Y611162D01*
X726755Y611245D01*
X726589Y611356D01*
X726394Y611495D01*
X726144Y611661D01*
X725895Y611828D01*
X725367Y612189D01*
X722063Y614549D01*
Y617408D01*
X728782Y612661D01*
X736000Y617742D01*
Y614854D01*
D02*
G37*
G36*
X708333Y619562D02*
Y617674D01*
X688455Y623254D01*
Y625142D01*
X708333Y619562D01*
D02*
G37*
G36*
X730753Y603277D02*
X730975Y603250D01*
X731225Y603194D01*
X731503Y603139D01*
X731808Y603083D01*
X732474Y602861D01*
X732835Y602694D01*
X733168Y602528D01*
X733529Y602306D01*
X733890Y602056D01*
X734251Y601778D01*
X734584Y601445D01*
X734612Y601417D01*
X734667Y601362D01*
X734751Y601251D01*
X734862Y601112D01*
X735001Y600945D01*
X735139Y600723D01*
X735306Y600473D01*
X735445Y600168D01*
X735611Y599863D01*
X735778Y599502D01*
X735917Y599141D01*
X736056Y598724D01*
X736167Y598280D01*
X736250Y597808D01*
X736305Y597336D01*
X736333Y596809D01*
Y596781D01*
Y596698D01*
Y596559D01*
X736305Y596392D01*
X736278Y596170D01*
X736250Y595920D01*
X736194Y595643D01*
X736139Y595337D01*
X735972Y594671D01*
X735695Y593977D01*
X735528Y593616D01*
X735334Y593283D01*
X735084Y592950D01*
X734834Y592617D01*
X734806Y592589D01*
X734751Y592533D01*
X734667Y592450D01*
X734556Y592367D01*
X734418Y592228D01*
X734223Y592089D01*
X734029Y591923D01*
X733779Y591756D01*
X733501Y591590D01*
X733224Y591423D01*
X732558Y591118D01*
X731780Y590868D01*
X731364Y590784D01*
X730919Y590729D01*
X730614Y593089D01*
X730642D01*
X730697Y593116D01*
X730808Y593144D01*
X730947Y593172D01*
X731114Y593200D01*
X731308Y593255D01*
X731725Y593394D01*
X732224Y593588D01*
X732696Y593838D01*
X733140Y594116D01*
X733529Y594449D01*
X733557Y594505D01*
X733668Y594616D01*
X733807Y594838D01*
X733946Y595115D01*
X734112Y595448D01*
X734251Y595865D01*
X734362Y596337D01*
X734390Y596837D01*
Y596864D01*
Y596920D01*
Y597003D01*
X734362Y597114D01*
X734334Y597420D01*
X734251Y597808D01*
X734112Y598252D01*
X733918Y598724D01*
X733640Y599196D01*
X733251Y599641D01*
X733196Y599696D01*
X733029Y599835D01*
X732780Y600001D01*
X732446Y600224D01*
X732030Y600446D01*
X731558Y600612D01*
X731003Y600751D01*
X730392Y600807D01*
X730226D01*
X730114Y600779D01*
X729809Y600751D01*
X729448Y600668D01*
X729004Y600557D01*
X728560Y600362D01*
X728115Y600085D01*
X727699Y599724D01*
X727644Y599668D01*
X727533Y599529D01*
X727366Y599307D01*
X727172Y599002D01*
X726977Y598613D01*
X726811Y598141D01*
X726700Y597614D01*
X726644Y597031D01*
Y597003D01*
Y596920D01*
Y596781D01*
X726672Y596587D01*
X726700Y596337D01*
X726755Y596059D01*
X726811Y595726D01*
X726894Y595365D01*
X724812Y595643D01*
Y595671D01*
Y595782D01*
X724840Y595893D01*
Y596004D01*
Y596031D01*
Y596059D01*
Y596143D01*
Y596254D01*
X724784Y596559D01*
X724728Y596920D01*
X724645Y597336D01*
X724507Y597808D01*
X724312Y598252D01*
X724062Y598724D01*
Y598752D01*
X724035Y598780D01*
X723923Y598919D01*
X723729Y599113D01*
X723479Y599335D01*
X723118Y599557D01*
X722702Y599752D01*
X722230Y599890D01*
X721952Y599946D01*
X721425D01*
X721203Y599890D01*
X720897Y599835D01*
X720564Y599724D01*
X720203Y599585D01*
X719842Y599363D01*
X719509Y599058D01*
X719482Y599030D01*
X719370Y598891D01*
X719232Y598697D01*
X719065Y598447D01*
X718926Y598114D01*
X718787Y597725D01*
X718676Y597281D01*
X718649Y596781D01*
Y596753D01*
Y596726D01*
Y596559D01*
X718704Y596309D01*
X718760Y595976D01*
X718871Y595615D01*
X719009Y595254D01*
X719232Y594865D01*
X719509Y594505D01*
X719537Y594477D01*
X719676Y594366D01*
X719870Y594199D01*
X720148Y594005D01*
X720509Y593810D01*
X720953Y593616D01*
X721480Y593450D01*
X722091Y593339D01*
X721675Y590979D01*
X721647D01*
X721564Y591007D01*
X721453Y591034D01*
X721286Y591062D01*
X721092Y591118D01*
X720870Y591201D01*
X720342Y591367D01*
X719731Y591645D01*
X719121Y591978D01*
X718538Y592395D01*
X718010Y592922D01*
X717982Y592950D01*
X717955Y593005D01*
X717899Y593089D01*
X717816Y593200D01*
X717705Y593339D01*
X717594Y593533D01*
X717483Y593727D01*
X717344Y593977D01*
X717122Y594532D01*
X716900Y595171D01*
X716761Y595920D01*
X716705Y596309D01*
Y596726D01*
Y596753D01*
Y596809D01*
Y596892D01*
Y597003D01*
X716733Y597309D01*
X716789Y597669D01*
X716872Y598114D01*
X717011Y598613D01*
X717177Y599113D01*
X717399Y599613D01*
Y599641D01*
X717427Y599668D01*
X717510Y599835D01*
X717677Y600085D01*
X717871Y600362D01*
X718149Y600695D01*
X718454Y601029D01*
X718815Y601362D01*
X719232Y601639D01*
X719287Y601667D01*
X719426Y601750D01*
X719676Y601861D01*
X719981Y602000D01*
X720342Y602139D01*
X720759Y602250D01*
X721230Y602333D01*
X721702Y602361D01*
X721925D01*
X722147Y602333D01*
X722452Y602278D01*
X722813Y602195D01*
X723202Y602056D01*
X723590Y601889D01*
X723979Y601667D01*
X724035Y601639D01*
X724146Y601556D01*
X724340Y601390D01*
X724562Y601167D01*
X724812Y600890D01*
X725089Y600557D01*
X725339Y600168D01*
X725589Y599696D01*
Y599724D01*
X725617Y599779D01*
X725645Y599863D01*
X725673Y599974D01*
X725783Y600279D01*
X725950Y600668D01*
X726172Y601112D01*
X726450Y601556D01*
X726811Y601973D01*
X727227Y602361D01*
X727283Y602389D01*
X727449Y602500D01*
X727727Y602667D01*
X728088Y602833D01*
X728532Y603000D01*
X729060Y603166D01*
X729670Y603277D01*
X730337Y603305D01*
X730586D01*
X730753Y603277D01*
D02*
G37*
G36*
X698866Y643076D02*
X699088D01*
X699616Y643048D01*
X700227Y642965D01*
X700865Y642882D01*
X701531Y642743D01*
X702198Y642577D01*
X702225D01*
X702281Y642549D01*
X702364Y642521D01*
X702475Y642493D01*
X702781Y642382D01*
X703169Y642216D01*
X703614Y642049D01*
X704058Y641827D01*
X704530Y641549D01*
X704974Y641272D01*
X705030Y641244D01*
X705168Y641133D01*
X705363Y640966D01*
X705612Y640744D01*
X705890Y640494D01*
X706168Y640189D01*
X706473Y639884D01*
X706723Y639523D01*
X706751Y639467D01*
X706834Y639356D01*
X706945Y639162D01*
X707084Y638884D01*
X707250Y638551D01*
X707389Y638162D01*
X707556Y637718D01*
X707695Y637219D01*
Y637191D01*
Y637163D01*
X707722Y637080D01*
X707750Y636996D01*
X707778Y636719D01*
X707833Y636330D01*
X707889Y635886D01*
X707944Y635358D01*
X707972Y634775D01*
X708000Y634137D01*
Y627224D01*
X688789D01*
Y633831D01*
Y633859D01*
Y633942D01*
Y634054D01*
Y634192D01*
Y634387D01*
Y634609D01*
X688816Y635109D01*
X688844Y635664D01*
X688900Y636219D01*
X688983Y636774D01*
X689066Y637246D01*
Y637274D01*
X689094Y637329D01*
Y637413D01*
X689149Y637524D01*
X689233Y637829D01*
X689372Y638218D01*
X689566Y638662D01*
X689816Y639134D01*
X690093Y639606D01*
X690454Y640050D01*
X690482Y640078D01*
X690510Y640106D01*
X690593Y640189D01*
X690676Y640300D01*
X690954Y640578D01*
X691343Y640911D01*
X691815Y641272D01*
X692370Y641660D01*
X693008Y642021D01*
X693730Y642327D01*
X693758D01*
X693813Y642355D01*
X693925Y642410D01*
X694091Y642438D01*
X694286Y642521D01*
X694508Y642577D01*
X694757Y642632D01*
X695063Y642715D01*
X695368Y642799D01*
X695729Y642854D01*
X696507Y642993D01*
X697367Y643076D01*
X698311Y643104D01*
X698672D01*
X698866Y643076D01*
D02*
G37*
G36*
X736000Y688507D02*
X726783D01*
X726478Y688480D01*
X726144Y688452D01*
X725811Y688424D01*
X725478Y688369D01*
X725228Y688285D01*
X725201D01*
X725117Y688230D01*
X725006Y688174D01*
X724867Y688091D01*
X724701Y687980D01*
X724534Y687841D01*
X724368Y687674D01*
X724201Y687452D01*
X724173Y687425D01*
X724146Y687341D01*
X724090Y687230D01*
X724007Y687036D01*
X723923Y686842D01*
X723868Y686592D01*
X723840Y686342D01*
X723812Y686037D01*
Y686009D01*
Y685981D01*
Y685898D01*
X723840Y685787D01*
X723868Y685509D01*
X723923Y685176D01*
X724062Y684787D01*
X724229Y684371D01*
X724479Y683954D01*
X724812Y683566D01*
X724867Y683538D01*
X725006Y683427D01*
X725228Y683260D01*
X725561Y683094D01*
X726006Y682899D01*
X726533Y682760D01*
X727172Y682650D01*
X727921Y682594D01*
X736000D01*
Y680234D01*
X726727D01*
X726422Y680206D01*
X726089Y680151D01*
X725700Y680095D01*
X725312Y679984D01*
X724951Y679846D01*
X724617Y679651D01*
X724590Y679623D01*
X724479Y679540D01*
X724368Y679401D01*
X724201Y679207D01*
X724062Y678957D01*
X723923Y678624D01*
X723840Y678235D01*
X723812Y677763D01*
Y677708D01*
Y677597D01*
X723840Y677402D01*
X723868Y677180D01*
X723951Y676903D01*
X724035Y676570D01*
X724173Y676264D01*
X724340Y675931D01*
X724368Y675903D01*
X724451Y675792D01*
X724562Y675653D01*
X724728Y675459D01*
X724951Y675265D01*
X725228Y675070D01*
X725534Y674876D01*
X725895Y674709D01*
X725950Y674682D01*
X726089Y674654D01*
X726311Y674598D01*
X726616Y674515D01*
X727033Y674432D01*
X727533Y674376D01*
X728115Y674349D01*
X728782Y674321D01*
X736000D01*
Y671961D01*
X722063D01*
Y674071D01*
X724062D01*
X724007Y674099D01*
X723896Y674182D01*
X723701Y674349D01*
X723479Y674543D01*
X723202Y674793D01*
X722924Y675098D01*
X722646Y675431D01*
X722396Y675820D01*
X722369Y675875D01*
X722286Y676014D01*
X722202Y676236D01*
X722063Y676542D01*
X721952Y676903D01*
X721869Y677319D01*
X721786Y677791D01*
X721758Y678291D01*
Y678319D01*
Y678374D01*
Y678430D01*
Y678541D01*
X721786Y678846D01*
X721841Y679179D01*
X721925Y679596D01*
X722036Y680012D01*
X722202Y680428D01*
X722424Y680817D01*
X722452Y680873D01*
X722535Y680984D01*
X722674Y681150D01*
X722896Y681372D01*
X723146Y681594D01*
X723452Y681844D01*
X723812Y682066D01*
X724229Y682233D01*
X724201Y682261D01*
X724118Y682316D01*
X724007Y682400D01*
X723840Y682538D01*
X723646Y682705D01*
X723452Y682899D01*
X723229Y683121D01*
X722980Y683399D01*
X722757Y683704D01*
X722535Y684010D01*
X722341Y684371D01*
X722147Y684759D01*
X721980Y685176D01*
X721869Y685620D01*
X721786Y686064D01*
X721758Y686564D01*
Y686592D01*
Y686647D01*
Y686758D01*
X721786Y686897D01*
Y687091D01*
X721814Y687286D01*
X721897Y687758D01*
X722036Y688257D01*
X722258Y688785D01*
X722535Y689312D01*
X722924Y689757D01*
X722980Y689812D01*
X723146Y689923D01*
X723396Y690117D01*
X723590Y690201D01*
X723785Y690312D01*
X724035Y690423D01*
X724284Y690506D01*
X724562Y690617D01*
X724895Y690701D01*
X725228Y690756D01*
X725617Y690812D01*
X726006Y690867D01*
X736000D01*
Y688507D01*
D02*
G37*
G36*
X698866Y596852D02*
X699088D01*
X699616Y596824D01*
X700227Y596741D01*
X700865Y596658D01*
X701531Y596519D01*
X702198Y596353D01*
X702225D01*
X702281Y596325D01*
X702364Y596297D01*
X702475Y596269D01*
X702781Y596158D01*
X703169Y595992D01*
X703614Y595825D01*
X704058Y595603D01*
X704530Y595325D01*
X704974Y595048D01*
X705030Y595020D01*
X705168Y594909D01*
X705363Y594742D01*
X705612Y594520D01*
X705890Y594270D01*
X706168Y593965D01*
X706473Y593660D01*
X706723Y593299D01*
X706751Y593243D01*
X706834Y593132D01*
X706945Y592938D01*
X707084Y592660D01*
X707250Y592327D01*
X707389Y591938D01*
X707556Y591494D01*
X707695Y590994D01*
Y590967D01*
Y590939D01*
X707722Y590856D01*
X707750Y590772D01*
X707778Y590495D01*
X707833Y590106D01*
X707889Y589662D01*
X707944Y589134D01*
X707972Y588551D01*
X708000Y587913D01*
Y581000D01*
X688789D01*
Y587607D01*
Y587635D01*
Y587719D01*
Y587830D01*
Y587968D01*
Y588163D01*
Y588385D01*
X688816Y588885D01*
X688844Y589440D01*
X688900Y589995D01*
X688983Y590550D01*
X689066Y591022D01*
Y591050D01*
X689094Y591105D01*
Y591189D01*
X689149Y591300D01*
X689233Y591605D01*
X689372Y591994D01*
X689566Y592438D01*
X689816Y592910D01*
X690093Y593382D01*
X690454Y593826D01*
X690482Y593854D01*
X690510Y593882D01*
X690593Y593965D01*
X690676Y594076D01*
X690954Y594354D01*
X691343Y594687D01*
X691815Y595048D01*
X692370Y595436D01*
X693008Y595797D01*
X693730Y596103D01*
X693758D01*
X693813Y596130D01*
X693925Y596186D01*
X694091Y596214D01*
X694286Y596297D01*
X694508Y596353D01*
X694757Y596408D01*
X695063Y596491D01*
X695368Y596575D01*
X695729Y596630D01*
X696507Y596769D01*
X697367Y596852D01*
X698311Y596880D01*
X698672D01*
X698866Y596852D01*
D02*
G37*
G36*
X736000Y666131D02*
X726783D01*
X726478Y666103D01*
X726144Y666076D01*
X725811Y666048D01*
X725478Y665992D01*
X725228Y665909D01*
X725201D01*
X725117Y665853D01*
X725006Y665798D01*
X724867Y665714D01*
X724701Y665603D01*
X724534Y665465D01*
X724368Y665298D01*
X724201Y665076D01*
X724173Y665048D01*
X724146Y664965D01*
X724090Y664854D01*
X724007Y664660D01*
X723923Y664465D01*
X723868Y664215D01*
X723840Y663966D01*
X723812Y663660D01*
Y663632D01*
Y663605D01*
Y663521D01*
X723840Y663410D01*
X723868Y663133D01*
X723923Y662800D01*
X724062Y662411D01*
X724229Y661994D01*
X724479Y661578D01*
X724812Y661189D01*
X724867Y661161D01*
X725006Y661050D01*
X725228Y660884D01*
X725561Y660717D01*
X726006Y660523D01*
X726533Y660384D01*
X727172Y660273D01*
X727921Y660218D01*
X736000D01*
Y657858D01*
X726727D01*
X726422Y657830D01*
X726089Y657775D01*
X725700Y657719D01*
X725312Y657608D01*
X724951Y657469D01*
X724617Y657275D01*
X724590Y657247D01*
X724479Y657164D01*
X724368Y657025D01*
X724201Y656831D01*
X724062Y656581D01*
X723923Y656248D01*
X723840Y655859D01*
X723812Y655387D01*
Y655331D01*
Y655220D01*
X723840Y655026D01*
X723868Y654804D01*
X723951Y654526D01*
X724035Y654193D01*
X724173Y653888D01*
X724340Y653555D01*
X724368Y653527D01*
X724451Y653416D01*
X724562Y653277D01*
X724728Y653083D01*
X724951Y652888D01*
X725228Y652694D01*
X725534Y652500D01*
X725895Y652333D01*
X725950Y652305D01*
X726089Y652278D01*
X726311Y652222D01*
X726616Y652139D01*
X727033Y652056D01*
X727533Y652000D01*
X728115Y651972D01*
X728782Y651945D01*
X736000D01*
Y649585D01*
X722063D01*
Y651695D01*
X724062D01*
X724007Y651722D01*
X723896Y651806D01*
X723701Y651972D01*
X723479Y652167D01*
X723202Y652416D01*
X722924Y652722D01*
X722646Y653055D01*
X722396Y653444D01*
X722369Y653499D01*
X722286Y653638D01*
X722202Y653860D01*
X722063Y654165D01*
X721952Y654526D01*
X721869Y654943D01*
X721786Y655415D01*
X721758Y655915D01*
Y655942D01*
Y655998D01*
Y656053D01*
Y656164D01*
X721786Y656470D01*
X721841Y656803D01*
X721925Y657219D01*
X722036Y657636D01*
X722202Y658052D01*
X722424Y658441D01*
X722452Y658496D01*
X722535Y658607D01*
X722674Y658774D01*
X722896Y658996D01*
X723146Y659218D01*
X723452Y659468D01*
X723812Y659690D01*
X724229Y659857D01*
X724201Y659884D01*
X724118Y659940D01*
X724007Y660023D01*
X723840Y660162D01*
X723646Y660329D01*
X723452Y660523D01*
X723229Y660745D01*
X722980Y661023D01*
X722757Y661328D01*
X722535Y661634D01*
X722341Y661994D01*
X722147Y662383D01*
X721980Y662800D01*
X721869Y663244D01*
X721786Y663688D01*
X721758Y664188D01*
Y664215D01*
Y664271D01*
Y664382D01*
X721786Y664521D01*
Y664715D01*
X721814Y664909D01*
X721897Y665381D01*
X722036Y665881D01*
X722258Y666409D01*
X722535Y666936D01*
X722924Y667380D01*
X722980Y667436D01*
X723146Y667547D01*
X723396Y667741D01*
X723590Y667824D01*
X723785Y667935D01*
X724035Y668047D01*
X724284Y668130D01*
X724562Y668241D01*
X724895Y668324D01*
X725228Y668380D01*
X725617Y668435D01*
X726006Y668491D01*
X736000D01*
Y666131D01*
D02*
G37*
G36*
Y625598D02*
X720981D01*
X721008Y625570D01*
X721120Y625432D01*
X721286Y625265D01*
X721480Y624987D01*
X721730Y624682D01*
X722008Y624293D01*
X722313Y623849D01*
X722619Y623349D01*
Y623322D01*
X722646Y623294D01*
X722757Y623127D01*
X722896Y622850D01*
X723063Y622517D01*
X723257Y622128D01*
X723452Y621712D01*
X723646Y621295D01*
X723812Y620879D01*
X721536D01*
Y620906D01*
X721480Y620962D01*
X721453Y621073D01*
X721369Y621212D01*
X721286Y621378D01*
X721175Y621573D01*
X720897Y622045D01*
X720592Y622600D01*
X720203Y623155D01*
X719759Y623738D01*
X719287Y624321D01*
X719259Y624349D01*
X719232Y624377D01*
X719148Y624460D01*
X719065Y624571D01*
X718787Y624821D01*
X718454Y625154D01*
X718066Y625487D01*
X717621Y625848D01*
X717177Y626153D01*
X716705Y626431D01*
Y627958D01*
X736000D01*
Y625598D01*
D02*
G37*
G36*
X718926Y646586D02*
X718982Y646531D01*
X719093Y646420D01*
X719259Y646309D01*
X719454Y646142D01*
X719676Y645920D01*
X719953Y645698D01*
X720287Y645448D01*
X720620Y645198D01*
X721008Y644893D01*
X721453Y644587D01*
X721897Y644282D01*
X722396Y643949D01*
X722924Y643616D01*
X723507Y643283D01*
X724090Y642950D01*
X724118Y642922D01*
X724229Y642866D01*
X724395Y642783D01*
X724645Y642644D01*
X724951Y642505D01*
X725284Y642339D01*
X725673Y642144D01*
X726117Y641950D01*
X726616Y641728D01*
X727116Y641478D01*
X727671Y641256D01*
X728254Y641034D01*
X729448Y640590D01*
X730725Y640173D01*
X730753D01*
X730836Y640146D01*
X730975Y640118D01*
X731142Y640062D01*
X731364Y640007D01*
X731641Y639951D01*
X731947Y639868D01*
X732280Y639812D01*
X732669Y639729D01*
X733085Y639646D01*
X733973Y639507D01*
X734945Y639368D01*
X736000Y639285D01*
Y636870D01*
X735778D01*
X735611Y636897D01*
X735389D01*
X735112Y636925D01*
X734806Y636953D01*
X734473Y636981D01*
X734084Y637036D01*
X733696Y637092D01*
X733224Y637175D01*
X732752Y637258D01*
X732252Y637342D01*
X731697Y637453D01*
X730559Y637730D01*
X730531D01*
X730420Y637758D01*
X730253Y637813D01*
X730003Y637897D01*
X729726Y637980D01*
X729393Y638091D01*
X729004Y638202D01*
X728587Y638369D01*
X728115Y638535D01*
X727644Y638702D01*
X726589Y639118D01*
X725478Y639618D01*
X724368Y640173D01*
X724340Y640201D01*
X724229Y640257D01*
X724090Y640340D01*
X723868Y640451D01*
X723618Y640590D01*
X723313Y640784D01*
X722980Y640978D01*
X722619Y641200D01*
X721814Y641728D01*
X720981Y642283D01*
X720120Y642922D01*
X719315Y643588D01*
Y634177D01*
X717038D01*
Y646614D01*
X718898D01*
X718926Y646586D01*
D02*
G37*
G36*
X736000Y584566D02*
X733307D01*
Y587259D01*
X736000D01*
Y584566D01*
D02*
G37*
G36*
X627827Y629713D02*
X620137D01*
X619109Y624521D01*
X619137Y624549D01*
X619193Y624577D01*
X619276Y624632D01*
X619415Y624716D01*
X619581Y624799D01*
X619776Y624910D01*
X620220Y625132D01*
X620775Y625354D01*
X621386Y625549D01*
X622052Y625687D01*
X622385Y625743D01*
X622996D01*
X623163Y625715D01*
X623385Y625687D01*
X623635Y625660D01*
X623912Y625604D01*
X624218Y625521D01*
X624884Y625326D01*
X625245Y625188D01*
X625606Y624993D01*
X625967Y624799D01*
X626328Y624577D01*
X626661Y624299D01*
X626994Y623994D01*
X627022Y623966D01*
X627077Y623911D01*
X627160Y623827D01*
X627271Y623689D01*
X627410Y623494D01*
X627549Y623300D01*
X627716Y623050D01*
X627882Y622772D01*
X628021Y622467D01*
X628188Y622134D01*
X628326Y621745D01*
X628465Y621356D01*
X628576Y620940D01*
X628660Y620468D01*
X628715Y619996D01*
X628743Y619496D01*
Y619469D01*
Y619385D01*
Y619246D01*
X628715Y619052D01*
X628687Y618830D01*
X628660Y618580D01*
X628604Y618275D01*
X628549Y617970D01*
X628382Y617248D01*
X628104Y616498D01*
X627938Y616109D01*
X627716Y615748D01*
X627494Y615360D01*
X627216Y614999D01*
X627188Y614971D01*
X627133Y614888D01*
X627022Y614777D01*
X626883Y614638D01*
X626688Y614471D01*
X626466Y614249D01*
X626189Y614055D01*
X625883Y613833D01*
X625550Y613611D01*
X625162Y613416D01*
X624745Y613222D01*
X624301Y613028D01*
X623829Y612889D01*
X623302Y612778D01*
X622746Y612695D01*
X622163Y612667D01*
X621913D01*
X621719Y612695D01*
X621497Y612722D01*
X621247Y612750D01*
X620942Y612778D01*
X620636Y612861D01*
X619942Y613028D01*
X619248Y613278D01*
X618887Y613444D01*
X618526Y613638D01*
X618193Y613861D01*
X617860Y614110D01*
X617832Y614138D01*
X617777Y614166D01*
X617721Y614277D01*
X617610Y614388D01*
X617471Y614527D01*
X617333Y614693D01*
X617166Y614916D01*
X617027Y615165D01*
X616861Y615415D01*
X616694Y615721D01*
X616389Y616387D01*
X616139Y617164D01*
X616055Y617581D01*
X616000Y618025D01*
X618471Y618219D01*
Y618191D01*
Y618136D01*
X618499Y618053D01*
X618526Y617914D01*
X618610Y617608D01*
X618721Y617192D01*
X618887Y616776D01*
X619109Y616304D01*
X619387Y615887D01*
X619720Y615499D01*
X619776Y615471D01*
X619887Y615360D01*
X620109Y615221D01*
X620414Y615054D01*
X620747Y614888D01*
X621164Y614749D01*
X621636Y614638D01*
X622163Y614610D01*
X622330D01*
X622441Y614638D01*
X622774Y614666D01*
X623163Y614777D01*
X623635Y614916D01*
X624107Y615138D01*
X624606Y615471D01*
X624828Y615665D01*
X625051Y615887D01*
X625078Y615915D01*
X625106Y615943D01*
X625162Y616026D01*
X625245Y616109D01*
X625439Y616415D01*
X625661Y616803D01*
X625856Y617275D01*
X626050Y617858D01*
X626189Y618553D01*
X626244Y618913D01*
Y619302D01*
Y619330D01*
Y619385D01*
Y619496D01*
X626217Y619635D01*
Y619802D01*
X626189Y619996D01*
X626105Y620440D01*
X625967Y620968D01*
X625772Y621495D01*
X625495Y621995D01*
X625106Y622467D01*
Y622495D01*
X625051Y622523D01*
X624912Y622661D01*
X624662Y622856D01*
X624329Y623078D01*
X623885Y623272D01*
X623385Y623466D01*
X622802Y623605D01*
X622469Y623661D01*
X621941D01*
X621719Y623633D01*
X621441Y623605D01*
X621108Y623522D01*
X620775Y623439D01*
X620414Y623300D01*
X620053Y623133D01*
X620025Y623106D01*
X619915Y623050D01*
X619748Y622911D01*
X619526Y622772D01*
X619304Y622578D01*
X619082Y622328D01*
X618832Y622078D01*
X618637Y621773D01*
X616416Y622078D01*
X618276Y631962D01*
X627827D01*
Y629713D01*
D02*
G37*
G36*
X640014Y613000D02*
X637349D01*
X629909Y632211D01*
X632685D01*
X637682Y618247D01*
Y618219D01*
X637710Y618164D01*
X637738Y618080D01*
X637793Y617970D01*
X637821Y617803D01*
X637877Y617636D01*
X638015Y617220D01*
X638182Y616748D01*
X638349Y616220D01*
X638682Y615110D01*
Y615138D01*
X638709Y615193D01*
X638737Y615276D01*
X638765Y615388D01*
X638848Y615693D01*
X638987Y616109D01*
X639126Y616581D01*
X639292Y617109D01*
X639487Y617664D01*
X639709Y618247D01*
X644928Y632211D01*
X647510D01*
X640014Y613000D01*
D02*
G37*
G36*
X771079Y616000D02*
X768720D01*
Y631019D01*
X768692Y630992D01*
X768553Y630881D01*
X768386Y630714D01*
X768109Y630520D01*
X767803Y630270D01*
X767415Y629992D01*
X766971Y629687D01*
X766471Y629381D01*
X766443D01*
X766415Y629354D01*
X766249Y629243D01*
X765971Y629104D01*
X765638Y628937D01*
X765249Y628743D01*
X764833Y628549D01*
X764416Y628354D01*
X764000Y628188D01*
Y630464D01*
X764028D01*
X764083Y630520D01*
X764194Y630547D01*
X764333Y630631D01*
X764500Y630714D01*
X764694Y630825D01*
X765166Y631103D01*
X765721Y631408D01*
X766276Y631797D01*
X766860Y632241D01*
X767442Y632713D01*
X767470Y632741D01*
X767498Y632768D01*
X767581Y632852D01*
X767692Y632935D01*
X767942Y633213D01*
X768275Y633546D01*
X768608Y633934D01*
X768969Y634379D01*
X769275Y634823D01*
X769552Y635295D01*
X771079D01*
Y616000D01*
D02*
G37*
G36*
X375079Y651000D02*
X372720D01*
Y666019D01*
X372692Y665992D01*
X372553Y665881D01*
X372386Y665714D01*
X372109Y665520D01*
X371803Y665270D01*
X371415Y664992D01*
X370971Y664687D01*
X370471Y664381D01*
X370443D01*
X370415Y664354D01*
X370249Y664243D01*
X369971Y664104D01*
X369638Y663937D01*
X369249Y663743D01*
X368833Y663549D01*
X368416Y663354D01*
X368000Y663188D01*
Y665464D01*
X368028D01*
X368083Y665520D01*
X368194Y665547D01*
X368333Y665631D01*
X368500Y665714D01*
X368694Y665825D01*
X369166Y666103D01*
X369721Y666408D01*
X370276Y666797D01*
X370859Y667241D01*
X371442Y667713D01*
X371470Y667741D01*
X371498Y667768D01*
X371581Y667852D01*
X371692Y667935D01*
X371942Y668213D01*
X372275Y668546D01*
X372608Y668934D01*
X372969Y669379D01*
X373275Y669823D01*
X373552Y670295D01*
X375079D01*
Y651000D01*
D02*
G37*
G36*
X702059Y662815D02*
X702225Y662760D01*
X702448Y662676D01*
X702697Y662593D01*
X703003Y662482D01*
X703336Y662343D01*
X703697Y662177D01*
X704474Y661788D01*
X705251Y661288D01*
X705640Y660983D01*
X706029Y660677D01*
X706362Y660344D01*
X706695Y659956D01*
X706723Y659928D01*
X706778Y659872D01*
X706834Y659734D01*
X706945Y659595D01*
X707084Y659373D01*
X707223Y659151D01*
X707362Y658845D01*
X707500Y658540D01*
X707667Y658179D01*
X707806Y657790D01*
X707944Y657374D01*
X708083Y656930D01*
X708194Y656458D01*
X708250Y655958D01*
X708305Y655431D01*
X708333Y654875D01*
Y654847D01*
Y654736D01*
Y654570D01*
X708305Y654348D01*
Y654098D01*
X708278Y653792D01*
X708222Y653459D01*
X708167Y653071D01*
X708028Y652266D01*
X707806Y651433D01*
X707500Y650600D01*
X707306Y650211D01*
X707084Y649822D01*
X707056Y649795D01*
X707028Y649739D01*
X706945Y649628D01*
X706834Y649517D01*
X706723Y649351D01*
X706556Y649156D01*
X706362Y648934D01*
X706140Y648712D01*
X705890Y648490D01*
X705640Y648240D01*
X705002Y647740D01*
X704252Y647268D01*
X703419Y646852D01*
X703391D01*
X703308Y646796D01*
X703169Y646769D01*
X703003Y646685D01*
X702781Y646630D01*
X702503Y646547D01*
X702198Y646435D01*
X701865Y646352D01*
X701504Y646269D01*
X701087Y646158D01*
X700227Y646019D01*
X699255Y645908D01*
X698255Y645853D01*
X697950D01*
X697756Y645880D01*
X697478D01*
X697200Y645908D01*
X696840Y645936D01*
X696479Y645991D01*
X695674Y646130D01*
X694785Y646324D01*
X693897Y646602D01*
X693036Y646991D01*
X693008Y647019D01*
X692925Y647046D01*
X692814Y647102D01*
X692675Y647213D01*
X692481Y647324D01*
X692259Y647463D01*
X691759Y647824D01*
X691204Y648296D01*
X690649Y648851D01*
X690093Y649489D01*
X689621Y650239D01*
X689594Y650267D01*
X689566Y650350D01*
X689510Y650461D01*
X689427Y650600D01*
X689344Y650822D01*
X689260Y651044D01*
X689149Y651322D01*
X689038Y651627D01*
X688927Y651960D01*
X688816Y652321D01*
X688650Y653099D01*
X688511Y653987D01*
X688455Y654903D01*
Y654931D01*
Y655042D01*
Y655181D01*
X688483Y655375D01*
X688511Y655625D01*
X688539Y655930D01*
X688567Y656236D01*
X688650Y656597D01*
X688816Y657346D01*
X689066Y658179D01*
X689233Y658595D01*
X689427Y658984D01*
X689677Y659373D01*
X689927Y659761D01*
X689955Y659789D01*
X689982Y659845D01*
X690066Y659956D01*
X690204Y660095D01*
X690343Y660233D01*
X690538Y660428D01*
X690760Y660622D01*
X690982Y660844D01*
X691259Y661066D01*
X691592Y661288D01*
X691926Y661538D01*
X692287Y661760D01*
X692703Y661955D01*
X693120Y662177D01*
X693564Y662343D01*
X694063Y662510D01*
X694646Y660011D01*
X694619D01*
X694563Y659984D01*
X694452Y659928D01*
X694313Y659872D01*
X694147Y659817D01*
X693925Y659734D01*
X693480Y659511D01*
X692981Y659234D01*
X692481Y658901D01*
X692009Y658484D01*
X691592Y658040D01*
X691537Y657985D01*
X691426Y657818D01*
X691287Y657540D01*
X691093Y657179D01*
X690926Y656708D01*
X690760Y656180D01*
X690649Y655542D01*
X690621Y654847D01*
Y654820D01*
Y654736D01*
Y654625D01*
X690649Y654487D01*
Y654292D01*
X690676Y654070D01*
X690760Y653543D01*
X690871Y652960D01*
X691065Y652349D01*
X691343Y651710D01*
X691704Y651127D01*
Y651100D01*
X691759Y651072D01*
X691898Y650878D01*
X692120Y650628D01*
X692453Y650322D01*
X692870Y649961D01*
X693342Y649628D01*
X693925Y649323D01*
X694563Y649045D01*
X694591D01*
X694646Y649017D01*
X694730Y648990D01*
X694868Y648962D01*
X695035Y648906D01*
X695229Y648851D01*
X695701Y648768D01*
X696257Y648656D01*
X696867Y648546D01*
X697534Y648490D01*
X698255Y648462D01*
X698672D01*
X698866Y648490D01*
X699116D01*
X699394Y648518D01*
X699699Y648546D01*
X700365Y648629D01*
X701087Y648768D01*
X701809Y648934D01*
X702531Y649156D01*
X702559D01*
X702614Y649184D01*
X702697Y649240D01*
X702836Y649295D01*
X703169Y649462D01*
X703558Y649712D01*
X704002Y650017D01*
X704474Y650406D01*
X704891Y650850D01*
X705279Y651377D01*
Y651405D01*
X705307Y651460D01*
X705363Y651544D01*
X705418Y651655D01*
X705474Y651794D01*
X705557Y651960D01*
X705723Y652349D01*
X705890Y652849D01*
X706029Y653404D01*
X706140Y654015D01*
X706168Y654653D01*
Y654681D01*
Y654736D01*
Y654847D01*
X706140Y655014D01*
Y655208D01*
X706112Y655403D01*
X706001Y655902D01*
X705862Y656486D01*
X705640Y657068D01*
X705335Y657679D01*
X705168Y657985D01*
X704946Y658262D01*
X704918Y658290D01*
X704891Y658318D01*
X704807Y658401D01*
X704724Y658512D01*
X704585Y658623D01*
X704419Y658762D01*
X704252Y658929D01*
X704030Y659067D01*
X703780Y659234D01*
X703503Y659428D01*
X703225Y659595D01*
X702892Y659761D01*
X702531Y659900D01*
X702142Y660039D01*
X701726Y660178D01*
X701282Y660289D01*
X701920Y662843D01*
X701948D01*
X702059Y662815D01*
D02*
G37*
G36*
X783397Y433214D02*
X783702Y433159D01*
X784063Y433048D01*
X784452Y432909D01*
X784896Y432715D01*
X785368Y432465D01*
X784507Y430299D01*
X784480Y430327D01*
X784369Y430382D01*
X784202Y430466D01*
X783980Y430549D01*
X783730Y430632D01*
X783425Y430716D01*
X783119Y430771D01*
X782814Y430799D01*
X782675D01*
X782536Y430771D01*
X782342Y430743D01*
X782148Y430688D01*
X781898Y430605D01*
X781648Y430494D01*
X781426Y430327D01*
X781398Y430299D01*
X781315Y430244D01*
X781231Y430133D01*
X781093Y429994D01*
X780954Y429799D01*
X780815Y429577D01*
X780676Y429328D01*
X780565Y429022D01*
X780537Y428967D01*
X780509Y428800D01*
X780454Y428550D01*
X780371Y428217D01*
X780287Y427801D01*
X780232Y427329D01*
X780204Y426829D01*
X780176Y426274D01*
Y419000D01*
X777817D01*
Y432937D01*
X779954D01*
Y430827D01*
X779982Y430854D01*
X780093Y431049D01*
X780232Y431299D01*
X780454Y431604D01*
X780676Y431909D01*
X780926Y432243D01*
X781176Y432520D01*
X781426Y432742D01*
X781453Y432770D01*
X781537Y432826D01*
X781703Y432909D01*
X781870Y432992D01*
X782092Y433075D01*
X782370Y433159D01*
X782647Y433214D01*
X782953Y433242D01*
X783147D01*
X783397Y433214D01*
D02*
G37*
G36*
X736000Y553028D02*
X735695D01*
X735472Y553055D01*
X735223Y553083D01*
X734945Y553139D01*
X734667Y553194D01*
X734362Y553305D01*
X734334D01*
X734306Y553333D01*
X734140Y553389D01*
X733890Y553500D01*
X733557Y553666D01*
X733168Y553888D01*
X732724Y554166D01*
X732280Y554471D01*
X731808Y554860D01*
X731780D01*
X731752Y554916D01*
X731586Y555054D01*
X731336Y555304D01*
X730975Y555665D01*
X730559Y556082D01*
X730059Y556609D01*
X729504Y557248D01*
X728921Y557942D01*
X728893Y557969D01*
X728810Y558080D01*
X728671Y558247D01*
X728504Y558441D01*
X728282Y558691D01*
X728032Y558997D01*
X727755Y559302D01*
X727449Y559663D01*
X726783Y560357D01*
X726117Y561051D01*
X725783Y561384D01*
X725450Y561690D01*
X725145Y561967D01*
X724840Y562189D01*
X724812D01*
X724784Y562245D01*
X724701Y562300D01*
X724590Y562356D01*
X724284Y562550D01*
X723923Y562772D01*
X723479Y562967D01*
X723007Y563161D01*
X722480Y563272D01*
X721980Y563327D01*
X721925D01*
X721758Y563300D01*
X721480Y563272D01*
X721175Y563189D01*
X720786Y563078D01*
X720398Y562883D01*
X720009Y562634D01*
X719620Y562300D01*
X719565Y562245D01*
X719454Y562106D01*
X719315Y561912D01*
X719121Y561606D01*
X718954Y561218D01*
X718787Y560773D01*
X718676Y560246D01*
X718649Y559663D01*
Y559635D01*
Y559580D01*
Y559496D01*
X718676Y559385D01*
X718704Y559052D01*
X718787Y558663D01*
X718898Y558247D01*
X719093Y557775D01*
X719343Y557331D01*
X719676Y556914D01*
X719731Y556859D01*
X719870Y556748D01*
X720092Y556581D01*
X720425Y556415D01*
X720814Y556220D01*
X721314Y556054D01*
X721869Y555943D01*
X722508Y555887D01*
X722258Y553472D01*
X722230D01*
X722147Y553500D01*
X722008D01*
X721814Y553527D01*
X721591Y553583D01*
X721342Y553638D01*
X721036Y553722D01*
X720731Y553805D01*
X720064Y554027D01*
X719398Y554360D01*
X719065Y554555D01*
X718732Y554805D01*
X718427Y555054D01*
X718149Y555332D01*
X718121Y555360D01*
X718093Y555415D01*
X718010Y555499D01*
X717927Y555637D01*
X717816Y555804D01*
X717705Y555998D01*
X717566Y556220D01*
X717427Y556498D01*
X717288Y556803D01*
X717150Y557137D01*
X717038Y557497D01*
X716927Y557886D01*
X716844Y558303D01*
X716761Y558747D01*
X716733Y559219D01*
X716705Y559719D01*
Y559746D01*
Y559829D01*
Y559996D01*
X716733Y560190D01*
X716761Y560412D01*
X716789Y560690D01*
X716844Y560995D01*
X716900Y561301D01*
X717094Y562023D01*
X717372Y562744D01*
X717538Y563106D01*
X717732Y563466D01*
X717982Y563800D01*
X718260Y564105D01*
X718288Y564133D01*
X718316Y564188D01*
X718427Y564244D01*
X718538Y564355D01*
X718676Y564494D01*
X718871Y564632D01*
X719065Y564771D01*
X719315Y564938D01*
X719842Y565215D01*
X720509Y565493D01*
X720842Y565604D01*
X721230Y565660D01*
X721619Y565715D01*
X722036Y565743D01*
X722230D01*
X722452Y565715D01*
X722757Y565687D01*
X723091Y565632D01*
X723479Y565521D01*
X723896Y565410D01*
X724312Y565243D01*
X724368Y565215D01*
X724507Y565160D01*
X724728Y565049D01*
X725034Y564882D01*
X725367Y564660D01*
X725783Y564383D01*
X726200Y564049D01*
X726672Y563661D01*
X726727Y563605D01*
X726894Y563466D01*
X727033Y563327D01*
X727172Y563189D01*
X727338Y563022D01*
X727560Y562800D01*
X727782Y562578D01*
X728032Y562300D01*
X728310Y562023D01*
X728615Y561690D01*
X728921Y561329D01*
X729281Y560940D01*
X729642Y560496D01*
X730031Y560052D01*
X730059Y560024D01*
X730114Y559968D01*
X730198Y559857D01*
X730309Y559719D01*
X730475Y559552D01*
X730642Y559358D01*
X731003Y558913D01*
X731419Y558441D01*
X731836Y557997D01*
X732197Y557608D01*
X732335Y557442D01*
X732474Y557303D01*
X732502Y557275D01*
X732585Y557192D01*
X732696Y557081D01*
X732863Y556942D01*
X733057Y556803D01*
X733251Y556637D01*
X733724Y556304D01*
Y565771D01*
X736000D01*
Y553028D01*
D02*
G37*
G36*
Y567964D02*
X735695D01*
X735472Y567992D01*
X735223Y568019D01*
X734945Y568075D01*
X734667Y568130D01*
X734362Y568242D01*
X734334D01*
X734306Y568269D01*
X734140Y568325D01*
X733890Y568436D01*
X733557Y568602D01*
X733168Y568825D01*
X732724Y569102D01*
X732280Y569408D01*
X731808Y569796D01*
X731780D01*
X731752Y569852D01*
X731586Y569991D01*
X731336Y570240D01*
X730975Y570601D01*
X730559Y571018D01*
X730059Y571545D01*
X729504Y572184D01*
X728921Y572878D01*
X728893Y572906D01*
X728810Y573017D01*
X728671Y573183D01*
X728504Y573377D01*
X728282Y573627D01*
X728032Y573933D01*
X727755Y574238D01*
X727449Y574599D01*
X726783Y575293D01*
X726117Y575987D01*
X725783Y576320D01*
X725450Y576626D01*
X725145Y576903D01*
X724840Y577125D01*
X724812D01*
X724784Y577181D01*
X724701Y577236D01*
X724590Y577292D01*
X724284Y577486D01*
X723923Y577708D01*
X723479Y577903D01*
X723007Y578097D01*
X722480Y578208D01*
X721980Y578264D01*
X721925D01*
X721758Y578236D01*
X721480Y578208D01*
X721175Y578125D01*
X720786Y578014D01*
X720398Y577819D01*
X720009Y577570D01*
X719620Y577236D01*
X719565Y577181D01*
X719454Y577042D01*
X719315Y576848D01*
X719121Y576542D01*
X718954Y576154D01*
X718787Y575709D01*
X718676Y575182D01*
X718649Y574599D01*
Y574571D01*
Y574516D01*
Y574432D01*
X718676Y574321D01*
X718704Y573988D01*
X718787Y573600D01*
X718898Y573183D01*
X719093Y572711D01*
X719343Y572267D01*
X719676Y571851D01*
X719731Y571795D01*
X719870Y571684D01*
X720092Y571517D01*
X720425Y571351D01*
X720814Y571157D01*
X721314Y570990D01*
X721869Y570879D01*
X722508Y570823D01*
X722258Y568408D01*
X722230D01*
X722147Y568436D01*
X722008D01*
X721814Y568464D01*
X721591Y568519D01*
X721342Y568575D01*
X721036Y568658D01*
X720731Y568741D01*
X720064Y568963D01*
X719398Y569296D01*
X719065Y569491D01*
X718732Y569741D01*
X718427Y569991D01*
X718149Y570268D01*
X718121Y570296D01*
X718093Y570351D01*
X718010Y570435D01*
X717927Y570574D01*
X717816Y570740D01*
X717705Y570934D01*
X717566Y571157D01*
X717427Y571434D01*
X717288Y571740D01*
X717150Y572073D01*
X717038Y572434D01*
X716927Y572822D01*
X716844Y573239D01*
X716761Y573683D01*
X716733Y574155D01*
X716705Y574655D01*
Y574682D01*
Y574766D01*
Y574932D01*
X716733Y575126D01*
X716761Y575349D01*
X716789Y575626D01*
X716844Y575932D01*
X716900Y576237D01*
X717094Y576959D01*
X717372Y577681D01*
X717538Y578041D01*
X717732Y578402D01*
X717982Y578736D01*
X718260Y579041D01*
X718288Y579069D01*
X718316Y579124D01*
X718427Y579180D01*
X718538Y579291D01*
X718676Y579430D01*
X718871Y579568D01*
X719065Y579707D01*
X719315Y579874D01*
X719842Y580151D01*
X720509Y580429D01*
X720842Y580540D01*
X721230Y580596D01*
X721619Y580651D01*
X722036Y580679D01*
X722230D01*
X722452Y580651D01*
X722757Y580623D01*
X723091Y580568D01*
X723479Y580457D01*
X723896Y580346D01*
X724312Y580179D01*
X724368Y580151D01*
X724507Y580096D01*
X724728Y579985D01*
X725034Y579818D01*
X725367Y579596D01*
X725783Y579319D01*
X726200Y578985D01*
X726672Y578597D01*
X726727Y578541D01*
X726894Y578402D01*
X727033Y578264D01*
X727172Y578125D01*
X727338Y577958D01*
X727560Y577736D01*
X727782Y577514D01*
X728032Y577236D01*
X728310Y576959D01*
X728615Y576626D01*
X728921Y576265D01*
X729281Y575876D01*
X729642Y575432D01*
X730031Y574988D01*
X730059Y574960D01*
X730114Y574904D01*
X730198Y574793D01*
X730309Y574655D01*
X730475Y574488D01*
X730642Y574294D01*
X731003Y573849D01*
X731419Y573377D01*
X731836Y572933D01*
X732197Y572545D01*
X732335Y572378D01*
X732474Y572239D01*
X732502Y572211D01*
X732585Y572128D01*
X732696Y572017D01*
X732863Y571878D01*
X733057Y571740D01*
X733251Y571573D01*
X733724Y571240D01*
Y580707D01*
X736000D01*
Y567964D01*
D02*
G37*
G36*
X801146Y616000D02*
X798481D01*
X791040Y635211D01*
X793817D01*
X798814Y621247D01*
Y621219D01*
X798842Y621164D01*
X798869Y621081D01*
X798925Y620969D01*
X798953Y620803D01*
X799008Y620636D01*
X799147Y620220D01*
X799314Y619748D01*
X799480Y619220D01*
X799813Y618110D01*
Y618138D01*
X799841Y618193D01*
X799869Y618276D01*
X799896Y618388D01*
X799980Y618693D01*
X800119Y619109D01*
X800257Y619581D01*
X800424Y620109D01*
X800618Y620664D01*
X800840Y621247D01*
X806060Y635211D01*
X808642D01*
X801146Y616000D01*
D02*
G37*
G36*
X783961Y635267D02*
X784183Y635239D01*
X784461Y635211D01*
X784766Y635156D01*
X785071Y635100D01*
X785793Y634906D01*
X786515Y634628D01*
X786876Y634462D01*
X787237Y634268D01*
X787570Y634018D01*
X787876Y633740D01*
X787903Y633712D01*
X787959Y633685D01*
X788014Y633573D01*
X788125Y633462D01*
X788264Y633324D01*
X788403Y633129D01*
X788542Y632935D01*
X788708Y632685D01*
X788986Y632158D01*
X789264Y631491D01*
X789375Y631158D01*
X789430Y630770D01*
X789486Y630381D01*
X789513Y629964D01*
Y629909D01*
Y629770D01*
X789486Y629548D01*
X789458Y629243D01*
X789402Y628909D01*
X789291Y628521D01*
X789180Y628104D01*
X789014Y627688D01*
X788986Y627632D01*
X788931Y627494D01*
X788819Y627271D01*
X788653Y626966D01*
X788431Y626633D01*
X788153Y626217D01*
X787820Y625800D01*
X787431Y625328D01*
X787376Y625273D01*
X787237Y625106D01*
X787098Y624967D01*
X786959Y624828D01*
X786793Y624662D01*
X786571Y624440D01*
X786349Y624218D01*
X786071Y623968D01*
X785793Y623690D01*
X785460Y623385D01*
X785099Y623079D01*
X784711Y622719D01*
X784266Y622358D01*
X783822Y621969D01*
X783794Y621941D01*
X783739Y621886D01*
X783628Y621802D01*
X783489Y621691D01*
X783323Y621525D01*
X783128Y621358D01*
X782684Y620997D01*
X782212Y620581D01*
X781768Y620164D01*
X781379Y619803D01*
X781213Y619665D01*
X781074Y619526D01*
X781046Y619498D01*
X780963Y619415D01*
X780852Y619304D01*
X780713Y619137D01*
X780574Y618943D01*
X780407Y618749D01*
X780074Y618276D01*
X789541D01*
Y616000D01*
X776798D01*
Y616028D01*
Y616139D01*
Y616305D01*
X776826Y616527D01*
X776854Y616777D01*
X776909Y617055D01*
X776965Y617333D01*
X777076Y617638D01*
Y617666D01*
X777104Y617693D01*
X777159Y617860D01*
X777270Y618110D01*
X777437Y618443D01*
X777659Y618832D01*
X777937Y619276D01*
X778242Y619720D01*
X778631Y620192D01*
Y620220D01*
X778686Y620248D01*
X778825Y620414D01*
X779075Y620664D01*
X779436Y621025D01*
X779852Y621441D01*
X780380Y621941D01*
X781018Y622496D01*
X781712Y623079D01*
X781740Y623107D01*
X781851Y623190D01*
X782018Y623329D01*
X782212Y623496D01*
X782462Y623718D01*
X782767Y623968D01*
X783073Y624245D01*
X783434Y624551D01*
X784128Y625217D01*
X784822Y625883D01*
X785155Y626217D01*
X785460Y626550D01*
X785738Y626855D01*
X785960Y627160D01*
Y627188D01*
X786015Y627216D01*
X786071Y627299D01*
X786126Y627410D01*
X786321Y627716D01*
X786543Y628077D01*
X786737Y628521D01*
X786932Y628993D01*
X787043Y629520D01*
X787098Y630020D01*
Y630048D01*
Y630075D01*
X787070Y630242D01*
X787043Y630520D01*
X786959Y630825D01*
X786848Y631214D01*
X786654Y631602D01*
X786404Y631991D01*
X786071Y632380D01*
X786015Y632435D01*
X785877Y632546D01*
X785682Y632685D01*
X785377Y632879D01*
X784988Y633046D01*
X784544Y633213D01*
X784016Y633324D01*
X783434Y633351D01*
X783267D01*
X783156Y633324D01*
X782823Y633296D01*
X782434Y633213D01*
X782018Y633102D01*
X781546Y632907D01*
X781102Y632657D01*
X780685Y632324D01*
X780630Y632269D01*
X780518Y632130D01*
X780352Y631908D01*
X780185Y631575D01*
X779991Y631186D01*
X779824Y630686D01*
X779713Y630131D01*
X779658Y629492D01*
X777243Y629742D01*
Y629770D01*
X777270Y629853D01*
Y629992D01*
X777298Y630187D01*
X777354Y630409D01*
X777409Y630658D01*
X777492Y630964D01*
X777576Y631269D01*
X777798Y631936D01*
X778131Y632602D01*
X778325Y632935D01*
X778575Y633268D01*
X778825Y633573D01*
X779103Y633851D01*
X779130Y633879D01*
X779186Y633907D01*
X779269Y633990D01*
X779408Y634073D01*
X779575Y634184D01*
X779769Y634295D01*
X779991Y634434D01*
X780269Y634573D01*
X780574Y634712D01*
X780907Y634851D01*
X781268Y634962D01*
X781657Y635073D01*
X782073Y635156D01*
X782517Y635239D01*
X782989Y635267D01*
X783489Y635295D01*
X783767D01*
X783961Y635267D01*
D02*
G37*
%LPC*%
G36*
X622283Y469640D02*
X622051D01*
X621866Y469594D01*
X621403Y469501D01*
X620802Y469363D01*
X620107Y469085D01*
X619367Y468669D01*
X618951Y468391D01*
X618580Y468067D01*
X618210Y467697D01*
X617840Y467280D01*
Y467234D01*
X617747Y467188D01*
X617655Y467049D01*
X617562Y466864D01*
X617423Y466586D01*
X617238Y466308D01*
X617053Y465938D01*
X616914Y465568D01*
X616729Y465105D01*
X616544Y464596D01*
X616405Y464041D01*
X616220Y463439D01*
X616128Y462745D01*
X616035Y462051D01*
X615942Y461310D01*
Y460477D01*
Y460431D01*
Y460292D01*
Y460061D01*
X615989Y459737D01*
Y459366D01*
X616035Y458950D01*
X616174Y457978D01*
X616405Y456867D01*
X616683Y455803D01*
X617146Y454739D01*
X617423Y454276D01*
X617747Y453859D01*
X617840Y453767D01*
X618071Y453535D01*
X618441Y453165D01*
X618951Y452795D01*
X619598Y452425D01*
X620339Y452054D01*
X621172Y451823D01*
X621635Y451777D01*
X622098Y451730D01*
X622375D01*
X622560Y451777D01*
X623023Y451869D01*
X623671Y452008D01*
X624365Y452286D01*
X625106Y452656D01*
X625846Y453211D01*
X626216Y453535D01*
X626586Y453905D01*
Y453952D01*
X626679Y453998D01*
X626772Y454137D01*
X626864Y454322D01*
X627049Y454553D01*
X627188Y454877D01*
X627373Y455201D01*
X627558Y455618D01*
X627697Y456034D01*
X627882Y456590D01*
X628067Y457145D01*
X628206Y457747D01*
X628299Y458441D01*
X628391Y459181D01*
X628484Y459968D01*
Y460801D01*
Y460847D01*
Y460986D01*
Y461218D01*
X628438Y461541D01*
Y461912D01*
X628391Y462328D01*
X628252Y463300D01*
X628021Y464365D01*
X627697Y465429D01*
X627234Y466493D01*
X626957Y467002D01*
X626633Y467419D01*
Y467465D01*
X626540Y467511D01*
X626309Y467789D01*
X625939Y468113D01*
X625429Y468530D01*
X624782Y468946D01*
X624041Y469316D01*
X623208Y469548D01*
X622745Y469594D01*
X622283Y469640D01*
D02*
G37*
G36*
X768627Y431299D02*
X768461D01*
X768350Y431271D01*
X768044Y431243D01*
X767683Y431160D01*
X767239Y431021D01*
X766767Y430827D01*
X766323Y430549D01*
X765879Y430188D01*
X765823Y430133D01*
X765712Y429994D01*
X765518Y429744D01*
X765324Y429411D01*
X765101Y429022D01*
X764907Y428522D01*
X764741Y427939D01*
X764657Y427301D01*
X772458D01*
Y427329D01*
Y427384D01*
X772431Y427467D01*
Y427579D01*
X772375Y427912D01*
X772292Y428273D01*
X772153Y428717D01*
X772014Y429133D01*
X771792Y429550D01*
X771542Y429911D01*
Y429938D01*
X771487Y429966D01*
X771348Y430133D01*
X771098Y430355D01*
X770765Y430605D01*
X770349Y430854D01*
X769849Y431077D01*
X769266Y431243D01*
X768960Y431271D01*
X768627Y431299D01*
D02*
G37*
G36*
X801137Y434380D02*
X795085Y425774D01*
X801137D01*
Y434380D01*
D02*
G37*
G36*
X674673Y518693D02*
Y518647D01*
X674627Y518554D01*
Y518369D01*
X674535Y518184D01*
X674488Y517860D01*
X674396Y517536D01*
X674211Y516749D01*
X673979Y515824D01*
X673655Y514805D01*
X673331Y513695D01*
X672915Y512538D01*
X669444Y503190D01*
X680273D01*
X676941Y511982D01*
Y512029D01*
X676895Y512168D01*
X676802Y512399D01*
X676710Y512677D01*
X676571Y513001D01*
X676432Y513417D01*
X676293Y513880D01*
X676108Y514343D01*
X675738Y515407D01*
X675368Y516518D01*
X674997Y517629D01*
X674673Y518693D01*
D02*
G37*
G36*
X630662Y518230D02*
X623258D01*
Y493795D01*
X630847D01*
X631171Y493841D01*
X631866Y493887D01*
X632652Y493934D01*
X633485Y494026D01*
X634318Y494165D01*
X635013Y494350D01*
X635105Y494397D01*
X635336Y494443D01*
X635660Y494582D01*
X636077Y494767D01*
X636540Y495044D01*
X637002Y495322D01*
X637465Y495646D01*
X637928Y496016D01*
X637974Y496109D01*
X638159Y496294D01*
X638437Y496618D01*
X638761Y497081D01*
X639131Y497682D01*
X639548Y498377D01*
X639918Y499163D01*
X640242Y500042D01*
Y500089D01*
X640288Y500181D01*
X640334Y500320D01*
X640381Y500505D01*
X640427Y500737D01*
X640520Y501061D01*
X640612Y501385D01*
X640705Y501755D01*
X640844Y502680D01*
X640982Y503745D01*
X641075Y504948D01*
X641121Y506244D01*
Y506290D01*
Y506475D01*
Y506707D01*
X641075Y507077D01*
Y507493D01*
X641029Y507956D01*
X640982Y508512D01*
X640936Y509067D01*
X640705Y510316D01*
X640427Y511612D01*
X640011Y512816D01*
X639733Y513417D01*
X639455Y513926D01*
Y513972D01*
X639363Y514065D01*
X639270Y514204D01*
X639178Y514389D01*
X638807Y514852D01*
X638344Y515407D01*
X637743Y516009D01*
X637049Y516610D01*
X636262Y517119D01*
X635429Y517536D01*
X635336Y517582D01*
X635105Y517629D01*
X634688Y517767D01*
X634087Y517906D01*
X633346Y517999D01*
X632421Y518138D01*
X631866Y518184D01*
X631264D01*
X630662Y518230D01*
D02*
G37*
G36*
X750293Y518461D02*
X740204D01*
Y507864D01*
X749738D01*
X750293Y507910D01*
X750941Y507956D01*
X751681Y508003D01*
X752422Y508095D01*
X753162Y508234D01*
X753810Y508419D01*
X753903Y508465D01*
X754088Y508558D01*
X754365Y508697D01*
X754736Y508882D01*
X755152Y509159D01*
X755569Y509483D01*
X755985Y509900D01*
X756309Y510363D01*
X756356Y510409D01*
X756448Y510594D01*
X756587Y510872D01*
X756772Y511242D01*
X756911Y511659D01*
X757050Y512121D01*
X757142Y512677D01*
X757188Y513232D01*
Y513278D01*
Y513325D01*
X757142Y513602D01*
X757096Y514019D01*
X757003Y514574D01*
X756772Y515129D01*
X756494Y515777D01*
X756078Y516379D01*
X755523Y516981D01*
X755430Y517027D01*
X755199Y517212D01*
X754828Y517443D01*
X754227Y517721D01*
X753532Y517999D01*
X752607Y518230D01*
X751543Y518415D01*
X750293Y518461D01*
D02*
G37*
G36*
X712249Y469501D02*
X711554D01*
X711369Y469455D01*
X710860Y469363D01*
X710259Y469224D01*
X709564Y468946D01*
X708824Y468530D01*
X708454Y468298D01*
X708083Y467974D01*
X707713Y467650D01*
X707343Y467234D01*
Y467188D01*
X707251Y467141D01*
X707158Y467002D01*
X707065Y466817D01*
X706926Y466586D01*
X706741Y466308D01*
X706602Y465984D01*
X706417Y465614D01*
X706232Y465151D01*
X706094Y464688D01*
X705908Y464133D01*
X705770Y463578D01*
X705677Y462930D01*
X705584Y462236D01*
X705492Y461541D01*
Y460755D01*
Y460709D01*
Y460570D01*
Y460338D01*
Y460061D01*
X705538Y459737D01*
Y459320D01*
X705631Y458441D01*
X705770Y457469D01*
X705955Y456451D01*
X706232Y455525D01*
X706417Y455109D01*
X706602Y454739D01*
Y454692D01*
X706695Y454600D01*
X706788Y454461D01*
X706926Y454276D01*
X707343Y453767D01*
X707945Y453258D01*
X708639Y452702D01*
X709518Y452193D01*
X709981Y452008D01*
X710536Y451869D01*
X711045Y451777D01*
X711647Y451730D01*
X711878D01*
X712063Y451777D01*
X712572Y451869D01*
X713174Y452008D01*
X713868Y452286D01*
X714609Y452656D01*
X715349Y453211D01*
X715720Y453582D01*
X716090Y453952D01*
Y453998D01*
X716182Y454044D01*
X716275Y454183D01*
X716367Y454368D01*
X716553Y454600D01*
X716691Y454877D01*
X716876Y455248D01*
X717062Y455618D01*
X717200Y456081D01*
X717385Y456543D01*
X717571Y457099D01*
X717710Y457700D01*
X717802Y458348D01*
X717895Y459043D01*
X717987Y459829D01*
Y460616D01*
Y460662D01*
Y460801D01*
Y461032D01*
X717941Y461356D01*
Y461727D01*
X717895Y462189D01*
X717756Y463161D01*
X717571Y464226D01*
X717247Y465383D01*
X716784Y466401D01*
X716506Y466910D01*
X716182Y467326D01*
Y467373D01*
X716090Y467419D01*
X715858Y467650D01*
X715488Y468021D01*
X714979Y468437D01*
X714331Y468807D01*
X713591Y469178D01*
X712711Y469409D01*
X712249Y469501D01*
D02*
G37*
G36*
X783564D02*
X783287D01*
X783055Y469455D01*
X782546Y469409D01*
X781852Y469224D01*
X781065Y468946D01*
X780232Y468576D01*
X779445Y468021D01*
X779029Y467650D01*
X778659Y467280D01*
Y467234D01*
X778566Y467188D01*
X778474Y467049D01*
X778335Y466864D01*
X778196Y466632D01*
X778057Y466354D01*
X777872Y465984D01*
X777687Y465614D01*
X777502Y465151D01*
X777317Y464688D01*
X777178Y464133D01*
X777039Y463531D01*
X776900Y462884D01*
X776807Y462189D01*
X776761Y461403D01*
X776715Y460616D01*
Y460570D01*
Y460431D01*
Y460200D01*
X776761Y459875D01*
Y459505D01*
X776807Y459089D01*
X776946Y458117D01*
X777178Y457006D01*
X777548Y455896D01*
X778011Y454831D01*
X778335Y454368D01*
X778659Y453905D01*
X778705D01*
X778751Y453813D01*
X779029Y453582D01*
X779445Y453211D01*
X780001Y452841D01*
X780695Y452425D01*
X781528Y452054D01*
X782500Y451823D01*
X783009Y451777D01*
X783564Y451730D01*
X783842D01*
X784073Y451777D01*
X784582Y451869D01*
X785276Y452008D01*
X786017Y452286D01*
X786850Y452656D01*
X787637Y453211D01*
X788053Y453582D01*
X788423Y453952D01*
X788470Y453998D01*
X788516Y454044D01*
X788609Y454183D01*
X788747Y454368D01*
X788886Y454600D01*
X789071Y454877D01*
X789257Y455248D01*
X789442Y455618D01*
X789627Y456081D01*
X789766Y456590D01*
X789951Y457145D01*
X790089Y457747D01*
X790228Y458441D01*
X790321Y459135D01*
X790414Y459922D01*
Y460755D01*
Y460801D01*
Y460940D01*
Y461171D01*
X790367Y461449D01*
Y461819D01*
X790321Y462236D01*
X790182Y463208D01*
X789951Y464226D01*
X789580Y465336D01*
X789071Y466354D01*
X788794Y466864D01*
X788423Y467280D01*
Y467326D01*
X788331Y467373D01*
X788053Y467650D01*
X787637Y467974D01*
X787081Y468391D01*
X786387Y468807D01*
X785554Y469178D01*
X784629Y469409D01*
X784119Y469455D01*
X783564Y469501D01*
D02*
G37*
G36*
X646810D02*
X646533D01*
X646348Y469455D01*
X645838Y469409D01*
X645237Y469270D01*
X644496Y469039D01*
X643710Y468715D01*
X642969Y468252D01*
X642229Y467650D01*
X642136Y467558D01*
X641951Y467326D01*
X641627Y466910D01*
X641303Y466354D01*
X640933Y465707D01*
X640609Y464874D01*
X640331Y463902D01*
X640192Y462837D01*
X653197D01*
Y462884D01*
Y462976D01*
X653150Y463115D01*
Y463300D01*
X653058Y463856D01*
X652919Y464457D01*
X652688Y465198D01*
X652456Y465892D01*
X652086Y466586D01*
X651670Y467188D01*
Y467234D01*
X651577Y467280D01*
X651346Y467558D01*
X650929Y467928D01*
X650374Y468344D01*
X649680Y468761D01*
X648847Y469131D01*
X647875Y469409D01*
X647366Y469455D01*
X646810Y469501D01*
D02*
G37*
G36*
X596875D02*
X596598D01*
X596366Y469455D01*
X595857Y469409D01*
X595163Y469224D01*
X594376Y468946D01*
X593543Y468576D01*
X592757Y468021D01*
X592340Y467650D01*
X591970Y467280D01*
Y467234D01*
X591877Y467188D01*
X591785Y467049D01*
X591646Y466864D01*
X591507Y466632D01*
X591368Y466354D01*
X591183Y465984D01*
X590998Y465614D01*
X590813Y465151D01*
X590628Y464688D01*
X590489Y464133D01*
X590350Y463531D01*
X590211Y462884D01*
X590119Y462189D01*
X590073Y461403D01*
X590026Y460616D01*
Y460570D01*
Y460431D01*
Y460200D01*
X590073Y459875D01*
Y459505D01*
X590119Y459089D01*
X590258Y458117D01*
X590489Y457006D01*
X590859Y455896D01*
X591322Y454831D01*
X591646Y454368D01*
X591970Y453905D01*
X592016D01*
X592062Y453813D01*
X592340Y453582D01*
X592757Y453211D01*
X593312Y452841D01*
X594006Y452425D01*
X594839Y452054D01*
X595811Y451823D01*
X596320Y451777D01*
X596875Y451730D01*
X597153D01*
X597385Y451777D01*
X597894Y451869D01*
X598588Y452008D01*
X599328Y452286D01*
X600161Y452656D01*
X600948Y453211D01*
X601365Y453582D01*
X601735Y453952D01*
X601781Y453998D01*
X601827Y454044D01*
X601920Y454183D01*
X602059Y454368D01*
X602198Y454600D01*
X602383Y454877D01*
X602568Y455248D01*
X602753Y455618D01*
X602938Y456081D01*
X603077Y456590D01*
X603262Y457145D01*
X603401Y457747D01*
X603540Y458441D01*
X603632Y459135D01*
X603725Y459922D01*
Y460755D01*
Y460801D01*
Y460940D01*
Y461171D01*
X603679Y461449D01*
Y461819D01*
X603632Y462236D01*
X603493Y463208D01*
X603262Y464226D01*
X602892Y465336D01*
X602383Y466354D01*
X602105Y466864D01*
X601735Y467280D01*
Y467326D01*
X601642Y467373D01*
X601365Y467650D01*
X600948Y467974D01*
X600393Y468391D01*
X599698Y468807D01*
X598866Y469178D01*
X597940Y469409D01*
X597431Y469455D01*
X596875Y469501D01*
D02*
G37*
G36*
X698255Y640494D02*
X697978D01*
X697756Y640467D01*
X697506D01*
X697228Y640439D01*
X696895Y640411D01*
X696562Y640383D01*
X695812Y640245D01*
X695035Y640078D01*
X694313Y639828D01*
X693952Y639662D01*
X693647Y639495D01*
X693619D01*
X693564Y639440D01*
X693480Y639384D01*
X693369Y639328D01*
X693092Y639106D01*
X692759Y638829D01*
X692398Y638468D01*
X692037Y638051D01*
X691731Y637579D01*
X691481Y637080D01*
X691454Y637024D01*
X691426Y636885D01*
X691343Y636636D01*
X691259Y636275D01*
X691204Y635830D01*
X691121Y635275D01*
X691093Y634942D01*
Y634581D01*
X691065Y634220D01*
Y633804D01*
Y629778D01*
X705723D01*
Y633859D01*
Y633887D01*
Y633942D01*
Y634054D01*
Y634165D01*
Y634331D01*
X705696Y634526D01*
X705668Y634942D01*
X705640Y635414D01*
X705585Y635914D01*
X705501Y636413D01*
X705390Y636830D01*
X705363Y636885D01*
X705335Y637024D01*
X705251Y637219D01*
X705141Y637468D01*
X704974Y637746D01*
X704807Y638024D01*
X704613Y638301D01*
X704391Y638579D01*
X704335Y638607D01*
X704224Y638718D01*
X704030Y638884D01*
X703752Y639079D01*
X703391Y639301D01*
X702975Y639551D01*
X702503Y639773D01*
X701976Y639967D01*
X701948D01*
X701892Y639995D01*
X701809Y640023D01*
X701698Y640050D01*
X701559Y640078D01*
X701365Y640134D01*
X701171Y640189D01*
X700948Y640245D01*
X700393Y640328D01*
X699755Y640411D01*
X699033Y640467D01*
X698255Y640494D01*
D02*
G37*
G36*
Y594270D02*
X697978D01*
X697756Y594243D01*
X697506D01*
X697228Y594215D01*
X696895Y594187D01*
X696562Y594159D01*
X695812Y594021D01*
X695035Y593854D01*
X694313Y593604D01*
X693952Y593438D01*
X693647Y593271D01*
X693619D01*
X693564Y593215D01*
X693480Y593160D01*
X693369Y593104D01*
X693092Y592882D01*
X692759Y592605D01*
X692398Y592244D01*
X692037Y591827D01*
X691731Y591355D01*
X691481Y590856D01*
X691454Y590800D01*
X691426Y590661D01*
X691343Y590411D01*
X691259Y590051D01*
X691204Y589606D01*
X691121Y589051D01*
X691093Y588718D01*
Y588357D01*
X691065Y587996D01*
Y587580D01*
Y583554D01*
X705723D01*
Y587635D01*
Y587663D01*
Y587719D01*
Y587830D01*
Y587941D01*
Y588107D01*
X705696Y588302D01*
X705668Y588718D01*
X705640Y589190D01*
X705585Y589690D01*
X705501Y590189D01*
X705390Y590606D01*
X705363Y590661D01*
X705335Y590800D01*
X705251Y590994D01*
X705141Y591244D01*
X704974Y591522D01*
X704807Y591800D01*
X704613Y592077D01*
X704391Y592355D01*
X704335Y592383D01*
X704224Y592494D01*
X704030Y592660D01*
X703752Y592854D01*
X703391Y593077D01*
X702975Y593326D01*
X702503Y593549D01*
X701976Y593743D01*
X701948D01*
X701892Y593771D01*
X701809Y593798D01*
X701698Y593826D01*
X701559Y593854D01*
X701365Y593909D01*
X701171Y593965D01*
X700948Y594021D01*
X700393Y594104D01*
X699755Y594187D01*
X699033Y594243D01*
X698255Y594270D01*
D02*
G37*
%LPD*%
D18*
X387000Y684000D02*
X451000D01*
X765000Y568000D02*
X775000D01*
X769000Y675000D02*
Y685000D01*
X764000Y680000D02*
X774000D01*
X649000Y568000D02*
X659000D01*
X649000Y679000D02*
X659000D01*
X654000Y674000D02*
Y684000D01*
X599000Y708000D02*
X824000D01*
Y538000D02*
Y708000D01*
X599000Y538000D02*
X824000D01*
X599000D02*
Y708000D01*
Y538000D02*
X614000D01*
X809000D02*
X824000D01*
X809000Y708000D02*
X824000D01*
D19*
X980000Y50000D02*
G03*
X980000Y50000I-30000J0D01*
G01*
X80000D02*
G03*
X80000Y50000I-30000J0D01*
G01*
X980000Y950000D02*
G03*
X980000Y950000I-30000J0D01*
G01*
X80000D02*
G03*
X80000Y950000I-30000J0D01*
G01*
D35*
X784000Y568000D02*
G03*
X784000Y568000I-14000J0D01*
G01*
X783000Y680000D02*
G03*
X783000Y680000I-14000J0D01*
G01*
X668000Y568000D02*
G03*
X668000Y568000I-14000J0D01*
G01*
Y679000D02*
G03*
X668000Y679000I-14000J0D01*
G01*
X433000Y865000D02*
X527000D01*
X573000Y866000D02*
X667000D01*
X713000Y870000D02*
X807000D01*
X852000D02*
X946000D01*
X600099Y717056D02*
Y732291D01*
X605178Y727213D01*
X610256Y732291D01*
Y717056D01*
X622952Y732291D02*
X617873D01*
X615334Y729752D01*
Y719595D01*
X617873Y717056D01*
X622952D01*
X625491Y719595D01*
Y729752D01*
X622952Y732291D01*
X630569D02*
Y717056D01*
X638187D01*
X640726Y719595D01*
Y729752D01*
X638187Y732291D01*
X630569D01*
X645804Y717056D02*
X650883D01*
X648344D01*
Y732291D01*
X645804Y729752D01*
D36*
X342204Y891137D02*
G03*
X326000Y891000I-7936J-19704D01*
G01*
Y861000D02*
G03*
X342225Y860983I8134J19624D01*
G01*
X457863Y727205D02*
G03*
X458000Y711000I19704J-7936D01*
G01*
X488000D02*
G03*
X488018Y727225I-19624J8134D01*
G01*
X457863Y751205D02*
G03*
X458000Y735000I19704J-7936D01*
G01*
X488000D02*
G03*
X488018Y751226I-19624J8134D01*
G01*
X457863Y702205D02*
G03*
X458000Y686000I19704J-7936D01*
G01*
X488000D02*
G03*
X488018Y702225I-19624J8134D01*
G01*
X849000Y323000D02*
G03*
X832775Y323017I-8134J-19624D01*
G01*
X832795Y292863D02*
G03*
X849000Y293000I7936J19704D01*
G01*
X363137Y488796D02*
G03*
X363000Y505000I-19704J7936D01*
G01*
X333000D02*
G03*
X332982Y488774I19624J-8134D01*
G01*
X363028Y342893D02*
G03*
X363046Y359118I-19624J8134D01*
G01*
X332891Y359097D02*
G03*
X333028Y342893I19704J-7936D01*
G01*
X554000Y250000D02*
G03*
X537775Y250018I-8134J-19624D01*
G01*
X537795Y219863D02*
G03*
X554000Y220000I7936J19704D01*
G01*
X143863Y67204D02*
G03*
X144000Y51000I19704J-7936D01*
G01*
X174000D02*
G03*
X174018Y67225I-19624J8134D01*
G01*
X147000Y534000D02*
G03*
X130774Y534017I-8134J-19624D01*
G01*
X130795Y503863D02*
G03*
X147000Y504000I7936J19704D01*
G01*
X315137Y576796D02*
G03*
X315000Y593000I-19704J7936D01*
G01*
X285000D02*
G03*
X284983Y576774I19624J-8134D01*
G01*
X774500Y310250D02*
X791250D01*
X774500Y337750D02*
X791250D01*
X774500Y310250D02*
Y337750D01*
X791250Y310250D02*
Y337750D01*
X749500Y310250D02*
X766250D01*
X749500Y337750D02*
X766250D01*
X749500Y310250D02*
Y337750D01*
X766250Y310250D02*
Y337750D01*
X724500Y310250D02*
X741250D01*
X724500Y337750D02*
X741250D01*
X724500Y310250D02*
Y337750D01*
X741250Y310250D02*
Y337750D01*
X698500Y310250D02*
X715250D01*
X698500Y337750D02*
X715250D01*
X698500Y310250D02*
Y337750D01*
X715250Y310250D02*
Y337750D01*
X673500Y310250D02*
X690250D01*
X673500Y337750D02*
X690250D01*
X673500Y310250D02*
Y337750D01*
X690250Y310250D02*
Y337750D01*
X648500Y310250D02*
X665250D01*
X648500Y337750D02*
X665250D01*
X648500Y310250D02*
Y337750D01*
X665250Y310250D02*
Y337750D01*
X622500Y310250D02*
X639250D01*
X622500Y337750D02*
X639250D01*
X622500Y310250D02*
Y337750D01*
X639250Y310250D02*
Y337750D01*
X324250Y642750D02*
Y659500D01*
X351750Y642750D02*
Y659500D01*
X324250D02*
X351750D01*
X324250Y642750D02*
X351750D01*
X324250Y667750D02*
Y684500D01*
X351750Y667750D02*
Y684500D01*
X324250D02*
X351750D01*
X324250Y667750D02*
X351750D01*
X324250Y692750D02*
Y709500D01*
X351750Y692750D02*
Y709500D01*
X324250D02*
X351750D01*
X324250Y692750D02*
X351750D01*
X324250Y718750D02*
Y735500D01*
X351750Y718750D02*
Y735500D01*
X324250D02*
X351750D01*
X324250Y718750D02*
X351750D01*
X324250Y743750D02*
Y760500D01*
X351750Y743750D02*
Y760500D01*
X324250D02*
X351750D01*
X324250Y743750D02*
X351750D01*
X324250Y769750D02*
Y786500D01*
X351750Y769750D02*
Y786500D01*
X324250D02*
X351750D01*
X324250Y769750D02*
X351750D01*
X324250Y794750D02*
Y811500D01*
X351750Y794750D02*
Y811500D01*
X324250D02*
X351750D01*
X324250Y794750D02*
X351750D01*
X926250Y324510D02*
X943000D01*
X926250Y291490D02*
X943000D01*
Y324510D01*
X926250Y291490D02*
Y324510D01*
X971250Y291490D02*
Y324510D01*
X954500Y291490D02*
Y324510D01*
X971250D01*
X954500Y291490D02*
X971250D01*
X869750Y324510D02*
X886500D01*
X869750Y291490D02*
X886500D01*
Y324510D01*
X869750Y291490D02*
Y324510D01*
X325750Y861250D02*
Y890750D01*
X342250Y861000D02*
Y891000D01*
X500000Y841000D02*
Y851000D01*
X495000Y796000D02*
X505000D01*
X500000Y791000D02*
Y801000D01*
X640000Y792000D02*
Y802000D01*
X635000Y797000D02*
X645000D01*
X640000Y842000D02*
Y852000D01*
X780000Y796000D02*
Y806000D01*
X775000Y801000D02*
X785000D01*
X780000Y846000D02*
Y856000D01*
X919000Y846000D02*
Y856000D01*
X914000Y801000D02*
X924000D01*
X919000Y796000D02*
Y806000D01*
X458250Y710750D02*
X487750D01*
X458000Y727250D02*
X488000D01*
X458250Y734750D02*
X487750D01*
X458000Y751250D02*
X488000D01*
X458250Y685750D02*
X487750D01*
X458000Y702250D02*
X488000D01*
X898000Y291490D02*
X914750D01*
X898000Y324510D02*
X914750D01*
X898000Y291490D02*
Y324510D01*
X914750Y291490D02*
Y324510D01*
X832750Y293000D02*
Y323000D01*
X849250Y293250D02*
Y322750D01*
X911750Y510510D02*
X928500D01*
X911750Y477490D02*
X928500D01*
Y510510D01*
X911750Y477490D02*
Y510510D01*
X954750D02*
X971500D01*
X954750Y477490D02*
X971500D01*
Y510510D01*
X954750Y477490D02*
Y510510D01*
X333250Y505250D02*
X362750D01*
X333000Y488750D02*
X363000D01*
X331490Y478250D02*
X364510D01*
X331490Y461500D02*
X364510D01*
X331490D02*
Y478250D01*
X364510Y461500D02*
Y478250D01*
Y431785D02*
Y448535D01*
X331490Y431785D02*
Y448535D01*
Y431785D02*
X364510D01*
X331490Y448535D02*
X364510D01*
X331490Y418821D02*
X364510D01*
X331490Y402071D02*
X364510D01*
X331490D02*
Y418821D01*
X364510Y402071D02*
Y418821D01*
X331490Y62250D02*
X364510D01*
X331490Y45500D02*
X364510D01*
X331490D02*
Y62250D01*
X364510Y45500D02*
Y62250D01*
X331490Y91964D02*
X364510D01*
X331490Y75214D02*
X364510D01*
X331490D02*
Y91964D01*
X364510Y75214D02*
Y91964D01*
Y104929D02*
Y121678D01*
X331490Y104929D02*
Y121678D01*
Y104929D02*
X364510D01*
X331490Y121678D02*
X364510D01*
X331490Y151393D02*
X364510D01*
X331490Y134643D02*
X364510D01*
X331490D02*
Y151393D01*
X364510Y134643D02*
Y151393D01*
X331490Y181107D02*
X364510D01*
X331490Y164357D02*
X364510D01*
X331490D02*
Y181107D01*
X364510Y164357D02*
Y181107D01*
Y194071D02*
Y210821D01*
X331490Y194071D02*
Y210821D01*
Y194071D02*
X364510D01*
X331490Y210821D02*
X364510D01*
Y223786D02*
Y240536D01*
X331490Y223786D02*
Y240536D01*
Y223786D02*
X364510D01*
X331490Y240536D02*
X364510D01*
X331490Y270250D02*
X364510D01*
X331490Y253500D02*
X364510D01*
X331490D02*
Y270250D01*
X364510Y253500D02*
Y270250D01*
X331490Y299964D02*
X364510D01*
X331490Y283214D02*
X364510D01*
X331490D02*
Y299964D01*
X364510Y283214D02*
Y299964D01*
Y312928D02*
Y329678D01*
X331490Y312928D02*
Y329678D01*
Y312928D02*
X364510D01*
X331490Y329678D02*
X364510D01*
X333028Y359143D02*
X363028D01*
X333278Y342643D02*
X362778D01*
X364510Y372357D02*
Y389107D01*
X331490Y372357D02*
Y389107D01*
Y372357D02*
X364510D01*
X331490Y389107D02*
X364510D01*
X537750Y220000D02*
Y250000D01*
X554250Y220250D02*
Y249750D01*
X500000Y121500D02*
X522000D01*
X500000Y166500D02*
X522000D01*
X500000Y121500D02*
Y166500D01*
X522000Y121500D02*
Y166500D01*
X582000Y122500D02*
Y167500D01*
X560000Y122500D02*
Y167500D01*
X582000D01*
X560000Y122500D02*
X582000D01*
X642000D02*
Y167500D01*
X620000Y122500D02*
Y167500D01*
X642000D01*
X620000Y122500D02*
X642000D01*
X680000D02*
X702000D01*
X680000Y167500D02*
X702000D01*
X680000Y122500D02*
Y167500D01*
X702000Y122500D02*
Y167500D01*
X762000Y122500D02*
Y167500D01*
X740000Y122500D02*
Y167500D01*
X762000D01*
X740000Y122500D02*
X762000D01*
X800000D02*
X822000D01*
X800000Y167500D02*
X822000D01*
X800000Y122500D02*
Y167500D01*
X822000Y122500D02*
Y167500D01*
X882000Y122500D02*
Y167500D01*
X860000Y122500D02*
Y167500D01*
X882000D01*
X860000Y122500D02*
X882000D01*
X144250Y50750D02*
X173750D01*
X144000Y67250D02*
X174000D01*
X143490Y81750D02*
Y98500D01*
X176510Y81750D02*
Y98500D01*
X143490D02*
X176510D01*
X143490Y81750D02*
X176510D01*
X143490Y118750D02*
X176510D01*
X143490Y135500D02*
X176510D01*
Y118750D02*
Y135500D01*
X143490Y118750D02*
Y135500D01*
Y183600D02*
Y200350D01*
X176510Y183600D02*
Y200350D01*
X143490D02*
X176510D01*
X143490Y183600D02*
X176510D01*
X143490Y248750D02*
X176510D01*
X143490Y265500D02*
X176510D01*
Y248750D02*
Y265500D01*
X143490Y248750D02*
Y265500D01*
Y310600D02*
Y327350D01*
X176510Y310600D02*
Y327350D01*
X143490D02*
X176510D01*
X143490Y310600D02*
X176510D01*
X143490Y372750D02*
X176510D01*
X143490Y389500D02*
X176510D01*
Y372750D02*
Y389500D01*
X143490Y372750D02*
Y389500D01*
Y436750D02*
X176510D01*
X143490Y453500D02*
X176510D01*
Y436750D02*
Y453500D01*
X143490Y436750D02*
Y453500D01*
X130750Y504000D02*
Y534000D01*
X147250Y504250D02*
Y533750D01*
X180500Y562000D02*
Y584000D01*
X135500Y562000D02*
Y584000D01*
Y562000D02*
X180500D01*
X135500Y584000D02*
X180500D01*
Y612500D02*
Y634500D01*
X135500Y612500D02*
Y634500D01*
Y612500D02*
X180500D01*
X135500Y634500D02*
X180500D01*
X135500Y685000D02*
X180500D01*
X135500Y663000D02*
X180500D01*
X135500D02*
Y685000D01*
X180500Y663000D02*
Y685000D01*
Y713500D02*
Y735500D01*
X135500Y713500D02*
Y735500D01*
Y713500D02*
X180500D01*
X135500Y735500D02*
X180500D01*
X135500Y786000D02*
X180500D01*
X135500Y764000D02*
X180500D01*
X135500D02*
Y786000D01*
X180500Y764000D02*
Y786000D01*
Y814500D02*
Y836500D01*
X135500Y814500D02*
Y836500D01*
Y814500D02*
X180500D01*
X135500Y836500D02*
X180500D01*
X135500Y889000D02*
X180500D01*
X135500Y867000D02*
X180500D01*
X135500D02*
Y889000D01*
X180500Y867000D02*
Y889000D01*
X285250Y593250D02*
X314750D01*
X285000Y576750D02*
X315000D01*
X784000Y343000D02*
X776003D01*
Y346999D01*
X777336Y348332D01*
X780001D01*
X781334Y346999D01*
Y343000D01*
Y345666D02*
X784000Y348332D01*
Y354996D02*
X776003D01*
X780001Y350997D01*
Y356329D01*
X782667Y358995D02*
X784000Y360328D01*
Y362994D01*
X782667Y364326D01*
X777336D01*
X776003Y362994D01*
Y360328D01*
X777336Y358995D01*
X778668D01*
X780001Y360328D01*
Y364326D01*
X761000Y343000D02*
X753003D01*
Y346999D01*
X754335Y348332D01*
X757001D01*
X758334Y346999D01*
Y343000D01*
Y345666D02*
X761000Y348332D01*
X753003Y356329D02*
Y350997D01*
X757001D01*
X755668Y353663D01*
Y354996D01*
X757001Y356329D01*
X759667D01*
X761000Y354996D01*
Y352330D01*
X759667Y350997D01*
X754335Y358995D02*
X753003Y360328D01*
Y362994D01*
X754335Y364326D01*
X759667D01*
X761000Y362994D01*
Y360328D01*
X759667Y358995D01*
X754335D01*
X737000Y343000D02*
X729003D01*
Y346999D01*
X730335Y348332D01*
X733001D01*
X734334Y346999D01*
Y343000D01*
Y345666D02*
X737000Y348332D01*
X729003Y356329D02*
Y350997D01*
X733001D01*
X731668Y353663D01*
Y354996D01*
X733001Y356329D01*
X735667D01*
X737000Y354996D01*
Y352330D01*
X735667Y350997D01*
X737000Y358995D02*
Y361661D01*
Y360328D01*
X729003D01*
X730335Y358995D01*
X711000Y343000D02*
X703003D01*
Y346999D01*
X704335Y348332D01*
X707001D01*
X708334Y346999D01*
Y343000D01*
Y345666D02*
X711000Y348332D01*
X703003Y356329D02*
Y350997D01*
X707001D01*
X705668Y353663D01*
Y354996D01*
X707001Y356329D01*
X709667D01*
X711000Y354996D01*
Y352330D01*
X709667Y350997D01*
X711000Y364326D02*
Y358995D01*
X705668Y364326D01*
X704335D01*
X703003Y362994D01*
Y360328D01*
X704335Y358995D01*
X686000Y343000D02*
X678003D01*
Y346999D01*
X679335Y348332D01*
X682001D01*
X683334Y346999D01*
Y343000D01*
Y345666D02*
X686000Y348332D01*
X678003Y356329D02*
Y350997D01*
X682001D01*
X680668Y353663D01*
Y354996D01*
X682001Y356329D01*
X684667D01*
X686000Y354996D01*
Y352330D01*
X684667Y350997D01*
X679335Y358995D02*
X678003Y360328D01*
Y362994D01*
X679335Y364326D01*
X680668D01*
X682001Y362994D01*
Y361661D01*
Y362994D01*
X683334Y364326D01*
X684667D01*
X686000Y362994D01*
Y360328D01*
X684667Y358995D01*
X662000Y343000D02*
X654003D01*
Y346999D01*
X655335Y348332D01*
X658001D01*
X659334Y346999D01*
Y343000D01*
Y345666D02*
X662000Y348332D01*
X654003Y356329D02*
Y350997D01*
X658001D01*
X656668Y353663D01*
Y354996D01*
X658001Y356329D01*
X660667D01*
X662000Y354996D01*
Y352330D01*
X660667Y350997D01*
X662000Y362994D02*
X654003D01*
X658001Y358995D01*
Y364326D01*
X635000Y343000D02*
X627003D01*
Y346999D01*
X628335Y348332D01*
X631001D01*
X632334Y346999D01*
Y343000D01*
Y345666D02*
X635000Y348332D01*
X627003Y356329D02*
Y350997D01*
X631001D01*
X629668Y353663D01*
Y354996D01*
X631001Y356329D01*
X633667D01*
X635000Y354996D01*
Y352330D01*
X633667Y350997D01*
X627003Y364326D02*
Y358995D01*
X631001D01*
X629668Y361661D01*
Y362994D01*
X631001Y364326D01*
X633667D01*
X635000Y362994D01*
Y360328D01*
X633667Y358995D01*
X354000Y641000D02*
Y648997D01*
X357999D01*
X359332Y647664D01*
Y644999D01*
X357999Y643666D01*
X354000D01*
X356666D02*
X359332Y641000D01*
X365996D02*
Y648997D01*
X361997Y644999D01*
X367329D01*
X375326Y641000D02*
X369995D01*
X375326Y646332D01*
Y647664D01*
X373994Y648997D01*
X371328D01*
X369995Y647664D01*
X355000Y672000D02*
Y679997D01*
X358999D01*
X360332Y678664D01*
Y675999D01*
X358999Y674666D01*
X355000D01*
X357666D02*
X360332Y672000D01*
X366996D02*
Y679997D01*
X362997Y675999D01*
X368329D01*
X370995Y678664D02*
X372328Y679997D01*
X374994D01*
X376326Y678664D01*
Y677332D01*
X374994Y675999D01*
X373661D01*
X374994D01*
X376326Y674666D01*
Y673333D01*
X374994Y672000D01*
X372328D01*
X370995Y673333D01*
X356000Y696000D02*
Y703997D01*
X359999D01*
X361332Y702664D01*
Y699999D01*
X359999Y698666D01*
X356000D01*
X358666D02*
X361332Y696000D01*
X367996D02*
Y703997D01*
X363997Y699999D01*
X369329D01*
X375994Y696000D02*
Y703997D01*
X371995Y699999D01*
X377326D01*
X356000Y724000D02*
Y731997D01*
X359999D01*
X361332Y730665D01*
Y727999D01*
X359999Y726666D01*
X356000D01*
X358666D02*
X361332Y724000D01*
X367996D02*
Y731997D01*
X363997Y727999D01*
X369329D01*
X377326Y731997D02*
X371995D01*
Y727999D01*
X374661Y729332D01*
X375994D01*
X377326Y727999D01*
Y725333D01*
X375994Y724000D01*
X373328D01*
X371995Y725333D01*
X356000Y747000D02*
Y754997D01*
X359999D01*
X361332Y753664D01*
Y750999D01*
X359999Y749666D01*
X356000D01*
X358666D02*
X361332Y747000D01*
X367996D02*
Y754997D01*
X363997Y750999D01*
X369329D01*
X377326Y754997D02*
X374661Y753664D01*
X371995Y750999D01*
Y748333D01*
X373328Y747000D01*
X375994D01*
X377326Y748333D01*
Y749666D01*
X375994Y750999D01*
X371995D01*
X356000Y773000D02*
Y780997D01*
X359999D01*
X361332Y779665D01*
Y776999D01*
X359999Y775666D01*
X356000D01*
X358666D02*
X361332Y773000D01*
X367996D02*
Y780997D01*
X363997Y776999D01*
X369329D01*
X371995Y780997D02*
X377326D01*
Y779665D01*
X371995Y774333D01*
Y773000D01*
X356000Y797000D02*
Y804997D01*
X359999D01*
X361332Y803664D01*
Y800999D01*
X359999Y799666D01*
X356000D01*
X358666D02*
X361332Y797000D01*
X367996D02*
Y804997D01*
X363997Y800999D01*
X369329D01*
X371995Y803664D02*
X373328Y804997D01*
X375994D01*
X377326Y803664D01*
Y802332D01*
X375994Y800999D01*
X377326Y799666D01*
Y798333D01*
X375994Y797000D01*
X373328D01*
X371995Y798333D01*
Y799666D01*
X373328Y800999D01*
X371995Y802332D01*
Y803664D01*
X373328Y800999D02*
X375994D01*
D37*
X282498Y647500D02*
G03*
X282498Y647500I-2502J0D01*
G01*
X789002Y269996D02*
G03*
X789002Y269996I-2502J0D01*
G01*
D38*
X545000Y821000D02*
G03*
X545000Y821000I-65000J0D01*
G01*
X685000Y822000D02*
G03*
X685000Y822000I-65000J0D01*
G01*
X825000Y826000D02*
G03*
X825000Y826000I-65000J0D01*
G01*
X964000D02*
G03*
X964000Y826000I-65000J0D01*
G01*
D39*
X904000Y433000D02*
G03*
X904000Y433000I-1000J0D01*
G01*
X966000Y435000D02*
G03*
X966000Y435000I-1000J0D01*
G01*
X229000Y450081D02*
G03*
X229000Y450081I-1000J0D01*
G01*
Y386092D02*
G03*
X229000Y386092I-1000J0D01*
G01*
Y322104D02*
G03*
X229000Y322104I-1000J0D01*
G01*
Y258115D02*
G03*
X229000Y258115I-1000J0D01*
G01*
Y194127D02*
G03*
X229000Y194127I-1000J0D01*
G01*
Y130139D02*
G03*
X229000Y130139I-1000J0D01*
G01*
Y66150D02*
G03*
X229000Y66150I-1000J0D01*
G01*
X384000Y650000D02*
Y674000D01*
Y650000D02*
X396000Y662000D01*
X384000Y674000D02*
X396000Y662000D01*
X400000Y413000D02*
Y475000D01*
X391000Y413000D02*
X400000D01*
X391000D02*
Y475000D01*
X400000D01*
X912000Y377000D02*
Y437000D01*
X866000Y377000D02*
X912000D01*
X866000D02*
Y437000D01*
X912000D01*
X974000Y379000D02*
Y439000D01*
X928000Y379000D02*
X974000D01*
X928000D02*
Y439000D01*
X974000D01*
X224000Y459081D02*
X284000D01*
Y413081D02*
Y459081D01*
X224000Y413081D02*
X284000D01*
X224000D02*
Y459081D01*
Y395092D02*
X284000D01*
Y349092D02*
Y395092D01*
X224000Y349092D02*
X284000D01*
X224000D02*
Y395092D01*
Y331104D02*
X284000D01*
Y285104D02*
Y331104D01*
X224000Y285104D02*
X284000D01*
X224000D02*
Y331104D01*
Y267115D02*
X284000D01*
Y221115D02*
Y267115D01*
X224000Y221115D02*
X284000D01*
X224000D02*
Y267115D01*
Y203127D02*
X284000D01*
Y157127D02*
Y203127D01*
X224000Y157127D02*
X284000D01*
X224000D02*
Y203127D01*
Y139138D02*
X284000D01*
Y93139D02*
Y139138D01*
X224000Y93139D02*
X284000D01*
X224000D02*
Y139138D01*
Y75150D02*
X284000D01*
Y29150D02*
Y75150D01*
X224000Y29150D02*
X284000D01*
X224000D02*
Y75150D01*
X940000Y259940D02*
X929003D01*
Y265438D01*
X930836Y267271D01*
X934502D01*
X936334Y265438D01*
Y259940D01*
Y263605D02*
X940000Y267271D01*
Y270936D02*
Y274601D01*
Y272769D01*
X929003D01*
X930836Y270936D01*
X940000Y287431D02*
Y280100D01*
X932669Y287431D01*
X930836D01*
X929003Y285598D01*
Y281933D01*
X930836Y280100D01*
X970000Y265000D02*
X959004D01*
Y270498D01*
X960836Y272331D01*
X964502D01*
X966335Y270498D01*
Y265000D01*
Y268666D02*
X970000Y272331D01*
X960836Y275996D02*
X959004Y277829D01*
Y281495D01*
X960836Y283327D01*
X962669D01*
X964502Y281495D01*
X966335Y283327D01*
X968167D01*
X970000Y281495D01*
Y277829D01*
X968167Y275996D01*
X966335D01*
X964502Y277829D01*
X962669Y275996D01*
X960836D01*
X964502Y277829D02*
Y281495D01*
X884000Y268000D02*
X873004D01*
Y273498D01*
X874836Y275331D01*
X878502D01*
X880334Y273498D01*
Y268000D01*
Y271665D02*
X884000Y275331D01*
X874836Y278996D02*
X873004Y280829D01*
Y284495D01*
X874836Y286327D01*
X876669D01*
X878502Y284495D01*
Y282662D01*
Y284495D01*
X880334Y286327D01*
X882167D01*
X884000Y284495D01*
Y280829D01*
X882167Y278996D01*
X650000Y31997D02*
X657331Y21000D01*
Y31997D02*
X650000Y21000D01*
X660996D02*
Y31997D01*
X666495D01*
X668327Y30164D01*
Y26498D01*
X666495Y24666D01*
X660996D01*
X679324Y31997D02*
X671993D01*
Y26498D01*
X675658Y28331D01*
X677491D01*
X679324Y26498D01*
Y22833D01*
X677491Y21000D01*
X673826D01*
X671993Y22833D01*
X27004Y679000D02*
X38000Y686331D01*
X27004D02*
X38000Y679000D01*
Y689996D02*
X27004D01*
Y695495D01*
X28836Y697327D01*
X32502D01*
X34334Y695495D01*
Y689996D01*
X28836Y700993D02*
X27004Y702826D01*
Y706491D01*
X28836Y708324D01*
X30669D01*
X32502Y706491D01*
Y704658D01*
Y706491D01*
X34334Y708324D01*
X36167D01*
X38000Y706491D01*
Y702826D01*
X36167Y700993D01*
X29004Y258000D02*
X40000Y265331D01*
X29004D02*
X40000Y258000D01*
Y268996D02*
X29004D01*
Y274495D01*
X30836Y276327D01*
X34502D01*
X36335Y274495D01*
Y268996D01*
X40000Y287324D02*
Y279993D01*
X32669Y287324D01*
X30836D01*
X29004Y285491D01*
Y281826D01*
X30836Y279993D01*
X498000Y978996D02*
X505331Y968000D01*
Y978996D02*
X498000Y968000D01*
X508996D02*
Y978996D01*
X514495D01*
X516327Y977164D01*
Y973498D01*
X514495Y971665D01*
X508996D01*
X519993Y968000D02*
X523658D01*
X521826D01*
Y978996D01*
X519993Y977164D01*
X411000Y156996D02*
X418331Y146000D01*
Y156996D02*
X411000Y146000D01*
X421996D02*
Y156996D01*
X427495D01*
X429327Y155164D01*
Y151498D01*
X427495Y149665D01*
X421996D01*
X438491Y146000D02*
Y156996D01*
X432993Y151498D01*
X440324D01*
X148000Y893000D02*
Y903996D01*
X153498D01*
X155331Y902164D01*
Y898498D01*
X153498Y896665D01*
X148000D01*
X151665D02*
X155331Y893000D01*
X158996D02*
X162662D01*
X160829D01*
Y903996D01*
X158996Y902164D01*
X168160Y894833D02*
X169993Y893000D01*
X173658D01*
X175491Y894833D01*
Y902164D01*
X173658Y903996D01*
X169993D01*
X168160Y902164D01*
Y900331D01*
X169993Y898498D01*
X175491D01*
X334000Y30000D02*
Y40996D01*
X339498D01*
X341331Y39164D01*
Y35498D01*
X339498Y33665D01*
X334000D01*
X337665D02*
X341331Y30000D01*
X350495D02*
Y40996D01*
X344996Y35498D01*
X352327D01*
X355993Y39164D02*
X357826Y40996D01*
X361491D01*
X363324Y39164D01*
Y31833D01*
X361491Y30000D01*
X357826D01*
X355993Y31833D01*
Y39164D01*
X145000Y101000D02*
Y111996D01*
X150498D01*
X152331Y110164D01*
Y106498D01*
X150498Y104665D01*
X145000D01*
X148666D02*
X152331Y101000D01*
X155996Y110164D02*
X157829Y111996D01*
X161495D01*
X163327Y110164D01*
Y108331D01*
X161495Y106498D01*
X159662D01*
X161495D01*
X163327Y104665D01*
Y102833D01*
X161495Y101000D01*
X157829D01*
X155996Y102833D01*
X166993D02*
X168826Y101000D01*
X172491D01*
X174324Y102833D01*
Y110164D01*
X172491Y111996D01*
X168826D01*
X166993Y110164D01*
Y108331D01*
X168826Y106498D01*
X174324D01*
X148000Y841000D02*
Y851996D01*
X153498D01*
X155331Y850164D01*
Y846498D01*
X153498Y844666D01*
X148000D01*
X151665D02*
X155331Y841000D01*
X158996D02*
X162662D01*
X160829D01*
Y851996D01*
X158996Y850164D01*
X168160D02*
X169993Y851996D01*
X173658D01*
X175491Y850164D01*
Y848331D01*
X173658Y846498D01*
X175491Y844666D01*
Y842833D01*
X173658Y841000D01*
X169993D01*
X168160Y842833D01*
Y844666D01*
X169993Y846498D01*
X168160Y848331D01*
Y850164D01*
X169993Y846498D02*
X173658D01*
X369000Y138000D02*
Y148996D01*
X374498D01*
X376331Y147164D01*
Y143498D01*
X374498Y141665D01*
X369000D01*
X372665D02*
X376331Y138000D01*
X379996Y147164D02*
X381829Y148996D01*
X385495D01*
X387327Y147164D01*
Y145331D01*
X385495Y143498D01*
X383662D01*
X385495D01*
X387327Y141665D01*
Y139833D01*
X385495Y138000D01*
X381829D01*
X379996Y139833D01*
X390993Y147164D02*
X392826Y148996D01*
X396491D01*
X398324Y147164D01*
Y145331D01*
X396491Y143498D01*
X398324Y141665D01*
Y139833D01*
X396491Y138000D01*
X392826D01*
X390993Y139833D01*
Y141665D01*
X392826Y143498D01*
X390993Y145331D01*
Y147164D01*
X392826Y143498D02*
X396491D01*
X369000Y107000D02*
Y117996D01*
X374498D01*
X376331Y116164D01*
Y112498D01*
X374498Y110666D01*
X369000D01*
X372665D02*
X376331Y107000D01*
X379996Y116164D02*
X381829Y117996D01*
X385495D01*
X387327Y116164D01*
Y114331D01*
X385495Y112498D01*
X383662D01*
X385495D01*
X387327Y110666D01*
Y108833D01*
X385495Y107000D01*
X381829D01*
X379996Y108833D01*
X390993Y117996D02*
X398324D01*
Y116164D01*
X390993Y108833D01*
Y107000D01*
X146000Y140000D02*
Y150996D01*
X151498D01*
X153331Y149164D01*
Y145498D01*
X151498Y143666D01*
X146000D01*
X149665D02*
X153331Y140000D01*
X156996Y149164D02*
X158829Y150996D01*
X162495D01*
X164327Y149164D01*
Y147331D01*
X162495Y145498D01*
X160662D01*
X162495D01*
X164327Y143666D01*
Y141833D01*
X162495Y140000D01*
X158829D01*
X156996Y141833D01*
X175324Y150996D02*
X171658Y149164D01*
X167993Y145498D01*
Y141833D01*
X169826Y140000D01*
X173491D01*
X175324Y141833D01*
Y143666D01*
X173491Y145498D01*
X167993D01*
X148000Y790000D02*
Y800996D01*
X153498D01*
X155331Y799164D01*
Y795498D01*
X153498Y793665D01*
X148000D01*
X151665D02*
X155331Y790000D01*
X158996D02*
X162662D01*
X160829D01*
Y800996D01*
X158996Y799164D01*
X168160Y800996D02*
X175491D01*
Y799164D01*
X168160Y791833D01*
Y790000D01*
X368000Y195000D02*
Y205996D01*
X373498D01*
X375331Y204164D01*
Y200498D01*
X373498Y198666D01*
X368000D01*
X371665D02*
X375331Y195000D01*
X378996Y204164D02*
X380829Y205996D01*
X384495D01*
X386327Y204164D01*
Y202331D01*
X384495Y200498D01*
X382662D01*
X384495D01*
X386327Y198666D01*
Y196833D01*
X384495Y195000D01*
X380829D01*
X378996Y196833D01*
X397324Y205996D02*
X389993D01*
Y200498D01*
X393658Y202331D01*
X395491D01*
X397324Y200498D01*
Y196833D01*
X395491Y195000D01*
X391826D01*
X389993Y196833D01*
X368000Y167000D02*
Y177996D01*
X373498D01*
X375331Y176164D01*
Y172498D01*
X373498Y170665D01*
X368000D01*
X371665D02*
X375331Y167000D01*
X378996Y176164D02*
X380829Y177996D01*
X384495D01*
X386327Y176164D01*
Y174331D01*
X384495Y172498D01*
X382662D01*
X384495D01*
X386327Y170665D01*
Y168833D01*
X384495Y167000D01*
X380829D01*
X378996Y168833D01*
X395491Y167000D02*
Y177996D01*
X389993Y172498D01*
X397324D01*
X146000Y206000D02*
Y216996D01*
X151498D01*
X153331Y215164D01*
Y211498D01*
X151498Y209666D01*
X146000D01*
X149665D02*
X153331Y206000D01*
X156996Y215164D02*
X158829Y216996D01*
X162495D01*
X164327Y215164D01*
Y213331D01*
X162495Y211498D01*
X160662D01*
X162495D01*
X164327Y209666D01*
Y207833D01*
X162495Y206000D01*
X158829D01*
X156996Y207833D01*
X167993Y215164D02*
X169826Y216996D01*
X173491D01*
X175324Y215164D01*
Y213331D01*
X173491Y211498D01*
X171658D01*
X173491D01*
X175324Y209666D01*
Y207833D01*
X173491Y206000D01*
X169826D01*
X167993Y207833D01*
X148000Y740000D02*
Y750996D01*
X153498D01*
X155331Y749164D01*
Y745498D01*
X153498Y743665D01*
X148000D01*
X151665D02*
X155331Y740000D01*
X158996D02*
X162662D01*
X160829D01*
Y750996D01*
X158996Y749164D01*
X175491Y750996D02*
X171826Y749164D01*
X168160Y745498D01*
Y741833D01*
X169993Y740000D01*
X173658D01*
X175491Y741833D01*
Y743665D01*
X173658Y745498D01*
X168160D01*
X368000Y257000D02*
Y267996D01*
X373498D01*
X375331Y266164D01*
Y262498D01*
X373498Y260665D01*
X368000D01*
X371665D02*
X375331Y257000D01*
X386327D02*
X378996D01*
X386327Y264331D01*
Y266164D01*
X384495Y267996D01*
X380829D01*
X378996Y266164D01*
X397324Y267996D02*
X389993D01*
Y262498D01*
X393658Y264331D01*
X395491D01*
X397324Y262498D01*
Y258833D01*
X395491Y257000D01*
X391826D01*
X389993Y258833D01*
X368000Y226000D02*
Y236996D01*
X373498D01*
X375331Y235164D01*
Y231498D01*
X373498Y229666D01*
X368000D01*
X371665D02*
X375331Y226000D01*
X386327D02*
X378996D01*
X386327Y233331D01*
Y235164D01*
X384495Y236996D01*
X380829D01*
X378996Y235164D01*
X395491Y226000D02*
Y236996D01*
X389993Y231498D01*
X397324D01*
X146000Y270000D02*
Y280996D01*
X151498D01*
X153331Y279164D01*
Y275498D01*
X151498Y273666D01*
X146000D01*
X149665D02*
X153331Y270000D01*
X164327D02*
X156996D01*
X164327Y277331D01*
Y279164D01*
X162495Y280996D01*
X158829D01*
X156996Y279164D01*
X167993D02*
X169826Y280996D01*
X173491D01*
X175324Y279164D01*
Y277331D01*
X173491Y275498D01*
X171658D01*
X173491D01*
X175324Y273666D01*
Y271833D01*
X173491Y270000D01*
X169826D01*
X167993Y271833D01*
X148000Y691000D02*
Y701996D01*
X153498D01*
X155331Y700164D01*
Y696498D01*
X153498Y694666D01*
X148000D01*
X151665D02*
X155331Y691000D01*
X158996D02*
X162662D01*
X160829D01*
Y701996D01*
X158996Y700164D01*
X175491Y701996D02*
X168160D01*
Y696498D01*
X171826Y698331D01*
X173658D01*
X175491Y696498D01*
Y692833D01*
X173658Y691000D01*
X169993D01*
X168160Y692833D01*
X368000Y315000D02*
Y325997D01*
X373498D01*
X375331Y324164D01*
Y320498D01*
X373498Y318666D01*
X368000D01*
X371665D02*
X375331Y315000D01*
X386327D02*
X378996D01*
X386327Y322331D01*
Y324164D01*
X384495Y325997D01*
X380829D01*
X378996Y324164D01*
X397324Y315000D02*
X389993D01*
X397324Y322331D01*
Y324164D01*
X395491Y325997D01*
X391826D01*
X389993Y324164D01*
X368000Y285000D02*
Y295996D01*
X373498D01*
X375331Y294164D01*
Y290498D01*
X373498Y288666D01*
X368000D01*
X371665D02*
X375331Y285000D01*
X386327D02*
X378996D01*
X386327Y292331D01*
Y294164D01*
X384495Y295996D01*
X380829D01*
X378996Y294164D01*
X389993Y285000D02*
X393658D01*
X391826D01*
Y295996D01*
X389993Y294164D01*
X146000Y332000D02*
Y342996D01*
X151498D01*
X153331Y341164D01*
Y337498D01*
X151498Y335666D01*
X146000D01*
X149665D02*
X153331Y332000D01*
X164327D02*
X156996D01*
X164327Y339331D01*
Y341164D01*
X162495Y342996D01*
X158829D01*
X156996Y341164D01*
X167993D02*
X169826Y342996D01*
X173491D01*
X175324Y341164D01*
Y333833D01*
X173491Y332000D01*
X169826D01*
X167993Y333833D01*
Y341164D01*
X367000Y399000D02*
Y409996D01*
X372498D01*
X374331Y408164D01*
Y404498D01*
X372498Y402665D01*
X367000D01*
X370666D02*
X374331Y399000D01*
X377996D02*
X381662D01*
X379829D01*
Y409996D01*
X377996Y408164D01*
X387160D02*
X388993Y409996D01*
X392658D01*
X394491Y408164D01*
Y406331D01*
X392658Y404498D01*
X390826D01*
X392658D01*
X394491Y402665D01*
Y400833D01*
X392658Y399000D01*
X388993D01*
X387160Y400833D01*
X148000Y639000D02*
Y649996D01*
X153498D01*
X155331Y648164D01*
Y644498D01*
X153498Y642665D01*
X148000D01*
X151665D02*
X155331Y639000D01*
X158996D02*
X162662D01*
X160829D01*
Y649996D01*
X158996Y648164D01*
X173658Y639000D02*
Y649996D01*
X168160Y644498D01*
X175491D01*
X369000Y375000D02*
Y385997D01*
X374498D01*
X376331Y384164D01*
Y380498D01*
X374498Y378666D01*
X369000D01*
X372665D02*
X376331Y375000D01*
X379996D02*
X383662D01*
X381829D01*
Y385997D01*
X379996Y384164D01*
X389160D02*
X390993Y385997D01*
X394658D01*
X396491Y384164D01*
Y376833D01*
X394658Y375000D01*
X390993D01*
X389160Y376833D01*
Y384164D01*
X147000Y395000D02*
Y405996D01*
X152498D01*
X154331Y404164D01*
Y400498D01*
X152498Y398666D01*
X147000D01*
X150666D02*
X154331Y395000D01*
X157997Y396833D02*
X159829Y395000D01*
X163495D01*
X165327Y396833D01*
Y404164D01*
X163495Y405996D01*
X159829D01*
X157997Y404164D01*
Y402331D01*
X159829Y400498D01*
X165327D01*
X912000Y266000D02*
X901004D01*
Y271498D01*
X902836Y273331D01*
X906502D01*
X908335Y271498D01*
Y266000D01*
Y269666D02*
X912000Y273331D01*
Y284327D02*
Y276996D01*
X904669Y284327D01*
X902836D01*
X901004Y282495D01*
Y278829D01*
X902836Y276996D01*
X368000Y464000D02*
Y474996D01*
X373498D01*
X375331Y473164D01*
Y469498D01*
X373498Y467665D01*
X368000D01*
X371665D02*
X375331Y464000D01*
X386327Y474996D02*
X382662Y473164D01*
X378996Y469498D01*
Y465833D01*
X380829Y464000D01*
X384495D01*
X386327Y465833D01*
Y467665D01*
X384495Y469498D01*
X378996D01*
X369000Y435000D02*
Y445996D01*
X374498D01*
X376331Y444164D01*
Y440498D01*
X374498Y438666D01*
X369000D01*
X372665D02*
X376331Y435000D01*
X385495D02*
Y445996D01*
X379996Y440498D01*
X387327D01*
X148000Y420000D02*
Y430996D01*
X153498D01*
X155331Y429164D01*
Y425498D01*
X153498Y423666D01*
X148000D01*
X151665D02*
X155331Y420000D01*
X166327Y430996D02*
X158996D01*
Y425498D01*
X162662Y427331D01*
X164495D01*
X166327Y425498D01*
Y421833D01*
X164495Y420000D01*
X160829D01*
X158996Y421833D01*
X958000Y517000D02*
Y527996D01*
X963498D01*
X965331Y526164D01*
Y522498D01*
X963498Y520666D01*
X958000D01*
X961665D02*
X965331Y517000D01*
X968996Y527996D02*
X976327D01*
Y526164D01*
X968996Y518833D01*
Y517000D01*
X803000Y256996D02*
Y246000D01*
X808498D01*
X810331Y247833D01*
Y255164D01*
X808498Y256996D01*
X803000D01*
X813996Y255164D02*
X815829Y256996D01*
X819495D01*
X821327Y255164D01*
Y253331D01*
X819495Y251498D01*
X821327Y249666D01*
Y247833D01*
X819495Y246000D01*
X815829D01*
X813996Y247833D01*
Y249666D01*
X815829Y251498D01*
X813996Y253331D01*
Y255164D01*
X815829Y251498D02*
X819495D01*
X235000Y54996D02*
Y44000D01*
X240498D01*
X242331Y45833D01*
Y53164D01*
X240498Y54996D01*
X235000D01*
X245996Y44000D02*
X249662D01*
X247829D01*
Y54996D01*
X245996Y53164D01*
X262491Y44000D02*
X255160D01*
X262491Y51331D01*
Y53164D01*
X260658Y54996D01*
X256993D01*
X255160Y53164D01*
X239000Y118996D02*
Y108000D01*
X244498D01*
X246331Y109833D01*
Y117164D01*
X244498Y118996D01*
X239000D01*
X249996Y108000D02*
X253662D01*
X251829D01*
Y118996D01*
X249996Y117164D01*
X259160Y108000D02*
X262826D01*
X260993D01*
Y118996D01*
X259160Y117164D01*
X235000Y185996D02*
Y175000D01*
X240498D01*
X242331Y176833D01*
Y184164D01*
X240498Y185996D01*
X235000D01*
X245996Y175000D02*
X249662D01*
X247829D01*
Y185996D01*
X245996Y184164D01*
X255160D02*
X256993Y185996D01*
X260658D01*
X262491Y184164D01*
Y176833D01*
X260658Y175000D01*
X256993D01*
X255160Y176833D01*
Y184164D01*
X241000Y247997D02*
Y237000D01*
X246498D01*
X248331Y238833D01*
Y246164D01*
X246498Y247997D01*
X241000D01*
X251996Y238833D02*
X253829Y237000D01*
X257495D01*
X259327Y238833D01*
Y246164D01*
X257495Y247997D01*
X253829D01*
X251996Y246164D01*
Y244331D01*
X253829Y242498D01*
X259327D01*
X242000Y311996D02*
Y301000D01*
X247498D01*
X249331Y302833D01*
Y310164D01*
X247498Y311996D01*
X242000D01*
X252996D02*
X260327D01*
Y310164D01*
X252996Y302833D01*
Y301000D01*
X241000Y376996D02*
Y366000D01*
X246498D01*
X248331Y367833D01*
Y375164D01*
X246498Y376996D01*
X241000D01*
X259327D02*
X255662Y375164D01*
X251996Y371498D01*
Y367833D01*
X253829Y366000D01*
X257495D01*
X259327Y367833D01*
Y369665D01*
X257495Y371498D01*
X251996D01*
X876000Y411996D02*
Y401000D01*
X881498D01*
X883331Y402833D01*
Y410164D01*
X881498Y411996D01*
X876000D01*
X894327Y401000D02*
X886996D01*
X894327Y408331D01*
Y410164D01*
X892495Y411996D01*
X888829D01*
X886996Y410164D01*
X243000Y439996D02*
Y429000D01*
X248498D01*
X250331Y430833D01*
Y438164D01*
X248498Y439996D01*
X243000D01*
X253996Y438164D02*
X255829Y439996D01*
X259495D01*
X261327Y438164D01*
Y436331D01*
X259495Y434498D01*
X257662D01*
X259495D01*
X261327Y432665D01*
Y430833D01*
X259495Y429000D01*
X255829D01*
X253996Y430833D01*
X939000Y410996D02*
Y400000D01*
X944498D01*
X946331Y401833D01*
Y409164D01*
X944498Y410996D01*
X939000D01*
X955495Y400000D02*
Y410996D01*
X949996Y405498D01*
X957327D01*
X327331Y908164D02*
X325498Y909996D01*
X321833D01*
X320000Y908164D01*
Y900833D01*
X321833Y899000D01*
X325498D01*
X327331Y900833D01*
X330996Y908164D02*
X332829Y909996D01*
X336495D01*
X338327Y908164D01*
Y906331D01*
X336495Y904498D01*
X338327Y902665D01*
Y900833D01*
X336495Y899000D01*
X332829D01*
X330996Y900833D01*
Y902665D01*
X332829Y904498D01*
X330996Y906331D01*
Y908164D01*
X332829Y904498D02*
X336495D01*
X153836Y513331D02*
X152004Y511498D01*
Y507833D01*
X153836Y506000D01*
X161167D01*
X163000Y507833D01*
Y511498D01*
X161167Y513331D01*
X163000Y516996D02*
Y520662D01*
Y518829D01*
X152004D01*
X153836Y516996D01*
X152004Y533491D02*
Y526160D01*
X157502D01*
X155669Y529826D01*
Y531658D01*
X157502Y533491D01*
X161167D01*
X163000Y531658D01*
Y527993D01*
X161167Y526160D01*
X152331Y43164D02*
X150498Y44997D01*
X146833D01*
X145000Y43164D01*
Y35833D01*
X146833Y34000D01*
X150498D01*
X152331Y35833D01*
X155996Y34000D02*
X159662D01*
X157829D01*
Y44997D01*
X155996Y43164D01*
X170658Y34000D02*
Y44997D01*
X165160Y39498D01*
X172491D01*
X514331Y237164D02*
X512498Y238996D01*
X508833D01*
X507000Y237164D01*
Y229833D01*
X508833Y228000D01*
X512498D01*
X514331Y229833D01*
X517996D02*
X519829Y228000D01*
X523495D01*
X525327Y229833D01*
Y237164D01*
X523495Y238996D01*
X519829D01*
X517996Y237164D01*
Y235331D01*
X519829Y233498D01*
X525327D01*
X376331Y501164D02*
X374498Y502996D01*
X370833D01*
X369000Y501164D01*
Y493833D01*
X370833Y492000D01*
X374498D01*
X376331Y493833D01*
X379996Y492000D02*
X383662D01*
X381829D01*
Y502996D01*
X379996Y501164D01*
X389160D02*
X390993Y502996D01*
X394658D01*
X396491Y501164D01*
Y499331D01*
X394658Y497498D01*
X392826D01*
X394658D01*
X396491Y495666D01*
Y493833D01*
X394658Y492000D01*
X390993D01*
X389160Y493833D01*
X375331Y354164D02*
X373498Y355996D01*
X369833D01*
X368000Y354164D01*
Y346833D01*
X369833Y345000D01*
X373498D01*
X375331Y346833D01*
X378996Y345000D02*
X382662D01*
X380829D01*
Y355996D01*
X378996Y354164D01*
X395491Y345000D02*
X388160D01*
X395491Y352331D01*
Y354164D01*
X393658Y355996D01*
X389993D01*
X388160Y354164D01*
X296331Y607164D02*
X294498Y608996D01*
X290833D01*
X289000Y607164D01*
Y599833D01*
X290833Y598000D01*
X294498D01*
X296331Y599833D01*
X299996Y598000D02*
X303662D01*
X301829D01*
Y608996D01*
X299996Y607164D01*
X309160Y598000D02*
X312826D01*
X310993D01*
Y608996D01*
X309160Y607164D01*
X836836Y266331D02*
X835004Y264498D01*
Y260833D01*
X836836Y259000D01*
X844167D01*
X846000Y260833D01*
Y264498D01*
X844167Y266331D01*
X846000Y269996D02*
Y273662D01*
Y271829D01*
X835004D01*
X836836Y269996D01*
Y279160D02*
X835004Y280993D01*
Y284658D01*
X836836Y286491D01*
X844167D01*
X846000Y284658D01*
Y280993D01*
X844167Y279160D01*
X836836D01*
X403331Y876164D02*
X401498Y877996D01*
X397833D01*
X396000Y876164D01*
Y868833D01*
X397833Y867000D01*
X401498D01*
X403331Y868833D01*
X412495Y867000D02*
Y877996D01*
X406996Y872498D01*
X414327D01*
X616331Y905164D02*
X614498Y906997D01*
X610833D01*
X609000Y905164D01*
Y897833D01*
X610833Y896000D01*
X614498D01*
X616331Y897833D01*
X619996Y905164D02*
X621829Y906997D01*
X625495D01*
X627327Y905164D01*
Y903331D01*
X625495Y901498D01*
X623662D01*
X625495D01*
X627327Y899666D01*
Y897833D01*
X625495Y896000D01*
X621829D01*
X619996Y897833D01*
X502331Y745164D02*
X500498Y746996D01*
X496833D01*
X495000Y745164D01*
Y737833D01*
X496833Y736000D01*
X500498D01*
X502331Y737833D01*
X505996Y746996D02*
X513327D01*
Y745164D01*
X505996Y737833D01*
Y736000D01*
X502331Y694164D02*
X500498Y695996D01*
X496833D01*
X495000Y694164D01*
Y686833D01*
X496833Y685000D01*
X500498D01*
X502331Y686833D01*
X513327Y695996D02*
X505996D01*
Y690498D01*
X509662Y692331D01*
X511495D01*
X513327Y690498D01*
Y686833D01*
X511495Y685000D01*
X507829D01*
X505996Y686833D01*
X503331Y720164D02*
X501498Y721996D01*
X497833D01*
X496000Y720164D01*
Y712833D01*
X497833Y711000D01*
X501498D01*
X503331Y712833D01*
X514327Y721996D02*
X510662Y720164D01*
X506996Y716498D01*
Y712833D01*
X508829Y711000D01*
X512495D01*
X514327Y712833D01*
Y714666D01*
X512495Y716498D01*
X506996D01*
X893331Y909164D02*
X891498Y910996D01*
X887833D01*
X886000Y909164D01*
Y901833D01*
X887833Y900000D01*
X891498D01*
X893331Y901833D01*
X904327Y900000D02*
X896997D01*
X904327Y907331D01*
Y909164D01*
X902495Y910996D01*
X898829D01*
X896997Y909164D01*
X617000Y173000D02*
Y183997D01*
X622498D01*
X624331Y182164D01*
Y178498D01*
X622498Y176665D01*
X617000D01*
X620666D02*
X624331Y173000D01*
X627996Y182164D02*
X629829Y183997D01*
X633495D01*
X635327Y182164D01*
Y180331D01*
X633495Y178498D01*
X631662D01*
X633495D01*
X635327Y176665D01*
Y174833D01*
X633495Y173000D01*
X629829D01*
X627996Y174833D01*
X638993Y182164D02*
X640826Y183997D01*
X644491D01*
X646324Y182164D01*
Y174833D01*
X644491Y173000D01*
X640826D01*
X638993Y174833D01*
Y182164D01*
X677000Y172000D02*
Y182997D01*
X682498D01*
X684331Y181164D01*
Y177498D01*
X682498Y175665D01*
X677000D01*
X680666D02*
X684331Y172000D01*
X695327D02*
X687996D01*
X695327Y179331D01*
Y181164D01*
X693495Y182997D01*
X689829D01*
X687996Y181164D01*
X698993Y173833D02*
X700826Y172000D01*
X704491D01*
X706324Y173833D01*
Y181164D01*
X704491Y182997D01*
X700826D01*
X698993Y181164D01*
Y179331D01*
X700826Y177498D01*
X706324D01*
X735000Y172000D02*
Y182997D01*
X740498D01*
X742331Y181164D01*
Y177498D01*
X740498Y175665D01*
X735000D01*
X738665D02*
X742331Y172000D01*
X753327D02*
X745996D01*
X753327Y179331D01*
Y181164D01*
X751495Y182997D01*
X747829D01*
X745996Y181164D01*
X756993D02*
X758826Y182997D01*
X762491D01*
X764324Y181164D01*
Y179331D01*
X762491Y177498D01*
X764324Y175665D01*
Y173833D01*
X762491Y172000D01*
X758826D01*
X756993Y173833D01*
Y175665D01*
X758826Y177498D01*
X756993Y179331D01*
Y181164D01*
X758826Y177498D02*
X762491D01*
X796000Y172000D02*
Y182997D01*
X801498D01*
X803331Y181164D01*
Y177498D01*
X801498Y175665D01*
X796000D01*
X799666D02*
X803331Y172000D01*
X814327D02*
X806997D01*
X814327Y179331D01*
Y181164D01*
X812495Y182997D01*
X808829D01*
X806997Y181164D01*
X817993Y182997D02*
X825324D01*
Y181164D01*
X817993Y173833D01*
Y172000D01*
X855000Y173000D02*
Y183997D01*
X860498D01*
X862331Y182164D01*
Y178498D01*
X860498Y176665D01*
X855000D01*
X858665D02*
X862331Y173000D01*
X873327D02*
X865996D01*
X873327Y180331D01*
Y182164D01*
X871495Y183997D01*
X867829D01*
X865996Y182164D01*
X884324Y183997D02*
X880658Y182164D01*
X876993Y178498D01*
Y174833D01*
X878826Y173000D01*
X882491D01*
X884324Y174833D01*
Y176665D01*
X882491Y178498D01*
X876993D01*
X497000Y173000D02*
Y183997D01*
X502498D01*
X504331Y182164D01*
Y178498D01*
X502498Y176665D01*
X497000D01*
X500666D02*
X504331Y173000D01*
X507996Y182164D02*
X509829Y183997D01*
X513495D01*
X515327Y182164D01*
Y180331D01*
X513495Y178498D01*
X511662D01*
X513495D01*
X515327Y176665D01*
Y174833D01*
X513495Y173000D01*
X509829D01*
X507996Y174833D01*
X526324Y173000D02*
X518993D01*
X526324Y180331D01*
Y182164D01*
X524491Y183997D01*
X520826D01*
X518993Y182164D01*
X758331Y908164D02*
X756498Y909996D01*
X752833D01*
X751000Y908164D01*
Y900833D01*
X752833Y899000D01*
X756498D01*
X758331Y900833D01*
X761996Y899000D02*
X765662D01*
X763829D01*
Y909996D01*
X761996Y908164D01*
X370000Y88000D02*
Y98996D01*
X375498D01*
X377331Y97164D01*
Y93498D01*
X375498Y91665D01*
X370000D01*
X373666D02*
X377331Y88000D01*
X386495D02*
Y98996D01*
X380996Y93498D01*
X388327D01*
X391993Y88000D02*
X395658D01*
X393826D01*
Y98996D01*
X391993Y97164D01*
X913000Y518000D02*
Y528997D01*
X918498D01*
X920331Y527164D01*
Y523498D01*
X918498Y521665D01*
X913000D01*
X916665D02*
X920331Y518000D01*
X923997D02*
X927662D01*
X925829D01*
Y528997D01*
X923997Y527164D01*
X559000Y173000D02*
Y183997D01*
X564498D01*
X566331Y182164D01*
Y178498D01*
X564498Y176665D01*
X559000D01*
X562665D02*
X566331Y173000D01*
X569996Y182164D02*
X571829Y183997D01*
X575495D01*
X577327Y182164D01*
Y180331D01*
X575495Y178498D01*
X573662D01*
X575495D01*
X577327Y176665D01*
Y174833D01*
X575495Y173000D01*
X571829D01*
X569996Y174833D01*
X580993Y173000D02*
X584658D01*
X582826D01*
Y183997D01*
X580993Y182164D01*
X247000Y886996D02*
Y876000D01*
X252498D01*
X254331Y877833D01*
Y885164D01*
X252498Y886996D01*
X247000D01*
X265327D02*
X257996D01*
Y881498D01*
X261662Y883331D01*
X263495D01*
X265327Y881498D01*
Y877833D01*
X263495Y876000D01*
X259829D01*
X257996Y877833D01*
X148000Y588000D02*
Y598996D01*
X153498D01*
X155331Y597164D01*
Y593498D01*
X153498Y591665D01*
X148000D01*
X151665D02*
X155331Y588000D01*
X158996D02*
X162662D01*
X160829D01*
Y598996D01*
X158996Y597164D01*
X168160Y588000D02*
X171826D01*
X169993D01*
Y598996D01*
X168160Y597164D01*
D40*
X400052Y677235D02*
X450850D01*
X400052Y163715D02*
Y677235D01*
Y163715D02*
X450751D01*
X450850Y677235D01*
X260350Y920150D02*
X768350D01*
X260350D02*
Y1055450D01*
X768350D01*
Y920150D02*
Y1055450D01*
X387350Y-49450D02*
Y85850D01*
Y-49450D02*
X895350D01*
Y85850D01*
X387350D02*
X895350D01*
X103550Y83900D02*
Y490300D01*
X-31750Y83900D02*
X103550D01*
X-31750D02*
Y490300D01*
X103550D01*
X-31750Y903050D02*
X103550D01*
X-31750Y496650D02*
Y903050D01*
Y496650D02*
X103550D01*
Y903050D01*
D41*
X289999Y637501D02*
Y866499D01*
X234001Y637501D02*
X289999D01*
X234001D02*
Y866499D01*
X289999D01*
X292996Y640003D02*
X307999D01*
X793997Y282996D02*
Y297999D01*
X567501Y224001D02*
Y279999D01*
Y224001D02*
X796499D01*
Y279999D01*
X567501D02*
X796499D01*
D42*
X486000Y432000D02*
X467256D01*
Y441372D01*
X470380Y444496D01*
X476628D01*
X479752Y441372D01*
Y432000D01*
X486000Y450744D02*
Y456992D01*
Y453868D01*
X473504D01*
Y450744D01*
X107256Y617000D02*
X126000D01*
Y629496D01*
X107256Y648240D02*
Y635744D01*
X126000D01*
Y648240D01*
X116628Y635744D02*
Y641992D01*
X107256Y654488D02*
X126000D01*
Y663860D01*
X122876Y666984D01*
X110380D01*
X107256Y663860D01*
Y654488D01*
X129124Y673232D02*
Y685728D01*
X107256Y691976D02*
X126000D01*
X119752D01*
X107256Y704472D01*
X116628Y695100D01*
X126000Y704472D01*
X107256Y723216D02*
Y710720D01*
X126000D01*
Y723216D01*
X116628Y710720D02*
Y716968D01*
X107256Y729464D02*
X110380D01*
X116628Y735712D01*
X110380Y741960D01*
X107256D01*
X116628Y735712D02*
X126000D01*
X105256Y256000D02*
X124000D01*
X117752D01*
X105256Y268496D01*
X114628Y259124D01*
X124000Y268496D01*
X105256Y287240D02*
Y274744D01*
X124000D01*
Y287240D01*
X114628Y274744D02*
Y280992D01*
X105256Y293488D02*
X108380D01*
X114628Y299736D01*
X108380Y305984D01*
X105256D01*
X114628Y299736D02*
X124000D01*
X435000Y896000D02*
Y914744D01*
X444372D01*
X447496Y911620D01*
Y905372D01*
X444372Y902248D01*
X435000D01*
X463116Y914744D02*
X456868D01*
X453744Y911620D01*
Y899124D01*
X456868Y896000D01*
X463116D01*
X466240Y899124D01*
Y911620D01*
X463116Y914744D01*
X472488D02*
Y896000D01*
X478736Y902248D01*
X484984Y896000D01*
Y914744D01*
X503728D02*
X491232D01*
Y896000D01*
X503728D01*
X491232Y905372D02*
X497480D01*
X509976Y896000D02*
Y914744D01*
X519348D01*
X522472Y911620D01*
Y905372D01*
X519348Y902248D01*
X509976D01*
X516224D02*
X522472Y896000D01*
X528720Y892876D02*
X541216D01*
X547464Y896000D02*
X553712D01*
X550588D01*
Y914744D01*
X547464Y911620D01*
X575579Y896000D02*
X563083D01*
X575579Y908496D01*
Y911620D01*
X572455Y914744D01*
X566208D01*
X563083Y911620D01*
X642000Y94000D02*
Y106496D01*
X648248Y112744D01*
X654496Y106496D01*
Y94000D01*
Y103372D01*
X642000D01*
X673240Y109620D02*
X670116Y112744D01*
X663868D01*
X660744Y109620D01*
Y97124D01*
X663868Y94000D01*
X670116D01*
X673240Y97124D01*
X679488Y112744D02*
X691984D01*
X685736D01*
Y94000D01*
M02*
