G04 Layer_Physical_Order=1*
G04 Layer_Color=255*
%FSLAX44Y44*%
%MOMM*%
G71*
G01*
G75*
G04:AMPARAMS|DCode=10|XSize=0.5mm|YSize=1.25mm|CornerRadius=0.125mm|HoleSize=0mm|Usage=FLASHONLY|Rotation=270.000|XOffset=0mm|YOffset=0mm|HoleType=Round|Shape=RoundedRectangle|*
%AMROUNDEDRECTD10*
21,1,0.5000,1.0000,0,0,270.0*
21,1,0.2500,1.2500,0,0,270.0*
1,1,0.2500,-0.5000,-0.1250*
1,1,0.2500,-0.5000,0.1250*
1,1,0.2500,0.5000,0.1250*
1,1,0.2500,0.5000,-0.1250*
%
%ADD10ROUNDEDRECTD10*%
G04:AMPARAMS|DCode=11|XSize=0.5mm|YSize=1.25mm|CornerRadius=0.125mm|HoleSize=0mm|Usage=FLASHONLY|Rotation=180.000|XOffset=0mm|YOffset=0mm|HoleType=Round|Shape=RoundedRectangle|*
%AMROUNDEDRECTD11*
21,1,0.5000,1.0000,0,0,180.0*
21,1,0.2500,1.2500,0,0,180.0*
1,1,0.2500,-0.1250,0.5000*
1,1,0.2500,0.1250,0.5000*
1,1,0.2500,0.1250,-0.5000*
1,1,0.2500,-0.1250,-0.5000*
%
%ADD11ROUNDEDRECTD11*%
G04:AMPARAMS|DCode=12|XSize=0.8mm|YSize=1.3mm|CornerRadius=0.2mm|HoleSize=0mm|Usage=FLASHONLY|Rotation=90.000|XOffset=0mm|YOffset=0mm|HoleType=Round|Shape=RoundedRectangle|*
%AMROUNDEDRECTD12*
21,1,0.8000,0.9000,0,0,90.0*
21,1,0.4000,1.3000,0,0,90.0*
1,1,0.4000,0.4500,0.2000*
1,1,0.4000,0.4500,-0.2000*
1,1,0.4000,-0.4500,-0.2000*
1,1,0.4000,-0.4500,0.2000*
%
%ADD12ROUNDEDRECTD12*%
G04:AMPARAMS|DCode=13|XSize=0.8mm|YSize=1.3mm|CornerRadius=0.2mm|HoleSize=0mm|Usage=FLASHONLY|Rotation=180.000|XOffset=0mm|YOffset=0mm|HoleType=Round|Shape=RoundedRectangle|*
%AMROUNDEDRECTD13*
21,1,0.8000,0.9000,0,0,180.0*
21,1,0.4000,1.3000,0,0,180.0*
1,1,0.4000,-0.2000,0.4500*
1,1,0.4000,0.2000,0.4500*
1,1,0.4000,0.2000,-0.4500*
1,1,0.4000,-0.2000,-0.4500*
%
%ADD13ROUNDEDRECTD13*%
G04:AMPARAMS|DCode=14|XSize=1.44mm|YSize=2.09mm|CornerRadius=0.36mm|HoleSize=0mm|Usage=FLASHONLY|Rotation=0.000|XOffset=0mm|YOffset=0mm|HoleType=Round|Shape=RoundedRectangle|*
%AMROUNDEDRECTD14*
21,1,1.4400,1.3700,0,0,0.0*
21,1,0.7200,2.0900,0,0,0.0*
1,1,0.7200,0.3600,-0.6850*
1,1,0.7200,-0.3600,-0.6850*
1,1,0.7200,-0.3600,0.6850*
1,1,0.7200,0.3600,0.6850*
%
%ADD14ROUNDEDRECTD14*%
G04:AMPARAMS|DCode=15|XSize=1.44mm|YSize=2.09mm|CornerRadius=0.36mm|HoleSize=0mm|Usage=FLASHONLY|Rotation=90.000|XOffset=0mm|YOffset=0mm|HoleType=Round|Shape=RoundedRectangle|*
%AMROUNDEDRECTD15*
21,1,1.4400,1.3700,0,0,90.0*
21,1,0.7200,2.0900,0,0,90.0*
1,1,0.7200,0.6850,0.3600*
1,1,0.7200,0.6850,-0.3600*
1,1,0.7200,-0.6850,-0.3600*
1,1,0.7200,-0.6850,0.3600*
%
%ADD15ROUNDEDRECTD15*%
G04:AMPARAMS|DCode=16|XSize=1mm|YSize=1.73mm|CornerRadius=0.25mm|HoleSize=0mm|Usage=FLASHONLY|Rotation=270.000|XOffset=0mm|YOffset=0mm|HoleType=Round|Shape=RoundedRectangle|*
%AMROUNDEDRECTD16*
21,1,1.0000,1.2300,0,0,270.0*
21,1,0.5000,1.7300,0,0,270.0*
1,1,0.5000,-0.6150,-0.2500*
1,1,0.5000,-0.6150,0.2500*
1,1,0.5000,0.6150,0.2500*
1,1,0.5000,0.6150,-0.2500*
%
%ADD16ROUNDEDRECTD16*%
G04:AMPARAMS|DCode=17|XSize=1mm|YSize=1.73mm|CornerRadius=0.25mm|HoleSize=0mm|Usage=FLASHONLY|Rotation=0.000|XOffset=0mm|YOffset=0mm|HoleType=Round|Shape=RoundedRectangle|*
%AMROUNDEDRECTD17*
21,1,1.0000,1.2300,0,0,0.0*
21,1,0.5000,1.7300,0,0,0.0*
1,1,0.5000,0.2500,-0.6150*
1,1,0.5000,-0.2500,-0.6150*
1,1,0.5000,-0.2500,0.6150*
1,1,0.5000,0.2500,0.6150*
%
%ADD17ROUNDEDRECTD17*%
%ADD18C,0.3000*%
%ADD19C,0.5000*%
%ADD20C,2.0000*%
%ADD21C,0.7500*%
%ADD22R,3.0000X5.0000*%
%ADD23C,1.5998*%
%ADD24R,1.5998X1.5998*%
%ADD25R,2.7000X2.7000*%
%ADD26C,2.7000*%
%ADD27R,2.7000X2.7000*%
%ADD28C,2.2000*%
%ADD29R,1.3496X1.3496*%
%ADD30C,1.3496*%
G04:AMPARAMS|DCode=31|XSize=2mm|YSize=2mm|CornerRadius=0.5mm|HoleSize=0mm|Usage=FLASHONLY|Rotation=270.000|XOffset=0mm|YOffset=0mm|HoleType=Round|Shape=RoundedRectangle|*
%AMROUNDEDRECTD31*
21,1,2.0000,1.0000,0,0,270.0*
21,1,1.0000,2.0000,0,0,270.0*
1,1,1.0000,-0.5000,-0.5000*
1,1,1.0000,-0.5000,0.5000*
1,1,1.0000,0.5000,0.5000*
1,1,1.0000,0.5000,-0.5000*
%
%ADD31ROUNDEDRECTD31*%
%ADD32C,2.0000*%
%ADD33R,1.3496X1.3496*%
%ADD34C,0.8000*%
G36*
X940000Y221500D02*
X880000Y221500D01*
X789708D01*
X788516Y222415D01*
X786145Y223397D01*
X783600Y223732D01*
X781055Y223397D01*
X778684Y222415D01*
X777492Y221500D01*
X764308D01*
X763116Y222415D01*
X760745Y223397D01*
X758200Y223732D01*
X755655Y223397D01*
X753284Y222415D01*
X752092Y221500D01*
X738908D01*
X737716Y222415D01*
X735345Y223397D01*
X732800Y223732D01*
X730255Y223397D01*
X727884Y222415D01*
X726692Y221500D01*
X713508D01*
X712316Y222415D01*
X709945Y223397D01*
X707400Y223732D01*
X704855Y223397D01*
X702484Y222415D01*
X701292Y221500D01*
X688108D01*
X686916Y222415D01*
X684545Y223397D01*
X682000Y223732D01*
X679455Y223397D01*
X677084Y222415D01*
X675892Y221500D01*
X662708D01*
X661516Y222415D01*
X659145Y223397D01*
X656600Y223732D01*
X654055Y223397D01*
X651684Y222415D01*
X650492Y221500D01*
X637308D01*
X636116Y222415D01*
X633745Y223397D01*
X631200Y223732D01*
X628655Y223397D01*
X626284Y222415D01*
X625092Y221500D01*
X611908D01*
X610716Y222415D01*
X608345Y223397D01*
X605800Y223732D01*
X603255Y223397D01*
X600884Y222415D01*
X599692Y221500D01*
X586508D01*
X585316Y222415D01*
X582945Y223397D01*
X580400Y223732D01*
X577855Y223397D01*
X575484Y222415D01*
X574292Y221500D01*
X562048D01*
X560900Y224272D01*
X569820Y233192D01*
X940000D01*
Y221500D01*
D02*
G37*
G36*
X536402Y247000D02*
Y246500D01*
X546000D01*
Y245000D01*
X547500D01*
Y237902D01*
X550500D01*
X551163Y238034D01*
X552641Y235269D01*
X549470Y232098D01*
X541500D01*
X539549Y231710D01*
X537895Y230605D01*
X536790Y228951D01*
X536402Y227000D01*
Y223000D01*
X535171Y221500D01*
X502370D01*
X501992Y221992D01*
X500530Y223114D01*
X498827Y223820D01*
X497000Y224060D01*
X495173Y223820D01*
X493470Y223114D01*
X492959Y223228D01*
X492003Y226514D01*
X514400Y248912D01*
X534833D01*
X536402Y247000D01*
D02*
G37*
G36*
X430179Y959000D02*
X430930Y956000D01*
X428939Y954936D01*
X426426Y952874D01*
X424364Y950361D01*
X422832Y947495D01*
X421889Y944385D01*
X421718Y942650D01*
X438150D01*
X454582D01*
X454411Y944385D01*
X453468Y947495D01*
X451936Y950361D01*
X449874Y952874D01*
X447361Y954936D01*
X445370Y956000D01*
X446121Y959000D01*
X480979Y959000D01*
X481730Y956000D01*
X479739Y954936D01*
X477226Y952874D01*
X475164Y950361D01*
X473632Y947495D01*
X472689Y944385D01*
X472518Y942650D01*
X488950D01*
X505382D01*
X505211Y944385D01*
X504268Y947495D01*
X502736Y950361D01*
X500674Y952874D01*
X498161Y954936D01*
X496170Y956000D01*
X496921Y959000D01*
X531778Y959000D01*
X532530Y956000D01*
X530539Y954936D01*
X528026Y952874D01*
X525964Y950361D01*
X524432Y947495D01*
X523489Y944385D01*
X523318Y942650D01*
X539750D01*
X556182D01*
X556011Y944385D01*
X555068Y947495D01*
X553536Y950361D01*
X551474Y952874D01*
X548961Y954936D01*
X546970Y956000D01*
X547721Y959000D01*
X582579Y959000D01*
X583330Y956000D01*
X581339Y954936D01*
X578826Y952874D01*
X576764Y950361D01*
X575232Y947495D01*
X574289Y944385D01*
X574118Y942650D01*
X590550D01*
X606982D01*
X606811Y944385D01*
X605868Y947495D01*
X604336Y950361D01*
X602274Y952874D01*
X599761Y954936D01*
X597770Y956000D01*
X598521Y959000D01*
X633378D01*
X634130Y956000D01*
X632139Y954936D01*
X629626Y952874D01*
X627564Y950361D01*
X626032Y947495D01*
X625089Y944385D01*
X624770Y941150D01*
X625089Y937915D01*
X626032Y934805D01*
X627564Y931939D01*
X629626Y929426D01*
X632139Y927364D01*
X635005Y925832D01*
X638115Y924889D01*
X641350Y924570D01*
X644585Y924889D01*
X647695Y925832D01*
X650561Y927364D01*
X653074Y929426D01*
X655136Y931939D01*
X656668Y934805D01*
X657611Y937915D01*
X657930Y941150D01*
X657611Y944385D01*
X656668Y947495D01*
X655802Y949114D01*
X665688Y959000D01*
X684178D01*
X684930Y956000D01*
X682939Y954936D01*
X680426Y952874D01*
X678364Y950361D01*
X676832Y947495D01*
X675889Y944385D01*
X675570Y941150D01*
X675889Y937915D01*
X676832Y934805D01*
X678364Y931939D01*
X680426Y929426D01*
X682939Y927364D01*
X685805Y925832D01*
X688915Y924889D01*
X692150Y924570D01*
X695385Y924889D01*
X698495Y925832D01*
X701361Y927364D01*
X703874Y929426D01*
X705936Y931939D01*
X707468Y934805D01*
X708411Y937915D01*
X708730Y941150D01*
X708411Y944385D01*
X707468Y947495D01*
X705936Y950361D01*
X703874Y952874D01*
X701361Y954936D01*
X699370Y956000D01*
X700122Y959000D01*
X724009D01*
X726450Y957650D01*
X726450Y956000D01*
Y924650D01*
X759450D01*
Y956000D01*
X761891Y959000D01*
X838000Y959000D01*
X967000Y830000D01*
X967000Y593489D01*
X909511Y536000D01*
X801114Y536000D01*
X800917Y539000D01*
X801963Y539138D01*
X803655Y539360D01*
X807060Y540771D01*
X809985Y543015D01*
X812229Y545940D01*
X813640Y549345D01*
X814121Y553000D01*
X813640Y556655D01*
X812229Y560060D01*
X809985Y562985D01*
X807060Y565229D01*
X804138Y566439D01*
X803880Y568000D01*
X804138Y569561D01*
X807060Y570771D01*
X809985Y573015D01*
X812229Y575940D01*
X813640Y579345D01*
X814121Y583000D01*
X813640Y586655D01*
X812229Y590060D01*
X809985Y592985D01*
X807060Y595229D01*
X803655Y596640D01*
X800000Y597121D01*
X796345Y596640D01*
X792940Y595229D01*
X790015Y592985D01*
X787771Y590060D01*
X786360Y586655D01*
X785879Y583000D01*
X786360Y579345D01*
X787771Y575940D01*
X790015Y573015D01*
X792940Y570771D01*
X795862Y569561D01*
X796120Y568000D01*
X795862Y566439D01*
X792940Y565229D01*
X790015Y562985D01*
X787771Y560060D01*
X786360Y556655D01*
X785879Y553000D01*
X786360Y549345D01*
X787771Y545940D01*
X790015Y543015D01*
X792940Y540771D01*
X796345Y539360D01*
X798037Y539138D01*
X799083Y539000D01*
X798886Y536000D01*
X674000Y536000D01*
X674000Y830000D01*
X633000Y871000D01*
X626000Y878000D01*
X405000Y878000D01*
X343838D01*
X343228Y878843D01*
X342509Y881000D01*
X343210Y882049D01*
X343598Y884000D01*
Y884500D01*
X334000D01*
X324402D01*
Y884000D01*
X324790Y882049D01*
X325491Y881000D01*
X324772Y878843D01*
X324162Y878000D01*
X276000D01*
X254000Y856000D01*
X241000Y843000D01*
X231027D01*
X230008Y846000D01*
X230852Y846648D01*
X232415Y848684D01*
X233397Y851055D01*
X233535Y852100D01*
X223900D01*
X214265D01*
X214403Y851055D01*
X215385Y848684D01*
X216948Y846648D01*
X217792Y846000D01*
X216773Y843000D01*
X214000D01*
X200000Y843000D01*
X200000Y890000D01*
X200000Y959000D01*
X277779Y959000D01*
X278530Y956000D01*
X276539Y954936D01*
X274026Y952874D01*
X271964Y950361D01*
X270432Y947495D01*
X269489Y944385D01*
X269170Y941150D01*
X269489Y937915D01*
X270432Y934805D01*
X271964Y931939D01*
X274026Y929426D01*
X276539Y927364D01*
X279405Y925832D01*
X282515Y924889D01*
X285750Y924570D01*
X288985Y924889D01*
X292095Y925832D01*
X294961Y927364D01*
X297474Y929426D01*
X299536Y931939D01*
X301068Y934805D01*
X302011Y937915D01*
X302330Y941150D01*
X302011Y944385D01*
X301068Y947495D01*
X299536Y950361D01*
X297474Y952874D01*
X294961Y954936D01*
X292970Y956000D01*
X293721Y959000D01*
X328579Y959000D01*
X329330Y956000D01*
X327339Y954936D01*
X324826Y952874D01*
X322764Y950361D01*
X321232Y947495D01*
X320289Y944385D01*
X319970Y941150D01*
X320289Y937915D01*
X321232Y934805D01*
X322764Y931939D01*
X324826Y929426D01*
X327339Y927364D01*
X330205Y925832D01*
X333315Y924889D01*
X336550Y924570D01*
X339785Y924889D01*
X342895Y925832D01*
X345761Y927364D01*
X348274Y929426D01*
X350336Y931939D01*
X351868Y934805D01*
X352811Y937915D01*
X353130Y941150D01*
X352811Y944385D01*
X351868Y947495D01*
X350336Y950361D01*
X348274Y952874D01*
X345761Y954936D01*
X343770Y956000D01*
X344521Y959000D01*
X379379D01*
X380130Y956000D01*
X378139Y954936D01*
X375626Y952874D01*
X373564Y950361D01*
X372032Y947495D01*
X371089Y944385D01*
X370770Y941150D01*
X371089Y937915D01*
X372032Y934805D01*
X373564Y931939D01*
X375626Y929426D01*
X378139Y927364D01*
X381005Y925832D01*
X384115Y924889D01*
X387350Y924570D01*
X390585Y924889D01*
X393695Y925832D01*
X396561Y927364D01*
X399074Y929426D01*
X401136Y931939D01*
X402668Y934805D01*
X403611Y937915D01*
X403930Y941150D01*
X403611Y944385D01*
X402668Y947495D01*
X401802Y949114D01*
X411689Y959000D01*
X430000D01*
X430179D01*
D02*
G37*
G36*
X665228Y827772D02*
X664080Y825000D01*
X414939D01*
X412858Y672749D01*
X401751D01*
X401588Y675681D01*
Y778000D01*
X401239Y779756D01*
X400244Y781244D01*
X375244Y806244D01*
X373756Y807239D01*
X372000Y807588D01*
X352583D01*
Y808000D01*
X352253Y809658D01*
X351314Y811064D01*
X349908Y812003D01*
X348250Y812333D01*
X345750D01*
X344092Y812003D01*
X342686Y811064D01*
X341747Y809658D01*
X341417Y808000D01*
Y798000D01*
X341747Y796342D01*
X342686Y794936D01*
X344092Y793997D01*
X345750Y793667D01*
X348250D01*
X349908Y793997D01*
X351314Y794936D01*
X352253Y796342D01*
X352583Y798000D01*
Y798412D01*
X370099D01*
X392412Y776099D01*
Y766997D01*
X389640Y765848D01*
X374244Y781244D01*
X372756Y782239D01*
X371000Y782588D01*
X352583D01*
Y783000D01*
X352253Y784658D01*
X351314Y786064D01*
X349908Y787003D01*
X348250Y787333D01*
X345750D01*
X344092Y787003D01*
X342686Y786064D01*
X341747Y784658D01*
X341417Y783000D01*
Y773000D01*
X341747Y771342D01*
X342686Y769936D01*
X344092Y768997D01*
X345750Y768667D01*
X348250D01*
X349908Y768997D01*
X351314Y769936D01*
X352253Y771342D01*
X352583Y773000D01*
Y773412D01*
X369100D01*
X386412Y756099D01*
Y742319D01*
X383412Y741077D01*
X369244Y755244D01*
X367756Y756239D01*
X366000Y756588D01*
X352583D01*
Y757000D01*
X352253Y758658D01*
X351314Y760064D01*
X349908Y761003D01*
X348250Y761333D01*
X345750D01*
X344092Y761003D01*
X342686Y760064D01*
X341747Y758658D01*
X341417Y757000D01*
Y747000D01*
X341747Y745342D01*
X342686Y743936D01*
X344092Y742997D01*
X345750Y742667D01*
X348250D01*
X349908Y742997D01*
X351314Y743936D01*
X352253Y745342D01*
X352583Y747000D01*
Y747412D01*
X364100D01*
X378412Y733100D01*
Y723319D01*
X375412Y722077D01*
X367244Y730245D01*
X365756Y731239D01*
X364000Y731588D01*
X352583D01*
Y732000D01*
X352253Y733659D01*
X351314Y735064D01*
X349908Y736004D01*
X348250Y736333D01*
X345750D01*
X344092Y736004D01*
X342686Y735064D01*
X341747Y733659D01*
X341417Y732000D01*
Y722000D01*
X341747Y720342D01*
X342686Y718936D01*
X344092Y717997D01*
X345750Y717667D01*
X348250D01*
X349908Y717997D01*
X351314Y718936D01*
X352253Y720342D01*
X352583Y722000D01*
Y722412D01*
X362099D01*
X370412Y714100D01*
Y701997D01*
X367640Y700848D01*
X364244Y704244D01*
X362756Y705239D01*
X361000Y705588D01*
X352583D01*
Y706000D01*
X352253Y707658D01*
X351314Y709064D01*
X349908Y710003D01*
X348250Y710333D01*
X345750D01*
X344092Y710003D01*
X342686Y709064D01*
X341747Y707658D01*
X341417Y706000D01*
Y696000D01*
X341747Y694342D01*
X342686Y692936D01*
X344092Y691997D01*
X345750Y691667D01*
X348250D01*
X349908Y691997D01*
X351314Y692936D01*
X352253Y694342D01*
X352583Y696000D01*
Y696412D01*
X359100D01*
X363412Y692100D01*
Y678997D01*
X360640Y677848D01*
X359244Y679244D01*
X357756Y680239D01*
X356000Y680588D01*
X352583D01*
Y681000D01*
X352253Y682658D01*
X351314Y684064D01*
X349908Y685003D01*
X348250Y685333D01*
X345750D01*
X344092Y685003D01*
X342686Y684064D01*
X341747Y682658D01*
X341417Y681000D01*
Y671000D01*
X341747Y669342D01*
X342686Y667936D01*
X344092Y666997D01*
X345750Y666667D01*
X348250D01*
X349908Y666997D01*
X351314Y667936D01*
X351368Y668017D01*
X354849Y668645D01*
X356412Y667342D01*
Y658430D01*
X353412Y656810D01*
X352273Y657557D01*
X352253Y657658D01*
X351314Y659064D01*
X349908Y660003D01*
X348250Y660333D01*
X345750D01*
X344092Y660003D01*
X342686Y659064D01*
X341747Y657658D01*
X341417Y656000D01*
Y646000D01*
X341747Y644342D01*
X342686Y642936D01*
X344092Y641997D01*
X345750Y641667D01*
X348250D01*
X349412Y640713D01*
Y521761D01*
X346412Y520519D01*
X315608Y551323D01*
Y576900D01*
X316710Y578549D01*
X317098Y580500D01*
Y589500D01*
X316710Y591451D01*
X315608Y593100D01*
Y594809D01*
X316115Y595470D01*
X316820Y597173D01*
X317060Y599000D01*
X316820Y600827D01*
X316115Y602530D01*
X314992Y603992D01*
X313530Y605115D01*
X311827Y605820D01*
X310000Y606060D01*
X308173Y605820D01*
X306470Y605115D01*
X305007Y603992D01*
X303885Y602530D01*
X303180Y600827D01*
X302940Y599000D01*
X303180Y597173D01*
X303885Y595470D01*
X304392Y594809D01*
Y593100D01*
X303290Y591451D01*
X302902Y589500D01*
Y580500D01*
X303290Y578549D01*
X304392Y576900D01*
Y549000D01*
X304819Y546854D01*
X306035Y545035D01*
X341764Y509306D01*
X340286Y506541D01*
X340000Y506598D01*
X339500D01*
Y497000D01*
Y487402D01*
X340000D01*
X340487Y487499D01*
X340721Y487459D01*
X343231Y485569D01*
X343412Y485255D01*
Y481567D01*
X340412Y479516D01*
X340000Y479598D01*
X336000D01*
X334049Y479210D01*
X332395Y478105D01*
X331290Y476451D01*
X330902Y474500D01*
Y465500D01*
X331290Y463549D01*
X332392Y461899D01*
Y448386D01*
X331872Y447608D01*
X328323D01*
X323185Y452746D01*
X321365Y453962D01*
X319219Y454389D01*
X312562D01*
X312015Y455709D01*
X310957Y457088D01*
X309578Y458146D01*
X307973Y458811D01*
X306250Y459038D01*
X292550D01*
X290827Y458811D01*
X289221Y458146D01*
X287843Y457088D01*
X286785Y455709D01*
X286120Y454104D01*
X285893Y452381D01*
Y445181D01*
X286120Y443458D01*
X286785Y441852D01*
X287843Y440474D01*
X289221Y439416D01*
X290827Y438751D01*
X292550Y438524D01*
X306250D01*
X307973Y438751D01*
X309578Y439416D01*
X310957Y440474D01*
X312015Y441852D01*
X312562Y443173D01*
X316896D01*
X322035Y438035D01*
X323854Y436819D01*
X326000Y436392D01*
X330902D01*
Y435785D01*
X331290Y433835D01*
X332395Y432181D01*
X334049Y431076D01*
X336000Y430687D01*
X340000D01*
X340412Y430769D01*
X343412Y428718D01*
Y422138D01*
X340412Y420087D01*
X340000Y420169D01*
X336000D01*
X334049Y419781D01*
X332395Y418676D01*
X331290Y417022D01*
X330902Y415071D01*
Y406071D01*
X331250Y404322D01*
X331241Y404041D01*
X329552Y401322D01*
X310322D01*
X308176Y400895D01*
X306357Y399679D01*
X301726Y395049D01*
X292550D01*
X290827Y394823D01*
X289221Y394157D01*
X287843Y393100D01*
X286785Y391721D01*
X286120Y390115D01*
X285893Y388392D01*
Y381192D01*
X286120Y379469D01*
X286785Y377864D01*
X287843Y376485D01*
X289221Y375427D01*
X290827Y374762D01*
X292550Y374535D01*
X306250D01*
X307973Y374762D01*
X309578Y375427D01*
X310957Y376485D01*
X312015Y377864D01*
X312680Y379469D01*
X312907Y381192D01*
Y388392D01*
X314410Y390106D01*
X329552D01*
X331241Y387387D01*
X331250Y387106D01*
X330902Y385357D01*
Y376357D01*
X331290Y374406D01*
X332395Y372752D01*
X334049Y371647D01*
X336000Y371259D01*
X340000D01*
X341951Y371647D01*
X343605Y372752D01*
X344710Y374406D01*
X345098Y376357D01*
Y383028D01*
X348098Y384270D01*
X350902Y381466D01*
Y376357D01*
X351290Y374406D01*
X352395Y372752D01*
X352485Y371838D01*
X340953Y360307D01*
X340028Y360491D01*
X336028D01*
X334077Y360103D01*
X332423Y358997D01*
X331318Y357343D01*
X330930Y355393D01*
Y346393D01*
X331318Y344442D01*
X332423Y342788D01*
X334077Y341683D01*
X336028Y341295D01*
X338217D01*
X343412Y336100D01*
Y332995D01*
X340412Y330944D01*
X340000Y331026D01*
X336000D01*
X334049Y330638D01*
X332395Y329533D01*
X331290Y327879D01*
X330998Y326412D01*
X312562D01*
X312015Y327732D01*
X310957Y329111D01*
X309578Y330169D01*
X307973Y330834D01*
X306250Y331061D01*
X292550D01*
X290827Y330834D01*
X289221Y330169D01*
X287843Y329111D01*
X286785Y327732D01*
X286120Y326127D01*
X285893Y324404D01*
Y317204D01*
X286120Y315481D01*
X286785Y313875D01*
X287843Y312497D01*
X289221Y311439D01*
X290827Y310774D01*
X292550Y310547D01*
X306250D01*
X307973Y310774D01*
X309578Y311439D01*
X310957Y312497D01*
X312015Y313875D01*
X312562Y315196D01*
X331247D01*
X331290Y314977D01*
X332392Y313328D01*
Y299814D01*
X331290Y298165D01*
X330902Y296214D01*
Y287214D01*
X331290Y285263D01*
X332395Y283609D01*
X334049Y282504D01*
X336000Y282116D01*
X340000D01*
X340412Y282198D01*
X343412Y280147D01*
Y273567D01*
X340412Y271516D01*
X340000Y271598D01*
X336000D01*
X334049Y271210D01*
X332395Y270105D01*
X331395Y268608D01*
X327000D01*
X324854Y268181D01*
X323035Y266965D01*
X318493Y262423D01*
X312562D01*
X312015Y263744D01*
X310957Y265123D01*
X309578Y266180D01*
X307973Y266845D01*
X306250Y267072D01*
X292550D01*
X290827Y266845D01*
X289221Y266180D01*
X287843Y265123D01*
X286785Y263744D01*
X286120Y262138D01*
X285893Y260415D01*
Y253215D01*
X286120Y251493D01*
X286785Y249887D01*
X287843Y248508D01*
X289221Y247450D01*
X290827Y246785D01*
X292550Y246558D01*
X306250D01*
X307973Y246785D01*
X309578Y247450D01*
X310957Y248508D01*
X312015Y249887D01*
X312562Y251208D01*
X320815D01*
X322961Y251635D01*
X324781Y252850D01*
X328107Y256176D01*
X330994Y255607D01*
X331456Y255300D01*
X332392Y253899D01*
Y240386D01*
X331290Y238736D01*
X330902Y236786D01*
Y227786D01*
X331290Y225835D01*
X332395Y224181D01*
X334049Y223076D01*
X336000Y222688D01*
X340000D01*
X340412Y222770D01*
X343412Y220718D01*
Y214139D01*
X340412Y212087D01*
X340000Y212169D01*
X336000D01*
X334049Y211781D01*
X332395Y210676D01*
X331290Y209022D01*
X330902Y207071D01*
Y198071D01*
X331290Y196120D01*
X331633Y195608D01*
X330192Y192608D01*
X327323D01*
X323138Y196792D01*
X321319Y198008D01*
X319173Y198435D01*
X312562D01*
X312015Y199755D01*
X310957Y201134D01*
X309578Y202192D01*
X307973Y202857D01*
X306250Y203084D01*
X292550D01*
X290827Y202857D01*
X289221Y202192D01*
X287843Y201134D01*
X286785Y199755D01*
X286120Y198150D01*
X285893Y196427D01*
Y189227D01*
X286120Y187504D01*
X286785Y185898D01*
X287843Y184520D01*
X289221Y183462D01*
X290827Y182797D01*
X292550Y182570D01*
X306250D01*
X307973Y182797D01*
X309578Y183462D01*
X310957Y184520D01*
X312015Y185898D01*
X312562Y187219D01*
X316850D01*
X321035Y183035D01*
X322854Y181819D01*
X325000Y181392D01*
X329075D01*
X329687Y180816D01*
X331108Y178392D01*
X330902Y177357D01*
Y168357D01*
X331290Y166406D01*
X332395Y164752D01*
X334049Y163647D01*
X336000Y163259D01*
X340000D01*
X340412Y163341D01*
X343412Y161290D01*
Y154710D01*
X340412Y152659D01*
X340000Y152741D01*
X336000D01*
X334049Y152353D01*
X332395Y151248D01*
X331290Y149594D01*
X330902Y147643D01*
Y138643D01*
X331140Y137446D01*
X329865Y135174D01*
X329183Y134446D01*
X312562D01*
X312015Y135767D01*
X310957Y137146D01*
X309578Y138203D01*
X307973Y138869D01*
X306250Y139095D01*
X292550D01*
X290827Y138869D01*
X289221Y138203D01*
X287843Y137146D01*
X286785Y135767D01*
X286120Y134161D01*
X285893Y132438D01*
Y125239D01*
X286120Y123516D01*
X286785Y121910D01*
X287843Y120531D01*
X289221Y119473D01*
X290827Y118808D01*
X292550Y118582D01*
X306250D01*
X307973Y118808D01*
X309578Y119473D01*
X310957Y120531D01*
X312015Y121910D01*
X312562Y123231D01*
X329950D01*
X331525Y120231D01*
X331290Y119879D01*
X330902Y117928D01*
Y108928D01*
X331290Y106978D01*
X332395Y105324D01*
X334049Y104219D01*
X336000Y103831D01*
X340000D01*
X340412Y103912D01*
X343412Y101861D01*
Y95281D01*
X340412Y93230D01*
X340000Y93312D01*
X336000D01*
X334049Y92924D01*
X332395Y91819D01*
X331290Y90165D01*
X330902Y88214D01*
Y79214D01*
X331290Y77263D01*
X332392Y75614D01*
Y70458D01*
X312562D01*
X312015Y71778D01*
X310957Y73157D01*
X309578Y74215D01*
X307973Y74880D01*
X306250Y75107D01*
X292550D01*
X290827Y74880D01*
X289221Y74215D01*
X287843Y73157D01*
X286785Y71778D01*
X286120Y70173D01*
X285893Y68450D01*
Y61250D01*
X286120Y59527D01*
X286785Y57922D01*
X287843Y56543D01*
X289221Y55485D01*
X290827Y54820D01*
X292550Y54593D01*
X306250D01*
X307973Y54820D01*
X309578Y55485D01*
X310957Y56543D01*
X312015Y57922D01*
X312562Y59242D01*
X330293D01*
X330902Y58500D01*
Y49500D01*
X331290Y47549D01*
X332395Y45895D01*
X334049Y44790D01*
X336000Y44402D01*
X340000D01*
X341951Y44790D01*
X343605Y45895D01*
X344710Y47549D01*
X345098Y49500D01*
Y54729D01*
X348098Y55971D01*
X350902Y53167D01*
Y49500D01*
X351290Y47549D01*
X352395Y45895D01*
X354049Y44790D01*
X356000Y44402D01*
X360000D01*
X361951Y44790D01*
X363000Y45491D01*
X365157Y44772D01*
X366000Y44162D01*
Y25000D01*
X352000D01*
X280000Y25000D01*
X280000Y579713D01*
X283000Y580008D01*
X283290Y578549D01*
X284395Y576895D01*
X286049Y575790D01*
X288000Y575402D01*
X288500D01*
Y585000D01*
Y594598D01*
X288000D01*
X286049Y594210D01*
X284395Y593105D01*
X283290Y591451D01*
X283000Y589992D01*
X280000Y590287D01*
Y610000D01*
X280000Y869000D01*
X323581D01*
X324402Y868000D01*
Y867500D01*
X334000D01*
X343598D01*
Y868000D01*
X344419Y869000D01*
X624000D01*
X665228Y827772D01*
D02*
G37*
G36*
X936000Y290902D02*
X937000D01*
X940000Y288316D01*
X940000Y281488D01*
X930099Y271588D01*
X910319D01*
X909077Y274588D01*
X924244Y289756D01*
X924535Y290191D01*
X927893Y291241D01*
X928297Y291241D01*
X930000Y290902D01*
X933000D01*
Y298000D01*
X936000D01*
Y290902D01*
D02*
G37*
G36*
X574000Y752000D02*
Y610000D01*
X666000Y610000D01*
X666000Y530000D01*
X899592Y530000D01*
X900740Y527228D01*
X873056Y499544D01*
X872061Y498056D01*
X871712Y496300D01*
Y465777D01*
X870977Y465680D01*
X869371Y465015D01*
X867993Y463957D01*
X866935Y462579D01*
X866270Y460973D01*
X866043Y459250D01*
Y445550D01*
X866270Y443827D01*
X866935Y442221D01*
X867993Y440843D01*
X869371Y439785D01*
X870977Y439120D01*
X872700Y438893D01*
X879900D01*
X881412Y439092D01*
X881774Y439059D01*
X882332Y438835D01*
X884570Y437206D01*
X884761Y436244D01*
X885756Y434756D01*
X891756Y428756D01*
X893244Y427761D01*
X895000Y427412D01*
X919000D01*
X920756Y427761D01*
X922244Y428756D01*
X934419Y440930D01*
X934700Y440893D01*
X940000D01*
X940000Y377107D01*
X934700D01*
X932977Y376880D01*
X931372Y376215D01*
X929993Y375157D01*
X928935Y373778D01*
X928270Y372173D01*
X928043Y370450D01*
Y356750D01*
X928270Y355027D01*
X928935Y353422D01*
X929993Y352043D01*
X931372Y350985D01*
X932977Y350320D01*
X933712Y350223D01*
Y338200D01*
X931256Y335744D01*
X930261Y334256D01*
X929912Y332500D01*
Y325080D01*
X928049Y324710D01*
X926395Y323605D01*
X925290Y321951D01*
X924902Y320000D01*
Y318391D01*
X917756Y311244D01*
X916761Y309756D01*
X916412Y308000D01*
Y305889D01*
X913412Y304402D01*
X912951Y304710D01*
X911000Y305098D01*
X902000D01*
X900049Y304710D01*
X898395Y303605D01*
X897290Y301951D01*
X896902Y300000D01*
Y296333D01*
X892498Y291928D01*
X891673Y291820D01*
X889970Y291115D01*
X889040Y291694D01*
X887210Y294049D01*
X887598Y296000D01*
Y296500D01*
X878000D01*
Y298000D01*
X876500D01*
Y305098D01*
X873500D01*
X872663Y304931D01*
X871185Y307696D01*
X874391Y310902D01*
X882500D01*
X884451Y311290D01*
X886105Y312395D01*
X887210Y314049D01*
X887598Y316000D01*
Y320000D01*
X887210Y321951D01*
X886105Y323605D01*
X884451Y324710D01*
X882500Y325098D01*
X880888D01*
Y348223D01*
X881623Y348320D01*
X883229Y348985D01*
X884607Y350043D01*
X885665Y351422D01*
X886330Y353027D01*
X886557Y354750D01*
Y368450D01*
X886330Y370173D01*
X885665Y371778D01*
X884607Y373157D01*
X883229Y374215D01*
X881623Y374880D01*
X879900Y375107D01*
X872700D01*
X870977Y374880D01*
X869371Y374215D01*
X867993Y373157D01*
X866935Y371778D01*
X866270Y370173D01*
X866043Y368450D01*
Y354750D01*
X866270Y353027D01*
X866935Y351422D01*
X867993Y350043D01*
X869371Y348985D01*
X870977Y348320D01*
X871712Y348223D01*
Y324742D01*
X871549Y324710D01*
X869895Y323605D01*
X868790Y321951D01*
X868402Y320000D01*
Y317891D01*
X859756Y309244D01*
X858761Y307756D01*
X858412Y306000D01*
Y302303D01*
X858008Y301992D01*
X856886Y300530D01*
X856180Y298827D01*
X856083Y298090D01*
X853334Y296901D01*
X853041Y296890D01*
X850598Y299333D01*
Y300000D01*
X850210Y301951D01*
X849105Y303605D01*
X847451Y304710D01*
X845500Y305098D01*
X836500D01*
X834549Y304710D01*
X832895Y303605D01*
X831790Y301951D01*
X831402Y300000D01*
Y296333D01*
X809677Y274608D01*
X501191D01*
X500530Y275114D01*
X498827Y275820D01*
X497000Y276060D01*
X495173Y275820D01*
X494453Y275522D01*
X492754Y278065D01*
X543101Y328412D01*
X623346D01*
X624342Y327747D01*
X626000Y327417D01*
X636000D01*
X637658Y327747D01*
X639064Y328686D01*
X640003Y330092D01*
X640333Y331750D01*
Y334250D01*
X640003Y335908D01*
X639064Y337314D01*
X637658Y338253D01*
X636000Y338583D01*
X626000D01*
X624342Y338253D01*
X623346Y337588D01*
X541200D01*
X539444Y337239D01*
X537956Y336244D01*
X450644Y248933D01*
X448101Y250632D01*
X448866Y252479D01*
X449046Y253850D01*
X439650D01*
Y244454D01*
X441021Y244634D01*
X442868Y245399D01*
X444567Y242856D01*
X441980Y240269D01*
X441021Y240666D01*
X438150Y241044D01*
X435279Y240666D01*
X432603Y239557D01*
X430306Y237794D01*
X428543Y235497D01*
X427434Y232821D01*
X427056Y229950D01*
X427434Y227079D01*
X428543Y224403D01*
X430306Y222106D01*
X432603Y220343D01*
X435279Y219234D01*
X438150Y218856D01*
X441021Y219234D01*
X443697Y220343D01*
X445994Y222106D01*
X447757Y224403D01*
X448866Y227079D01*
X449244Y229950D01*
X448866Y232821D01*
X448469Y233780D01*
X487935Y273246D01*
X490478Y271547D01*
X490180Y270827D01*
X489940Y269000D01*
X490180Y267173D01*
X490886Y265470D01*
X492008Y264007D01*
X493470Y262885D01*
X495173Y262180D01*
X497000Y261940D01*
X498827Y262180D01*
X499888Y262620D01*
X501588Y260076D01*
X450926Y209415D01*
X447902Y209748D01*
X447757Y210097D01*
X445994Y212394D01*
X443697Y214157D01*
X441021Y215266D01*
X438150Y215644D01*
X435279Y215266D01*
X432603Y214157D01*
X430306Y212394D01*
X428543Y210097D01*
X427434Y207421D01*
X427056Y204550D01*
X427434Y201679D01*
X428543Y199003D01*
X430306Y196706D01*
X432603Y194943D01*
X435279Y193834D01*
X438150Y193456D01*
X441021Y193834D01*
X442868Y194599D01*
X444567Y192056D01*
X441980Y189469D01*
X441021Y189866D01*
X438150Y190244D01*
X435279Y189866D01*
X432603Y188757D01*
X430306Y186994D01*
X428543Y184697D01*
X427434Y182021D01*
X427056Y179150D01*
X427434Y176279D01*
X428543Y173603D01*
X430306Y171306D01*
X432603Y169543D01*
X435279Y168434D01*
X438150Y168056D01*
X441021Y168434D01*
X443452Y169441D01*
X443846Y169477D01*
X446830Y168165D01*
X446906Y167837D01*
X392069Y113000D01*
X386588D01*
Y171900D01*
X400256Y185567D01*
X402799Y183868D01*
X402034Y182021D01*
X401854Y180650D01*
X411250D01*
Y190046D01*
X409879Y189866D01*
X408032Y189101D01*
X406333Y191644D01*
X408920Y194231D01*
X409879Y193834D01*
X412750Y193456D01*
X415621Y193834D01*
X418297Y194943D01*
X420594Y196706D01*
X422357Y199003D01*
X423466Y201679D01*
X423844Y204550D01*
X423466Y207421D01*
X422357Y210097D01*
X420594Y212394D01*
X418297Y214157D01*
X415621Y215266D01*
X412750Y215644D01*
X409879Y215266D01*
X408032Y214501D01*
X406333Y217044D01*
X408920Y219631D01*
X409879Y219234D01*
X412750Y218856D01*
X415621Y219234D01*
X418297Y220343D01*
X420594Y222106D01*
X422357Y224403D01*
X423466Y227079D01*
X423844Y229950D01*
X423466Y232821D01*
X422357Y235497D01*
X420594Y237794D01*
X418297Y239557D01*
X415621Y240666D01*
X412750Y241044D01*
X409879Y240666D01*
X407203Y239557D01*
X404906Y237794D01*
X403143Y235497D01*
X402034Y232821D01*
X401656Y229950D01*
X402034Y227079D01*
X402431Y226120D01*
X368756Y192444D01*
X367761Y190956D01*
X367412Y189200D01*
Y180253D01*
X366305Y179866D01*
X364412Y179754D01*
X363605Y180962D01*
X361951Y182067D01*
X360000Y182455D01*
X356000D01*
X355588Y182373D01*
X352588Y184424D01*
Y191004D01*
X355588Y193055D01*
X356000Y192973D01*
X360000D01*
X361951Y193361D01*
X363605Y194466D01*
X364710Y196120D01*
X365098Y198071D01*
Y203181D01*
X407526Y245609D01*
X409879Y244634D01*
X412750Y244256D01*
X415621Y244634D01*
X418297Y245743D01*
X420594Y247506D01*
X422357Y249803D01*
X423466Y252479D01*
X423844Y255350D01*
X423466Y258221D01*
X422357Y260897D01*
X420594Y263194D01*
X418297Y264957D01*
X415621Y266066D01*
X412750Y266444D01*
X409879Y266066D01*
X408032Y265301D01*
X406333Y267844D01*
X408920Y270431D01*
X409879Y270034D01*
X412750Y269656D01*
X415621Y270034D01*
X418297Y271143D01*
X420594Y272906D01*
X422357Y275203D01*
X423466Y277879D01*
X423844Y280750D01*
X423466Y283621D01*
X422357Y286297D01*
X420594Y288594D01*
X418297Y290357D01*
X415621Y291466D01*
X412750Y291844D01*
X409879Y291466D01*
X407203Y290357D01*
X404906Y288594D01*
X403143Y286297D01*
X402034Y283621D01*
X401656Y280750D01*
X402034Y277879D01*
X402431Y276920D01*
X392099Y266588D01*
X365080D01*
X364710Y268451D01*
X363605Y270105D01*
X361951Y271210D01*
X360000Y271598D01*
X356000D01*
X355588Y271516D01*
X352588Y273567D01*
Y280147D01*
X355588Y282198D01*
X356000Y282116D01*
X360000D01*
X361951Y282504D01*
X363605Y283609D01*
X364710Y285263D01*
X365098Y287214D01*
Y296214D01*
X364710Y298165D01*
X363605Y299819D01*
X361951Y300924D01*
X360000Y301312D01*
X356000D01*
X355588Y301230D01*
X352588Y303281D01*
Y309861D01*
X355588Y311912D01*
X356000Y311830D01*
X360000D01*
X361951Y312218D01*
X363605Y313324D01*
X364710Y314977D01*
X365080Y316840D01*
X392821D01*
X401872Y307789D01*
X401656Y306150D01*
X402034Y303279D01*
X403143Y300603D01*
X404906Y298306D01*
X407203Y296543D01*
X409879Y295434D01*
X412750Y295056D01*
X415621Y295434D01*
X418297Y296543D01*
X420594Y298306D01*
X422357Y300603D01*
X423466Y303279D01*
X423844Y306150D01*
X423466Y309021D01*
X422357Y311697D01*
X420594Y313994D01*
X418297Y315757D01*
X415621Y316866D01*
X412750Y317244D01*
X409879Y316866D01*
X407203Y315757D01*
X407021Y315618D01*
X397966Y324673D01*
X396477Y325667D01*
X394722Y326017D01*
X365080D01*
X364710Y327879D01*
X363605Y329533D01*
X361951Y330638D01*
X360000Y331026D01*
X356000D01*
X355588Y330944D01*
X352588Y332995D01*
Y338000D01*
X352343Y339234D01*
X353262Y340532D01*
X354633Y341572D01*
X356028Y341295D01*
X356528D01*
Y350893D01*
X358028D01*
Y352393D01*
X365126D01*
Y355393D01*
X364738Y357343D01*
X363633Y358997D01*
X361979Y360103D01*
X360028Y360491D01*
X358357D01*
X357115Y363491D01*
X361244Y367620D01*
X362239Y369109D01*
X362588Y370864D01*
Y372073D01*
X363605Y372752D01*
X364710Y374406D01*
X365098Y376357D01*
Y385357D01*
X364710Y387308D01*
X363605Y388962D01*
X361951Y390067D01*
X360000Y390455D01*
X356000D01*
X355075Y390271D01*
X352588Y392757D01*
Y399004D01*
X355588Y401055D01*
X356000Y400973D01*
X360000D01*
X360925Y401157D01*
X382977Y379106D01*
X384465Y378111D01*
X386221Y377762D01*
X402746D01*
X403143Y376803D01*
X404906Y374506D01*
X407203Y372743D01*
X409879Y371634D01*
X412750Y371256D01*
X415621Y371634D01*
X418297Y372743D01*
X420594Y374506D01*
X422357Y376803D01*
X423466Y379479D01*
X423844Y382350D01*
X423466Y385221D01*
X422357Y387897D01*
X420594Y390194D01*
X418297Y391957D01*
X415621Y393066D01*
X412750Y393444D01*
X409879Y393066D01*
X407203Y391957D01*
X404906Y390194D01*
X403143Y387897D01*
X402746Y386938D01*
X388122D01*
X365098Y409962D01*
Y415071D01*
X364710Y417022D01*
X363605Y418676D01*
X361951Y419781D01*
X360000Y420169D01*
X356000D01*
X355588Y420087D01*
X352588Y422138D01*
Y428718D01*
X355588Y430769D01*
X356000Y430687D01*
X360000D01*
X361951Y431076D01*
X363605Y432181D01*
X364710Y433835D01*
X365098Y435785D01*
Y444785D01*
X364710Y446736D01*
X363605Y448390D01*
X361951Y449495D01*
X360000Y449883D01*
X356000D01*
X355588Y449801D01*
X352588Y451853D01*
Y458433D01*
X355588Y460484D01*
X356000Y460402D01*
X360000D01*
X360091Y460420D01*
X404906Y415605D01*
X404906Y415594D01*
X403143Y413297D01*
X402034Y410621D01*
X401656Y407750D01*
X402034Y404879D01*
X403143Y402203D01*
X404906Y399906D01*
X407203Y398143D01*
X409879Y397034D01*
X412750Y396656D01*
X415621Y397034D01*
X418297Y398143D01*
X420594Y399906D01*
X422357Y402203D01*
X423466Y404879D01*
X423844Y407750D01*
X423466Y410621D01*
X422357Y413297D01*
X420594Y415594D01*
X418297Y417357D01*
X415621Y418466D01*
X415409Y419507D01*
X415621Y422434D01*
X418297Y423543D01*
X420594Y425306D01*
X422357Y427603D01*
X423466Y430279D01*
X423844Y433150D01*
X423466Y436021D01*
X422357Y438697D01*
X420594Y440994D01*
X418297Y442757D01*
X415621Y443866D01*
X412750Y444244D01*
X409879Y443866D01*
X407203Y442757D01*
X406936Y442552D01*
X394588Y454901D01*
Y484000D01*
X394239Y485756D01*
X393244Y487244D01*
X358588Y521900D01*
Y525004D01*
X361360Y526152D01*
X401878Y485634D01*
X401656Y483950D01*
X402034Y481079D01*
X403143Y478403D01*
X404906Y476106D01*
X407203Y474343D01*
X409879Y473234D01*
X412750Y472856D01*
X415621Y473234D01*
X418297Y474343D01*
X420594Y476106D01*
X422357Y478403D01*
X423466Y481079D01*
X423844Y483950D01*
X423466Y486821D01*
X422357Y489497D01*
X420594Y491794D01*
X418297Y493557D01*
X415621Y494666D01*
X412750Y495044D01*
X409879Y494666D01*
X407203Y493557D01*
X407049Y493439D01*
X365588Y534901D01*
Y546003D01*
X368360Y547152D01*
X402402Y513109D01*
X402034Y512221D01*
X401656Y509350D01*
X402034Y506479D01*
X403143Y503803D01*
X404906Y501506D01*
X407203Y499743D01*
X409879Y498634D01*
X412750Y498256D01*
X415621Y498634D01*
X418297Y499743D01*
X420594Y501506D01*
X422357Y503803D01*
X423466Y506479D01*
X423844Y509350D01*
X423466Y512221D01*
X422357Y514897D01*
X420594Y517194D01*
X418297Y518957D01*
X415621Y520066D01*
X412750Y520444D01*
X409879Y520066D01*
X408849Y519639D01*
X406162Y522327D01*
X407861Y524870D01*
X409879Y524034D01*
X412750Y523656D01*
X415621Y524034D01*
X418297Y525143D01*
X420594Y526906D01*
X422357Y529203D01*
X423466Y531879D01*
X423844Y534750D01*
X423466Y537621D01*
X422357Y540297D01*
X420594Y542594D01*
X418297Y544357D01*
X415621Y545466D01*
X412750Y545844D01*
X409879Y545466D01*
X408920Y545069D01*
X406333Y547656D01*
X408032Y550199D01*
X409879Y549434D01*
X411250Y549254D01*
Y558650D01*
X401854D01*
X402034Y557279D01*
X402799Y555432D01*
X400256Y553733D01*
X379588Y574400D01*
Y595781D01*
X382588Y597023D01*
X397306Y582306D01*
X398794Y581311D01*
X400550Y580962D01*
X402746D01*
X403143Y580003D01*
X404906Y577706D01*
X407203Y575943D01*
X409879Y574834D01*
X412750Y574456D01*
X415621Y574834D01*
X418297Y575943D01*
X420594Y577706D01*
X422357Y580003D01*
X423466Y582679D01*
X423844Y585550D01*
X423466Y588421D01*
X422357Y591097D01*
X420594Y593394D01*
X418297Y595157D01*
X415621Y596266D01*
X412750Y596644D01*
X409879Y596266D01*
X407203Y595157D01*
X404906Y593394D01*
X404268Y592563D01*
X400715Y592083D01*
X400363Y592226D01*
X387588Y605000D01*
Y614781D01*
X390588Y616023D01*
X398906Y607706D01*
X400394Y606711D01*
X402150Y606362D01*
X402746D01*
X403143Y605403D01*
X404906Y603106D01*
X407203Y601343D01*
X409879Y600234D01*
X412750Y599856D01*
X415621Y600234D01*
X418297Y601343D01*
X420594Y603106D01*
X422357Y605403D01*
X423466Y608079D01*
X423767Y610368D01*
X427119Y610473D01*
X427434Y608079D01*
X428543Y605403D01*
X430306Y603106D01*
X432603Y601343D01*
X435279Y600234D01*
X436650Y600054D01*
Y610950D01*
X439650D01*
Y600054D01*
X441021Y600234D01*
X443697Y601343D01*
X445994Y603106D01*
X447757Y605403D01*
X448866Y608079D01*
X449244Y610950D01*
X449431Y611170D01*
X475000Y611970D01*
Y684162D01*
X475843Y684772D01*
X478000Y685491D01*
X479049Y684790D01*
X481000Y684402D01*
X481500D01*
Y694000D01*
Y703598D01*
X481000D01*
X479049Y703210D01*
X478000Y702509D01*
X475843Y703228D01*
X475000Y703838D01*
Y709162D01*
X475843Y709772D01*
X478000Y710491D01*
X479049Y709790D01*
X481000Y709402D01*
X481500D01*
Y719000D01*
Y728598D01*
X481000D01*
X479049Y728210D01*
X478000Y727509D01*
X475843Y728228D01*
X475000Y728838D01*
Y733162D01*
X475843Y733772D01*
X478000Y734491D01*
X479049Y733790D01*
X481000Y733402D01*
X481500D01*
Y743000D01*
X483000D01*
Y744500D01*
X490098D01*
Y747500D01*
X489800Y749000D01*
X490391Y750362D01*
X491615Y752000D01*
X574000Y752000D01*
D02*
G37*
G36*
X402799Y260068D02*
X402034Y258221D01*
X401656Y255350D01*
X401963Y253023D01*
X360925Y211985D01*
X360000Y212169D01*
X356000D01*
X355588Y212087D01*
X352588Y214138D01*
Y220718D01*
X355588Y222770D01*
X356000Y222688D01*
X360000D01*
X361951Y223076D01*
X363605Y224181D01*
X364710Y225835D01*
X365098Y227786D01*
Y236786D01*
X364710Y238736D01*
X363605Y240390D01*
X361951Y241495D01*
X360000Y241884D01*
X356000D01*
X355588Y241802D01*
X352588Y243853D01*
Y250433D01*
X355588Y252484D01*
X356000Y252402D01*
X360000D01*
X361951Y252790D01*
X363605Y253895D01*
X364710Y255549D01*
X365080Y257412D01*
X394000D01*
X395756Y257761D01*
X397244Y258755D01*
X400256Y261767D01*
X402799Y260068D01*
D02*
G37*
G36*
X887215Y268912D02*
X887180Y268827D01*
X886940Y267000D01*
X887180Y265173D01*
X887886Y263470D01*
X889007Y262008D01*
X890470Y260886D01*
X892173Y260180D01*
X894000Y259940D01*
X895827Y260180D01*
X897530Y260886D01*
X898992Y262008D01*
X899303Y262412D01*
X932000D01*
X933756Y262761D01*
X935244Y263756D01*
X937228Y265739D01*
X940000Y264592D01*
Y246808D01*
X829233D01*
X828303Y249582D01*
X828297Y249808D01*
X840900Y262412D01*
X857697D01*
X858008Y262008D01*
X859470Y260886D01*
X861173Y260180D01*
X863000Y259940D01*
X864827Y260180D01*
X866530Y260886D01*
X867992Y262008D01*
X869115Y263470D01*
X869820Y265173D01*
X870060Y267000D01*
X869820Y268827D01*
X869785Y268912D01*
X871653Y271912D01*
X885348D01*
X887215Y268912D01*
D02*
G37*
G36*
X660000Y620000D02*
X580000D01*
Y760000D01*
X470000D01*
Y751303D01*
X468730Y750917D01*
X468605Y751105D01*
X466951Y752210D01*
X465000Y752598D01*
X464500D01*
Y743000D01*
Y733402D01*
X465000D01*
X466951Y733790D01*
X468605Y734895D01*
X468730Y735083D01*
X470000Y734697D01*
Y727303D01*
X468730Y726917D01*
X468605Y727105D01*
X466951Y728210D01*
X465000Y728598D01*
X464500D01*
Y719000D01*
Y709402D01*
X465000D01*
X466951Y709790D01*
X468605Y710895D01*
X468730Y711083D01*
X470000Y710697D01*
Y702303D01*
X468730Y701917D01*
X468605Y702105D01*
X466951Y703210D01*
X465000Y703598D01*
X464500D01*
Y694000D01*
Y684402D01*
X465000D01*
X466951Y684790D01*
X468605Y685895D01*
X468730Y686083D01*
X470000Y685697D01*
Y620000D01*
X444423D01*
X443697Y620557D01*
X441021Y621666D01*
X438150Y622044D01*
X435279Y621666D01*
X432603Y620557D01*
X431877Y620000D01*
X420000D01*
Y628049D01*
X420594Y628506D01*
X422357Y630803D01*
X423466Y633479D01*
X423844Y636350D01*
X423466Y639221D01*
X422357Y641897D01*
X420594Y644194D01*
X420000Y644651D01*
Y650751D01*
X423749D01*
Y672749D01*
X420000D01*
Y760000D01*
X420000Y820000D01*
X660000Y820000D01*
Y620000D01*
D02*
G37*
%LPC*%
G36*
X544500Y243500D02*
X536402D01*
Y243000D01*
X536790Y241049D01*
X537895Y239395D01*
X539549Y238290D01*
X541500Y237902D01*
X544500D01*
Y243500D01*
D02*
G37*
G36*
X758500Y813915D02*
X756606Y813665D01*
X753444Y812355D01*
X750728Y810272D01*
X748644Y807556D01*
X747335Y804394D01*
X747085Y802500D01*
X758500D01*
Y813915D01*
D02*
G37*
G36*
X761500Y813915D02*
Y802500D01*
X772915D01*
X772665Y804394D01*
X771356Y807556D01*
X769272Y810272D01*
X766556Y812355D01*
X763394Y813665D01*
X761500Y813915D01*
D02*
G37*
G36*
X900500D02*
Y802500D01*
X911915D01*
X911665Y804394D01*
X910356Y807556D01*
X908272Y810272D01*
X905556Y812355D01*
X902394Y813665D01*
X900500Y813915D01*
D02*
G37*
G36*
X897500D02*
X895606Y813665D01*
X892444Y812355D01*
X889728Y810272D01*
X887645Y807556D01*
X886335Y804394D01*
X886085Y802500D01*
X897500D01*
Y813915D01*
D02*
G37*
G36*
X765000Y864069D02*
X755000D01*
X752912Y863794D01*
X750965Y862988D01*
X749294Y861706D01*
X748012Y860034D01*
X747206Y858088D01*
X746931Y856000D01*
Y846000D01*
X747206Y843912D01*
X748012Y841965D01*
X749294Y840294D01*
X750965Y839012D01*
X752912Y838206D01*
X755000Y837931D01*
X765000D01*
X767088Y838206D01*
X769035Y839012D01*
X770706Y840294D01*
X771988Y841965D01*
X772794Y843912D01*
X773069Y846000D01*
Y856000D01*
X772794Y858088D01*
X771988Y860034D01*
X770706Y861706D01*
X769035Y862988D01*
X767088Y863794D01*
X765000Y864069D01*
D02*
G37*
G36*
X758500Y799500D02*
X747085D01*
X747335Y797606D01*
X748644Y794444D01*
X750728Y791728D01*
X753444Y789644D01*
X756606Y788335D01*
X758500Y788085D01*
Y799500D01*
D02*
G37*
G36*
X897500Y799500D02*
X886085D01*
X886335Y797606D01*
X887645Y794444D01*
X889728Y791728D01*
X892444Y789644D01*
X895606Y788335D01*
X897500Y788085D01*
Y799500D01*
D02*
G37*
G36*
X911915D02*
X900500D01*
Y788085D01*
X902394Y788335D01*
X905556Y789644D01*
X908272Y791728D01*
X910356Y794444D01*
X911665Y797606D01*
X911915Y799500D01*
D02*
G37*
G36*
X772915Y799500D02*
X761500D01*
Y788085D01*
X763394Y788335D01*
X766556Y789644D01*
X769272Y791728D01*
X771356Y794444D01*
X772665Y797606D01*
X772915Y799500D01*
D02*
G37*
G36*
X904000Y864069D02*
X894000D01*
X891912Y863794D01*
X889966Y862988D01*
X888294Y861706D01*
X887012Y860034D01*
X886206Y858088D01*
X885931Y856000D01*
Y846000D01*
X886206Y843912D01*
X887012Y841965D01*
X888294Y840294D01*
X889966Y839012D01*
X891912Y838206D01*
X894000Y837931D01*
X904000D01*
X906088Y838206D01*
X908035Y839012D01*
X909706Y840294D01*
X910988Y841965D01*
X911794Y843912D01*
X912069Y846000D01*
Y856000D01*
X911794Y858088D01*
X910988Y860034D01*
X909706Y861706D01*
X908035Y862988D01*
X906088Y863794D01*
X904000Y864069D01*
D02*
G37*
G36*
X454582Y939650D02*
X439650D01*
Y924718D01*
X441385Y924889D01*
X444495Y925832D01*
X447361Y927364D01*
X449874Y929426D01*
X451936Y931939D01*
X453468Y934805D01*
X454411Y937915D01*
X454582Y939650D01*
D02*
G37*
G36*
X505382D02*
X490450D01*
Y924718D01*
X492185Y924889D01*
X495295Y925832D01*
X498161Y927364D01*
X500674Y929426D01*
X502736Y931939D01*
X504268Y934805D01*
X505211Y937915D01*
X505382Y939650D01*
D02*
G37*
G36*
X338500Y893098D02*
X335500D01*
Y887500D01*
X343598D01*
Y888000D01*
X343210Y889951D01*
X342105Y891605D01*
X340451Y892710D01*
X338500Y893098D01*
D02*
G37*
G36*
X332500D02*
X329500D01*
X327549Y892710D01*
X325895Y891605D01*
X324790Y889951D01*
X324402Y888000D01*
Y887500D01*
X332500D01*
Y893098D01*
D02*
G37*
G36*
X556182Y939650D02*
X541250D01*
Y924718D01*
X542985Y924889D01*
X546095Y925832D01*
X548961Y927364D01*
X551474Y929426D01*
X553536Y931939D01*
X555068Y934805D01*
X556011Y937915D01*
X556182Y939650D01*
D02*
G37*
G36*
X538250D02*
X523318D01*
X523489Y937915D01*
X524432Y934805D01*
X525964Y931939D01*
X528026Y929426D01*
X530539Y927364D01*
X533405Y925832D01*
X536515Y924889D01*
X538250Y924718D01*
Y939650D01*
D02*
G37*
G36*
X589050D02*
X574118D01*
X574289Y937915D01*
X575232Y934805D01*
X576764Y931939D01*
X578826Y929426D01*
X581339Y927364D01*
X584205Y925832D01*
X587315Y924889D01*
X589050Y924718D01*
Y939650D01*
D02*
G37*
G36*
X487450D02*
X472518D01*
X472689Y937915D01*
X473632Y934805D01*
X475164Y931939D01*
X477226Y929426D01*
X479739Y927364D01*
X482605Y925832D01*
X485715Y924889D01*
X487450Y924718D01*
Y939650D01*
D02*
G37*
G36*
X606982D02*
X592050D01*
Y924718D01*
X593785Y924889D01*
X596895Y925832D01*
X599761Y927364D01*
X602274Y929426D01*
X604336Y931939D01*
X605868Y934805D01*
X606811Y937915D01*
X606982Y939650D01*
D02*
G37*
G36*
X436650D02*
X421718D01*
X421889Y937915D01*
X422832Y934805D01*
X424364Y931939D01*
X426426Y929426D01*
X428939Y927364D01*
X431805Y925832D01*
X434915Y924889D01*
X436650Y924718D01*
Y939650D01*
D02*
G37*
G36*
X225400Y863234D02*
Y855100D01*
X233535D01*
X233397Y856145D01*
X232415Y858516D01*
X230852Y860552D01*
X228816Y862115D01*
X226445Y863097D01*
X225400Y863234D01*
D02*
G37*
G36*
X222400Y863234D02*
X221355Y863097D01*
X218984Y862115D01*
X216948Y860552D01*
X215385Y858516D01*
X214403Y856145D01*
X214265Y855100D01*
X222400D01*
Y863234D01*
D02*
G37*
G36*
X813923Y661500D02*
X801500D01*
Y649077D01*
X803655Y649360D01*
X807060Y650771D01*
X809985Y653015D01*
X812229Y655940D01*
X813640Y659345D01*
X813923Y661500D01*
D02*
G37*
G36*
X798500D02*
X786077D01*
X786360Y659345D01*
X787771Y655940D01*
X790015Y653015D01*
X792940Y650771D01*
X796345Y649360D01*
X798500Y649077D01*
Y661500D01*
D02*
G37*
G36*
X813923Y691500D02*
X800000D01*
X786077D01*
X786360Y689345D01*
X787771Y685940D01*
X790015Y683015D01*
X792940Y680771D01*
X795862Y679561D01*
X796120Y678000D01*
X795862Y676439D01*
X792940Y675229D01*
X790015Y672985D01*
X787771Y670060D01*
X786360Y666655D01*
X786077Y664500D01*
X800000D01*
X813923D01*
X813640Y666655D01*
X812229Y670060D01*
X809985Y672985D01*
X807060Y675229D01*
X804138Y676439D01*
X803880Y678000D01*
X804138Y679561D01*
X807060Y680771D01*
X809985Y683015D01*
X812229Y685940D01*
X813640Y689345D01*
X813923Y691500D01*
D02*
G37*
G36*
X798500Y706923D02*
X796345Y706640D01*
X792940Y705229D01*
X790015Y702985D01*
X787771Y700060D01*
X786360Y696655D01*
X786077Y694500D01*
X798500D01*
Y706923D01*
D02*
G37*
G36*
X801500D02*
Y694500D01*
X813923D01*
X813640Y696655D01*
X812229Y700060D01*
X809985Y702985D01*
X807060Y705229D01*
X803655Y706640D01*
X801500Y706923D01*
D02*
G37*
G36*
X312907Y357892D02*
X300900D01*
Y349135D01*
X306250D01*
X307973Y349362D01*
X309578Y350027D01*
X310957Y351085D01*
X312015Y352464D01*
X312680Y354069D01*
X312907Y355792D01*
Y357892D01*
D02*
G37*
G36*
X297900D02*
X285893D01*
Y355792D01*
X286120Y354069D01*
X286785Y352464D01*
X287843Y351085D01*
X289221Y350027D01*
X290827Y349362D01*
X292550Y349135D01*
X297900D01*
Y357892D01*
D02*
G37*
G36*
X306250Y433638D02*
X300900D01*
Y424881D01*
X312907D01*
Y426981D01*
X312680Y428704D01*
X312015Y430309D01*
X310957Y431688D01*
X309578Y432746D01*
X307973Y433411D01*
X306250Y433638D01*
D02*
G37*
G36*
X297900D02*
X292550D01*
X290827Y433411D01*
X289221Y432746D01*
X287843Y431688D01*
X286785Y430309D01*
X286120Y428704D01*
X285893Y426981D01*
Y424881D01*
X297900D01*
Y433638D01*
D02*
G37*
G36*
X336500Y506598D02*
X336000D01*
X334049Y506210D01*
X332395Y505105D01*
X331290Y503451D01*
X330902Y501500D01*
Y498500D01*
X336500D01*
Y506598D01*
D02*
G37*
G36*
Y495500D02*
X330902D01*
Y492500D01*
X331290Y490549D01*
X332395Y488895D01*
X334049Y487790D01*
X336000Y487402D01*
X336500D01*
Y495500D01*
D02*
G37*
G36*
X306250Y369649D02*
X300900D01*
Y360892D01*
X312907D01*
Y362992D01*
X312680Y364715D01*
X312015Y366321D01*
X310957Y367700D01*
X309578Y368757D01*
X307973Y369422D01*
X306250Y369649D01*
D02*
G37*
G36*
X297900D02*
X292550D01*
X290827Y369422D01*
X289221Y368757D01*
X287843Y367700D01*
X286785Y366321D01*
X286120Y364715D01*
X285893Y362992D01*
Y360892D01*
X297900D01*
Y369649D01*
D02*
G37*
G36*
X312907Y421881D02*
X300900D01*
Y413124D01*
X306250D01*
X307973Y413351D01*
X309578Y414016D01*
X310957Y415074D01*
X312015Y416452D01*
X312680Y418058D01*
X312907Y419781D01*
Y421881D01*
D02*
G37*
G36*
X297900D02*
X285893D01*
Y419781D01*
X286120Y418058D01*
X286785Y416452D01*
X287843Y415074D01*
X289221Y414016D01*
X290827Y413351D01*
X292550Y413124D01*
X297900D01*
Y421881D01*
D02*
G37*
G36*
X297900Y229916D02*
X285893D01*
Y227815D01*
X286120Y226092D01*
X286785Y224487D01*
X287843Y223108D01*
X289221Y222050D01*
X290827Y221385D01*
X292550Y221159D01*
X297900D01*
Y229916D01*
D02*
G37*
G36*
X306250Y177684D02*
X300900D01*
Y168927D01*
X312907D01*
Y171027D01*
X312680Y172750D01*
X312015Y174355D01*
X310957Y175734D01*
X309578Y176792D01*
X307973Y177457D01*
X306250Y177684D01*
D02*
G37*
G36*
X297900D02*
X292550D01*
X290827Y177457D01*
X289221Y176792D01*
X287843Y175734D01*
X286785Y174355D01*
X286120Y172750D01*
X285893Y171027D01*
Y168927D01*
X297900D01*
Y177684D01*
D02*
G37*
G36*
X312907Y229916D02*
X300900D01*
Y221159D01*
X306250D01*
X307973Y221385D01*
X309578Y222050D01*
X310957Y223108D01*
X312015Y224487D01*
X312680Y226092D01*
X312907Y227815D01*
Y229916D01*
D02*
G37*
G36*
X297900Y241672D02*
X292550D01*
X290827Y241446D01*
X289221Y240781D01*
X287843Y239723D01*
X286785Y238344D01*
X286120Y236738D01*
X285893Y235015D01*
Y232915D01*
X297900D01*
Y241672D01*
D02*
G37*
G36*
X306250D02*
X300900D01*
Y232915D01*
X312907D01*
Y235015D01*
X312680Y236738D01*
X312015Y238344D01*
X310957Y239723D01*
X309578Y240781D01*
X307973Y241446D01*
X306250Y241672D01*
D02*
G37*
G36*
Y49707D02*
X300900D01*
Y40950D01*
X312907D01*
Y43050D01*
X312680Y44773D01*
X312015Y46378D01*
X310957Y47757D01*
X309578Y48815D01*
X307973Y49480D01*
X306250Y49707D01*
D02*
G37*
G36*
X297900Y101939D02*
X285893D01*
Y99838D01*
X286120Y98116D01*
X286785Y96510D01*
X287843Y95131D01*
X289221Y94073D01*
X290827Y93408D01*
X292550Y93182D01*
X297900D01*
Y101939D01*
D02*
G37*
G36*
X297900Y49707D02*
X292550D01*
X290827Y49480D01*
X289221Y48815D01*
X287843Y47757D01*
X286785Y46378D01*
X286120Y44773D01*
X285893Y43050D01*
Y40950D01*
X297900D01*
Y49707D01*
D02*
G37*
G36*
Y37950D02*
X285893D01*
Y35850D01*
X286120Y34127D01*
X286785Y32522D01*
X287843Y31143D01*
X289221Y30085D01*
X290827Y29420D01*
X292550Y29193D01*
X297900D01*
Y37950D01*
D02*
G37*
G36*
X312907D02*
X300900D01*
Y29193D01*
X306250D01*
X307973Y29420D01*
X309578Y30085D01*
X310957Y31143D01*
X312015Y32522D01*
X312680Y34127D01*
X312907Y35850D01*
Y37950D01*
D02*
G37*
G36*
Y101939D02*
X300900D01*
Y93182D01*
X306250D01*
X307973Y93408D01*
X309578Y94073D01*
X310957Y95131D01*
X312015Y96510D01*
X312680Y98116D01*
X312907Y99838D01*
Y101939D01*
D02*
G37*
G36*
Y165927D02*
X300900D01*
Y157170D01*
X306250D01*
X307973Y157397D01*
X309578Y158062D01*
X310957Y159120D01*
X312015Y160499D01*
X312680Y162104D01*
X312907Y163827D01*
Y165927D01*
D02*
G37*
G36*
X297900D02*
X285893D01*
Y163827D01*
X286120Y162104D01*
X286785Y160499D01*
X287843Y159120D01*
X289221Y158062D01*
X290827Y157397D01*
X292550Y157170D01*
X297900D01*
Y165927D01*
D02*
G37*
G36*
X297900Y113695D02*
X292550D01*
X290827Y113469D01*
X289221Y112803D01*
X287843Y111746D01*
X286785Y110367D01*
X286120Y108761D01*
X285893Y107038D01*
Y104939D01*
X297900D01*
Y113695D01*
D02*
G37*
G36*
X306250D02*
X300900D01*
Y104939D01*
X312907D01*
Y107038D01*
X312680Y108761D01*
X312015Y110367D01*
X310957Y111746D01*
X309578Y112803D01*
X307973Y113469D01*
X306250Y113695D01*
D02*
G37*
G36*
X312907Y293904D02*
X300900D01*
Y285147D01*
X306250D01*
X307973Y285374D01*
X309578Y286039D01*
X310957Y287097D01*
X312015Y288475D01*
X312680Y290081D01*
X312907Y291804D01*
Y293904D01*
D02*
G37*
G36*
X297900D02*
X285893D01*
Y291804D01*
X286120Y290081D01*
X286785Y288475D01*
X287843Y287097D01*
X289221Y286039D01*
X290827Y285374D01*
X292550Y285147D01*
X297900D01*
Y293904D01*
D02*
G37*
G36*
X306250Y305661D02*
X300900D01*
Y296904D01*
X312907D01*
Y299004D01*
X312680Y300727D01*
X312015Y302332D01*
X310957Y303711D01*
X309578Y304769D01*
X307973Y305434D01*
X306250Y305661D01*
D02*
G37*
G36*
X297900D02*
X292550D01*
X290827Y305434D01*
X289221Y304769D01*
X287843Y303711D01*
X286785Y302332D01*
X286120Y300727D01*
X285893Y299004D01*
Y296904D01*
X297900D01*
Y305661D01*
D02*
G37*
G36*
X300100Y838032D02*
X297555Y837697D01*
X295184Y836715D01*
X293148Y835152D01*
X291585Y833116D01*
X290603Y830745D01*
X290268Y828200D01*
X290603Y825655D01*
X291585Y823284D01*
X293148Y821248D01*
X295184Y819685D01*
X297555Y818703D01*
X300100Y818368D01*
X302645Y818703D01*
X305016Y819685D01*
X307052Y821248D01*
X308615Y823284D01*
X309597Y825655D01*
X309932Y828200D01*
X309597Y830745D01*
X308615Y833116D01*
X307052Y835152D01*
X305016Y836715D01*
X302645Y837697D01*
X300100Y838032D01*
D02*
G37*
G36*
X633069Y845500D02*
X621500D01*
Y833931D01*
X625000D01*
X627088Y834206D01*
X629035Y835012D01*
X630706Y836294D01*
X631988Y837965D01*
X632794Y839912D01*
X633069Y842000D01*
Y845500D01*
D02*
G37*
G36*
X618500D02*
X606931D01*
Y842000D01*
X607206Y839912D01*
X608012Y837965D01*
X609294Y836294D01*
X610965Y835012D01*
X612912Y834206D01*
X615000Y833931D01*
X618500D01*
Y845500D01*
D02*
G37*
G36*
X478500Y844500D02*
X466931D01*
Y841000D01*
X467206Y838912D01*
X468012Y836965D01*
X469294Y835294D01*
X470965Y834012D01*
X472912Y833206D01*
X475000Y832931D01*
X478500D01*
Y844500D01*
D02*
G37*
G36*
X493069D02*
X481500D01*
Y832931D01*
X485000D01*
X487088Y833206D01*
X489035Y834012D01*
X490706Y835294D01*
X491988Y836965D01*
X492794Y838912D01*
X493069Y841000D01*
Y844500D01*
D02*
G37*
G36*
X300100Y812632D02*
X297555Y812297D01*
X295184Y811315D01*
X293148Y809752D01*
X291585Y807716D01*
X290603Y805345D01*
X290268Y802800D01*
X290603Y800255D01*
X291585Y797884D01*
X293148Y795848D01*
X295184Y794285D01*
X297555Y793303D01*
X300100Y792968D01*
X302645Y793303D01*
X305016Y794285D01*
X307052Y795848D01*
X308615Y797884D01*
X308750Y798212D01*
X323417D01*
Y798000D01*
X323747Y796342D01*
X324686Y794936D01*
X326092Y793997D01*
X327750Y793667D01*
X330250D01*
X331908Y793997D01*
X333314Y794936D01*
X334253Y796342D01*
X334583Y798000D01*
Y808000D01*
X334253Y809658D01*
X333314Y811064D01*
X331908Y812003D01*
X330250Y812333D01*
X327750D01*
X326092Y812003D01*
X324686Y811064D01*
X323747Y809658D01*
X323417Y808000D01*
Y807388D01*
X308750D01*
X308615Y807716D01*
X307052Y809752D01*
X305016Y811315D01*
X302645Y812297D01*
X300100Y812632D01*
D02*
G37*
G36*
X343598Y864500D02*
X335500D01*
Y858902D01*
X338500D01*
X340451Y859290D01*
X342105Y860395D01*
X343210Y862049D01*
X343598Y864000D01*
Y864500D01*
D02*
G37*
G36*
X485000Y859069D02*
X481500D01*
Y847500D01*
X493069D01*
Y851000D01*
X492794Y853088D01*
X491988Y855034D01*
X490706Y856706D01*
X489035Y857988D01*
X487088Y858794D01*
X485000Y859069D01*
D02*
G37*
G36*
X618500Y860069D02*
X615000D01*
X612912Y859794D01*
X610965Y858988D01*
X609294Y857706D01*
X608012Y856034D01*
X607206Y854088D01*
X606931Y852000D01*
Y848500D01*
X618500D01*
Y860069D01*
D02*
G37*
G36*
X478500Y859069D02*
X475000D01*
X472912Y858794D01*
X470965Y857988D01*
X469294Y856706D01*
X468012Y855034D01*
X467206Y853088D01*
X466931Y851000D01*
Y847500D01*
X478500D01*
Y859069D01*
D02*
G37*
G36*
X298600Y852100D02*
X290465D01*
X290603Y851055D01*
X291585Y848684D01*
X293148Y846648D01*
X295184Y845085D01*
X297555Y844103D01*
X298600Y843965D01*
Y852100D01*
D02*
G37*
G36*
X309734D02*
X301600D01*
Y843965D01*
X302645Y844103D01*
X305016Y845085D01*
X307052Y846648D01*
X308615Y848684D01*
X309597Y851055D01*
X309734Y852100D01*
D02*
G37*
G36*
X625000Y860069D02*
X621500D01*
Y848500D01*
X633069D01*
Y852000D01*
X632794Y854088D01*
X631988Y856034D01*
X630706Y857706D01*
X629035Y858988D01*
X627088Y859794D01*
X625000Y860069D01*
D02*
G37*
G36*
X301600Y863234D02*
Y855100D01*
X309734D01*
X309597Y856145D01*
X308615Y858516D01*
X307052Y860552D01*
X305016Y862115D01*
X302645Y863097D01*
X301600Y863234D01*
D02*
G37*
G36*
X332500Y864500D02*
X324402D01*
Y864000D01*
X324790Y862049D01*
X325895Y860395D01*
X327549Y859290D01*
X329500Y858902D01*
X332500D01*
Y864500D01*
D02*
G37*
G36*
X298600Y863234D02*
X297555Y863097D01*
X295184Y862115D01*
X293148Y860552D01*
X291585Y858516D01*
X290603Y856145D01*
X290465Y855100D01*
X298600D01*
Y863234D01*
D02*
G37*
G36*
X330250Y660333D02*
X327750D01*
X326092Y660003D01*
X324686Y659064D01*
X323747Y657658D01*
X323417Y656000D01*
Y654988D01*
X309848D01*
Y660148D01*
X290352D01*
Y640652D01*
X309848D01*
Y645812D01*
X323454D01*
X323747Y644342D01*
X324686Y642936D01*
X326092Y641997D01*
X327750Y641667D01*
X330250D01*
X331908Y641997D01*
X333314Y642936D01*
X334253Y644342D01*
X334583Y646000D01*
Y656000D01*
X334253Y657658D01*
X333314Y659064D01*
X331908Y660003D01*
X330250Y660333D01*
D02*
G37*
G36*
X297098Y583500D02*
X291500D01*
Y575402D01*
X292000D01*
X293951Y575790D01*
X295605Y576895D01*
X296710Y578549D01*
X297098Y580500D01*
Y583500D01*
D02*
G37*
G36*
X292000Y594598D02*
X291500D01*
Y586500D01*
X297098D01*
Y589500D01*
X296710Y591451D01*
X295605Y593105D01*
X293951Y594210D01*
X292000Y594598D01*
D02*
G37*
G36*
X300100Y736432D02*
X297555Y736097D01*
X295184Y735115D01*
X293148Y733552D01*
X291585Y731516D01*
X290603Y729145D01*
X290268Y726600D01*
X290603Y724055D01*
X291585Y721684D01*
X293148Y719648D01*
X295184Y718085D01*
X297555Y717103D01*
X300100Y716768D01*
X302645Y717103D01*
X305016Y718085D01*
X307052Y719648D01*
X308615Y721684D01*
X308750Y722012D01*
X323417D01*
Y722000D01*
X323747Y720342D01*
X324686Y718936D01*
X326092Y717997D01*
X327750Y717667D01*
X330250D01*
X331908Y717997D01*
X333314Y718936D01*
X334253Y720342D01*
X334583Y722000D01*
Y732000D01*
X334253Y733659D01*
X333314Y735064D01*
X331908Y736004D01*
X330250Y736333D01*
X327750D01*
X326092Y736004D01*
X324686Y735064D01*
X323747Y733659D01*
X323417Y732000D01*
Y731188D01*
X308750D01*
X308615Y731516D01*
X307052Y733552D01*
X305016Y735115D01*
X302645Y736097D01*
X300100Y736432D01*
D02*
G37*
G36*
X330250Y787333D02*
X327750D01*
X326092Y787003D01*
X324686Y786064D01*
X323747Y784658D01*
X323417Y783000D01*
Y781988D01*
X308750D01*
X308615Y782316D01*
X307052Y784352D01*
X305016Y785915D01*
X302645Y786897D01*
X300100Y787232D01*
X297555Y786897D01*
X295184Y785915D01*
X293148Y784352D01*
X291585Y782316D01*
X290603Y779945D01*
X290268Y777400D01*
X290603Y774855D01*
X291585Y772484D01*
X293148Y770448D01*
X295184Y768885D01*
X297555Y767903D01*
X300100Y767568D01*
X302645Y767903D01*
X305016Y768885D01*
X307052Y770448D01*
X308615Y772484D01*
X308750Y772812D01*
X323454D01*
X323747Y771342D01*
X324686Y769936D01*
X326092Y768997D01*
X327750Y768667D01*
X330250D01*
X331908Y768997D01*
X333314Y769936D01*
X334253Y771342D01*
X334583Y773000D01*
Y783000D01*
X334253Y784658D01*
X333314Y786064D01*
X331908Y787003D01*
X330250Y787333D01*
D02*
G37*
G36*
X300100Y761832D02*
X297555Y761497D01*
X295184Y760515D01*
X293148Y758952D01*
X291585Y756916D01*
X290603Y754545D01*
X290268Y752000D01*
X290603Y749455D01*
X291585Y747084D01*
X293148Y745048D01*
X295184Y743485D01*
X297555Y742503D01*
X300100Y742168D01*
X302645Y742503D01*
X305016Y743485D01*
X307052Y745048D01*
X308615Y747084D01*
X308750Y747412D01*
X323417D01*
Y747000D01*
X323747Y745342D01*
X324686Y743936D01*
X326092Y742997D01*
X327750Y742667D01*
X330250D01*
X331908Y742997D01*
X333314Y743936D01*
X334253Y745342D01*
X334583Y747000D01*
Y757000D01*
X334253Y758658D01*
X333314Y760064D01*
X331908Y761003D01*
X330250Y761333D01*
X327750D01*
X326092Y761003D01*
X324686Y760064D01*
X323747Y758658D01*
X323417Y757000D01*
Y756588D01*
X308750D01*
X308615Y756916D01*
X307052Y758952D01*
X305016Y760515D01*
X302645Y761497D01*
X300100Y761832D01*
D02*
G37*
G36*
Y685632D02*
X297555Y685297D01*
X295184Y684315D01*
X293148Y682752D01*
X291585Y680716D01*
X290603Y678345D01*
X290268Y675800D01*
X290603Y673255D01*
X291585Y670884D01*
X293148Y668848D01*
X295184Y667285D01*
X297555Y666303D01*
X300100Y665968D01*
X302645Y666303D01*
X305016Y667285D01*
X307052Y668848D01*
X308615Y670884D01*
X308750Y671212D01*
X323417D01*
Y671000D01*
X323747Y669342D01*
X324686Y667936D01*
X326092Y666997D01*
X327750Y666667D01*
X330250D01*
X331908Y666997D01*
X333314Y667936D01*
X334253Y669342D01*
X334583Y671000D01*
Y681000D01*
X334253Y682658D01*
X333314Y684064D01*
X331908Y685003D01*
X330250Y685333D01*
X327750D01*
X326092Y685003D01*
X324686Y684064D01*
X323747Y682658D01*
X323417Y681000D01*
Y680388D01*
X308750D01*
X308615Y680716D01*
X307052Y682752D01*
X305016Y684315D01*
X302645Y685297D01*
X300100Y685632D01*
D02*
G37*
G36*
Y711032D02*
X297555Y710697D01*
X295184Y709715D01*
X293148Y708152D01*
X291585Y706116D01*
X290603Y703745D01*
X290268Y701200D01*
X290603Y698655D01*
X291585Y696284D01*
X293148Y694248D01*
X295184Y692685D01*
X297555Y691703D01*
X300100Y691368D01*
X302645Y691703D01*
X305016Y692685D01*
X307052Y694248D01*
X308615Y696284D01*
X308750Y696612D01*
X323417D01*
Y696000D01*
X323747Y694342D01*
X324686Y692936D01*
X326092Y691997D01*
X327750Y691667D01*
X330250D01*
X331908Y691997D01*
X333314Y692936D01*
X334253Y694342D01*
X334583Y696000D01*
Y706000D01*
X334253Y707658D01*
X333314Y709064D01*
X331908Y710003D01*
X330250Y710333D01*
X327750D01*
X326092Y710003D01*
X324686Y709064D01*
X323747Y707658D01*
X323417Y706000D01*
Y705788D01*
X308750D01*
X308615Y706116D01*
X307052Y708152D01*
X305016Y709715D01*
X302645Y710697D01*
X300100Y711032D01*
D02*
G37*
G36*
X365126Y349393D02*
X359528D01*
Y341295D01*
X360028D01*
X361979Y341683D01*
X363633Y342788D01*
X364738Y344442D01*
X365126Y346393D01*
Y349393D01*
D02*
G37*
G36*
X438150Y368044D02*
X435279Y367666D01*
X432603Y366557D01*
X430306Y364794D01*
X428543Y362497D01*
X427434Y359821D01*
X427056Y356950D01*
X427434Y354079D01*
X428543Y351403D01*
X430306Y349106D01*
X432603Y347343D01*
X435279Y346234D01*
X438150Y345856D01*
X441021Y346234D01*
X443697Y347343D01*
X445994Y349106D01*
X447757Y351403D01*
X448866Y354079D01*
X449244Y356950D01*
X448866Y359821D01*
X447757Y362497D01*
X445994Y364794D01*
X443697Y366557D01*
X441021Y367666D01*
X438150Y368044D01*
D02*
G37*
G36*
Y545844D02*
X435279Y545466D01*
X432603Y544357D01*
X430306Y542594D01*
X428543Y540297D01*
X427434Y537621D01*
X427056Y534750D01*
X427434Y531879D01*
X428543Y529203D01*
X430306Y526906D01*
X432603Y525143D01*
X435279Y524034D01*
X438150Y523656D01*
X441021Y524034D01*
X443697Y525143D01*
X445994Y526906D01*
X447757Y529203D01*
X448154Y530162D01*
X549350D01*
X728412Y351100D01*
Y338583D01*
X728000D01*
X726342Y338253D01*
X724936Y337314D01*
X723997Y335908D01*
X723667Y334250D01*
Y331750D01*
X723997Y330092D01*
X724936Y328686D01*
X726342Y327747D01*
X728000Y327417D01*
X738000D01*
X739658Y327747D01*
X741064Y328686D01*
X742003Y330092D01*
X742333Y331750D01*
Y334250D01*
X742003Y335908D01*
X741064Y337314D01*
X739658Y338253D01*
X738000Y338583D01*
X737588D01*
Y353000D01*
X737239Y354756D01*
X736244Y356244D01*
X554494Y537994D01*
X553006Y538989D01*
X551250Y539338D01*
X448154D01*
X447757Y540297D01*
X445994Y542594D01*
X443697Y544357D01*
X441021Y545466D01*
X438150Y545844D01*
D02*
G37*
G36*
Y469644D02*
X435279Y469266D01*
X432603Y468157D01*
X430306Y466394D01*
X428543Y464097D01*
X427434Y461421D01*
X427056Y458550D01*
X427434Y455679D01*
X428543Y453003D01*
X430306Y450706D01*
X432603Y448943D01*
X435279Y447834D01*
X438150Y447456D01*
X441021Y447834D01*
X443697Y448943D01*
X445994Y450706D01*
X447757Y453003D01*
X448154Y453962D01*
X587550D01*
X677412Y364100D01*
Y338583D01*
X677000D01*
X675342Y338253D01*
X673936Y337314D01*
X672997Y335908D01*
X672667Y334250D01*
Y331750D01*
X672997Y330092D01*
X673936Y328686D01*
X675342Y327747D01*
X677000Y327417D01*
X687000D01*
X688658Y327747D01*
X690064Y328686D01*
X691003Y330092D01*
X691333Y331750D01*
Y334250D01*
X691003Y335908D01*
X690064Y337314D01*
X688658Y338253D01*
X687000Y338583D01*
X686588D01*
Y366000D01*
X686239Y367756D01*
X685244Y369244D01*
X592694Y461794D01*
X591206Y462789D01*
X589450Y463138D01*
X448154D01*
X447757Y464097D01*
X445994Y466394D01*
X443697Y468157D01*
X441021Y469266D01*
X438150Y469644D01*
D02*
G37*
G36*
Y495044D02*
X435279Y494666D01*
X432603Y493557D01*
X430306Y491794D01*
X428543Y489497D01*
X427434Y486821D01*
X427056Y483950D01*
X427434Y481079D01*
X428543Y478403D01*
X430306Y476106D01*
X432603Y474343D01*
X435279Y473234D01*
X438150Y472856D01*
X441021Y473234D01*
X443697Y474343D01*
X445994Y476106D01*
X447757Y478403D01*
X448154Y479362D01*
X580149D01*
X702412Y357099D01*
Y338583D01*
X702000D01*
X700342Y338253D01*
X698936Y337314D01*
X697997Y335908D01*
X697667Y334250D01*
Y331750D01*
X697997Y330092D01*
X698936Y328686D01*
X700342Y327747D01*
X702000Y327417D01*
X712000D01*
X713658Y327747D01*
X715064Y328686D01*
X716003Y330092D01*
X716333Y331750D01*
Y334250D01*
X716003Y335908D01*
X715064Y337314D01*
X713658Y338253D01*
X712000Y338583D01*
X711588D01*
Y359000D01*
X711239Y360756D01*
X710244Y362244D01*
X585294Y487194D01*
X583806Y488189D01*
X582050Y488538D01*
X448154D01*
X447757Y489497D01*
X445994Y491794D01*
X443697Y493557D01*
X441021Y494666D01*
X438150Y495044D01*
D02*
G37*
G36*
X411250Y367846D02*
X409879Y367666D01*
X407203Y366557D01*
X404906Y364794D01*
X403143Y362497D01*
X402034Y359821D01*
X401854Y358450D01*
X411250D01*
Y367846D01*
D02*
G37*
G36*
X423646Y355450D02*
X414250D01*
Y346054D01*
X415621Y346234D01*
X418297Y347343D01*
X420594Y349106D01*
X422357Y351403D01*
X423466Y354079D01*
X423646Y355450D01*
D02*
G37*
G36*
X411250D02*
X401854D01*
X402034Y354079D01*
X403143Y351403D01*
X404906Y349106D01*
X407203Y347343D01*
X409879Y346234D01*
X411250Y346054D01*
Y355450D01*
D02*
G37*
G36*
X438150Y418844D02*
X435279Y418466D01*
X432603Y417357D01*
X430306Y415594D01*
X428543Y413297D01*
X427434Y410621D01*
X427056Y407750D01*
X427434Y404879D01*
X428543Y402203D01*
X430306Y399906D01*
X432603Y398143D01*
X435279Y397034D01*
X438150Y396656D01*
X441021Y397034D01*
X443697Y398143D01*
X445994Y399906D01*
X447757Y402203D01*
X448154Y403162D01*
X614350D01*
X652412Y365099D01*
Y338583D01*
X652000D01*
X650342Y338253D01*
X648936Y337314D01*
X647997Y335908D01*
X647667Y334250D01*
Y331750D01*
X647997Y330092D01*
X648936Y328686D01*
X650342Y327747D01*
X652000Y327417D01*
X662000D01*
X663658Y327747D01*
X665064Y328686D01*
X666003Y330092D01*
X666333Y331750D01*
Y334250D01*
X666003Y335908D01*
X665064Y337314D01*
X663658Y338253D01*
X662000Y338583D01*
X661588D01*
Y367000D01*
X661239Y368756D01*
X660244Y370244D01*
X619494Y410994D01*
X618006Y411989D01*
X616250Y412338D01*
X448154D01*
X447757Y413297D01*
X445994Y415594D01*
X443697Y417357D01*
X441021Y418466D01*
X438150Y418844D01*
D02*
G37*
G36*
X850598Y316500D02*
X842500D01*
Y310902D01*
X845500D01*
X847451Y311290D01*
X849105Y312395D01*
X850210Y314049D01*
X850598Y316000D01*
Y316500D01*
D02*
G37*
G36*
X905300Y375107D02*
X898100D01*
X896377Y374880D01*
X894771Y374215D01*
X893393Y373157D01*
X892335Y371778D01*
X891670Y370173D01*
X891443Y368450D01*
Y354750D01*
X891670Y353027D01*
X892335Y351422D01*
X893393Y350043D01*
X894771Y348985D01*
X896377Y348320D01*
X897112Y348223D01*
Y335300D01*
X897461Y333544D01*
X898456Y332056D01*
X902412Y328100D01*
Y325098D01*
X902000D01*
X900049Y324710D01*
X898395Y323605D01*
X897290Y321951D01*
X896902Y320000D01*
Y316000D01*
X897290Y314049D01*
X898395Y312395D01*
X900049Y311290D01*
X902000Y310902D01*
X911000D01*
X912951Y311290D01*
X914605Y312395D01*
X915710Y314049D01*
X916098Y316000D01*
Y320000D01*
X915710Y321951D01*
X914605Y323605D01*
X912951Y324710D01*
X911588Y324981D01*
Y330000D01*
X911239Y331756D01*
X910244Y333244D01*
X906288Y337201D01*
Y348223D01*
X907023Y348320D01*
X908628Y348985D01*
X910007Y350043D01*
X911065Y351422D01*
X911730Y353027D01*
X911957Y354750D01*
Y368450D01*
X911730Y370173D01*
X911065Y371778D01*
X910007Y373157D01*
X908628Y374215D01*
X907023Y374880D01*
X905300Y375107D01*
D02*
G37*
G36*
X839500Y316500D02*
X831402D01*
Y316000D01*
X831790Y314049D01*
X832895Y312395D01*
X834549Y311290D01*
X836500Y310902D01*
X839500D01*
Y316500D01*
D02*
G37*
G36*
X439650Y317046D02*
Y307650D01*
X449046D01*
X448866Y309021D01*
X447757Y311697D01*
X445994Y313994D01*
X443697Y315757D01*
X441021Y316866D01*
X439650Y317046D01*
D02*
G37*
G36*
X635923Y581500D02*
X622000D01*
X608077D01*
X608360Y579345D01*
X609771Y575940D01*
X612015Y573015D01*
X614940Y570771D01*
X617862Y569561D01*
X618120Y568000D01*
X617862Y566439D01*
X614940Y565229D01*
X612015Y562985D01*
X609771Y560060D01*
X608360Y556655D01*
X608077Y554500D01*
X622000D01*
X635923D01*
X635640Y556655D01*
X634229Y560060D01*
X631985Y562985D01*
X629060Y565229D01*
X626138Y566439D01*
X625880Y568000D01*
X626138Y569561D01*
X629060Y570771D01*
X631985Y573015D01*
X634229Y575940D01*
X635640Y579345D01*
X635923Y581500D01*
D02*
G37*
G36*
X423646Y558650D02*
X414250D01*
Y549254D01*
X415621Y549434D01*
X418297Y550543D01*
X420594Y552306D01*
X422357Y554603D01*
X423466Y557279D01*
X423646Y558650D01*
D02*
G37*
G36*
X438150Y342644D02*
X435279Y342266D01*
X432603Y341157D01*
X430306Y339394D01*
X428543Y337097D01*
X427434Y334421D01*
X427056Y331550D01*
X427434Y328679D01*
X428543Y326003D01*
X430306Y323706D01*
X432603Y321943D01*
X435279Y320834D01*
X438150Y320456D01*
X441021Y320834D01*
X443697Y321943D01*
X445994Y323706D01*
X447757Y326003D01*
X448866Y328679D01*
X449244Y331550D01*
X448866Y334421D01*
X447757Y337097D01*
X445994Y339394D01*
X443697Y341157D01*
X441021Y342266D01*
X438150Y342644D01*
D02*
G37*
G36*
X412750D02*
X409879Y342266D01*
X407203Y341157D01*
X404906Y339394D01*
X403143Y337097D01*
X402034Y334421D01*
X401656Y331550D01*
X402034Y328679D01*
X403143Y326003D01*
X404906Y323706D01*
X407203Y321943D01*
X409879Y320834D01*
X412750Y320456D01*
X415621Y320834D01*
X418297Y321943D01*
X420594Y323706D01*
X422357Y326003D01*
X423466Y328679D01*
X423844Y331550D01*
X423466Y334421D01*
X422357Y337097D01*
X420594Y339394D01*
X418297Y341157D01*
X415621Y342266D01*
X412750Y342644D01*
D02*
G37*
G36*
X839500Y325098D02*
X836500D01*
X834549Y324710D01*
X832895Y323605D01*
X831790Y321951D01*
X831402Y320000D01*
Y319500D01*
X839500D01*
Y325098D01*
D02*
G37*
G36*
X845500D02*
X842500D01*
Y319500D01*
X850598D01*
Y320000D01*
X850210Y321951D01*
X849105Y323605D01*
X847451Y324710D01*
X845500Y325098D01*
D02*
G37*
G36*
X436650Y444046D02*
X435279Y443866D01*
X432603Y442757D01*
X430306Y440994D01*
X428543Y438697D01*
X427434Y436021D01*
X427254Y434650D01*
X436650D01*
Y444046D01*
D02*
G37*
G36*
X439650Y444046D02*
Y434650D01*
X449046D01*
X448866Y436021D01*
X447757Y438697D01*
X445994Y440994D01*
X443697Y442757D01*
X441021Y443866D01*
X439650Y444046D01*
D02*
G37*
G36*
X436650Y431650D02*
X427254D01*
X427434Y430279D01*
X428543Y427603D01*
X430306Y425306D01*
X432603Y423543D01*
X435279Y422434D01*
X436650Y422254D01*
Y431650D01*
D02*
G37*
G36*
X449046Y507850D02*
X439650D01*
Y498454D01*
X441021Y498634D01*
X443697Y499743D01*
X445994Y501506D01*
X447757Y503803D01*
X448866Y506479D01*
X449046Y507850D01*
D02*
G37*
G36*
X436650D02*
X427254D01*
X427434Y506479D01*
X428543Y503803D01*
X430306Y501506D01*
X432603Y499743D01*
X435279Y498634D01*
X436650Y498454D01*
Y507850D01*
D02*
G37*
G36*
X412750Y469644D02*
X409879Y469266D01*
X407203Y468157D01*
X404906Y466394D01*
X403143Y464097D01*
X402034Y461421D01*
X401656Y458550D01*
X402034Y455679D01*
X403143Y453003D01*
X404906Y450706D01*
X407203Y448943D01*
X409879Y447834D01*
X412750Y447456D01*
X415621Y447834D01*
X418297Y448943D01*
X420594Y450706D01*
X422357Y453003D01*
X423466Y455679D01*
X423844Y458550D01*
X423466Y461421D01*
X422357Y464097D01*
X420594Y466394D01*
X418297Y468157D01*
X415621Y469266D01*
X412750Y469644D01*
D02*
G37*
G36*
X436650Y520246D02*
X435279Y520066D01*
X432603Y518957D01*
X430306Y517194D01*
X428543Y514897D01*
X427434Y512221D01*
X427254Y510850D01*
X436650D01*
Y520246D01*
D02*
G37*
G36*
X620500Y551500D02*
X608077D01*
X608360Y549345D01*
X609771Y545940D01*
X612015Y543015D01*
X614940Y540771D01*
X618345Y539360D01*
X620500Y539077D01*
Y551500D01*
D02*
G37*
G36*
X414250Y367846D02*
Y358450D01*
X423646D01*
X423466Y359821D01*
X422357Y362497D01*
X420594Y364794D01*
X418297Y366557D01*
X415621Y367666D01*
X414250Y367846D01*
D02*
G37*
G36*
X635923Y551500D02*
X623500D01*
Y539077D01*
X625655Y539360D01*
X629060Y540771D01*
X631985Y543015D01*
X634229Y545940D01*
X635640Y549345D01*
X635923Y551500D01*
D02*
G37*
G36*
X449046Y431650D02*
X439650D01*
Y422254D01*
X441021Y422434D01*
X443697Y423543D01*
X445994Y425306D01*
X447757Y427603D01*
X448866Y430279D01*
X449046Y431650D01*
D02*
G37*
G36*
X439650Y520246D02*
Y510850D01*
X449046D01*
X448866Y512221D01*
X447757Y514897D01*
X445994Y517194D01*
X443697Y518957D01*
X441021Y520066D01*
X439650Y520246D01*
D02*
G37*
G36*
X438150Y393444D02*
X435279Y393066D01*
X432603Y391957D01*
X430306Y390194D01*
X428543Y387897D01*
X427434Y385221D01*
X427056Y382350D01*
X427434Y379479D01*
X428543Y376803D01*
X430306Y374506D01*
X432603Y372743D01*
X435279Y371634D01*
X438150Y371256D01*
X441021Y371634D01*
X443697Y372743D01*
X445994Y374506D01*
X447757Y376803D01*
X448866Y379479D01*
X449244Y382350D01*
X448866Y385221D01*
X447757Y387897D01*
X445994Y390194D01*
X443697Y391957D01*
X441021Y393066D01*
X438150Y393444D01*
D02*
G37*
G36*
X414250Y190046D02*
Y180650D01*
X423646D01*
X423466Y182021D01*
X422357Y184697D01*
X420594Y186994D01*
X418297Y188757D01*
X415621Y189866D01*
X414250Y190046D01*
D02*
G37*
G36*
X411250Y177650D02*
X401854D01*
X402034Y176279D01*
X403143Y173603D01*
X404906Y171306D01*
X407203Y169543D01*
X409879Y168434D01*
X411250Y168254D01*
Y177650D01*
D02*
G37*
G36*
X436650Y253850D02*
X427254D01*
X427434Y252479D01*
X428543Y249803D01*
X430306Y247506D01*
X432603Y245743D01*
X435279Y244634D01*
X436650Y244454D01*
Y253850D01*
D02*
G37*
G36*
Y266246D02*
X435279Y266066D01*
X432603Y264957D01*
X430306Y263194D01*
X428543Y260897D01*
X427434Y258221D01*
X427254Y256850D01*
X436650D01*
Y266246D01*
D02*
G37*
G36*
X423646Y177650D02*
X414250D01*
Y168254D01*
X415621Y168434D01*
X418297Y169543D01*
X420594Y171306D01*
X422357Y173603D01*
X423466Y176279D01*
X423646Y177650D01*
D02*
G37*
G36*
X578900Y299734D02*
X577855Y299597D01*
X575484Y298615D01*
X573448Y297052D01*
X571885Y295016D01*
X570903Y292645D01*
X570766Y291600D01*
X578900D01*
Y299734D01*
D02*
G37*
G36*
X581900D02*
Y291600D01*
X590035D01*
X589897Y292645D01*
X588915Y295016D01*
X587352Y297052D01*
X585316Y298615D01*
X582945Y299597D01*
X581900Y299734D01*
D02*
G37*
G36*
X578900Y288600D02*
X570766D01*
X570903Y287555D01*
X571885Y285184D01*
X573448Y283148D01*
X575484Y281585D01*
X577855Y280603D01*
X578900Y280465D01*
Y288600D01*
D02*
G37*
G36*
X449046Y304650D02*
X439650D01*
Y295254D01*
X441021Y295434D01*
X443697Y296543D01*
X445994Y298306D01*
X447757Y300603D01*
X448866Y303279D01*
X449046Y304650D01*
D02*
G37*
G36*
X882500Y305098D02*
X879500D01*
Y299500D01*
X887598D01*
Y300000D01*
X887210Y301951D01*
X886105Y303605D01*
X884451Y304710D01*
X882500Y305098D01*
D02*
G37*
G36*
X436650Y317046D02*
X435279Y316866D01*
X432603Y315757D01*
X430306Y313994D01*
X428543Y311697D01*
X427434Y309021D01*
X427254Y307650D01*
X436650D01*
Y317046D01*
D02*
G37*
G36*
Y304650D02*
X427254D01*
X427434Y303279D01*
X428543Y300603D01*
X430306Y298306D01*
X432603Y296543D01*
X435279Y295434D01*
X436650Y295254D01*
Y304650D01*
D02*
G37*
G36*
X636000Y320583D02*
X626000D01*
X624342Y320253D01*
X622936Y319314D01*
X621997Y317908D01*
X621667Y316250D01*
Y313750D01*
X621997Y312092D01*
X622936Y310686D01*
X624342Y309747D01*
X626000Y309417D01*
X626612D01*
Y298750D01*
X626284Y298615D01*
X624248Y297052D01*
X622685Y295016D01*
X621703Y292645D01*
X621368Y290100D01*
X621703Y287555D01*
X622685Y285184D01*
X624248Y283148D01*
X626284Y281585D01*
X628655Y280603D01*
X631200Y280268D01*
X633745Y280603D01*
X636116Y281585D01*
X638152Y283148D01*
X639715Y285184D01*
X640697Y287555D01*
X641032Y290100D01*
X640697Y292645D01*
X639715Y295016D01*
X638152Y297052D01*
X636116Y298615D01*
X635788Y298750D01*
Y309417D01*
X636000D01*
X637658Y309747D01*
X639064Y310686D01*
X640003Y312092D01*
X640333Y313750D01*
Y316250D01*
X640003Y317908D01*
X639064Y319314D01*
X637658Y320253D01*
X636000Y320583D01*
D02*
G37*
G36*
X662000D02*
X652000D01*
X650342Y320253D01*
X648936Y319314D01*
X647997Y317908D01*
X647667Y316250D01*
Y313750D01*
X647997Y312092D01*
X648936Y310686D01*
X650342Y309747D01*
X652000Y309417D01*
X652012D01*
Y298750D01*
X651684Y298615D01*
X649648Y297052D01*
X648085Y295016D01*
X647103Y292645D01*
X646768Y290100D01*
X647103Y287555D01*
X648085Y285184D01*
X649648Y283148D01*
X651684Y281585D01*
X654055Y280603D01*
X656600Y280268D01*
X659145Y280603D01*
X661516Y281585D01*
X663552Y283148D01*
X665115Y285184D01*
X666097Y287555D01*
X666432Y290100D01*
X666097Y292645D01*
X665115Y295016D01*
X663552Y297052D01*
X661516Y298615D01*
X661188Y298750D01*
Y309417D01*
X662000D01*
X663658Y309747D01*
X665064Y310686D01*
X666003Y312092D01*
X666333Y313750D01*
Y316250D01*
X666003Y317908D01*
X665064Y319314D01*
X663658Y320253D01*
X662000Y320583D01*
D02*
G37*
G36*
X605800Y299932D02*
X603255Y299597D01*
X600884Y298615D01*
X598848Y297052D01*
X597285Y295016D01*
X596303Y292645D01*
X595968Y290100D01*
X596303Y287555D01*
X597285Y285184D01*
X598848Y283148D01*
X600884Y281585D01*
X603255Y280603D01*
X605800Y280268D01*
X608345Y280603D01*
X610716Y281585D01*
X612752Y283148D01*
X614315Y285184D01*
X615297Y287555D01*
X615632Y290100D01*
X615297Y292645D01*
X614315Y295016D01*
X612752Y297052D01*
X610716Y298615D01*
X608345Y299597D01*
X605800Y299932D01*
D02*
G37*
G36*
X439650Y266246D02*
Y256850D01*
X449046D01*
X448866Y258221D01*
X447757Y260897D01*
X445994Y263194D01*
X443697Y264957D01*
X441021Y266066D01*
X439650Y266246D01*
D02*
G37*
G36*
X438150Y291844D02*
X435279Y291466D01*
X432603Y290357D01*
X430306Y288594D01*
X428543Y286297D01*
X427434Y283621D01*
X427056Y280750D01*
X427434Y277879D01*
X428543Y275203D01*
X430306Y272906D01*
X432603Y271143D01*
X435279Y270034D01*
X438150Y269656D01*
X441021Y270034D01*
X443697Y271143D01*
X445994Y272906D01*
X447757Y275203D01*
X448866Y277879D01*
X449244Y280750D01*
X448866Y283621D01*
X447757Y286297D01*
X445994Y288594D01*
X443697Y290357D01*
X441021Y291466D01*
X438150Y291844D01*
D02*
G37*
G36*
X687000Y320583D02*
X677000D01*
X675342Y320253D01*
X673936Y319314D01*
X672997Y317908D01*
X672667Y316250D01*
Y313750D01*
X672997Y312092D01*
X673936Y310686D01*
X675342Y309747D01*
X677000Y309417D01*
X677412D01*
Y298750D01*
X677084Y298615D01*
X675048Y297052D01*
X673485Y295016D01*
X672503Y292645D01*
X672168Y290100D01*
X672503Y287555D01*
X673485Y285184D01*
X675048Y283148D01*
X677084Y281585D01*
X679455Y280603D01*
X682000Y280268D01*
X684545Y280603D01*
X686916Y281585D01*
X688952Y283148D01*
X690515Y285184D01*
X691497Y287555D01*
X691832Y290100D01*
X691497Y292645D01*
X690515Y295016D01*
X688952Y297052D01*
X686916Y298615D01*
X686588Y298750D01*
Y309417D01*
X687000D01*
X688658Y309747D01*
X690064Y310686D01*
X691003Y312092D01*
X691333Y313750D01*
Y316250D01*
X691003Y317908D01*
X690064Y319314D01*
X688658Y320253D01*
X687000Y320583D01*
D02*
G37*
G36*
X788000D02*
X778000D01*
X776342Y320253D01*
X774936Y319314D01*
X773997Y317908D01*
X773667Y316250D01*
Y313750D01*
X773997Y312092D01*
X774936Y310686D01*
X776342Y309747D01*
X778000Y309417D01*
X779012D01*
Y299848D01*
X773852D01*
Y280352D01*
X793348D01*
Y299848D01*
X788188D01*
Y309454D01*
X789658Y309747D01*
X791064Y310686D01*
X792003Y312092D01*
X792333Y313750D01*
Y316250D01*
X792003Y317908D01*
X791064Y319314D01*
X789658Y320253D01*
X788000Y320583D01*
D02*
G37*
G36*
X590035Y288600D02*
X581900D01*
Y280465D01*
X582945Y280603D01*
X585316Y281585D01*
X587352Y283148D01*
X588915Y285184D01*
X589897Y287555D01*
X590035Y288600D01*
D02*
G37*
G36*
X763000Y320583D02*
X753000D01*
X751342Y320253D01*
X749936Y319314D01*
X748997Y317908D01*
X748667Y316250D01*
Y313750D01*
X748997Y312092D01*
X749936Y310686D01*
X751342Y309747D01*
X753000Y309417D01*
X753612D01*
Y298750D01*
X753284Y298615D01*
X751248Y297052D01*
X749685Y295016D01*
X748703Y292645D01*
X748368Y290100D01*
X748703Y287555D01*
X749685Y285184D01*
X751248Y283148D01*
X753284Y281585D01*
X755655Y280603D01*
X758200Y280268D01*
X760745Y280603D01*
X763116Y281585D01*
X765152Y283148D01*
X766715Y285184D01*
X767697Y287555D01*
X768032Y290100D01*
X767697Y292645D01*
X766715Y295016D01*
X765152Y297052D01*
X763116Y298615D01*
X762788Y298750D01*
Y309417D01*
X763000D01*
X764658Y309747D01*
X766064Y310686D01*
X767003Y312092D01*
X767333Y313750D01*
Y316250D01*
X767003Y317908D01*
X766064Y319314D01*
X764658Y320253D01*
X763000Y320583D01*
D02*
G37*
G36*
X712000D02*
X702000D01*
X700342Y320253D01*
X698936Y319314D01*
X697997Y317908D01*
X697667Y316250D01*
Y313750D01*
X697997Y312092D01*
X698936Y310686D01*
X700342Y309747D01*
X702000Y309417D01*
X702812D01*
Y298750D01*
X702484Y298615D01*
X700448Y297052D01*
X698885Y295016D01*
X697903Y292645D01*
X697568Y290100D01*
X697903Y287555D01*
X698885Y285184D01*
X700448Y283148D01*
X702484Y281585D01*
X704855Y280603D01*
X707400Y280268D01*
X709945Y280603D01*
X712316Y281585D01*
X714352Y283148D01*
X715915Y285184D01*
X716897Y287555D01*
X717232Y290100D01*
X716897Y292645D01*
X715915Y295016D01*
X714352Y297052D01*
X712316Y298615D01*
X711988Y298750D01*
Y309417D01*
X712000D01*
X713658Y309747D01*
X715064Y310686D01*
X716003Y312092D01*
X716333Y313750D01*
Y316250D01*
X716003Y317908D01*
X715064Y319314D01*
X713658Y320253D01*
X712000Y320583D01*
D02*
G37*
G36*
X738000D02*
X728000D01*
X726342Y320253D01*
X724936Y319314D01*
X723997Y317908D01*
X723667Y316250D01*
Y313750D01*
X723997Y312092D01*
X724936Y310686D01*
X726342Y309747D01*
X728000Y309417D01*
X728212D01*
Y298750D01*
X727884Y298615D01*
X725848Y297052D01*
X724285Y295016D01*
X723303Y292645D01*
X722968Y290100D01*
X723303Y287555D01*
X724285Y285184D01*
X725848Y283148D01*
X727884Y281585D01*
X730255Y280603D01*
X732800Y280268D01*
X735345Y280603D01*
X737716Y281585D01*
X739752Y283148D01*
X741315Y285184D01*
X742297Y287555D01*
X742632Y290100D01*
X742297Y292645D01*
X741315Y295016D01*
X739752Y297052D01*
X737716Y298615D01*
X737388Y298750D01*
Y309417D01*
X738000D01*
X739658Y309747D01*
X741064Y310686D01*
X742003Y312092D01*
X742333Y313750D01*
Y316250D01*
X742003Y317908D01*
X741064Y319314D01*
X739658Y320253D01*
X738000Y320583D01*
D02*
G37*
G36*
X620500Y596923D02*
X618345Y596640D01*
X614940Y595229D01*
X612015Y592985D01*
X609771Y590060D01*
X608360Y586655D01*
X608077Y584500D01*
X620500D01*
Y596923D01*
D02*
G37*
G36*
X438150Y596644D02*
X435279Y596266D01*
X432603Y595157D01*
X430306Y593394D01*
X428543Y591097D01*
X427434Y588421D01*
X427056Y585550D01*
X427434Y582679D01*
X428543Y580003D01*
X430306Y577706D01*
X432603Y575943D01*
X435279Y574834D01*
X438150Y574456D01*
X441021Y574834D01*
X443697Y575943D01*
X445994Y577706D01*
X447757Y580003D01*
X448154Y580962D01*
X536549D01*
X551344Y566167D01*
X549432Y563837D01*
X548606Y564389D01*
X546850Y564738D01*
X448154D01*
X447757Y565697D01*
X445994Y567994D01*
X443697Y569757D01*
X441021Y570866D01*
X438150Y571244D01*
X435279Y570866D01*
X432603Y569757D01*
X430306Y567994D01*
X428543Y565697D01*
X427434Y563021D01*
X427056Y560150D01*
X427434Y557279D01*
X428543Y554603D01*
X430306Y552306D01*
X432603Y550543D01*
X435279Y549434D01*
X438150Y549056D01*
X441021Y549434D01*
X443697Y550543D01*
X445994Y552306D01*
X447757Y554603D01*
X448154Y555562D01*
X544949D01*
X753412Y347099D01*
Y338583D01*
X753000D01*
X751342Y338253D01*
X749936Y337314D01*
X748997Y335908D01*
X748667Y334250D01*
Y331750D01*
X748997Y330092D01*
X749936Y328686D01*
X751342Y327747D01*
X753000Y327417D01*
X763000D01*
X764658Y327747D01*
X766064Y328686D01*
X767003Y330092D01*
X767333Y331750D01*
Y334250D01*
X767003Y335908D01*
X766064Y337314D01*
X764658Y338253D01*
X763000Y338583D01*
X762588D01*
Y349000D01*
X762239Y350756D01*
X761687Y351582D01*
X764017Y353494D01*
X776223Y341288D01*
X776255Y340467D01*
X775547Y337722D01*
X774936Y337314D01*
X773997Y335908D01*
X773667Y334250D01*
Y331750D01*
X773997Y330092D01*
X774936Y328686D01*
X776342Y327747D01*
X778000Y327417D01*
X788000D01*
X789658Y327747D01*
X791064Y328686D01*
X792003Y330092D01*
X792333Y331750D01*
Y334250D01*
X792003Y335908D01*
X791064Y337314D01*
X789658Y338253D01*
X788000Y338583D01*
X787588D01*
Y341000D01*
X787239Y342756D01*
X786244Y344244D01*
X541694Y588794D01*
X540206Y589789D01*
X538450Y590138D01*
X448154D01*
X447757Y591097D01*
X445994Y593394D01*
X443697Y595157D01*
X441021Y596266D01*
X438150Y596644D01*
D02*
G37*
G36*
X411250Y571046D02*
X409879Y570866D01*
X407203Y569757D01*
X404906Y567994D01*
X403143Y565697D01*
X402034Y563021D01*
X401854Y561650D01*
X411250D01*
Y571046D01*
D02*
G37*
G36*
X414250Y571046D02*
Y561650D01*
X423646D01*
X423466Y563021D01*
X422357Y565697D01*
X420594Y567994D01*
X418297Y569757D01*
X415621Y570866D01*
X414250Y571046D01*
D02*
G37*
G36*
X623500Y596923D02*
Y584500D01*
X635923D01*
X635640Y586655D01*
X634229Y590060D01*
X631985Y592985D01*
X629060Y595229D01*
X625655Y596640D01*
X623500Y596923D01*
D02*
G37*
G36*
X490098Y717500D02*
X484500D01*
Y709402D01*
X485000D01*
X486951Y709790D01*
X488605Y710895D01*
X489710Y712549D01*
X490098Y714500D01*
Y717500D01*
D02*
G37*
G36*
X485000Y703598D02*
X484500D01*
Y695500D01*
X490098D01*
Y698500D01*
X489710Y700451D01*
X488605Y702105D01*
X486951Y703210D01*
X485000Y703598D01*
D02*
G37*
G36*
Y728598D02*
X484500D01*
Y720500D01*
X490098D01*
Y723500D01*
X489710Y725451D01*
X488605Y727105D01*
X486951Y728210D01*
X485000Y728598D01*
D02*
G37*
G36*
X490098Y741500D02*
X484500D01*
Y733402D01*
X485000D01*
X486951Y733790D01*
X488605Y734895D01*
X489710Y736549D01*
X490098Y738500D01*
Y741500D01*
D02*
G37*
G36*
Y692500D02*
X484500D01*
Y684402D01*
X485000D01*
X486951Y684790D01*
X488605Y685895D01*
X489710Y687549D01*
X490098Y689500D01*
Y692500D01*
D02*
G37*
G36*
X621500Y809915D02*
Y798500D01*
X632915D01*
X632665Y800394D01*
X631356Y803556D01*
X629272Y806272D01*
X626556Y808355D01*
X623394Y809665D01*
X621500Y809915D01*
D02*
G37*
G36*
X618500Y795500D02*
X607085D01*
X607335Y793606D01*
X608644Y790444D01*
X610728Y787728D01*
X613444Y785645D01*
X616606Y784335D01*
X618500Y784085D01*
Y795500D01*
D02*
G37*
G36*
X478500Y794500D02*
X467085D01*
X467335Y792606D01*
X468644Y789444D01*
X470728Y786728D01*
X473444Y784644D01*
X476606Y783335D01*
X478500Y783085D01*
Y794500D01*
D02*
G37*
G36*
X632915Y795500D02*
X621500D01*
Y784085D01*
X623394Y784335D01*
X626556Y785645D01*
X629272Y787728D01*
X631356Y790444D01*
X632665Y793606D01*
X632915Y795500D01*
D02*
G37*
G36*
X481500Y808915D02*
Y797500D01*
X492915D01*
X492665Y799394D01*
X491356Y802556D01*
X489272Y805272D01*
X486556Y807355D01*
X483394Y808665D01*
X481500Y808915D01*
D02*
G37*
G36*
X618500Y809915D02*
X616606Y809665D01*
X613444Y808355D01*
X610728Y806272D01*
X608644Y803556D01*
X607335Y800394D01*
X607085Y798500D01*
X618500D01*
Y809915D01*
D02*
G37*
G36*
X478500Y808915D02*
X476606Y808665D01*
X473444Y807355D01*
X470728Y805272D01*
X468644Y802556D01*
X467335Y799394D01*
X467085Y797500D01*
X478500D01*
Y808915D01*
D02*
G37*
G36*
X492915Y794500D02*
X481500D01*
Y783085D01*
X483394Y783335D01*
X486556Y784644D01*
X489272Y786728D01*
X491356Y789444D01*
X492665Y792606D01*
X492915Y794500D01*
D02*
G37*
G36*
X635923Y661500D02*
X623500D01*
Y649077D01*
X625655Y649360D01*
X629060Y650771D01*
X631985Y653015D01*
X634229Y655940D01*
X635640Y659345D01*
X635923Y661500D01*
D02*
G37*
G36*
X449046Y660250D02*
X439650D01*
Y650854D01*
X441021Y651034D01*
X443697Y652143D01*
X445994Y653906D01*
X447757Y656203D01*
X448866Y658879D01*
X449046Y660250D01*
D02*
G37*
G36*
X620500Y661500D02*
X608077D01*
X608360Y659345D01*
X609771Y655940D01*
X612015Y653015D01*
X614940Y650771D01*
X618345Y649360D01*
X620500Y649077D01*
Y661500D01*
D02*
G37*
G36*
X436650Y660250D02*
X427254D01*
X427434Y658879D01*
X428543Y656203D01*
X430306Y653906D01*
X432603Y652143D01*
X435279Y651034D01*
X436650Y650854D01*
Y660250D01*
D02*
G37*
G36*
X620500Y676923D02*
X618345Y676640D01*
X614940Y675229D01*
X612015Y672985D01*
X609771Y670060D01*
X608360Y666655D01*
X608077Y664500D01*
X620500D01*
Y676923D01*
D02*
G37*
G36*
X439650Y672646D02*
Y663250D01*
X449046D01*
X448866Y664621D01*
X447757Y667297D01*
X445994Y669594D01*
X443697Y671357D01*
X441021Y672466D01*
X439650Y672646D01*
D02*
G37*
G36*
X436650Y672646D02*
X435279Y672466D01*
X432603Y671357D01*
X430306Y669594D01*
X428543Y667297D01*
X427434Y664621D01*
X427254Y663250D01*
X436650D01*
Y672646D01*
D02*
G37*
G36*
Y647246D02*
X435279Y647066D01*
X432603Y645957D01*
X430306Y644194D01*
X428543Y641897D01*
X427434Y639221D01*
X427254Y637850D01*
X436650D01*
Y647246D01*
D02*
G37*
G36*
X439650Y647246D02*
Y637850D01*
X449046D01*
X448866Y639221D01*
X447757Y641897D01*
X445994Y644194D01*
X443697Y645957D01*
X441021Y647066D01*
X439650Y647246D01*
D02*
G37*
G36*
X436650Y634850D02*
X427254D01*
X427434Y633479D01*
X428543Y630803D01*
X430306Y628506D01*
X432603Y626743D01*
X435279Y625634D01*
X436650Y625454D01*
Y634850D01*
D02*
G37*
G36*
X449046D02*
X439650D01*
Y625454D01*
X441021Y625634D01*
X443697Y626743D01*
X445994Y628506D01*
X447757Y630803D01*
X448866Y633479D01*
X449046Y634850D01*
D02*
G37*
G36*
X623500Y676923D02*
Y664500D01*
X635923D01*
X635640Y666655D01*
X634229Y670060D01*
X631985Y672985D01*
X629060Y675229D01*
X625655Y676640D01*
X623500Y676923D01*
D02*
G37*
G36*
X461500Y728598D02*
X461000D01*
X459049Y728210D01*
X457395Y727105D01*
X456290Y725451D01*
X455902Y723500D01*
Y720500D01*
X461500D01*
Y728598D01*
D02*
G37*
G36*
Y717500D02*
X455902D01*
Y714500D01*
X456290Y712549D01*
X457395Y710895D01*
X459049Y709790D01*
X461000Y709402D01*
X461500D01*
Y717500D01*
D02*
G37*
G36*
Y752598D02*
X461000D01*
X459049Y752210D01*
X457395Y751105D01*
X456290Y749451D01*
X455902Y747500D01*
Y744500D01*
X461500D01*
Y752598D01*
D02*
G37*
G36*
Y741500D02*
X455902D01*
Y738500D01*
X456290Y736549D01*
X457395Y734895D01*
X459049Y733790D01*
X461000Y733402D01*
X461500D01*
Y741500D01*
D02*
G37*
G36*
Y692500D02*
X455902D01*
Y689500D01*
X456290Y687549D01*
X457395Y685895D01*
X459049Y684790D01*
X461000Y684402D01*
X461500D01*
Y692500D01*
D02*
G37*
G36*
X635923Y691500D02*
X623500D01*
Y679077D01*
X625655Y679360D01*
X629060Y680771D01*
X631985Y683015D01*
X634229Y685940D01*
X635640Y689345D01*
X635923Y691500D01*
D02*
G37*
G36*
X620500D02*
X608077D01*
X608360Y689345D01*
X609771Y685940D01*
X612015Y683015D01*
X614940Y680771D01*
X618345Y679360D01*
X620500Y679077D01*
Y691500D01*
D02*
G37*
G36*
X623500Y706923D02*
Y694500D01*
X635923D01*
X635640Y696655D01*
X634229Y700060D01*
X631985Y702985D01*
X629060Y705229D01*
X625655Y706640D01*
X623500Y706923D01*
D02*
G37*
G36*
X461500Y703598D02*
X461000D01*
X459049Y703210D01*
X457395Y702105D01*
X456290Y700451D01*
X455902Y698500D01*
Y695500D01*
X461500D01*
Y703598D01*
D02*
G37*
G36*
X620500Y706923D02*
X618345Y706640D01*
X614940Y705229D01*
X612015Y702985D01*
X609771Y700060D01*
X608360Y696655D01*
X608077Y694500D01*
X620500D01*
Y706923D01*
D02*
G37*
%LPD*%
D10*
X783000Y315000D02*
D03*
Y333000D02*
D03*
X758000Y315000D02*
D03*
Y333000D02*
D03*
X733000Y315000D02*
D03*
Y333000D02*
D03*
X707000Y315000D02*
D03*
Y333000D02*
D03*
X682000Y315000D02*
D03*
Y333000D02*
D03*
X657000Y315000D02*
D03*
Y333000D02*
D03*
X631000Y315000D02*
D03*
Y333000D02*
D03*
D11*
X329000Y651000D02*
D03*
X347000D02*
D03*
X329000Y676000D02*
D03*
X347000D02*
D03*
X329000Y701000D02*
D03*
X347000D02*
D03*
X329000Y727000D02*
D03*
X347000D02*
D03*
X329000Y752000D02*
D03*
X347000D02*
D03*
X329000Y778000D02*
D03*
X347000D02*
D03*
X329000Y803000D02*
D03*
X347000D02*
D03*
D12*
X934500Y318000D02*
D03*
Y298000D02*
D03*
X963000Y318000D02*
D03*
Y298000D02*
D03*
X878000Y318000D02*
D03*
Y298000D02*
D03*
X334000Y886000D02*
D03*
Y866000D02*
D03*
X906500Y298000D02*
D03*
Y318000D02*
D03*
X841000D02*
D03*
Y298000D02*
D03*
X920000Y504000D02*
D03*
Y484000D02*
D03*
X963000Y504000D02*
D03*
Y484000D02*
D03*
X546000Y245000D02*
D03*
Y225000D02*
D03*
X139000Y529000D02*
D03*
Y509000D02*
D03*
D13*
X463000Y719000D02*
D03*
X483000D02*
D03*
X463000Y743000D02*
D03*
X483000D02*
D03*
X463000Y694000D02*
D03*
X483000D02*
D03*
X358000Y497000D02*
D03*
X338000D02*
D03*
X338000Y470000D02*
D03*
X358000D02*
D03*
Y440285D02*
D03*
X338000D02*
D03*
Y410571D02*
D03*
X358000D02*
D03*
X338000Y54000D02*
D03*
X358000D02*
D03*
X338000Y83714D02*
D03*
X358000D02*
D03*
Y113428D02*
D03*
X338000D02*
D03*
Y143143D02*
D03*
X358000D02*
D03*
X338000Y172857D02*
D03*
X358000D02*
D03*
Y202571D02*
D03*
X338000D02*
D03*
X358000Y232286D02*
D03*
X338000D02*
D03*
Y262000D02*
D03*
X358000D02*
D03*
X338000Y291714D02*
D03*
X358000D02*
D03*
Y321428D02*
D03*
X338000D02*
D03*
X358028Y350893D02*
D03*
X338028D02*
D03*
X358000Y380857D02*
D03*
X338000D02*
D03*
X149000Y59000D02*
D03*
X169000D02*
D03*
X150000Y90000D02*
D03*
X170000D02*
D03*
Y127000D02*
D03*
X150000D02*
D03*
Y191850D02*
D03*
X170000D02*
D03*
Y257000D02*
D03*
X150000D02*
D03*
Y318850D02*
D03*
X170000D02*
D03*
Y381000D02*
D03*
X150000D02*
D03*
X170000Y445000D02*
D03*
X150000D02*
D03*
X310000Y585000D02*
D03*
X290000D02*
D03*
D14*
X901700Y452400D02*
D03*
X876300D02*
D03*
Y361600D02*
D03*
X901700D02*
D03*
X963700Y454400D02*
D03*
X938300D02*
D03*
Y363600D02*
D03*
X963700D02*
D03*
D15*
X208600Y448781D02*
D03*
Y423381D02*
D03*
X299400D02*
D03*
Y448781D02*
D03*
X208600Y384792D02*
D03*
Y359392D02*
D03*
X299400D02*
D03*
Y384792D02*
D03*
X208600Y320804D02*
D03*
Y295404D02*
D03*
X299400D02*
D03*
Y320804D02*
D03*
X208600Y256815D02*
D03*
Y231415D02*
D03*
X299400D02*
D03*
Y256815D02*
D03*
X208600Y192827D02*
D03*
Y167427D02*
D03*
X299400D02*
D03*
Y192827D02*
D03*
X208600Y128839D02*
D03*
Y103439D02*
D03*
X299400D02*
D03*
Y128839D02*
D03*
X208600Y64850D02*
D03*
Y39450D02*
D03*
X299400D02*
D03*
Y64850D02*
D03*
D16*
X511000Y129000D02*
D03*
Y159000D02*
D03*
X571000Y160000D02*
D03*
Y130000D02*
D03*
X631000Y160000D02*
D03*
Y130000D02*
D03*
X691000D02*
D03*
Y160000D02*
D03*
X751000D02*
D03*
Y130000D02*
D03*
X811000D02*
D03*
Y160000D02*
D03*
X871000D02*
D03*
Y130000D02*
D03*
D17*
X173000Y573000D02*
D03*
X143000D02*
D03*
X173000Y623500D02*
D03*
X143000D02*
D03*
Y674000D02*
D03*
X173000D02*
D03*
Y724500D02*
D03*
X143000D02*
D03*
Y775000D02*
D03*
X173000D02*
D03*
Y825500D02*
D03*
X143000D02*
D03*
Y878000D02*
D03*
X173000D02*
D03*
D18*
X783000Y315000D02*
X783600Y314400D01*
Y290100D02*
Y314400D01*
X758000Y315000D02*
X758200Y314800D01*
Y290100D02*
Y314800D01*
X732800D02*
X733000Y315000D01*
X732800Y290100D02*
Y314800D01*
X707000Y315000D02*
X707400Y314600D01*
Y290100D02*
Y314600D01*
X682000Y290100D02*
Y315000D01*
X656600Y314600D02*
X657000Y315000D01*
X656600Y290100D02*
Y314600D01*
X631000Y315000D02*
X631200Y314800D01*
Y290100D02*
Y314800D01*
X657000Y333000D02*
Y367000D01*
X616250Y407750D02*
X657000Y367000D01*
X438150Y407750D02*
X616250D01*
X682000Y333000D02*
Y366000D01*
X589450Y458550D02*
X682000Y366000D01*
X438150Y458550D02*
X589450D01*
X707000Y333000D02*
Y359000D01*
X582050Y483950D02*
X707000Y359000D01*
X438150Y483950D02*
X582050D01*
X733000Y333000D02*
Y353000D01*
X551250Y534750D02*
X733000Y353000D01*
X438150Y534750D02*
X551250D01*
X758000Y333000D02*
Y349000D01*
X546850Y560150D02*
X758000Y349000D01*
X438150Y560150D02*
X546850D01*
X783000Y333000D02*
Y341000D01*
X538450Y585550D02*
X783000Y341000D01*
X438150Y585550D02*
X538450D01*
X438150Y229950D02*
X541200Y333000D01*
X631000D01*
X347000Y651000D02*
X351000D01*
X354000Y648000D01*
Y520000D02*
Y648000D01*
X347000Y676000D02*
X356000D01*
X361000Y671000D01*
X347000Y701000D02*
X361000D01*
X368000Y694000D01*
Y554000D02*
Y694000D01*
X347000Y727000D02*
X364000D01*
X375000Y716000D01*
Y572500D02*
Y716000D01*
X383000Y603100D02*
Y735000D01*
X347000Y752000D02*
X366000D01*
X383000Y735000D01*
X347000Y778000D02*
X371000D01*
X391000Y758000D01*
Y622100D02*
Y758000D01*
X372000Y803000D02*
X397000Y778000D01*
Y652100D02*
Y778000D01*
X328400Y650400D02*
X329000Y651000D01*
X300100Y650400D02*
X328400D01*
X328800Y675800D02*
X329000Y676000D01*
X300100Y675800D02*
X328800D01*
X300100Y701200D02*
X328800D01*
X328600Y726600D02*
X329000Y727000D01*
X300100Y726600D02*
X328600D01*
X300100Y752000D02*
X329000D01*
X300100Y777400D02*
X328400D01*
X347000Y803000D02*
X372000D01*
X328800Y802800D02*
X329000Y803000D01*
X300100Y802800D02*
X328800D01*
X904500Y276500D02*
X921000Y293000D01*
X831500Y276500D02*
X904500D01*
X839000Y267000D02*
X863000D01*
X825000Y253000D02*
X839000Y267000D01*
X932000D02*
X963000Y298000D01*
X894000Y267000D02*
X932000D01*
X815000Y260000D02*
X831500Y276500D01*
X921000Y293000D02*
Y308000D01*
X980000Y600000D02*
Y846000D01*
X876300Y496300D02*
X980000Y600000D01*
X986000Y595000D02*
Y851000D01*
X889000Y498000D02*
X986000Y595000D01*
X99700Y464900D02*
X141219Y423381D01*
X208600D01*
X438150Y179150D02*
X512500Y253500D01*
X452550Y204550D02*
X508000Y260000D01*
X512500Y253500D02*
X553192D01*
X508000Y260000D02*
X815000D01*
X382000Y173800D02*
X412750Y204550D01*
X382000Y107714D02*
Y173800D01*
X358000Y83714D02*
X382000Y107714D01*
X372000Y189200D02*
X412750Y229950D01*
X372000Y157143D02*
Y189200D01*
X358000Y143143D02*
X372000Y157143D01*
X412750Y407750D02*
Y414250D01*
X358000Y469000D02*
X412750Y414250D01*
X358000Y469000D02*
Y470000D01*
X386221Y382350D02*
X412750D01*
X358000Y410571D02*
X386221Y382350D01*
X348000Y440000D02*
Y487000D01*
Y390857D02*
Y440000D01*
X348285Y440285D01*
X358000D01*
X348000Y487000D02*
X358000Y497000D01*
X348000Y390857D02*
X358000Y380857D01*
Y370864D02*
Y380857D01*
X338028Y350893D02*
X358000Y370864D01*
X394000Y262000D02*
X412750Y280750D01*
X358000Y262000D02*
X394000D01*
X410779Y255350D02*
X412750D01*
X358000Y202571D02*
X410779Y255350D01*
X348000Y114000D02*
Y173000D01*
Y64000D02*
Y114000D01*
X348572Y113428D01*
X358000D01*
X348000Y173000D02*
Y232000D01*
Y173000D02*
X348143Y172857D01*
X358000D01*
X348000Y232000D02*
Y293000D01*
Y232000D02*
X348286Y232286D01*
X358000D01*
X348000Y293000D02*
Y338000D01*
Y293000D02*
X356714D01*
X358000Y291714D01*
X410000Y306150D02*
X412750D01*
X394722Y321428D02*
X410000Y306150D01*
X358000Y321428D02*
X394722D01*
X338028Y347972D02*
X348000Y338000D01*
X338028Y347972D02*
Y350893D01*
X63000Y140550D02*
X82550Y160100D01*
X63000Y99000D02*
Y140550D01*
Y99000D02*
X122550Y39450D01*
X208600D01*
X140000Y59000D02*
X149000D01*
X140000Y90000D02*
X150000D01*
X140000Y445000D02*
X150000D01*
X140000Y381000D02*
X150000D01*
X140000Y318850D02*
X150000D01*
X140000Y257000D02*
X150000D01*
X140000Y191850D02*
X150000D01*
X140000Y127000D02*
X150000D01*
X920000Y504000D02*
X963000D01*
Y517000D01*
X553692Y253000D02*
X825000D01*
X438150Y204550D02*
X452550D01*
X553192Y253500D02*
X553692Y253000D01*
X963000Y318000D02*
X963700Y318700D01*
Y363600D01*
X934500Y318000D02*
Y332500D01*
X938300Y336300D01*
Y363600D01*
X906500Y318000D02*
X907000Y318500D01*
Y330000D01*
X901700Y335300D02*
X907000Y330000D01*
X901700Y335300D02*
Y361600D01*
X863000Y306000D02*
X876300Y319300D01*
Y361600D01*
X863000Y297000D02*
Y306000D01*
X931000Y318000D02*
X934500D01*
X921000Y308000D02*
X931000Y318000D01*
X889000Y438000D02*
Y498000D01*
X938300Y451300D02*
Y454400D01*
X919000Y432000D02*
X938300Y451300D01*
X895000Y432000D02*
X919000D01*
X889000Y438000D02*
X895000Y432000D01*
X963000Y484000D02*
X963700Y483300D01*
Y454400D02*
Y483300D01*
X918000Y484000D02*
X920000D01*
X901700Y467700D02*
X918000Y484000D01*
X901700Y452400D02*
Y467700D01*
X409850Y433150D02*
X412750D01*
X390000Y453000D02*
X409850Y433150D01*
X390000Y453000D02*
Y484000D01*
X410050Y483950D02*
X412750D01*
X876300Y452400D02*
Y496300D01*
X438150Y534750D02*
X438200Y534800D01*
X412650Y483950D02*
X412750D01*
X82550Y363300D02*
X82800D01*
X387350Y940850D02*
Y941150D01*
X82550Y464900D02*
X99700D01*
X82550Y160100D02*
X82950Y160500D01*
X400550Y585550D02*
X412750D01*
X402150Y610950D02*
X412750D01*
X412650Y509350D02*
X412750D01*
X139700Y356950D02*
X208600D01*
X82550Y414100D02*
X139700Y356950D01*
X192150Y191850D02*
X208600D01*
X203000Y128350D02*
X208600D01*
X82550Y210900D02*
X111000Y182450D01*
X139550Y166450D02*
X208600D01*
X126000Y180000D02*
X139550Y166450D01*
X126000Y180000D02*
Y218250D01*
X82550Y261700D02*
X126000Y218250D01*
X142050Y229950D02*
X208600D01*
X110000Y262000D02*
X142050Y229950D01*
X110000Y262000D02*
Y285050D01*
X82550Y312500D02*
X110000Y285050D01*
X169000Y445000D02*
X169850Y445850D01*
X208600D01*
X169000Y381000D02*
X170350Y382350D01*
X208600D01*
X205150Y318850D02*
X208600D01*
X169000D02*
X205150D01*
X205150Y318850D02*
X208600D01*
X211000D01*
X205150Y318850D02*
X205150Y318850D01*
X206950Y257000D02*
X208600Y255350D01*
X169000Y257000D02*
X206950D01*
X169000Y191850D02*
X208600D01*
X208600Y191850D01*
X169000Y127000D02*
X207250D01*
X208600Y128350D01*
X203000D02*
Y130000D01*
X169000Y86000D02*
Y90000D01*
Y86000D02*
X190150Y64850D01*
X208600D01*
X111000Y129000D02*
Y182450D01*
Y129000D02*
X137050Y102950D01*
X208600D01*
X397000Y652100D02*
X412750Y636350D01*
X391000Y622100D02*
X402150Y610950D01*
X383000Y603100D02*
X400550Y585550D01*
X375000Y572500D02*
X412750Y534750D01*
X368000Y554000D02*
X412650Y509350D01*
X361000Y533000D02*
X410050Y483950D01*
X361000Y533000D02*
Y671000D01*
X354000Y520000D02*
X390000Y484000D01*
X641350Y941150D02*
X666200Y966000D01*
X860000D01*
X980000Y846000D01*
X387350Y941150D02*
X419200Y973000D01*
X864000D01*
X986000Y851000D01*
X150696Y295404D02*
X208600D01*
X82800Y363300D02*
X150696Y295404D01*
D19*
X139000Y529000D02*
Y539000D01*
Y498000D02*
Y509000D01*
X893500Y285000D02*
X906500Y298000D01*
X857000Y285000D02*
X893500D01*
X844000Y298000D02*
X857000Y285000D01*
X841000Y298000D02*
X844000D01*
X497000Y269000D02*
X812000D01*
X841000Y298000D01*
X497000Y210000D02*
Y217000D01*
X373000Y86000D02*
X497000Y210000D01*
X373000Y69000D02*
Y86000D01*
X389000Y87000D02*
X431000Y129000D01*
X389000Y48000D02*
Y87000D01*
X358000Y54000D02*
X373000Y69000D01*
X358000Y497000D02*
Y501000D01*
X310000Y549000D02*
X358000Y501000D01*
X310000Y549000D02*
Y585000D01*
X310000Y585000D02*
X310000Y585000D01*
X310000Y585000D02*
Y599000D01*
X348000Y64000D02*
X358000Y54000D01*
X338000Y65000D02*
Y83714D01*
Y54000D02*
Y65000D01*
X337850Y64850D02*
X338000Y65000D01*
X299400Y64850D02*
X337850D01*
X338000Y129000D02*
Y143143D01*
Y113428D02*
Y129000D01*
X337839Y128839D02*
X338000Y129000D01*
X299400Y128839D02*
X337839D01*
X338000Y186000D02*
Y202571D01*
Y172857D02*
Y186000D01*
X337000Y187000D02*
X338000Y186000D01*
X325000Y187000D02*
X337000D01*
X319173Y192827D02*
X325000Y187000D01*
X299400Y192827D02*
X319173D01*
X337000Y263000D02*
X338000Y262000D01*
X327000Y263000D02*
X337000D01*
X320815Y256815D02*
X327000Y263000D01*
X299400Y256815D02*
X320815D01*
X338000Y232286D02*
Y262000D01*
X337375Y320804D02*
X338000Y321428D01*
X299400Y320804D02*
X337375D01*
X338000Y291714D02*
Y321428D01*
Y395714D02*
Y410571D01*
Y380857D02*
Y395714D01*
X310322D02*
X338000D01*
X299400Y384792D02*
X310322Y395714D01*
X154000Y74000D02*
X169000Y59000D01*
X126000Y74000D02*
X154000D01*
X336286Y442000D02*
X338000Y440285D01*
X326000Y442000D02*
X336286D01*
X319219Y448781D02*
X326000Y442000D01*
X299400Y448781D02*
X319219D01*
X338000Y440285D02*
Y470000D01*
X431000Y129000D02*
X511000D01*
X389000Y48000D02*
X396000Y41000D01*
X541300D01*
X565150Y64850D01*
X553000Y112000D02*
X571000Y130000D01*
X459900Y112000D02*
X553000D01*
X499700Y101000D02*
X619000D01*
X631000Y113000D01*
X412750Y64850D02*
X459900Y112000D01*
X631000Y113000D02*
Y130000D01*
X463550Y64850D02*
X499700Y101000D01*
X691000Y107000D02*
Y130000D01*
X673000Y89000D02*
X691000Y107000D01*
X538500Y89000D02*
X673000D01*
X514350Y64850D02*
X538500Y89000D01*
X871000Y65900D02*
Y130000D01*
X819150Y64850D02*
X820000Y65700D01*
Y92000D01*
X811000Y101000D02*
X820000Y92000D01*
X811000Y101000D02*
Y130000D01*
X682000Y191000D02*
Y213900D01*
X651000Y160000D02*
X682000Y191000D01*
X631000Y160000D02*
X651000D01*
X707400Y191400D02*
Y213900D01*
X691000Y175000D02*
X707400Y191400D01*
X691000Y160000D02*
Y175000D01*
X732800Y196000D02*
Y213900D01*
Y196000D02*
X751000Y177800D01*
Y160000D02*
Y177800D01*
Y82200D02*
X768350Y64850D01*
X751000Y82200D02*
Y130000D01*
X593300Y176000D02*
X631200Y213900D01*
X562000Y176000D02*
X593300D01*
X545000Y159000D02*
X562000Y176000D01*
X511000Y159000D02*
X545000D01*
X656600Y211600D02*
Y213900D01*
X605000Y160000D02*
X656600Y211600D01*
X571000Y160000D02*
X605000D01*
X854000Y177000D02*
X871000Y160000D01*
X805000Y177000D02*
X854000D01*
X783600Y198400D02*
X805000Y177000D01*
X783600Y198400D02*
Y213900D01*
X790000Y160000D02*
X811000D01*
X758200Y191800D02*
X790000Y160000D01*
X758200Y191800D02*
Y213900D01*
X223900Y635900D02*
Y650400D01*
X173000Y585000D02*
X223900Y635900D01*
X173000Y573000D02*
Y585000D01*
Y623500D02*
Y624900D01*
X223900Y675800D01*
X173000Y674000D02*
X200200Y701200D01*
X223900D01*
X192000Y752000D02*
X223900D01*
X173000Y771000D02*
X192000Y752000D01*
X173000Y771000D02*
Y775000D01*
X221600Y777400D02*
X223900D01*
X173500Y825500D02*
X221600Y777400D01*
X173000Y825500D02*
X173500D01*
X173000Y851000D02*
Y878000D01*
Y851000D02*
X221200Y802800D01*
X223900D01*
X173000Y724500D02*
X175100Y726600D01*
X223900D01*
X142850Y572850D02*
X143000Y573000D01*
X82550Y572850D02*
X142850D01*
X142850Y623650D02*
X143000Y623500D01*
X82550Y623650D02*
X142850D01*
X142550Y674450D02*
X143000Y674000D01*
X82550Y674450D02*
X142550D01*
X142250Y725250D02*
X143000Y724500D01*
X82550Y725250D02*
X142250D01*
X141950Y776050D02*
X143000Y775000D01*
X82550Y776050D02*
X141950D01*
X141650Y826850D02*
X143000Y825500D01*
X82550Y826850D02*
X141650D01*
X142650Y877650D02*
X143000Y878000D01*
X82550Y877650D02*
X142650D01*
D20*
X590550Y939450D02*
Y941150D01*
X117850Y74000D02*
X126000D01*
X82550Y109300D02*
X117850Y74000D01*
X619000Y796000D02*
X620000Y797000D01*
X822600Y800600D02*
X823000Y801000D01*
D21*
X567000Y240000D02*
X953000D01*
X552000Y225000D02*
X567000Y240000D01*
X550000Y225000D02*
X552000D01*
X546000Y217000D02*
Y225000D01*
Y217000D02*
X549100Y213900D01*
X580400D01*
D22*
X445000Y735000D02*
D03*
D23*
X438150Y179150D02*
D03*
X412750D02*
D03*
X438150Y204550D02*
D03*
X412750D02*
D03*
X438150Y229950D02*
D03*
X412750D02*
D03*
X438150Y255350D02*
D03*
X412750D02*
D03*
X438150Y280750D02*
D03*
X412750D02*
D03*
X438150Y306150D02*
D03*
X412750D02*
D03*
X438150Y331550D02*
D03*
X412750D02*
D03*
X438150Y356950D02*
D03*
X412750D02*
D03*
X438150Y382350D02*
D03*
X412750D02*
D03*
X438150Y407750D02*
D03*
X412750D02*
D03*
X438150Y433150D02*
D03*
X412750D02*
D03*
X438150Y458550D02*
D03*
X412750D02*
D03*
X438150Y483950D02*
D03*
X412750D02*
D03*
X438150Y509350D02*
D03*
X412750D02*
D03*
X438150Y534750D02*
D03*
X412750D02*
D03*
X438150Y560150D02*
D03*
X412750D02*
D03*
X438150Y585550D02*
D03*
X412750D02*
D03*
X438150Y610950D02*
D03*
X412750D02*
D03*
X438150Y636350D02*
D03*
X412750D02*
D03*
X438150Y661750D02*
D03*
D24*
X412750D02*
D03*
D25*
X742950Y941150D02*
D03*
X412750Y64850D02*
D03*
D26*
X692150Y941150D02*
D03*
X641350D02*
D03*
X590550D02*
D03*
X539750D02*
D03*
X488950D02*
D03*
X438150D02*
D03*
X387350D02*
D03*
X336550D02*
D03*
X285750D02*
D03*
X869950Y64850D02*
D03*
X819150D02*
D03*
X768350D02*
D03*
X717550D02*
D03*
X666750D02*
D03*
X615950D02*
D03*
X565150D02*
D03*
X514350D02*
D03*
X463550D02*
D03*
X82550Y414100D02*
D03*
Y363300D02*
D03*
Y312500D02*
D03*
Y261700D02*
D03*
Y210900D02*
D03*
Y160100D02*
D03*
Y109300D02*
D03*
Y522050D02*
D03*
Y572850D02*
D03*
Y623650D02*
D03*
Y674450D02*
D03*
Y725250D02*
D03*
Y776050D02*
D03*
Y826850D02*
D03*
D27*
Y464900D02*
D03*
Y877650D02*
D03*
D28*
X622000Y693000D02*
D03*
Y663000D02*
D03*
Y583000D02*
D03*
Y553000D02*
D03*
X800000Y583000D02*
D03*
Y553000D02*
D03*
Y663000D02*
D03*
Y693000D02*
D03*
D29*
X300100Y650400D02*
D03*
D30*
Y675800D02*
D03*
Y701200D02*
D03*
Y726600D02*
D03*
Y752000D02*
D03*
Y777400D02*
D03*
Y802800D02*
D03*
Y828200D02*
D03*
Y853600D02*
D03*
X223900D02*
D03*
Y828200D02*
D03*
Y802800D02*
D03*
Y777400D02*
D03*
Y752000D02*
D03*
Y726600D02*
D03*
Y701200D02*
D03*
Y675800D02*
D03*
Y650400D02*
D03*
X783600Y213900D02*
D03*
X758200D02*
D03*
X732800D02*
D03*
X707400D02*
D03*
X682000D02*
D03*
X656600D02*
D03*
X631200D02*
D03*
X605800D02*
D03*
X580400D02*
D03*
Y290100D02*
D03*
X605800D02*
D03*
X631200D02*
D03*
X656600D02*
D03*
X682000D02*
D03*
X707400D02*
D03*
X732800D02*
D03*
X758200D02*
D03*
D31*
X480000Y846000D02*
D03*
X620000Y847000D02*
D03*
X760000Y851000D02*
D03*
X899000D02*
D03*
D32*
X480000Y796000D02*
D03*
X620000Y797000D02*
D03*
X760000Y801000D02*
D03*
X899000D02*
D03*
D33*
X783600Y290100D02*
D03*
D34*
X139000Y498000D02*
D03*
Y539000D02*
D03*
X510000Y690000D02*
D03*
Y720000D02*
D03*
Y740000D02*
D03*
X640000Y530000D02*
D03*
X929000Y281000D02*
D03*
X894000Y267000D02*
D03*
X863000D02*
D03*
X339000Y821000D02*
D03*
X353000Y858000D02*
D03*
X893500Y285000D02*
D03*
X497000Y269000D02*
D03*
Y217000D02*
D03*
X310000Y599000D02*
D03*
X140000Y59000D02*
D03*
Y90000D02*
D03*
X953000Y240000D02*
D03*
X963000Y517000D02*
D03*
X863000Y297000D02*
D03*
X140000Y445000D02*
D03*
Y381000D02*
D03*
Y318850D02*
D03*
Y257000D02*
D03*
Y191850D02*
D03*
Y127000D02*
D03*
X424000Y830000D02*
D03*
X520000D02*
D03*
X548000Y859000D02*
D03*
X584000Y828000D02*
D03*
X849000Y475000D02*
D03*
X911000Y416000D02*
D03*
X863000Y420000D02*
D03*
X825000Y401000D02*
D03*
X856000Y332000D02*
D03*
X842000Y355000D02*
D03*
X811000Y339000D02*
D03*
X809000Y305000D02*
D03*
X792000Y382000D02*
D03*
X717000Y492000D02*
D03*
X680000Y458000D02*
D03*
X586000Y584000D02*
D03*
X544000Y597000D02*
D03*
X554000Y668000D02*
D03*
X510000Y610000D02*
D03*
X566000Y742000D02*
D03*
X540000Y720000D02*
D03*
X508000Y652000D02*
D03*
X480000Y660000D02*
D03*
X460000Y610000D02*
D03*
X468000Y573000D02*
D03*
X467000Y545000D02*
D03*
Y519000D02*
D03*
X553000Y501000D02*
D03*
X467000Y470000D02*
D03*
X462000Y424000D02*
D03*
X580000Y430000D02*
D03*
X522000Y389000D02*
D03*
X475000Y371000D02*
D03*
X622000Y364000D02*
D03*
X475000Y314000D02*
D03*
X529000Y288000D02*
D03*
X527000Y240000D02*
D03*
X515000Y224000D02*
D03*
X289000Y516000D02*
D03*
X315000Y475000D02*
D03*
X335000Y555000D02*
D03*
X289000Y615000D02*
D03*
X287000Y558000D02*
D03*
X289000Y481000D02*
D03*
X288000Y404000D02*
D03*
X287000Y340000D02*
D03*
Y276000D02*
D03*
X285000Y211000D02*
D03*
Y147000D02*
D03*
X910000Y254000D02*
D03*
X818000Y227000D02*
D03*
X874000D02*
D03*
X398000Y146000D02*
D03*
X375000Y368000D02*
D03*
X387000Y346000D02*
D03*
X377000Y304000D02*
D03*
X388000Y280000D02*
D03*
X378000Y243000D02*
D03*
X333000Y589000D02*
D03*
X390000Y575000D02*
D03*
X394000Y855000D02*
D03*
X766000Y452000D02*
D03*
X764000Y398000D02*
D03*
M02*
