M48
;Layer_Color=9474304
;FILE_FORMAT=4:4
METRIC,LZ
;TYPE=PLATED
T1F00S00C0.4000
T2F00S00C0.8492
T3F00S00C0.9000
T4F00S00C1.0000
T5F00S00C1.3000
T6F00S00C1.5000
T7F00S00C3.5000
%
T01
X00818Y00227
X00874
X00863Y00267
Y00297
X00856Y00332
X00842Y00355
X00811Y00339
X00809Y00305
X00792Y00382
X008935Y00285
X00894Y00267
X0091Y00254
X00929Y00281
X00953Y0024
X00527
X00515Y00224
X00497Y00217
Y00269
X00529Y00288
X00475Y00314
Y00371
X00522Y00389
X00622Y00364
X00375Y00368
X00387Y00346
X00377Y00304
X00388Y0028
X00378Y00243
X00398Y00146
X00285Y00147
Y00211
X00287Y00276
Y0034
X0014Y0031885
Y00257
Y0019185
Y00127
Y0009
Y00059
Y00381
Y00445
X00139Y00498
Y00539
X00287Y00558
X00289Y00516
Y00481
X00315Y00475
X00288Y00404
X00462Y00424
X00467Y0047
Y00519
Y00545
X00468Y00573
X0046Y0061
X0051
X00508Y00652
X0048Y0066
X0051Y0069
Y0072
Y0074
X0054Y0072
X00566Y00742
X00554Y00668
X00544Y00597
X00586Y00584
X0064Y0053
X00553Y00501
X0058Y0043
X0039Y00575
X00333Y00589
X0031Y00599
X00289Y00615
X00335Y00555
X0068Y00458
X00717Y00492
X00766Y00452
X00764Y00398
X00825Y00401
X00863Y0042
X00911Y00416
X00849Y00475
X00963Y00517
X00584Y00828
X0052Y0083
X00548Y00859
X00424Y0083
X00394Y00855
X00353Y00858
X00339Y00821
T02
X00682Y002139
X007074
X007328
X007582
X007836
Y002901
X007582
X007328
X007074
X00682
X006566
X006312
X006058
X005804
Y002139
X006058
X006312
X006566
X002239Y006504
Y006758
Y007012
Y007266
Y00752
Y007774
X003001
Y00752
Y007266
Y007012
Y006758
Y006504
Y008028
Y008282
Y008536
X002239
Y008282
Y008028
T03
X0041275Y0017915
X0043815
Y0020455
X0041275
Y0022995
X0043815
Y0025535
X0041275
Y0028075
X0043815
Y0030615
X0041275
Y0033155
X0043815
Y0035695
X0041275
Y0038235
X0043815
Y0040775
X0041275
Y0043315
X0043815
Y0045855
X0041275
Y0048395
X0043815
Y0050935
X0041275
Y0053475
X0043815
Y0056015
X0041275
Y0058555
X0043815
Y0061095
X0041275
Y0063635
X0043815
Y0066175
X0041275
T04
X0076Y00801
Y00851
X00899
Y00801
X0062Y00797
Y00847
X0048Y00846
Y00796
T05
X0071755Y0006485
X0076835
X0081915
X0086995
X0066675
X0061595
X0056515
X0051435
X0046355
X0041275
X0008255Y001093
Y001601
Y002109
Y002617
Y003125
Y003633
Y004141
Y004649
Y0052205
Y0057285
Y0062365
Y0067445
Y0072525
Y0077605
X0069215Y0094115
X0074295
X0064135
X0059055
X0053975
X0048895
X0043815
X0038735
X0033655
X0028575
X0008255Y0087765
Y0082685
T06
X00622Y00553
Y00583
Y00663
Y00693
X008
Y00663
Y00583
Y00553
T07
X0095Y0005
X0005
X0095Y0095
X0005
M30
