G04 Layer_Color=8388736*
%FSLAX44Y44*%
%MOMM*%
G71*
G01*
G75*
G04:AMPARAMS|DCode=43|XSize=0.9064mm|YSize=1.6564mm|CornerRadius=0.3282mm|HoleSize=0mm|Usage=FLASHONLY|Rotation=270.000|XOffset=0mm|YOffset=0mm|HoleType=Round|Shape=RoundedRectangle|*
%AMROUNDEDRECTD43*
21,1,0.9064,1.0000,0,0,270.0*
21,1,0.2500,1.6564,0,0,270.0*
1,1,0.6564,-0.5000,-0.1250*
1,1,0.6564,-0.5000,0.1250*
1,1,0.6564,0.5000,0.1250*
1,1,0.6564,0.5000,-0.1250*
%
%ADD43ROUNDEDRECTD43*%
G04:AMPARAMS|DCode=44|XSize=0.9064mm|YSize=1.6564mm|CornerRadius=0.3282mm|HoleSize=0mm|Usage=FLASHONLY|Rotation=180.000|XOffset=0mm|YOffset=0mm|HoleType=Round|Shape=RoundedRectangle|*
%AMROUNDEDRECTD44*
21,1,0.9064,1.0000,0,0,180.0*
21,1,0.2500,1.6564,0,0,180.0*
1,1,0.6564,-0.1250,0.5000*
1,1,0.6564,0.1250,0.5000*
1,1,0.6564,0.1250,-0.5000*
1,1,0.6564,-0.1250,-0.5000*
%
%ADD44ROUNDEDRECTD44*%
G04:AMPARAMS|DCode=45|XSize=1.2064mm|YSize=1.7064mm|CornerRadius=0.4032mm|HoleSize=0mm|Usage=FLASHONLY|Rotation=90.000|XOffset=0mm|YOffset=0mm|HoleType=Round|Shape=RoundedRectangle|*
%AMROUNDEDRECTD45*
21,1,1.2064,0.9000,0,0,90.0*
21,1,0.4000,1.7064,0,0,90.0*
1,1,0.8064,0.4500,0.2000*
1,1,0.8064,0.4500,-0.2000*
1,1,0.8064,-0.4500,-0.2000*
1,1,0.8064,-0.4500,0.2000*
%
%ADD45ROUNDEDRECTD45*%
G04:AMPARAMS|DCode=46|XSize=1.2064mm|YSize=1.7064mm|CornerRadius=0.4032mm|HoleSize=0mm|Usage=FLASHONLY|Rotation=180.000|XOffset=0mm|YOffset=0mm|HoleType=Round|Shape=RoundedRectangle|*
%AMROUNDEDRECTD46*
21,1,1.2064,0.9000,0,0,180.0*
21,1,0.4000,1.7064,0,0,180.0*
1,1,0.8064,-0.2000,0.4500*
1,1,0.8064,0.2000,0.4500*
1,1,0.8064,0.2000,-0.4500*
1,1,0.8064,-0.2000,-0.4500*
%
%ADD46ROUNDEDRECTD46*%
G04:AMPARAMS|DCode=47|XSize=1.8464mm|YSize=2.4964mm|CornerRadius=0.5632mm|HoleSize=0mm|Usage=FLASHONLY|Rotation=0.000|XOffset=0mm|YOffset=0mm|HoleType=Round|Shape=RoundedRectangle|*
%AMROUNDEDRECTD47*
21,1,1.8464,1.3700,0,0,0.0*
21,1,0.7200,2.4964,0,0,0.0*
1,1,1.1264,0.3600,-0.6850*
1,1,1.1264,-0.3600,-0.6850*
1,1,1.1264,-0.3600,0.6850*
1,1,1.1264,0.3600,0.6850*
%
%ADD47ROUNDEDRECTD47*%
G04:AMPARAMS|DCode=48|XSize=1.8464mm|YSize=2.4964mm|CornerRadius=0.5632mm|HoleSize=0mm|Usage=FLASHONLY|Rotation=90.000|XOffset=0mm|YOffset=0mm|HoleType=Round|Shape=RoundedRectangle|*
%AMROUNDEDRECTD48*
21,1,1.8464,1.3700,0,0,90.0*
21,1,0.7200,2.4964,0,0,90.0*
1,1,1.1264,0.6850,0.3600*
1,1,1.1264,0.6850,-0.3600*
1,1,1.1264,-0.6850,-0.3600*
1,1,1.1264,-0.6850,0.3600*
%
%ADD48ROUNDEDRECTD48*%
G04:AMPARAMS|DCode=49|XSize=1.4064mm|YSize=2.1364mm|CornerRadius=0.4532mm|HoleSize=0mm|Usage=FLASHONLY|Rotation=270.000|XOffset=0mm|YOffset=0mm|HoleType=Round|Shape=RoundedRectangle|*
%AMROUNDEDRECTD49*
21,1,1.4064,1.2300,0,0,270.0*
21,1,0.5000,2.1364,0,0,270.0*
1,1,0.9064,-0.6150,-0.2500*
1,1,0.9064,-0.6150,0.2500*
1,1,0.9064,0.6150,0.2500*
1,1,0.9064,0.6150,-0.2500*
%
%ADD49ROUNDEDRECTD49*%
G04:AMPARAMS|DCode=50|XSize=1.4064mm|YSize=2.1364mm|CornerRadius=0.4532mm|HoleSize=0mm|Usage=FLASHONLY|Rotation=0.000|XOffset=0mm|YOffset=0mm|HoleType=Round|Shape=RoundedRectangle|*
%AMROUNDEDRECTD50*
21,1,1.4064,1.2300,0,0,0.0*
21,1,0.5000,2.1364,0,0,0.0*
1,1,0.9064,0.2500,-0.6150*
1,1,0.9064,-0.2500,-0.6150*
1,1,0.9064,-0.2500,0.6150*
1,1,0.9064,0.2500,0.6150*
%
%ADD50ROUNDEDRECTD50*%
%ADD51C,1.9003*%
%ADD52R,1.9003X1.9003*%
%ADD53R,2.9997X2.9997*%
%ADD54C,2.9997*%
%ADD55R,2.9997X2.9997*%
%ADD56C,2.6064*%
%ADD57C,0.4064*%
%ADD58R,1.7492X1.7492*%
%ADD59C,1.7492*%
G04:AMPARAMS|DCode=60|XSize=2.4064mm|YSize=2.4064mm|CornerRadius=0.7032mm|HoleSize=0mm|Usage=FLASHONLY|Rotation=270.000|XOffset=0mm|YOffset=0mm|HoleType=Round|Shape=RoundedRectangle|*
%AMROUNDEDRECTD60*
21,1,2.4064,1.0000,0,0,270.0*
21,1,1.0000,2.4064,0,0,270.0*
1,1,1.4064,-0.5000,-0.5000*
1,1,1.4064,-0.5000,0.5000*
1,1,1.4064,0.5000,0.5000*
1,1,1.4064,0.5000,-0.5000*
%
%ADD60ROUNDEDRECTD60*%
%ADD61C,2.4064*%
%ADD62R,1.7492X1.7492*%
D43*
X783000Y315000D02*
D03*
Y333000D02*
D03*
X758000Y315000D02*
D03*
Y333000D02*
D03*
X733000Y315000D02*
D03*
Y333000D02*
D03*
X707000Y315000D02*
D03*
Y333000D02*
D03*
X682000Y315000D02*
D03*
Y333000D02*
D03*
X657000Y315000D02*
D03*
Y333000D02*
D03*
X631000Y315000D02*
D03*
Y333000D02*
D03*
D44*
X329000Y651000D02*
D03*
X347000D02*
D03*
X329000Y676000D02*
D03*
X347000D02*
D03*
X329000Y701000D02*
D03*
X347000D02*
D03*
X329000Y727000D02*
D03*
X347000D02*
D03*
X329000Y752000D02*
D03*
X347000D02*
D03*
X329000Y778000D02*
D03*
X347000D02*
D03*
X329000Y803000D02*
D03*
X347000D02*
D03*
D45*
X934500Y318000D02*
D03*
Y298000D02*
D03*
X963000Y318000D02*
D03*
Y298000D02*
D03*
X878000Y318000D02*
D03*
Y298000D02*
D03*
X334000Y886000D02*
D03*
Y866000D02*
D03*
X906500Y298000D02*
D03*
Y318000D02*
D03*
X841000D02*
D03*
Y298000D02*
D03*
X920000Y504000D02*
D03*
Y484000D02*
D03*
X963000Y504000D02*
D03*
Y484000D02*
D03*
X546000Y245000D02*
D03*
Y225000D02*
D03*
X139000Y529000D02*
D03*
Y509000D02*
D03*
D46*
X463000Y719000D02*
D03*
X483000D02*
D03*
X463000Y743000D02*
D03*
X483000D02*
D03*
X463000Y694000D02*
D03*
X483000D02*
D03*
X358000Y497000D02*
D03*
X338000D02*
D03*
X338000Y470000D02*
D03*
X358000D02*
D03*
Y440285D02*
D03*
X338000D02*
D03*
Y410571D02*
D03*
X358000D02*
D03*
X338000Y54000D02*
D03*
X358000D02*
D03*
X338000Y83714D02*
D03*
X358000D02*
D03*
Y113428D02*
D03*
X338000D02*
D03*
Y143143D02*
D03*
X358000D02*
D03*
X338000Y172857D02*
D03*
X358000D02*
D03*
Y202571D02*
D03*
X338000D02*
D03*
X358000Y232286D02*
D03*
X338000D02*
D03*
Y262000D02*
D03*
X358000D02*
D03*
X338000Y291714D02*
D03*
X358000D02*
D03*
Y321428D02*
D03*
X338000D02*
D03*
X358028Y350893D02*
D03*
X338028D02*
D03*
X358000Y380857D02*
D03*
X338000D02*
D03*
X149000Y59000D02*
D03*
X169000D02*
D03*
X150000Y90000D02*
D03*
X170000D02*
D03*
Y127000D02*
D03*
X150000D02*
D03*
Y191850D02*
D03*
X170000D02*
D03*
Y257000D02*
D03*
X150000D02*
D03*
Y318850D02*
D03*
X170000D02*
D03*
Y381000D02*
D03*
X150000D02*
D03*
X170000Y445000D02*
D03*
X150000D02*
D03*
X310000Y585000D02*
D03*
X290000D02*
D03*
D47*
X901700Y452400D02*
D03*
X876300D02*
D03*
Y361600D02*
D03*
X901700D02*
D03*
X963700Y454400D02*
D03*
X938300D02*
D03*
Y363600D02*
D03*
X963700D02*
D03*
D48*
X208600Y448781D02*
D03*
Y423381D02*
D03*
X299400D02*
D03*
Y448781D02*
D03*
X208600Y384792D02*
D03*
Y359392D02*
D03*
X299400D02*
D03*
Y384792D02*
D03*
X208600Y320804D02*
D03*
Y295404D02*
D03*
X299400D02*
D03*
Y320804D02*
D03*
X208600Y256815D02*
D03*
Y231415D02*
D03*
X299400D02*
D03*
Y256815D02*
D03*
X208600Y192827D02*
D03*
Y167427D02*
D03*
X299400D02*
D03*
Y192827D02*
D03*
X208600Y128839D02*
D03*
Y103439D02*
D03*
X299400D02*
D03*
Y128839D02*
D03*
X208600Y64850D02*
D03*
Y39450D02*
D03*
X299400D02*
D03*
Y64850D02*
D03*
D49*
X511000Y129000D02*
D03*
Y159000D02*
D03*
X571000Y160000D02*
D03*
Y130000D02*
D03*
X631000Y160000D02*
D03*
Y130000D02*
D03*
X691000D02*
D03*
Y160000D02*
D03*
X751000D02*
D03*
Y130000D02*
D03*
X811000D02*
D03*
Y160000D02*
D03*
X871000D02*
D03*
Y130000D02*
D03*
D50*
X173000Y573000D02*
D03*
X143000D02*
D03*
X173000Y623500D02*
D03*
X143000D02*
D03*
Y674000D02*
D03*
X173000D02*
D03*
Y724500D02*
D03*
X143000D02*
D03*
Y775000D02*
D03*
X173000D02*
D03*
Y825500D02*
D03*
X143000D02*
D03*
Y878000D02*
D03*
X173000D02*
D03*
D51*
X438150Y179150D02*
D03*
X412750D02*
D03*
X438150Y204550D02*
D03*
X412750D02*
D03*
X438150Y229950D02*
D03*
X412750D02*
D03*
X438150Y255350D02*
D03*
X412750D02*
D03*
X438150Y280750D02*
D03*
X412750D02*
D03*
X438150Y306150D02*
D03*
X412750D02*
D03*
X438150Y331550D02*
D03*
X412750D02*
D03*
X438150Y356950D02*
D03*
X412750D02*
D03*
X438150Y382350D02*
D03*
X412750D02*
D03*
X438150Y407750D02*
D03*
X412750D02*
D03*
X438150Y433150D02*
D03*
X412750D02*
D03*
X438150Y458550D02*
D03*
X412750D02*
D03*
X438150Y483950D02*
D03*
X412750D02*
D03*
X438150Y509350D02*
D03*
X412750D02*
D03*
X438150Y534750D02*
D03*
X412750D02*
D03*
X438150Y560150D02*
D03*
X412750D02*
D03*
X438150Y585550D02*
D03*
X412750D02*
D03*
X438150Y610950D02*
D03*
X412750D02*
D03*
X438150Y636350D02*
D03*
X412750D02*
D03*
X438150Y661750D02*
D03*
D52*
X412750D02*
D03*
D53*
X742950Y941150D02*
D03*
X412750Y64850D02*
D03*
D54*
X692150Y941150D02*
D03*
X641350D02*
D03*
X590550D02*
D03*
X539750D02*
D03*
X488950D02*
D03*
X438150D02*
D03*
X387350D02*
D03*
X336550D02*
D03*
X285750D02*
D03*
X869950Y64850D02*
D03*
X819150D02*
D03*
X768350D02*
D03*
X717550D02*
D03*
X666750D02*
D03*
X615950D02*
D03*
X565150D02*
D03*
X514350D02*
D03*
X463550D02*
D03*
X82550Y414100D02*
D03*
Y363300D02*
D03*
Y312500D02*
D03*
Y261700D02*
D03*
Y210900D02*
D03*
Y160100D02*
D03*
Y109300D02*
D03*
Y522050D02*
D03*
Y572850D02*
D03*
Y623650D02*
D03*
Y674450D02*
D03*
Y725250D02*
D03*
Y776050D02*
D03*
Y826850D02*
D03*
D55*
Y464900D02*
D03*
Y877650D02*
D03*
D56*
X622000Y693000D02*
D03*
Y663000D02*
D03*
Y583000D02*
D03*
Y553000D02*
D03*
X800000Y583000D02*
D03*
Y553000D02*
D03*
Y663000D02*
D03*
Y693000D02*
D03*
D57*
X950000Y50000D02*
D03*
X50000D02*
D03*
Y950000D02*
D03*
X950000D02*
D03*
D58*
X300100Y650400D02*
D03*
D59*
Y675800D02*
D03*
Y701200D02*
D03*
Y726600D02*
D03*
Y752000D02*
D03*
Y777400D02*
D03*
Y802800D02*
D03*
Y828200D02*
D03*
Y853600D02*
D03*
X223900D02*
D03*
Y828200D02*
D03*
Y802800D02*
D03*
Y777400D02*
D03*
Y752000D02*
D03*
Y726600D02*
D03*
Y701200D02*
D03*
Y675800D02*
D03*
Y650400D02*
D03*
X783600Y213900D02*
D03*
X758200D02*
D03*
X732800D02*
D03*
X707400D02*
D03*
X682000D02*
D03*
X656600D02*
D03*
X631200D02*
D03*
X605800D02*
D03*
X580400D02*
D03*
Y290100D02*
D03*
X605800D02*
D03*
X631200D02*
D03*
X656600D02*
D03*
X682000D02*
D03*
X707400D02*
D03*
X732800D02*
D03*
X758200D02*
D03*
D60*
X480000Y846000D02*
D03*
X620000Y847000D02*
D03*
X760000Y851000D02*
D03*
X899000D02*
D03*
D61*
X480000Y796000D02*
D03*
X620000Y797000D02*
D03*
X760000Y801000D02*
D03*
X899000D02*
D03*
D62*
X783600Y290100D02*
D03*
M02*
